<?xml version="1.0" encoding="UTF-8"?>
<svg version="1.1" xmlns="http://www.w3.org/2000/svg" width="512" height="512">
<path d="M0 0 C4.15757553 1.59906751 6.7122114 3.14688235 9 7 C9.91035504 9.73106511 10.12215713 11.29893239 10.11352539 14.10424805 C10.11344986 14.92487228 10.11337433 15.74549652 10.11329651 16.59098816 C10.10813522 17.47232925 10.10297394 18.35367035 10.09765625 19.26171875 C10.0962413 20.16751175 10.09482635 21.07330475 10.09336853 22.00654602 C10.08777001 24.90023091 10.07521781 27.79383849 10.0625 30.6875 C10.05748481 32.64908742 10.05292193 34.61067606 10.04882812 36.57226562 C10.03780107 41.38154021 10.02053747 46.190757 10 51 C10.688022 51.0612204 11.37604401 51.1224408 12.08491516 51.18551636 C12.98671005 51.26979889 13.88850494 51.35408142 14.81762695 51.44091797 C15.71189896 51.52276337 16.60617096 51.60460876 17.52754211 51.68893433 C24.57813122 52.57598533 30.71428893 56.84758452 35.46484375 61.96875 C40.09655651 68.0972249 43.11929466 74.86257224 43.13142776 82.57162666 C43.13526891 83.48955691 43.13911005 84.40748715 43.1430676 85.35323346 C43.14220112 86.3580803 43.14133463 87.36292713 43.14044189 88.39822388 C43.14341302 89.46856019 43.14638414 90.5388965 43.1494453 91.64166725 C43.15814047 95.24044878 43.15964125 98.83919707 43.16113281 102.43798828 C43.16576045 105.01345389 43.17078504 107.58891881 43.17617798 110.16438293 C43.18975594 117.17079067 43.19578545 124.17719269 43.20018864 131.18361139 C43.20295249 135.56040601 43.20719016 139.93719842 43.21169281 144.31399155 C43.22388577 156.43706944 43.23418439 168.56014556 43.2375679 180.68322945 C43.23789725 181.84696793 43.23789725 181.84696793 43.23823325 183.03421628 C43.23856067 184.20071277 43.23856067 184.20071277 43.2388947 185.39077485 C43.23933816 186.96657125 43.23978473 188.54236766 43.24023438 190.11816406 C43.2404558 190.89981064 43.24067723 191.68145721 43.24090537 192.48679005 C43.24485107 205.14449879 43.26229797 217.80214989 43.2855939 230.45983638 C43.30933005 243.46193627 43.32177082 256.46400728 43.32293582 269.46612918 C43.32385142 276.76359565 43.32957439 284.06098703 43.34775543 291.35843277 C43.36480326 298.22517071 43.36639209 305.09176415 43.35761642 311.95851707 C43.35684596 314.47636356 43.36119001 316.9942177 43.37107468 319.51204491 C43.38379585 322.95482382 43.37791587 326.39709859 43.36749268 329.83987427 C43.37957728 331.32706803 43.37957728 331.32706803 43.39190602 332.84430611 C43.32051402 342.95834052 41.10640916 351.5574769 34 359 C28.19670466 364.20173424 22.146219 367.79092432 14.27734375 368.57421875 C13.47417725 368.65631592 12.67101074 368.73841309 11.84350586 368.82299805 C11.23514893 368.88140869 10.62679199 368.93981934 10 369 C10.02094727 370.205354 10.04189453 371.41070801 10.06347656 372.65258789 C10.1361483 377.14579277 10.18189828 381.6389462 10.21972656 386.13256836 C10.23978028 388.07341258 10.26703045 390.01419685 10.30175781 391.95483398 C10.35055175 394.75259232 10.37303127 397.54954845 10.390625 400.34765625 C10.41127014 401.2083522 10.43191528 402.06904816 10.45318604 402.95582581 C10.45534445 408.81631944 9.40765728 412.19628995 6 417 C2.43767148 419.65103517 -0.23368701 420.21793805 -4.5625 419.9375 C-8.67022589 419.30128656 -11.09653723 418.07943022 -14 415 C-15.71995469 412.11873333 -16.24717613 410.03123823 -16.22705078 406.69042969 C-16.22689972 405.84986023 -16.22674866 405.00929077 -16.22659302 404.14324951 C-16.21627045 403.24519592 -16.20594788 402.34714233 -16.1953125 401.421875 C-16.1924826 400.4953009 -16.18965271 399.56872681 -16.18673706 398.61407471 C-16.17555611 395.65925091 -16.15045527 392.70473195 -16.125 389.75 C-16.11496751 387.74479605 -16.10584213 385.73958734 -16.09765625 383.734375 C-16.07562358 378.82279949 -16.04110795 373.91145141 -16 369 C-16.81694336 368.87447754 -17.63388672 368.74895508 -18.47558594 368.61962891 C-20.08868652 368.36318604 -20.08868652 368.36318604 -21.734375 368.1015625 C-22.79881836 367.93479004 -23.86326172 367.76801758 -24.95996094 367.59619141 C-33.1677386 365.9865389 -38.77355777 361.40847573 -44 355 C-47.04637906 350.07487419 -49.12128487 345.31530997 -49.13422108 339.470541 C-49.13867892 338.53656813 -49.14313676 337.60259526 -49.14772969 336.64032018 C-49.14754533 335.61242364 -49.14736097 334.5845271 -49.14717102 333.52548218 C-49.15084771 332.43487696 -49.1545244 331.34427175 -49.1583125 330.22061789 C-49.16937091 326.54730176 -49.17319685 322.8740139 -49.17700195 319.20068359 C-49.18326499 316.57448232 -49.18991165 313.94828193 -49.19691467 311.32208252 C-49.21667797 303.42704415 -49.22674564 295.5320045 -49.23564246 287.63694757 C-49.24002605 283.91830991 -49.24539272 280.19967368 -49.25063133 276.48103714 C-49.26764435 264.11780531 -49.28213788 251.75457437 -49.28938007 239.39133263 C-49.29128995 236.18292617 -49.29321028 232.97451971 -49.29516602 229.76611328 C-49.29564976 228.96868582 -49.2961335 228.17125836 -49.2966319 227.34966643 C-49.30492978 214.435773 -49.33026227 201.52197226 -49.36274669 188.60811929 C-49.39583171 175.34728348 -49.41383018 162.08649474 -49.41702431 148.82561743 C-49.4191882 141.38114717 -49.42791889 133.93681206 -49.45348549 126.49238205 C-49.47521234 120.15136597 -49.48323326 113.81051784 -49.47351871 107.46946876 C-49.46897948 104.2358572 -49.47302795 101.00266372 -49.49028015 97.76908493 C-49.507964 94.25790471 -49.500909 90.74760047 -49.48774719 87.23641968 C-49.49871644 86.22190747 -49.50968568 85.20739526 -49.52098733 84.16214025 C-49.43317356 74.44407757 -45.86535309 65.96804 -39 59 C-31.89897333 53.6265721 -24.95112839 50.84593583 -16 51 C-16.01571045 49.75387939 -16.0314209 48.50775879 -16.04760742 47.22387695 C-16.10198073 42.59275802 -16.13637711 37.96166722 -16.16479492 33.33032227 C-16.17986465 31.32734428 -16.2003241 29.3243992 -16.22631836 27.3215332 C-16.26278127 24.43953319 -16.27974461 21.55797016 -16.29296875 18.67578125 C-16.30845261 17.78288895 -16.32393646 16.88999664 -16.33988953 15.970047 C-16.34119058 11.14408664 -16.16374898 7.90272003 -13 4 C-8.62835158 0.3238411 -5.68416123 -0.71052015 0 0 Z " fill="#4FB743" transform="translate(442,27)"/>
<path d="M0 0 C4.44145517 2.30614018 6.9786753 4.43286906 9 9 C9.41006638 12.66580381 9.34867542 16.30372437 9.29296875 19.98828125 C9.28872391 21.04661667 9.28447906 22.10495209 9.28010559 23.19535828 C9.26334362 26.56800012 9.22569512 29.94003945 9.1875 33.3125 C9.17244999 35.6022049 9.15876214 37.89191918 9.14648438 40.18164062 C9.11344823 45.7879652 9.06327317 51.39393954 9 57 C9.7565387 57.05909042 10.51307739 57.11818085 11.2925415 57.17906189 C12.28429382 57.26168777 13.27604614 57.34431366 14.29785156 57.42944336 C15.28126526 57.50915878 16.26467896 57.58887421 17.27789307 57.67100525 C24.23793265 58.51219795 30.18959421 62.75913102 34.9375 67.75 C40.81445559 75.36462756 42.59883571 83.08612893 42.50793457 92.55029297 C42.51417453 93.56450254 42.5204145 94.57871212 42.52684355 95.62365532 C42.54270301 98.99674115 42.53019656 102.36909727 42.51757812 105.7421875 C42.52300235 108.17076028 42.53012669 110.59932978 42.53881836 113.02789307 C42.55513122 118.92415501 42.55278941 124.82022983 42.5411678 130.71648645 C42.53211099 135.51118291 42.53091915 140.30582234 42.53526306 145.1005249 C42.53587599 145.78457236 42.53648893 146.46861982 42.53712043 147.17339599 C42.53839941 148.56329935 42.53969627 149.9532027 42.5410108 151.34310603 C42.55239976 164.35695334 42.53932942 177.3706877 42.51780933 190.38451648 C42.49993985 201.53569773 42.50304443 212.68671238 42.52148438 223.83789062 C42.54292094 236.80717012 42.55130128 249.77635078 42.53903532 262.74564552 C42.53776121 264.13025537 42.53650372 265.51486522 42.53526306 266.8994751 C42.53464596 267.58061745 42.53402886 268.26175979 42.53339306 268.96354282 C42.52994849 273.74897387 42.53574914 278.5343419 42.54518127 283.31976318 C42.5576123 289.76803103 42.54868207 296.21605896 42.52560425 302.66429901 C42.5203264 305.02733591 42.52181503 307.39039934 42.53065491 309.7534256 C42.54163007 312.98587301 42.52782194 316.21732271 42.50793457 319.44970703 C42.51685746 320.3787126 42.52578034 321.30771816 42.53497362 322.26487541 C42.41808384 332.0995577 39.02010704 339.89773319 32.2890625 347.01953125 C25.27541047 353.08765681 18.04881586 355.06300307 9 355 C9.00666183 355.60277267 9.01332367 356.20554535 9.02018738 356.82658386 C9.08659636 363.10446841 9.13182377 369.38225303 9.16479492 375.66040039 C9.17987428 378.00288954 9.20034078 380.3453505 9.22631836 382.68774414 C9.26273821 386.05622317 9.27973513 389.42432864 9.29296875 392.79296875 C9.30845261 393.83897751 9.32393646 394.88498627 9.33988953 395.96269226 C9.34198709 405.04045533 9.34198709 405.04045533 6 409 C2.30678335 412.15009655 -1.08785512 412.52741985 -5.78515625 412.34765625 C-9.33943214 411.78975404 -11.3595828 410.38894889 -14 408 C-17.64855687 402.52581157 -17.39138186 397.47023291 -17.29296875 391.1328125 C-17.28872391 390.09808807 -17.28447906 389.06336365 -17.28010559 387.99728394 C-17.26336996 384.70625319 -17.22572649 381.41584434 -17.1875 378.125 C-17.17244658 375.8880297 -17.15875933 373.65104977 -17.14648438 371.4140625 C-17.11348322 365.94249767 -17.06333468 360.47129328 -17 355 C-18.10085937 355.01442139 -19.20171875 355.02884277 -20.3359375 355.04370117 C-27.83796307 354.95422472 -35.59406868 351.20718385 -41 346 C-48.07930013 337.4347147 -50.45957265 328.68188588 -50.38768005 317.72854614 C-50.39306559 316.73223077 -50.39845113 315.73591539 -50.40399987 314.70940864 C-50.41823863 311.39094275 -50.41118567 308.07287805 -50.40405273 304.75439453 C-50.40975844 302.36700115 -50.41672347 299.97961049 -50.42485046 297.59222412 C-50.44091563 291.79244032 -50.44288685 285.99278104 -50.43763756 280.19297971 C-50.43358689 275.47598162 -50.43505004 270.75901547 -50.44038582 266.04201889 C-50.44113424 265.36922611 -50.44188266 264.69643333 -50.44265376 264.00325289 C-50.44418533 262.63622173 -50.44572368 261.26919058 -50.44726873 259.90215944 C-50.46097935 247.09814213 -50.45556635 234.29418601 -50.44408352 221.49017011 C-50.4341539 209.79369973 -50.44708962 198.0973876 -50.47101771 186.40094163 C-50.49544012 174.37160514 -50.5050088 162.34234226 -50.49836498 150.31298149 C-50.49487957 143.56719032 -50.4970598 136.82152078 -50.51461601 130.07574844 C-50.53010489 123.73089322 -50.52610759 117.38633966 -50.50731087 111.04149628 C-50.50363036 108.71757692 -50.50671766 106.39363512 -50.51719666 104.06973648 C-50.5304448 100.88795305 -50.51882441 97.7071627 -50.50120544 94.52542114 C-50.51081045 93.61421009 -50.52041546 92.70299904 -50.53031152 91.76417553 C-50.4225492 82.25207927 -47.63928772 73.7210024 -40.98828125 66.78515625 C-33.721799 60.26102582 -26.89680498 56.86158315 -17 57 C-17.00666183 56.42450409 -17.01332367 55.84900818 -17.02018738 55.256073 C-17.08667725 49.2537801 -17.13185721 43.25159225 -17.16479492 37.24902344 C-17.17985964 35.01037342 -17.20031533 32.77175281 -17.22631836 30.53320312 C-17.26280283 27.31112398 -17.27974983 24.08943589 -17.29296875 20.8671875 C-17.30845261 19.87008759 -17.32393646 18.87298767 -17.33988953 17.84567261 C-17.3411858 12.46521554 -17.06006107 8.63589254 -14 4 C-9.70690049 0.10937857 -5.70430943 -0.48341605 0 0 Z " fill="#50B744" transform="translate(77,27)"/>
<path d="M0 0 C3.73280858 1.49312343 5.97271928 3.64153752 8.16870117 7.01611328 C9.9362032 11.23424001 9.40064535 15.88460968 9.25 20.375 C9.23195313 21.39722656 9.21390625 22.41945312 9.1953125 23.47265625 C9.14839491 25.98274749 9.08276729 28.49087764 9 31 C9.76183594 31.08636719 10.52367187 31.17273438 11.30859375 31.26171875 C22.17441437 32.74033853 28.73163116 36.11123357 36.17578125 44.1328125 C42.91377932 54.72315636 42.56827005 65.46115551 42.50170898 77.55712891 C42.50549728 79.52442307 42.51100151 81.49171456 42.51808167 83.45899963 C42.53198503 88.77501327 42.5209033 94.0907014 42.50437045 99.4066968 C42.49046949 104.98250839 42.49698562 110.55830206 42.50050354 116.13412476 C42.50320123 125.49344092 42.48976648 134.8526285 42.46655273 144.21191406 C42.4399303 155.02007329 42.43820253 165.82801784 42.4499411 176.63619864 C42.46073267 187.05277532 42.45452196 197.46927464 42.44038582 207.88584518 C42.43463957 212.3106711 42.43469795 216.73544015 42.43945122 221.16026688 C42.44423542 226.3724601 42.43405951 231.5844192 42.41249657 236.79656792 C42.40694877 238.70528181 42.40644489 240.61401829 42.41144943 242.52273369 C42.41743975 245.1357434 42.40482607 247.74804621 42.38768005 250.36099243 C42.3936901 251.10935415 42.39970014 251.85771587 42.40589231 252.62875521 C42.29057857 262.34712455 38.75733379 270.07340737 32 277 C24.60735707 283.01696851 18.4017476 285.09623078 9 285 C9.01571045 285.63502441 9.0314209 286.27004883 9.04760742 286.92431641 C9.1102859 289.8244523 9.14909417 292.72444524 9.1875 295.625 C9.21263672 296.62402344 9.23777344 297.62304688 9.26367188 298.65234375 C9.31868493 304.19032427 9.22050145 308.26039409 6 313 C2.12013072 316.42872169 -0.96663654 317.66819797 -6.04296875 317.38671875 C-10.35935096 316.53378095 -13.14078074 314.19771884 -15.6496582 310.70043945 C-17.16232925 307.67537085 -17.34925156 305.83867641 -17.29296875 302.48046875 C-17.2784668 300.9480957 -17.2784668 300.9480957 -17.26367188 299.38476562 C-17.23853516 298.32966797 -17.21339844 297.27457031 -17.1875 296.1875 C-17.17396484 295.11306641 -17.16042969 294.03863281 -17.14648438 292.93164062 C-17.11122577 290.28724545 -17.06194366 287.64388252 -17 285 C-18.21816406 285.0309375 -19.43632812 285.061875 -20.69140625 285.09375 C-29.27786302 285.07863632 -35.8818913 281.08299015 -42.01953125 275.29296875 C-47.96420656 268.41027761 -50.14929196 260.90758247 -50.14717102 251.99986267 C-50.15084771 251.17539393 -50.1545244 250.35092518 -50.1583125 249.50147253 C-50.16935734 246.72875864 -50.17319458 243.95608222 -50.17700195 241.18334961 C-50.18326612 239.1991565 -50.18991287 237.21496457 -50.19691467 235.23077393 C-50.21796707 228.70463886 -50.22831971 222.17850353 -50.23828125 215.65234375 C-50.24232868 213.40549774 -50.2464456 211.15865186 -50.25063133 208.91180611 C-50.26968737 198.35374806 -50.28391626 187.79569701 -50.2922433 177.23762506 C-50.30201087 165.05425385 -50.32831625 152.87106456 -50.36874419 140.68775743 C-50.39892335 131.26935801 -50.41371399 121.85101067 -50.41702431 112.43256384 C-50.41937319 106.80841955 -50.42831238 101.1844695 -50.45348549 95.56037712 C-50.47680184 90.26538679 -50.48098499 84.9707181 -50.47072411 79.6756897 C-50.47022947 77.73674511 -50.47652859 75.79778451 -50.49028015 73.85888863 C-50.57686812 60.92200865 -50.18896025 50.6217368 -40.859375 40.75390625 C-34.95263212 35.18220971 -29.46496955 32.31210206 -21.3046875 31.453125 C-20.49757324 31.36708008 -19.69045898 31.28103516 -18.85888672 31.19238281 C-18.2454541 31.12889648 -17.63202148 31.06541016 -17 31 C-17.01571045 30.35973877 -17.0314209 29.71947754 -17.04760742 29.05981445 C-17.11017115 26.14413369 -17.14905808 23.22859445 -17.1875 20.3125 C-17.21263672 19.30509766 -17.23777344 18.29769531 -17.26367188 17.25976562 C-17.33181408 10.37740314 -16.60888231 6.83907781 -11.875 1.6875 C-7.86251235 -0.6676558 -4.54655226 -0.67080279 0 0 Z " fill="#F77979" transform="translate(321,168)"/>
<path d="M0 0 C3.20824247 1.49717982 5.72932114 3.27518536 8 6 C9.13917218 9.41751653 9.11338481 12.03487937 9.09765625 15.63671875 C9.09443359 16.93544922 9.09121094 18.23417969 9.08789062 19.57226562 C9.07953531 20.94401108 9.07107037 22.31575587 9.0625 23.6875 C9.05748335 25.07096195 9.05292073 26.45442563 9.04882812 27.83789062 C9.03702529 31.22530395 9.02056019 34.61263033 9 38 C9.66241699 38.04825928 10.32483398 38.09651855 11.00732422 38.14624023 C21.2102276 39.00471584 28.24516138 42.33030883 35.30859375 49.87890625 C40.02890231 55.79836941 42.11303524 61.82459167 42.14717102 69.34902954 C42.15432632 70.43391663 42.16148163 71.51880371 42.16885376 72.63656616 C42.17154266 73.82207062 42.17423157 75.00757507 42.17700195 76.22900391 C42.18357315 77.48148926 42.19014435 78.73397461 42.19691467 80.02441406 C42.21664722 84.17513265 42.22831521 88.3258126 42.23828125 92.4765625 C42.24233082 93.90897007 42.24644781 95.34137745 42.25063133 96.77378464 C42.26967617 103.50672062 42.28390692 110.23964571 42.2922433 116.97260344 C42.30200401 124.72660187 42.32829572 132.48031395 42.36874419 140.23421156 C42.39898373 146.23864748 42.41371969 152.24300169 42.41702431 158.24751222 C42.41936648 161.82830109 42.4282168 165.40878382 42.45348549 168.98949051 C42.48127038 172.99138406 42.47691128 176.99264479 42.4699707 180.99462891 C42.48278076 182.16798798 42.49559082 183.34134705 42.50878906 184.55026245 C42.44148257 195.23008048 39.65737045 203.21298911 32.29296875 211.01953125 C26.95602875 215.62911998 19.94976616 219.17950436 12.8125 219.0625 C11.554375 219.041875 10.29625 219.02125 9 219 C9.02094727 219.87736816 9.04189453 220.75473633 9.06347656 221.65869141 C9.131926 224.93516683 9.18193051 228.21087512 9.21972656 231.48779297 C9.23975843 232.90197795 9.26699248 234.31608097 9.30175781 235.72998047 C9.35065489 237.77071419 9.37305123 239.8103469 9.390625 241.8515625 C9.41157227 243.07697754 9.43251953 244.30239258 9.45410156 245.56494141 C8.91022089 249.67913551 7.57622167 251.78588472 5 255 C0.65682216 258.13112821 -2.76000726 258.37627412 -7.8828125 257.57421875 C-11.02893309 256.72093512 -12.81051382 255.38853038 -15 253 C-17.0317858 248.97240886 -17.23477362 245.64680537 -17.1953125 241.16796875 C-17.18886719 239.87568359 -17.18242187 238.58339844 -17.17578125 237.25195312 C-17.15907327 235.8971327 -17.14214342 234.54231499 -17.125 233.1875 C-17.11496003 231.81315749 -17.10583596 230.43880797 -17.09765625 229.06445312 C-17.07411242 225.70945683 -17.04122567 222.35481801 -17 219 C-18.216875 219.03222656 -19.43375 219.06445312 -20.6875 219.09765625 C-28.85190664 219.08507904 -35.39501014 215.4538086 -41.24609375 209.921875 C-49.34894488 201.04302699 -50.29975359 192.16950909 -50.30639648 180.55395508 C-50.31472 179.3139978 -50.32304352 178.07404053 -50.33161926 176.79650879 C-50.35153196 173.40979266 -50.36235019 170.02332186 -50.36744571 166.63656831 C-50.3711017 164.51491574 -50.37734822 162.39328636 -50.3844471 160.27164268 C-50.4089104 152.85320382 -50.42198615 145.43483454 -50.42553711 138.01635742 C-50.42916715 131.12880421 -50.45903194 124.24169801 -50.50094169 117.35428125 C-50.53577413 111.41937917 -50.55108779 105.48462428 -50.55178314 99.54962081 C-50.55257175 96.01458568 -50.56111552 92.48000631 -50.58978081 88.9450779 C-50.62110486 84.99421987 -50.61184008 81.04399076 -50.59936523 77.09301758 C-50.61419952 75.94091293 -50.62903381 74.78880829 -50.64431763 73.60179138 C-50.55581349 63.70493808 -48.05416541 55.01054665 -41.3125 47.5625 C-33.85683603 40.84820599 -26.81116616 38.71477603 -17 38 C-17.02094727 37.1529248 -17.04189453 36.30584961 -17.06347656 35.43310547 C-17.13194055 32.26859607 -17.18193987 29.10446609 -17.21972656 25.93945312 C-17.23975319 24.57376632 -17.26698332 23.20816431 -17.30175781 21.84277344 C-17.35066432 19.87212898 -17.37091347 17.90084017 -17.390625 15.9296875 C-17.41157227 14.74616699 -17.43251953 13.56264648 -17.45410156 12.34326172 C-16.78408403 7.41034766 -14.53466068 4.2788839 -10.75 1.125 C-7.06235667 -0.38358136 -3.93118436 -0.59805036 0 0 Z " fill="#F77979" transform="translate(199,120)"/>
<path d="M0 0 C8.58 0 17.16 0 26 0 C26.06889728 6.88717588 26.12862494 13.77315438 26.16479492 20.66040039 C26.17987428 23.00288954 26.20034078 25.3453505 26.22631836 27.68774414 C26.26273821 31.05622317 26.27973513 34.42432864 26.29296875 37.79296875 C26.30845261 38.83897751 26.32393646 39.88498627 26.33988953 40.96269226 C26.34198709 50.04045533 26.34198709 50.04045533 23 54 C19.30678335 57.15009655 15.91214488 57.52741985 11.21484375 57.34765625 C7.66056786 56.78975404 5.6404172 55.38894889 3 53 C-0.64855687 47.52581157 -0.39138186 42.47023291 -0.29296875 36.1328125 C-0.28872391 35.09808807 -0.28447906 34.06336365 -0.28010559 32.99728394 C-0.26336996 29.70625319 -0.22572649 26.41584434 -0.1875 23.125 C-0.17244658 20.8880297 -0.15875933 18.65104977 -0.14648438 16.4140625 C-0.11604047 10.94227845 -0.05730778 5.47183187 0 0 Z " fill="#88E37C" transform="translate(60,382)"/>
<path d="M0 0 C4.44145517 2.30614018 6.9786753 4.43286906 9 9 C9.41006638 12.66580381 9.34867542 16.30372437 9.29296875 19.98828125 C9.28872391 21.04661667 9.28447906 22.10495209 9.28010559 23.19535828 C9.26334362 26.56800012 9.22569512 29.94003945 9.1875 33.3125 C9.17244999 35.6022049 9.15876214 37.89191918 9.14648438 40.18164062 C9.11600302 45.78817801 9.05727497 51.39341639 9 57 C0.42 57 -8.16 57 -17 57 C-17.06895634 50.41594625 -17.12866604 43.83315088 -17.16479492 37.24902344 C-17.17985964 35.01037342 -17.20031533 32.77175281 -17.22631836 30.53320312 C-17.26280283 27.31112398 -17.27974983 24.08943589 -17.29296875 20.8671875 C-17.30845261 19.87008759 -17.32393646 18.87298767 -17.33988953 17.84567261 C-17.3411858 12.46521554 -17.06006107 8.63589254 -14 4 C-9.70690049 0.10937857 -5.70430943 -0.48341605 0 0 Z " fill="#87E37C" transform="translate(77,27)"/>
<path d="M0 0 C4.15757553 1.59906751 6.7122114 3.14688235 9 7 C9.91861784 9.75585352 10.12204322 11.3596069 10.11352539 14.19604492 C10.11344986 15.03668991 10.11337433 15.8773349 10.11329651 16.74345398 C10.10813522 17.64666885 10.10297394 18.54988373 10.09765625 19.48046875 C10.0962413 20.40845779 10.09482635 21.33644684 10.09336853 22.29255676 C10.08776937 25.25757058 10.07521704 28.22250899 10.0625 31.1875 C10.05748489 33.19726453 10.052922 35.20703025 10.04882812 37.21679688 C10.03865095 42.1445837 10.01907533 47.0722074 10 52 C1.42 52 -7.16 52 -16 52 C-16.06893099 45.96726199 -16.12864717 39.93589445 -16.16479492 33.90307617 C-16.17986622 31.85159674 -16.20032682 29.80014944 -16.22631836 27.7487793 C-16.26277424 24.79728252 -16.27974306 21.84621237 -16.29296875 18.89453125 C-16.30845261 17.97976517 -16.32393646 17.06499908 -16.33988953 16.12251282 C-16.34117218 11.25149193 -16.20885126 7.93182586 -13 4 C-8.62835158 0.3238411 -5.68416123 -0.71052015 0 0 Z " fill="#7DDE71" transform="translate(442,27)"/>
<path d="M0 0 C8.58 0 17.16 0 26 0 C26.0920692 5.85406659 26.17163476 11.70559944 26.21972656 17.55981445 C26.23978337 19.54915908 26.26703585 21.53844518 26.30175781 23.52758789 C26.35053771 26.39484131 26.37302827 29.26131211 26.390625 32.12890625 C26.41127014 33.01147598 26.43191528 33.89404572 26.45318604 34.80335999 C26.4553151 40.72526107 25.45512761 44.1514092 22 49 C18.43767148 51.65103517 15.76631299 52.21793805 11.4375 51.9375 C7.32977411 51.30128656 4.90346277 50.07943022 2 47 C0.25676842 44.0887121 -0.24691809 41.9760749 -0.22705078 38.59863281 C-0.22689972 37.7380426 -0.22674866 36.87745239 -0.22659302 35.99078369 C-0.21627045 35.07085632 -0.20594788 34.15092896 -0.1953125 33.203125 C-0.1924826 32.25435486 -0.18965271 31.30558472 -0.18673706 30.32806396 C-0.17555448 27.30191361 -0.1504533 24.2760607 -0.125 21.25 C-0.11496772 19.19661886 -0.1058423 17.14323308 -0.09765625 15.08984375 C-0.07732418 10.05968942 -0.03817166 5.03017714 0 0 Z " fill="#88E37C" transform="translate(426,395)"/>
<path d="M0 0 C3.20824247 1.49717982 5.72932114 3.27518536 8 6 C9.15927528 9.47782583 9.11313066 12.18803257 9.09765625 15.85546875 C9.0962413 16.51710526 9.09482635 17.17874176 9.09336853 17.86042786 C9.08777996 19.96949828 9.07522965 22.07846177 9.0625 24.1875 C9.05748352 25.61913909 9.05292087 27.05077985 9.04882812 28.48242188 C9.038666 31.98835539 9.01908861 35.49405827 9 39 C0.42 39 -8.16 39 -17 39 C-17.09218573 34.83627802 -17.17169966 30.67613916 -17.21972656 26.51220703 C-17.23975843 25.09802205 -17.26699248 23.68391903 -17.30175781 22.27001953 C-17.35065489 20.22928581 -17.37305123 18.1896531 -17.390625 16.1484375 C-17.41157227 14.92302246 -17.43251953 13.69760742 -17.45410156 12.43505859 C-16.79390925 7.44102324 -14.58121847 4.31768206 -10.75 1.125 C-7.06235667 -0.38358136 -3.93118436 -0.59805036 0 0 Z " fill="#EB5050" transform="translate(199,120)"/>
<path d="M0 0 C8.58 0 17.16 0 26 0 C26.09218573 4.16372198 26.17169966 8.32386084 26.21972656 12.48779297 C26.23975843 13.90197795 26.26699248 15.31608097 26.30175781 16.72998047 C26.35065489 18.77071419 26.37305123 20.8103469 26.390625 22.8515625 C26.41157227 24.07697754 26.43251953 25.30239258 26.45410156 26.56494141 C25.91022089 30.67913551 24.57622167 32.78588472 22 36 C17.65682216 39.13112821 14.23999274 39.37627412 9.1171875 38.57421875 C5.97106691 37.72093512 4.18948618 36.38853038 2 34 C-0.0317858 29.97240886 -0.23477362 26.64680537 -0.1953125 22.16796875 C-0.18886719 20.87568359 -0.18242187 19.58339844 -0.17578125 18.25195312 C-0.15907327 16.8971327 -0.14214342 15.54231499 -0.125 14.1875 C-0.11496003 12.81315749 -0.10583596 11.43880797 -0.09765625 10.06445312 C-0.07411314 6.7095601 -0.03824296 3.35475766 0 0 Z " fill="#EB4F4F" transform="translate(182,339)"/>
<path d="M0 0 C3.71268253 1.48507301 5.98299557 3.62607915 8.16870117 6.98486328 C9.97220756 11.35671108 9.39754772 16.23116411 9.25 20.875 C9.1675 24.54625 9.085 28.2175 9 32 C0.42 32 -8.16 32 -17 32 C-17.0928125 26.4621875 -17.0928125 26.4621875 -17.1875 20.8125 C-17.21481201 19.6572583 -17.24212402 18.5020166 -17.27026367 17.31176758 C-17.27775635 16.39032959 -17.28524902 15.4688916 -17.29296875 14.51953125 C-17.31653442 13.11344604 -17.31653442 13.11344604 -17.34057617 11.67895508 C-16.79898781 7.41884819 -14.72761502 4.79181634 -11.875 1.6875 C-7.86251235 -0.6676558 -4.54655226 -0.67080279 0 0 Z " fill="#EC5050" transform="translate(321,168)"/>
<path d="M0 0 C8.58 0 17.16 0 26 0 C26.061875 3.50625 26.12375 7.0125 26.1875 10.625 C26.21481201 11.71893066 26.24212402 12.81286133 26.27026367 13.93994141 C26.31661566 19.3735907 26.15806356 23.35228381 23 28 C19.12013072 31.42872169 16.03336346 32.66819797 10.95703125 32.38671875 C6.64064904 31.53378095 3.85921926 29.19771884 1.3503418 25.70043945 C-0.16232925 22.67537085 -0.34925156 20.83867641 -0.29296875 17.48046875 C-0.28547607 16.55903076 -0.2779834 15.63759277 -0.27026367 14.68823242 C-0.24295166 13.53299072 -0.21563965 12.37774902 -0.1875 11.1875 C-0.125625 7.495625 -0.06375 3.80375 0 0 Z " fill="#EC5050" transform="translate(304,453)"/>
</svg>
