<?xml version="1.0" encoding="UTF-8"?>
<svg version="1.1" xmlns="http://www.w3.org/2000/svg" width="512" height="512">
<path d="M0 0 C5.24666015 3.96981808 9.97178883 8.39140914 14.6484375 13.00390625 C15.45410156 13.79667969 16.25976562 14.58945312 17.08984375 15.40625 C30.93002952 29.87225287 41.61044184 51.73643683 41.65283203 72.11669922 C41.6320459 72.82068848 41.61125977 73.52467773 41.58984375 74.25 C41.26071568 82.07805939 41.26071568 82.07805939 45.140625 88.62109375 C47.98597347 90.53846286 50.84170668 92.2527069 53.83447266 93.91894531 C56.83400991 95.71301578 59.4439977 97.91405414 62.0859375 100.19140625 C62.61864258 100.64990967 63.15134766 101.10841309 63.70019531 101.58081055 C74.71275653 111.21103501 84.27585109 121.54297294 93.00390625 133.2890625 C93.48102051 133.9286792 93.95813477 134.5682959 94.44970703 135.22729492 C95.6484375 137.00390625 95.6484375 137.00390625 96.83984375 139.93359375 C99.10767975 142.52960472 100.07895709 142.43371639 103.4453125 142.7890625 C105.42874446 142.89991567 107.41333185 142.99126428 109.3984375 143.06640625 C134.23323778 144.631228 154.64050898 153.74892247 172.6484375 171.00390625 C173.28523438 171.58914062 173.92203125 172.174375 174.578125 172.77734375 C189.0231271 186.45194574 199.64257014 209.05955029 200.82543945 228.9855957 C201.40102568 258.40011577 196.71525833 283.50875595 175.8984375 305.65844727 C174.49352071 307.11833285 173.07117432 308.56138172 171.6484375 310.00390625 C170.85566406 310.80957031 170.06289063 311.61523438 169.24609375 312.4453125 C154.78009088 326.28549827 132.91590692 336.96591059 112.53564453 337.00830078 C111.83165527 336.98751465 111.12766602 336.96672852 110.40234375 336.9453125 C102.57428436 336.61618443 102.57428436 336.61618443 96.03125 340.49609375 C94.11388089 343.34144222 92.39963685 346.19717543 90.73339844 349.18994141 C88.93932797 352.18947866 86.73828961 354.79946645 84.4609375 357.44140625 C83.77318237 358.24046387 83.77318237 358.24046387 83.0715332 359.05566406 C73.44130874 370.06822528 63.10937081 379.63131984 51.36328125 388.359375 C50.72366455 388.83648926 50.08404785 389.31360352 49.42504883 389.80517578 C47.6484375 391.00390625 47.6484375 391.00390625 44.71875 392.1953125 C42.12273903 394.4631485 42.21862736 395.43442584 41.86328125 398.80078125 C41.75242808 400.78421321 41.66107947 402.7688006 41.5859375 404.75390625 C40.02111575 429.58870653 30.90342128 449.99597773 13.6484375 468.00390625 C13.06320312 468.64070313 12.47796875 469.2775 11.875 469.93359375 C-1.79960199 484.37859585 -24.40720654 494.99803889 -44.33325195 496.1809082 C-73.74777202 496.75649443 -98.8564122 492.07072708 -121.00610352 471.25390625 C-122.4659891 469.84898946 -123.90903797 468.42664307 -125.3515625 467.00390625 C-126.15722656 466.21113281 -126.96289062 465.41835938 -127.79296875 464.6015625 C-141.63315452 450.13555963 -152.31356684 428.27137567 -152.35595703 407.89111328 C-152.32477783 406.83512939 -152.32477783 406.83512939 -152.29296875 405.7578125 C-151.96384068 397.92975311 -151.96384068 397.92975311 -155.84375 391.38671875 C-158.68909847 389.46934964 -161.54483168 387.7551056 -164.53759766 386.08886719 C-167.53713491 384.29479672 -170.1471227 382.09375836 -172.7890625 379.81640625 C-173.32176758 379.35790283 -173.85447266 378.89939941 -174.40332031 378.42700195 C-185.41588153 368.79677749 -194.97897609 358.46483956 -203.70703125 346.71875 C-204.18414551 346.0791333 -204.66125977 345.4395166 -205.15283203 344.78051758 C-206.3515625 343.00390625 -206.3515625 343.00390625 -207.54296875 340.07421875 C-209.81080475 337.47820778 -210.78208209 337.57409611 -214.1484375 337.21875 C-216.13186946 337.10789683 -218.11645685 337.01654822 -220.1015625 336.94140625 C-244.93636278 335.3765845 -265.34363398 326.25889003 -283.3515625 309.00390625 C-283.98835938 308.41867187 -284.62515625 307.8334375 -285.28125 307.23046875 C-299.7262521 293.55586676 -310.34569514 270.94826221 -311.52856445 251.0222168 C-312.10415068 221.60769673 -307.41838333 196.49905655 -286.6015625 174.34936523 C-285.19664571 172.88947965 -283.77429932 171.44643078 -282.3515625 170.00390625 C-281.55878906 169.19824219 -280.76601563 168.39257812 -279.94921875 167.5625 C-265.48321588 153.72231423 -243.61903192 143.04190191 -223.23876953 142.99951172 C-222.18278564 143.03069092 -222.18278564 143.03069092 -221.10546875 143.0625 C-213.27740936 143.39162807 -213.27740936 143.39162807 -206.734375 139.51171875 C-204.81700589 136.66637028 -203.10276185 133.81063707 -201.43652344 130.81787109 C-199.64245297 127.81833384 -197.44141461 125.20834605 -195.1640625 122.56640625 C-194.70555908 122.03370117 -194.24705566 121.50099609 -193.7746582 120.95214844 C-184.14443374 109.93958722 -173.81249581 100.37649266 -162.06640625 91.6484375 C-161.42678955 91.17132324 -160.78717285 90.69420898 -160.12817383 90.20263672 C-158.3515625 89.00390625 -158.3515625 89.00390625 -155.421875 87.8125 C-152.82586403 85.544664 -152.92175236 84.57338666 -152.56640625 81.20703125 C-152.45555308 79.22359929 -152.36420447 77.2390119 -152.2890625 75.25390625 C-150.72424075 50.41910597 -141.60654628 30.01183477 -124.3515625 12.00390625 C-123.76632813 11.36710937 -123.18109375 10.7303125 -122.578125 10.07421875 C-91.47176617 -22.784611 -36.34340321 -24.3926445 0 0 Z M-174.7265625 124.00390625 C-185.44683581 133.84054773 -185.44683581 133.84054773 -191.3515625 146.00390625 C-190.15402344 146.40480469 -188.95648438 146.80570313 -187.72265625 147.21875 C-170.98342424 152.9903031 -157.8232656 160.40622635 -145.3515625 173.00390625 C-144.55105469 173.7825 -143.75054687 174.56109375 -142.92578125 175.36328125 C-126.07223536 192.71166354 -118.09409193 218.19061735 -118.3515625 242.00390625 C-119.20183776 264.82896017 -126.71056277 287.0189815 -142.3515625 304.00390625 C-143.14949219 304.89335937 -143.94742188 305.7828125 -144.76953125 306.69921875 C-157.83114397 320.55185971 -173.43690999 328.19072728 -191.3515625 334.00390625 C-189.87261011 338.63968683 -187.19961652 341.90652769 -184.0390625 345.50390625 C-183.50853271 346.11266602 -182.97800293 346.72142578 -182.43139648 347.34863281 C-173.05678719 357.98317421 -163.17809526 368.07780336 -151.3515625 376.00390625 C-150.6915625 376.00390625 -150.0315625 376.00390625 -149.3515625 376.00390625 C-148.95066406 374.80636719 -148.54976562 373.60882813 -148.13671875 372.375 C-142.36755279 355.64269143 -134.95511852 342.463832 -122.3515625 330.00390625 C-121.54976563 329.19179688 -120.74796875 328.3796875 -119.921875 327.54296875 C-106.04486595 314.21194038 -85.91705382 305.08177223 -66.6640625 304.41015625 C-65.9009375 304.60609375 -65.1378125 304.80203125 -64.3515625 305.00390625 C-63.71541016 306.22207031 -63.71541016 306.22207031 -63.06640625 307.46484375 C-61.47905689 310.43875631 -61.47905689 310.43875631 -57.48046875 310.88671875 C-55.9598881 310.99277494 -54.43729809 311.07263222 -52.9140625 311.12890625 C-52.15029297 311.1959375 -51.38652344 311.26296875 -50.59960938 311.33203125 C-48.39511854 311.44714826 -46.51186015 311.46482266 -44.3515625 311.00390625 C-42.02206155 308.62916054 -42.02206155 308.62916054 -40.3515625 306.00390625 C-26.2809558 303.69724941 -9.88157625 313.14926953 1.42578125 320.91015625 C3.93839674 322.84721211 6.30033519 324.87066298 8.6484375 327.00390625 C9.54046875 327.803125 10.4325 328.60234375 11.3515625 329.42578125 C25.19493353 342.4957796 32.83494407 358.08828466 38.6484375 376.00390625 C43.65438708 374.47166693 46.93911956 371.47604948 50.7734375 368.06640625 C51.43504883 367.4830249 52.09666016 366.89964355 52.77832031 366.29858398 C61.12199653 358.88030098 68.88907822 351.20346327 75.8359375 342.44140625 C76.31836914 341.83304932 76.80080078 341.22469238 77.29785156 340.59790039 C79.82899493 337.64291211 79.82899493 337.64291211 80.6484375 334.00390625 C79.45089844 333.60300781 78.25335938 333.20210937 77.01953125 332.7890625 C59.69389229 326.81649297 46.53354785 319.05075439 33.6484375 306.00390625 C32.61783203 304.97136719 32.61783203 304.97136719 31.56640625 303.91796875 C20.85354933 292.45545367 10.26015517 273.89499498 9.5546875 257.875 C9.7109375 256.00390625 9.7109375 256.00390625 10.6484375 253.00390625 C11.31617188 252.62105469 11.98390625 252.23820313 12.671875 251.84375 C15.060562 250.004953 15.060562 250.004953 15.21484375 246.1328125 C15.23474792 244.61080667 15.23266183 243.08838719 15.2109375 241.56640625 C15.23478516 240.80263672 15.25863281 240.03886719 15.28320312 239.25195312 C15.27744834 237.0478723 15.19342516 235.14096433 14.6484375 233.00390625 C12.25093298 230.67478925 12.25093298 230.67478925 9.6484375 229.00390625 C7.20439355 214.58404694 16.17774429 197.85235048 23.6484375 186.00390625 C26.14672958 182.49838021 28.81102707 179.23624532 31.6484375 176.00390625 C32.28265625 175.18019531 32.916875 174.35648437 33.5703125 173.5078125 C45.45021619 159.19386839 63.43217089 151.62876282 80.6484375 146.00390625 C79.11619818 140.99795667 76.12058073 137.71322419 72.7109375 133.87890625 C71.83586548 132.88648926 71.83586548 132.88648926 70.94311523 131.87402344 C63.52483223 123.53034722 55.84799452 115.76326553 47.0859375 108.81640625 C46.47758057 108.33397461 45.86922363 107.85154297 45.24243164 107.35449219 C42.28744336 104.82334882 42.28744336 104.82334882 38.6484375 104.00390625 C38.24753906 105.20144531 37.84664062 106.39898437 37.43359375 107.6328125 C31.66204065 124.37204451 24.2461174 137.53220315 11.6484375 150.00390625 C10.86984375 150.80441406 10.09125 151.60492188 9.2890625 152.4296875 C-7.70718522 168.94114292 -32.96621759 177.26239901 -56.3515625 177.00390625 C-74.88151324 176.33410067 -91.34073947 171.33840153 -107.3515625 162.00390625 C-108.3515625 160.00390625 -108.3515625 160.00390625 -107.7890625 156.37890625 C-107.71181107 153.11651894 -108.14605725 152.2209784 -110.43359375 149.8046875 C-113.01220187 147.76218824 -115.63603896 145.859514 -118.3515625 144.00390625 C-119.38603516 143.13572266 -119.38603516 143.13572266 -120.44140625 142.25 C-122.50803333 140.61784838 -122.50803333 140.61784838 -126.1640625 141.37890625 C-128.89144777 141.44948554 -129.98773129 141.29402003 -132.14453125 139.57421875 C-140.41257113 129.54661889 -145.79276359 116.36604984 -149.3515625 104.00390625 C-157.11384084 104.00390625 -169.30778253 118.63346778 -174.7265625 124.00390625 Z " fill="#010100" transform="translate(311.3515625,15.99609375)"/>
<path d="M0 0 C5.76361849 3.86475193 10.90554973 8.22649543 15.8125 13.125 C16.50988281 13.81078125 17.20726562 14.4965625 17.92578125 15.203125 C33.18188872 31.19982021 39.6244615 52.48663616 39.12890625 74.19921875 C38.02649207 97.68202446 26.32680468 117.48982652 9.5 133.3125 C-8.78721837 148.88008077 -30.49970951 152.99011218 -53.98339844 151.44384766 C-60.91943088 150.75362681 -66.82326561 148.99216361 -73.1875 146.125 C-73.79577637 145.86267578 -74.40405273 145.60035156 -75.03076172 145.33007812 C-83.32847179 141.71917794 -90.47126583 137.20159282 -97.1875 131.125 C-97.94546875 130.45984375 -98.7034375 129.7946875 -99.484375 129.109375 C-111.94961606 117.50380573 -118.35213283 102.54436077 -123.29296875 86.5234375 C-124.05055466 83.98499319 -124.05055466 83.98499319 -126.1875 82.125 C-128.1675 81.465 -130.1475 80.805 -132.1875 80.125 C-132.1875 74.185 -132.1875 68.245 -132.1875 62.125 C-128.7225 61.135 -128.7225 61.135 -125.1875 60.125 C-123.82296756 58.32631931 -123.82296756 58.32631931 -123.4375 56.046875 C-123.22561035 55.2223584 -123.0137207 54.3978418 -122.79541016 53.54833984 C-122.5947998 52.6661377 -122.39418945 51.78393555 -122.1875 50.875 C-118.67445186 37.56727873 -113.55992215 26.42309348 -104.1875 16.125 C-103.36378906 15.20847656 -102.54007812 14.29195312 -101.69140625 13.34765625 C-75.19962831 -14.68210589 -32.87780535 -19.01643097 0 0 Z " fill="#7DC7F9" transform="translate(458.1875,185.875)"/>
<path d="M0 0 C4.25264913 3.40741855 8.14684563 7.15245429 12 11 C12.66902344 11.65742187 13.33804688 12.31484375 14.02734375 12.9921875 C22.07953785 21.50085519 27.7312493 32.83446543 31 44 C31.35707031 45.15242188 31.71414063 46.30484375 32.08203125 47.4921875 C33.50889281 53.33820395 33.32902909 59.26646882 33.3125 65.25 C33.32861328 66.40113281 33.34472656 67.55226563 33.36132812 68.73828125 C33.37342262 90.1939101 24.40940721 109.29445119 9.8125 124.75 C-7.04601465 140.9021523 -28.53187532 148.45390991 -51.6484375 148.1484375 C-65.6075572 147.77676299 -77.63171972 143.67926557 -89.78125 136.91796875 C-92.38632384 135.84016531 -94.20609681 135.68801414 -97 136 C-97.99 136.99 -97.99 136.99 -99 138 C-103.68956606 137.8162521 -106.00160447 135.57181443 -109.3125 132.4375 C-110.19550781 131.61121094 -111.07851562 130.78492188 -111.98828125 129.93359375 C-112.98408203 128.97646484 -112.98408203 128.97646484 -114 128 C-113.835 127.484375 -113.67 126.96875 -113.5 126.4375 C-112.49385187 121.53252786 -112.40518043 118.13940993 -114.7578125 113.6328125 C-115.53688139 112.45685945 -116.32649676 111.28784414 -117.125 110.125 C-120.66672767 104.61937595 -123.35555136 99.1885769 -125.5 93 C-125.74250488 92.30664551 -125.98500977 91.61329102 -126.23486328 90.89892578 C-131.91130591 73.78703145 -131.20491346 52.48396867 -124 36 C-123.73767578 35.38737305 -123.47535156 34.77474609 -123.20507812 34.14355469 C-119.59424726 25.85249821 -115.07207816 18.71124428 -109 12 C-108.33484375 11.24203125 -107.6696875 10.4840625 -106.984375 9.703125 C-79.24385782 -20.0922453 -32.68417054 -22.95778199 0 0 Z " fill="#FCD201" transform="translate(304,30)"/>
<path d="M0 0 C2.62506802 -0.02690844 5.24986173 -0.04679404 7.875 -0.0625 C8.62136719 -0.07087891 9.36773437 -0.07925781 10.13671875 -0.08789062 C15.7734375 -0.11328125 15.7734375 -0.11328125 18 1 C18.67939174 2.99571323 19.34561559 4.99594773 20 7 C22.48032386 9.48032386 24.24373787 9.72724554 27.625 10.625 C40.07121285 14.34645899 51.39184797 20.18409911 61 29 C61.75539063 29.66386719 62.51078125 30.32773437 63.2890625 31.01171875 C75.69502149 42.54371843 86.03149846 60.85499425 87.20336914 77.97021484 C87.30473162 81.39926433 87.32197645 84.81952362 87.3125 88.25 C87.32861328 89.40113281 87.34472656 90.55226563 87.36132812 91.73828125 C87.37479464 115.62787368 76.42484814 134.24180453 60.140625 150.90234375 C43.97579688 166.13458563 22.33653227 171.7363818 0.67578125 171.2421875 C-20.93613082 170.35828261 -40.71621703 159.45846669 -55.4375 143.98828125 C-72.59889301 123.97537629 -76.73464565 100.77569058 -75 75 C-72.86957451 59.89112035 -65.05596772 46.24440026 -55 35 C-54.24976563 34.15566406 -53.49953125 33.31132812 -52.7265625 32.44140625 C-43.06218516 22.16714102 -30.18758523 14.20789857 -16.41796875 10.83203125 C-15.60803467 10.62989014 -14.79810059 10.42774902 -13.96362305 10.21948242 C-12.35065105 9.83026561 -10.73072812 9.4685738 -9.10473633 9.13793945 C-4.83267832 8.20430739 -4.83267832 8.20430739 -1.8046875 5.27636719 C-0.83788961 3.14238867 -0.83788961 3.14238867 0 0 Z " fill="#FBCF01" transform="translate(250,326)"/>
<path d="M0 0 C4.55716107 3.42744467 8.75421346 7.06975187 12.7890625 11.09765625 C13.48644531 11.7834375 14.18382812 12.46921875 14.90234375 13.17578125 C30.45222761 29.48051384 36.48414909 50.94627461 35.96875 73.03125 C35.07656798 96.77320478 22.80506901 116.08688351 5.8515625 131.91015625 C-12.39384081 146.98085939 -33.86293958 150.94039506 -57.00683594 149.41650391 C-63.94286838 148.72628306 -69.84670311 146.96481986 -76.2109375 144.09765625 C-76.81921387 143.83533203 -77.42749023 143.57300781 -78.05419922 143.30273438 C-86.35190929 139.69183419 -93.49470333 135.17424907 -100.2109375 129.09765625 C-100.96890625 128.4325 -101.726875 127.76734375 -102.5078125 127.08203125 C-112.33116676 117.9361497 -118.57815557 106.58198025 -123.2109375 94.09765625 C-123.56027344 93.26621094 -123.90960938 92.43476563 -124.26953125 91.578125 C-130.91160938 74.07721375 -128.09817602 51.6634191 -120.640625 35.02734375 C-115.50577074 24.50510142 -109.4230678 16.32175758 -101.2109375 8.09765625 C-100.55351563 7.42863281 -99.89609375 6.75960937 -99.21875 6.0703125 C-90.71008231 -1.9818816 -79.37647207 -7.63359305 -68.2109375 -10.90234375 C-67.06753906 -11.25425781 -65.92414063 -11.60617188 -64.74609375 -11.96875 C-42.72769724 -17.31091833 -18.63740553 -12.49717502 0 0 Z " fill="#7DC7F9" transform="translate(142.2109375,187.90234375)"/>
<path d="M0 0 C0.74328552 -0.0049649 1.48657104 -0.00992981 2.25238037 -0.01504517 C4.71733519 -0.02967888 7.18222563 -0.03647125 9.6472168 -0.04199219 C11.35873924 -0.04774324 13.07026166 -0.05350098 14.78178406 -0.05926514 C18.37389425 -0.06977897 21.96598205 -0.07561893 25.55810547 -0.07910156 C30.15828111 -0.08458304 34.75816027 -0.10860192 39.35824299 -0.13707352 C42.89530803 -0.1557102 46.43230186 -0.16090607 49.96941185 -0.16243744 C51.66506761 -0.16546285 53.36072214 -0.17348764 55.05632973 -0.18662262 C57.43101057 -0.20370277 59.80496993 -0.20179818 62.1796875 -0.1953125 C63.2280201 -0.20913467 63.2280201 -0.20913467 64.29753113 -0.22323608 C69.97708535 -0.17471388 72.99822728 1.5202117 77.09643555 5.28613281 C79.50578918 9.39095751 79.61505981 12.60273588 78.78393555 17.16113281 C74.60769401 31.07685735 67.71281536 41.83995991 54.78393555 49.16113281 C43.00564366 54.71182209 29.85775891 56.38173094 17.08081055 53.25488281 C4.83891052 48.3581228 -5.94239242 39.0105427 -11.70825195 27.07128906 C-16.96238492 14.35153778 -16.96238492 14.35153778 -15.21606445 8.16113281 C-11.09497963 1.52230316 -7.60904324 0.01206568 0 0 Z " fill="#040201" transform="translate(224.216064453125,425.8388671875)"/>
<path d="M0 0 C13.62435575 -0.71523507 28.7822912 8.21832932 38.74829102 17.00634766 C41.23008329 19.27703071 43.61942274 21.62288792 46 24 C46.66902344 24.65742187 47.33804688 25.31484375 48.02734375 25.9921875 C56.07953785 34.50085519 61.7312493 45.83446543 65 57 C65.53560547 58.72863281 65.53560547 58.72863281 66.08203125 60.4921875 C67.50889281 66.33820395 67.32902909 72.26646882 67.3125 78.25 C67.32861328 79.40113281 67.34472656 80.55226563 67.36132812 81.73828125 C67.37342262 103.1939101 58.40940721 122.29445119 43.8125 137.75 C33.05602294 148.05578668 15.43036494 160 0 160 C0 159.34 0 158.68 0 158 C1.69389192 156.98061279 3.43353396 156.0371531 5.1875 155.125 C24.66785729 144.02946631 38.14444726 124.7388044 44.4375 103.4375 C46.55849461 95.51468156 47.19335288 87.91111366 47.1875 79.75 C47.18814453 78.82356689 47.18878906 77.89713379 47.18945312 76.94262695 C47.13944428 70.46591283 46.64990794 64.29027403 45 58 C44.319375 58.99 43.63875 59.98 42.9375 61 C40.69366266 63.67485694 40.21024484 63.96177366 36.5625 64.625 C32.47758571 63.90834837 30.2901668 62.4676251 27 60 C22.92689752 58.64229917 19.25514717 58.33113071 15 59 C13.06154794 60.14073516 11.43297965 61.45278223 9.69140625 62.87109375 C6.75803285 64.82893419 4.3667148 64.57170629 1 64 C-1.4375 62.375 -1.4375 62.375 -3 60 C-3.63394633 56.27556531 -3.44455395 54.65146616 -1.3046875 51.515625 C3.44895671 46.32690149 9.65184802 43.48560983 16.58203125 42.48046875 C27.54399691 42.15980453 34.49380454 45.48461624 43 52 C36.15505594 31.2931843 22.29733233 12.48068399 2.64453125 2.25390625 C1.77183594 1.84011719 0.89914062 1.42632813 0 1 C0 0.67 0 0.34 0 0 Z " fill="#F7C400" transform="translate(270,17)"/>
<path d="M0 0 C6.18282535 0.55115472 11.5100271 1.94826505 17.3125 4.125 C18.14773193 4.43775879 18.98296387 4.75051758 19.84350586 5.07275391 C30.94241139 9.37014673 39.53640179 15.67769725 48 24 C48.69996094 24.68707031 49.39992188 25.37414062 50.12109375 26.08203125 C65.36280529 42.0962272 71.8121559 63.35311867 71.31640625 85.07421875 C70.21399207 108.55702446 58.51430468 128.36482652 41.6875 144.1875 C33.24992824 151.3702534 24.39331944 155.46488751 14 159 C13.07928711 159.31525635 12.15857422 159.6305127 11.20996094 159.95532227 C10.33629883 160.23819092 9.46263672 160.52105957 8.5625 160.8125 C7.78003906 161.06644531 6.99757813 161.32039062 6.19140625 161.58203125 C3.77765564 162.04240793 2.30903772 161.77318575 0 161 C0.81082031 160.59910156 1.62164062 160.19820312 2.45703125 159.78515625 C22.49828622 149.49622326 36.21155875 133.98608592 44.875 113.25 C45.30449951 112.22314087 45.30449951 112.22314087 45.74267578 111.17553711 C52.71837455 93.6943437 53.35877824 68.45906209 46 51 C36.53132162 29.16034578 22.27363713 10.80631369 0 1 C0 0.67 0 0.34 0 0 Z " fill="#41B6F8" transform="translate(426,175)"/>
<path d="M0 0 C6.18282535 0.55115472 11.5100271 1.94826505 17.3125 4.125 C18.14773193 4.43775879 18.98296387 4.75051758 19.84350586 5.07275391 C30.94241139 9.37014673 39.53640179 15.67769725 48 24 C48.69996094 24.68707031 49.39992187 25.37414062 50.12109375 26.08203125 C65.65620024 42.40449206 71.69529443 63.83971247 71.1796875 85.93359375 C70.28750548 109.67554853 58.01600651 128.98922726 41.0625 144.8125 C32.81378364 151.62593971 24.04143827 155.58966784 14 159 C13.07936768 159.31517578 12.15873535 159.63035156 11.21020508 159.95507812 C10.3364624 160.23802734 9.46271973 160.52097656 8.5625 160.8125 C7.78003906 161.06644531 6.99757813 161.32039062 6.19140625 161.58203125 C3.77765564 162.04240793 2.30903772 161.77318575 0 161 C0.66644531 160.6596875 1.33289063 160.319375 2.01953125 159.96875 C25.62784503 147.55374863 40.14363681 128.97324771 48.30859375 103.74609375 C54.31094719 79.906238 49.89870488 55.97306175 38 35 C37.51660156 34.14792969 37.03320312 33.29585937 36.53515625 32.41796875 C27.76056485 18.30232171 15.08607972 7.80352615 0 1 C0 0.67 0 0.34 0 0 Z " fill="#41B6F8" transform="translate(107,175)"/>
<path d="M0 0 C2.81678138 1.17365891 4.989024 2.85302308 7.421875 4.69140625 C17.6898225 12.43057642 27.39211033 14.50664445 40.109375 12.87890625 C48.62897392 10.89099984 54.35292514 7.07106052 60.88671875 1.4296875 C63.109375 -0.12109375 63.109375 -0.12109375 67.046875 -0.30859375 C71.77546044 1.52493938 71.77546044 1.52493938 73.109375 3.87890625 C73.6015757 7.67588305 73.59421417 9.99738048 71.734375 13.37890625 C65.06122552 19.73428671 57.79944533 23.92147909 49.109375 26.87890625 C47.80613281 27.41451172 47.80613281 27.41451172 46.4765625 27.9609375 C33.38968121 31.52870676 17.8825696 29.78259913 6.16015625 23.23046875 C-6.62325721 15.41364183 -6.62325721 15.41364183 -8.890625 10.87890625 C-9.24814993 7.01763705 -9.41109497 4.71165821 -7.328125 1.37890625 C-4.66683677 -0.25880959 -3.07572172 -0.62434522 0 0 Z " fill="#050400" transform="translate(223.890625,124.12109375)"/>
<path d="M0 0 C2.57716653 2.47186295 3.22567248 3.6107002 4.4375 7.125 C4.1875 10.5 4.1875 10.5 2.6875 13.4375 C0.1875 15.5 0.1875 15.5 -3 16.25 C-7.69587821 15.32622068 -9.88399028 13.34921177 -13.48046875 10.31640625 C-16.96945426 7.59885472 -20.70779181 6.0648217 -24.8125 4.5 C-25.740625 4.0875 -26.66875 3.675 -27.625 3.25 C-37.96100997 0.81799765 -49.16370424 2.45152818 -58.26953125 7.99609375 C-60.19476776 9.42841256 -62.00309505 10.92569175 -63.8125 12.5 C-66.61431899 14.81931396 -67.58912151 15.46808879 -71.3125 16 C-74.8125 15.5 -74.8125 15.5 -77.3125 13.4375 C-79.28668424 9.57138921 -78.84500902 7.67532156 -77.8125 3.5 C-58.20862833 -19.88248052 -22.22535385 -17.65305387 0 0 Z " fill="#020405" transform="translate(133.8125,290.5)"/>
<path d="M0 0 C20.46 0 40.92 0 62 0 C58.28689258 11.13932227 53.36118004 17.73655144 42.83203125 23.10546875 C34.92664529 25.60248032 23.9117673 25.49207471 16.375 22 C8.70482845 17.30532603 3.37849361 11.30546345 0 3 C0 2.01 0 1.02 0 0 Z " fill="#FC5592" transform="translate(225,441)"/>
<path d="M0 0 C1.26481201 -0.01253311 2.52962402 -0.02506622 3.83276367 -0.03797913 C5.20492587 -0.02571038 6.57707819 -0.0122903 7.94921875 0.00219727 C9.36499209 0.001368 10.78076532 -0.00109358 12.1965332 -0.00511169 C15.15898737 -0.0079656 18.12068377 0.00668972 21.08300781 0.03417969 C24.87291214 0.06826339 28.6614621 0.0622413 32.45143127 0.04351711 C35.37352713 0.03292867 38.29530994 0.04190134 41.21737671 0.05690193 C42.61436024 0.06207078 44.01137665 0.06161769 45.40835571 0.05535698 C47.36342616 0.04988362 49.31851262 0.07317922 51.2734375 0.09765625 C52.93959106 0.10695412 52.93959106 0.10695412 54.6394043 0.11643982 C58.34247461 0.75228764 60.02687227 1.96269945 62.63671875 4.63110352 C63.19921875 8.13110352 63.19921875 8.13110352 62.63671875 11.63110352 C60.46782247 14.53532783 59.28221271 15.51885889 55.67700195 16.14576721 C54.52546631 16.15196579 53.37393066 16.15816437 52.1875 16.16455078 C50.87934326 16.18038712 49.57118652 16.19622345 48.22338867 16.21253967 C46.79866173 16.20869837 45.37393759 16.20365941 43.94921875 16.19750977 C42.48477788 16.20274573 41.02034039 16.20902211 39.5559082 16.21629333 C36.48925894 16.22669482 33.42307378 16.22213984 30.35644531 16.20751953 C26.42841854 16.19032437 22.50185354 16.21383477 18.57398987 16.24900913 C15.55072354 16.27097916 12.5278073 16.26954298 9.50448608 16.26124382 C8.05641068 16.26042419 6.6083096 16.26728994 5.16030884 16.28201485 C3.13558269 16.29944963 1.11064579 16.28160524 -0.9140625 16.26220703 C-2.06559814 16.26124527 -3.21713379 16.26028351 -4.40356445 16.2592926 C-7.36328125 15.63110352 -7.36328125 15.63110352 -9.73120117 13.24790955 C-11.5949122 10.25971654 -12.13635571 9.06699 -11.36328125 5.63110352 C-7.78166595 1.24625831 -5.64122335 0.00488446 0 0 Z " fill="#020304" transform="translate(391.36328125,285.368896484375)"/>
<path d="M0 0 C2.86594311 1.96337616 5.414751 3.829502 7 7 C7.38503376 10.54231061 7.41935959 12.36257342 5.4375 15.375 C2.05010319 17.63326454 -0.0017159 17.56116268 -4 17 C-6.75 15.0625 -6.75 15.0625 -9 13 C-14.11952247 11.29349251 -18.39667829 11.33447023 -23.3125 13.375 C-25.23632814 14.53824492 -27.12941224 15.7529415 -29 17 C-32.4375 17.4375 -32.4375 17.4375 -36 17 C-38.59709363 14.66927495 -39.72103021 12.96371382 -40.6875 9.625 C-39.35456715 4.53562003 -35.25310732 1.5228512 -31.0234375 -1.3359375 C-21.33550279 -6.45203785 -9.3386257 -5.32901393 0 0 Z " fill="#050400" transform="translate(238,64)"/>
<path d="M0 0 C2.52515783 0.54855314 4.05804353 1.50653014 6.17578125 2.97265625 C10.49848216 5.9418696 12.96114783 6.21760388 18.17578125 5.47265625 C21.09516847 4.21021853 23.90126345 2.74717405 26.17578125 0.47265625 C29.10520667 0.18451604 31.32526492 -0.01347832 34.17578125 0.47265625 C36.73828125 2.59765625 36.73828125 2.59765625 38.17578125 5.47265625 C38.3831974 8.72217593 37.96642912 10.50710749 35.88671875 13.046875 C29.75393099 18.81634595 22.55023041 21.65014858 14.17578125 21.97265625 C5.41055517 21.64593188 -1.57620757 18.56046201 -7.82421875 12.47265625 C-9.22879612 9.66350151 -9.07317032 7.58455091 -8.82421875 4.47265625 C-7.02498953 0.19948685 -4.4891176 -0.18875632 0 0 Z " fill="#020405" transform="translate(47.82421875,233.52734375)"/>
<path d="M0 0 C4.54930448 2.42857607 8.99412571 5.28323744 12.125 9.4375 C12.31379846 13.21346928 11.87960941 15.1378949 10 18.375 C6.92008546 20.12028491 4.59367062 19.84903719 1.125 19.4375 C-2.125 17.5 -2.125 17.5 -4.875 15.4375 C-8.94810248 14.07979917 -12.61985283 13.76863071 -16.875 14.4375 C-18.81345206 15.57823516 -20.44202035 16.89028223 -22.18359375 18.30859375 C-25.11696715 20.26643419 -27.5082852 20.00920629 -30.875 19.4375 C-33.3125 17.8125 -33.3125 17.8125 -34.875 15.4375 C-35.50894633 11.71306531 -35.31955395 10.08896616 -33.1796875 6.953125 C-24.8215147 -2.17003311 -11.37576378 -4.48373478 0 0 Z " fill="#040400" transform="translate(301.875,61.5625)"/>
<path d="M0 0 C2.8125 1.9375 2.8125 1.9375 5 4 C10.28074892 5.76024964 14.42001061 5.51775506 19.375 3.0625 C21.85676668 1.75835756 21.85676668 1.75835756 24 0 C31.27765237 -0.58690745 31.27765237 -0.58690745 34 1.625 C35.3181446 4.75559341 35.55014903 6.6303372 35 10 C29.83150801 16.38460775 23.12349475 20.30799551 14.9921875 21.40625 C5.47546099 21.69246734 -1.97566483 19.23503927 -9.3125 13.05078125 C-11.18872407 10.77064783 -11.52140747 9.84069849 -11.4375 6.9375 C-11 3 -11 3 -10 1 C-6.73923558 -0.63038221 -3.51221839 -0.64608323 0 0 Z " fill="#020405" transform="translate(119,234)"/>
<path d="M0 0 C0.99 0.66 1.98 1.32 3 2 C3.99 1.34 4.98 0.68 6 0 C9.91054241 -0.42660463 12.12030578 -0.58646281 15.4375 1.625 C17.45866692 4.69717372 17.44369812 6.37646534 17 10 C16 12.875 16 12.875 15 15 C15.66 15.66 16.32 16.32 17 17 C17.62711146 21.03143083 17.30610745 22.56402878 14.9375 25.9375 C12 28 12 28 8.375 27.875 C6.23088141 27.3191174 4.10133886 26.70044629 2 26 C1.01 26.66 0.02 27.32 -1 28 C-4.5772533 28.45667063 -6.33458305 28.43777431 -9.375 26.4375 C-11.59464544 23.10803184 -11.42107788 20.93006023 -11 17 C-10 14.5625 -10 14.5625 -9 13 C-9.66 12.01 -10.32 11.02 -11 10 C-11.53282588 4.03235014 -11.53282588 4.03235014 -10 1.0625 C-6.83245911 -0.6202561 -3.5086342 -0.54468716 0 0 Z " fill="#020405" transform="translate(449,218)"/>
<path d="M0 0 C0.66 0.33 1.32 0.66 2 1 C2 1.66 2 2.32 2 3 C2.495 2.505 2.99 2.01 3.5 1.5 C7.22645843 -0.73587506 9.67911757 -0.41151261 14 0 C16 1.0625 16 1.0625 17 3 C17.3862557 7.24881273 17.3297964 10.35969312 15 14 C15.99 15.485 15.99 15.485 17 17 C17.4375 20.4375 17.4375 20.4375 17 24 C14.59579464 26.67897169 13.07377678 27.83893348 9.5 28.375 C7 28 7 28 4.375 26.875 C3.59125 26.58625 2.8075 26.2975 2 26 C1.01 26.66 0.02 27.32 -1 28 C-7.10206897 27.78206897 -7.10206897 27.78206897 -9.9375 25.3125 C-11.3114563 22.32212452 -11.33976395 20.2617339 -11 17 C-10 14.625 -10 14.625 -9 13 C-9.66 12.01 -10.32 11.02 -11 10 C-11.45667063 6.4227467 -11.43777431 4.66541695 -9.4375 1.625 C-6.14933906 -0.56710729 -3.87424565 -0.35872645 0 0 Z " fill="#020304" transform="translate(376,218)"/>
<path d="M0 0 C4.40789739 1.30604367 4.40789739 1.30604367 6.375 4 C7.0245064 8.28203284 6.83812334 12.61181444 6.8125 16.9375 C6.83248047 18.13052734 6.85246094 19.32355469 6.87304688 20.55273438 C6.87240234 21.69935547 6.87175781 22.84597656 6.87109375 24.02734375 C6.87294678 25.07656006 6.8747998 26.12577637 6.87670898 27.20678711 C6.24912817 30.7007784 5.17388439 31.87389733 2.375 34 C-1.125 34.5625 -1.125 34.5625 -4.625 34 C-7.35823586 31.76549412 -8.48351299 29.91949155 -9.02197266 26.42016602 C-9.20090681 23.2702546 -9.21949841 20.15466638 -9.1875 17 C-9.22327148 15.37964844 -9.22327148 15.37964844 -9.25976562 13.7265625 C-9.24522225 5.8731386 -9.24522225 5.8731386 -6.31640625 1.75 C-3.625 0 -3.625 0 0 0 Z " fill="#060500" transform="translate(220.625,374)"/>
<path d="M0 0 C3.79160482 1.12343847 4.45195891 1.67563174 6.375 5 C7.0193004 8.95533017 6.88447856 12.93517767 6.875 16.9375 C6.90335937 18.02224609 6.93171875 19.10699219 6.9609375 20.22460938 C6.98046423 28.16710763 6.98046423 28.16710763 4.03515625 32.21875 C0.77750982 34.40008153 -0.78136449 34.73601531 -4.625 34 C-7.37550192 31.86936913 -8.49516144 30.67599242 -9.15844727 27.22265625 C-9.19400097 23.81371435 -9.21892879 20.40909919 -9.1875 17 C-9.21134766 15.81148438 -9.23519531 14.62296875 -9.25976562 13.3984375 C-9.25783203 12.25632812 -9.25589844 11.11421875 -9.25390625 9.9375 C-9.25463135 8.89464844 -9.25535645 7.85179687 -9.25610352 6.77734375 C-8.625 4 -8.625 4 -6.31225586 1.62890625 C-3.625 0 -3.625 0 0 0 Z " fill="#060500" transform="translate(293.625,374)"/>
</svg>
