<?xml version="1.0" encoding="UTF-8"?>
<svg version="1.1" xmlns="http://www.w3.org/2000/svg" width="512" height="512">
<path d="M0 0 C3.45332332 1.10212446 4.13926578 1.85936828 5.9375 4.9375 C6.31420618 7.54796231 6.31420618 7.54796231 6.31667423 10.57783699 C6.32489738 11.73408833 6.33312052 12.89033966 6.34159285 14.08162892 C6.33538103 15.35262625 6.32916922 16.62362358 6.32276917 17.93313599 C6.32677524 19.29635131 6.33210099 20.6595633 6.33863491 22.02276886 C6.35281363 25.77245798 6.34834601 29.52193092 6.34092176 33.271631 C6.3361906 37.31392202 6.34873717 41.35616266 6.35928345 45.3984375 C6.37527338 52.40362002 6.38053299 59.40874467 6.37875557 66.41394424 C6.37637486 76.54450196 6.3923443 86.67496698 6.41320812 96.80550049 C6.4467488 113.24386206 6.46840163 129.68221535 6.48120117 146.12060547 C6.48197066 147.10472172 6.48274015 148.08883796 6.48353296 149.10277592 C6.48663548 153.09068057 6.4897183 157.07858525 6.492773 161.06648994 C6.5013063 172.04937423 6.51220602 183.03225566 6.52416992 194.01513672 C6.52577195 195.49042698 6.52577195 195.49042698 6.52740634 196.99552108 C6.54547681 213.37407013 6.57145563 229.75259939 6.60230106 246.13112915 C6.62088932 256.24095395 6.63177292 266.35073437 6.63282298 276.46057652 C6.63392357 283.38192583 6.64184351 290.30324469 6.65520663 297.22458114 C6.66265065 301.22275307 6.66669847 305.22085839 6.66208839 309.2190361 C6.65791393 312.87423319 6.66276959 316.52929933 6.67499625 320.18447731 C6.67910424 322.14326828 6.67326452 324.10207216 6.66715056 326.06085789 C6.67276595 327.21189373 6.67838135 328.36292958 6.68416691 329.54884529 C6.68481901 330.54837923 6.68547112 331.54791317 6.68614298 332.57773602 C6.70775647 335.1265787 6.70775647 335.1265787 8.9375 336.9375 C11.82005851 337.14326689 14.60768691 337.22256704 17.49209595 337.2159729 C18.38810276 337.2217653 19.28410958 337.2275577 20.20726812 337.23352563 C23.22757004 337.25061175 26.24771996 337.25340951 29.26806641 337.25634766 C31.42597329 337.2656399 33.58387656 337.2758075 35.74177551 337.28678894 C41.61542901 337.31418242 47.4890584 337.32926596 53.36275911 337.34221697 C59.49539754 337.35780675 65.62798643 337.3846101 71.7605896 337.4102478 C83.3804833 337.45710936 95.00038625 337.49381769 106.6203264 337.52692068 C119.84627021 337.56509005 133.07216437 337.61451371 146.29806638 337.66490483 C173.51117416 337.76833437 200.72431381 337.85755882 227.9375 337.9375 C227.92178955 336.97094482 227.92178955 336.97094482 227.90576172 335.98486328 C227.86369326 333.01078331 227.83801454 330.03676628 227.8125 327.0625 C227.78736328 325.54269531 227.78736328 325.54269531 227.76171875 323.9921875 C227.75527344 322.98671875 227.74882812 321.98125 227.7421875 320.9453125 C227.73171387 320.03410645 227.72124023 319.12290039 227.71044922 318.18408203 C228.02282137 313.71749617 229.05939089 309.32804553 229.9375 304.9375 C223.0075 304.9375 216.0775 304.9375 208.9375 304.9375 C206.68741424 299.31228559 206.68741424 299.31228559 206.68353271 295.26977539 C206.67507324 293.90721115 206.67507324 293.90721115 206.66644287 292.51712036 C206.67251556 291.04104813 206.67251556 291.04104813 206.67871094 289.53515625 C206.67345398 287.96602982 206.67345398 287.96602982 206.66809082 286.36520386 C206.65929405 282.91006825 206.66511552 279.45513767 206.671875 276 C206.67052776 273.59773723 206.66858674 271.19547473 206.66607666 268.79321289 C206.66312818 263.75957645 206.66741426 258.726011 206.67675781 253.69238281 C206.6881521 247.23934782 206.68159117 240.7864792 206.66961288 234.33345032 C206.6623869 229.37323757 206.66468563 224.41306428 206.66986847 219.45285034 C206.67120292 217.07339458 206.66956442 214.69393523 206.66490936 212.31448364 C206.65983211 208.98950709 206.66757152 205.66480022 206.67871094 202.33984375 C206.67466248 201.35579559 206.67061401 200.37174744 206.66644287 199.35787964 C206.69479554 194.79112557 206.73839327 191.07240458 208.9375 186.9375 C216.44882765 186.8616309 223.96005704 186.80897676 231.47167969 186.77270508 C234.02868339 186.7575893 236.58566106 186.73709634 239.14257812 186.71118164 C242.81126317 186.67492138 246.4796064 186.65780164 250.1484375 186.64453125 C251.29742523 186.62904739 252.44641296 186.61356354 253.63021851 186.59761047 C255.22164169 186.59727058 255.22164169 186.59727058 256.84521484 186.59692383 C258.25086197 186.58693108 258.25086197 186.58693108 259.68490601 186.57673645 C260.42826202 186.69578842 261.17161804 186.81484039 261.9375 186.9375 C264.1918598 190.3190397 264.20378727 191.54218871 264.25634766 195.51049805 C264.28615219 197.22193245 264.28615219 197.22193245 264.31655884 198.96794128 C264.33388565 200.81492363 264.33388565 200.81492363 264.3515625 202.69921875 C264.38061172 204.59061333 264.38061172 204.59061333 264.4102478 206.5202179 C264.45993737 209.86897581 264.50119435 213.21762319 264.53839111 216.56652832 C264.57843081 219.98520856 264.62952326 223.40372161 264.6796875 226.82226562 C264.77582561 233.52723631 264.86085146 240.23227974 264.9375 246.9375 C265.39803772 246.5336055 265.85857544 246.129711 266.33306885 245.71357727 C267.25536285 244.91236702 267.25536285 244.91236702 268.19628906 244.0949707 C268.80120178 243.5673262 269.4061145 243.0396817 270.02935791 242.49604797 C273.04803018 240.03043203 276.32562791 238.08216201 279.6875 236.125 C280.34621094 235.73119141 281.00492187 235.33738281 281.68359375 234.93164062 C284.40697072 233.32136804 286.92738351 231.94087216 289.9375 230.9375 C290.2675 190.6775 290.5975 150.4175 290.9375 108.9375 C293.39973815 107.70638093 295.04497906 107.79743297 297.79858398 107.77636719 C298.8098082 107.76675964 299.82103241 107.7571521 300.86289978 107.74725342 C302.5066433 107.7408786 302.5066433 107.7408786 304.18359375 107.734375 C305.30564713 107.72867493 306.4277005 107.72297485 307.58375549 107.71710205 C309.96020563 107.70764412 312.33666893 107.70111493 314.71313477 107.69726562 C318.35651376 107.6875493 321.99933137 107.65652833 325.64257812 107.625 C327.94791331 107.61847126 330.25325253 107.61322028 332.55859375 107.609375 C333.65239853 107.5970282 334.74620331 107.5846814 335.87315369 107.57196045 C336.88753006 107.57496155 337.90190643 107.57796265 338.94702148 107.58105469 C339.84033676 107.57740906 340.73365204 107.57376343 341.65403748 107.57000732 C344.48143644 108.02503928 345.19128555 108.7034308 346.9375 110.9375 C347.30664349 113.05578899 347.30664349 113.05578899 347.29826355 115.55021667 C347.30444954 116.96998055 347.30444954 116.96998055 347.3107605 118.41842651 C347.29997467 119.4549234 347.28918884 120.49142029 347.27807617 121.55932617 C347.27851425 122.65216415 347.27895233 123.74500214 347.27940369 124.87095642 C347.27731005 128.49097424 347.25395131 132.11053162 347.23046875 135.73046875 C347.22487486 138.23724616 347.22060378 140.74402685 347.21760559 143.25080872 C347.20731311 149.17941657 347.1836577 155.10787615 347.15355712 161.03640777 C347.11674276 168.44807049 347.10062406 175.85975365 347.08398438 183.27148438 C347.0517911 196.49357387 347.00114975 209.71552645 346.9375 222.9375 C347.75779694 223.06977493 348.57809387 223.20204987 349.42324829 223.33833313 C351.04026138 223.60265388 351.04026138 223.60265388 352.68994141 223.87231445 C353.75773834 224.04583939 354.82553528 224.21936432 355.9256897 224.39814758 C365.84619073 226.17470244 381.63250327 230.63250327 388.9375 237.9375 C389.14117187 237.08027344 389.34484375 236.22304688 389.5546875 235.33984375 C391.30136241 231.04223401 393.74086532 228.65177836 397.0625 225.5 C397.60648437 224.96568359 398.15046875 224.43136719 398.7109375 223.88085938 C401.57950084 221.08937192 404.52235717 218.42884298 407.57421875 215.83984375 C411.25048246 212.65495744 414.63230514 209.24202449 418.01171875 205.75 C418.54812988 205.19863876 419.08454102 204.64727753 419.63720703 204.07920837 C421.87289065 201.78037466 424.10741098 199.48112889 426.31860352 197.15869141 C427.95269862 195.44615026 429.60505907 193.75318346 431.26171875 192.0625 C431.75766037 191.53245361 432.25360199 191.00240723 432.76457214 190.45629883 C434.2019043 189.0078125 434.2019043 189.0078125 436.9375 186.9375 C439.79223633 187.1171875 439.79223633 187.1171875 441.9375 187.9375 C442.35322266 189.85175781 442.35322266 189.85175781 442.77734375 191.8046875 C443.14308957 193.47398893 443.50898262 195.1432581 443.875 196.8125 C444.05740234 197.65425781 444.23980469 198.49601563 444.42773438 199.36328125 C444.60498047 200.16894531 444.78222656 200.97460938 444.96484375 201.8046875 C445.20835571 202.92012939 445.20835571 202.92012939 445.45678711 204.05810547 C445.88525919 206.00937124 445.88525919 206.00937124 446.9375 207.9375 C447.5975 207.2775 448.2575 206.6175 448.9375 205.9375 C452.375 205.5625 452.375 205.5625 455.9375 205.9375 C457.9375 207.5625 457.9375 207.5625 458.9375 209.9375 C458.80349536 213.22061374 458.64421675 215.17218613 456.3828125 217.62109375 C455.90585937 218.05550781 455.42890625 218.48992187 454.9375 218.9375 C455.90429688 219.19144531 456.87109375 219.44539062 457.8671875 219.70703125 C465.26430921 221.65930054 472.62983876 223.66782639 479.9375 225.9375 C479.06932139 230.57683311 476.26528101 233.00717316 472.99609375 236.20703125 C472.39499283 236.806259 471.79389191 237.40548676 471.17457581 238.02287292 C469.8994166 239.29131084 468.62066525 240.55614626 467.33862305 241.81762695 C465.39972328 243.72567018 463.47141305 245.64389037 461.54492188 247.56445312 C456.02390023 253.04978044 450.49596884 258.45913426 444.5637207 263.50317383 C440.99181598 266.65359272 437.86542011 270.27262516 434.6484375 273.77734375 C431.9375 275.9375 431.9375 275.9375 428.6015625 276.25390625 C427.72242188 276.14949219 426.84328125 276.04507812 425.9375 275.9375 C426.1641333 276.48051758 426.3907666 277.02353516 426.62426758 277.58300781 C436.96396023 302.49526244 442.55495165 328.26112313 434.9375 354.9375 C434.58558594 356.1853125 434.23367188 357.433125 433.87109375 358.71875 C425.869054 385.42157697 406.92172513 407.59799617 382.5625 420.75 C357.16734183 433.95548225 328.17074402 436.1402167 300.7578125 428.25390625 C272.15989716 418.84297163 250.44752331 398.51604259 236.9375 371.9375 C233.75437394 364.86827463 231.82911397 358.59211649 230.9375 350.9375 C229.20917686 350.94441345 229.20917686 350.94441345 227.44593811 350.95146656 C200.08234505 351.0598027 172.71877537 351.14222596 145.35501182 351.19282665 C141.98553485 351.19908003 138.61605833 351.20555166 135.24658203 351.2121582 C134.57579219 351.21346976 133.90500235 351.21478131 133.21388555 351.2161326 C122.35868845 351.23787728 111.50362402 351.27729356 100.64850557 351.32326398 C89.50656268 351.37005484 78.36466512 351.39742679 67.22262287 351.40794247 C60.96575726 351.41446149 54.70919235 351.42978554 48.4524231 351.46615028 C42.56239887 351.5001059 36.67279904 351.51055359 30.78268623 351.50303841 C28.62197119 351.50441312 26.46124185 351.51434783 24.3006115 351.53352737 C21.34702387 351.5584582 18.39503192 351.55240459 15.44140625 351.53877258 C14.58924562 351.55333679 13.73708498 351.567901 12.8591013 351.58290654 C6.74640945 351.50681062 2.55006446 350.01351826 -2.0625 345.9375 C-8.1345343 339.69163279 -7.76737757 332.5592045 -7.69068909 324.27775574 C-7.69573907 322.89117193 -7.70297139 321.50459465 -7.71218723 320.11803228 C-7.73107156 316.32215069 -7.71889802 312.5269156 -7.7014643 308.73105061 C-7.68807333 304.63222017 -7.70353326 300.53348325 -7.71528625 296.43466187 C-7.73365189 288.41217507 -7.72515884 280.38993205 -7.70719803 272.36745288 C-7.6931693 265.8497262 -7.68927981 259.33206566 -7.6926403 252.81432533 C-7.69311775 251.88652941 -7.69359519 250.95873348 -7.6940871 250.00282252 C-7.69511342 248.11805697 -7.69616878 246.23329144 -7.69725286 244.34852592 C-7.70581712 227.68941445 -7.68915115 211.03042072 -7.65942383 194.37133789 C-7.63056382 178.19811056 -7.62351423 162.02505267 -7.63891602 145.85180664 C-7.6556635 128.24132591 -7.65972906 110.63092559 -7.64220566 93.02044278 C-7.64036124 91.14416048 -7.63852651 89.26787816 -7.63670158 87.39159584 C-7.63578949 86.46840094 -7.6348774 85.54520604 -7.63393768 84.59403553 C-7.62832501 78.07961066 -7.63164602 71.56522498 -7.63824654 65.05080223 C-7.64596435 57.1188074 -7.63928264 49.18697958 -7.6140715 41.2550185 C-7.60154291 37.206 -7.59547046 33.15724197 -7.60661316 29.10821342 C-7.61661085 25.40548457 -7.6082928 21.7032766 -7.58503198 18.00061146 C-7.57738206 16.01889441 -7.58946915 14.03713194 -7.60213572 12.0554406 C-7.59108803 10.88746353 -7.58004034 9.71948646 -7.56865788 8.51611614 C-7.56746639 7.5039414 -7.56627491 6.49176666 -7.56504732 5.44891995 C-7.0625 2.9375 -7.0625 2.9375 -5.22227138 1.08493024 C-3.0625 -0.0625 -3.0625 -0.0625 0 0 Z " fill="#FE7577" transform="translate(25.0625,52.0625)"/>
<path d="M0 0 C6.57892668 4.64248788 10.60787636 9.9257062 12.7578125 17.7109375 C13.66783669 27.89848099 13.06687495 35.79873901 6.6953125 43.8984375 C1.53211696 49.47908289 -5.6536808 53.14556328 -13.25 53.9140625 C-19.89155999 54.06110811 -23.34946961 52.77875287 -30.2421875 50.7109375 C-44.4321875 64.9009375 -58.6221875 79.0909375 -73.2421875 93.7109375 C-72.2521875 96.3509375 -71.2621875 98.9909375 -70.2421875 101.7109375 C-69.06976049 111.15372803 -69.91275226 120.02238841 -75.78515625 127.73828125 C-81.12989791 133.52332199 -87.81464128 137.1820552 -95.6875 137.94921875 C-105.67128529 138.22573758 -113.22567418 135.51480049 -120.55078125 128.6484375 C-125.47028149 123.01316701 -127.38406728 116.71240232 -127.3671875 109.3359375 C-127.36976563 108.21445313 -127.37234375 107.09296875 -127.375 105.9375 C-127.25689698 103.06829128 -126.90001078 100.49885521 -126.2421875 97.7109375 C-127.32330811 97.31805542 -127.32330811 97.31805542 -128.42626953 96.91723633 C-131.3312041 95.67280406 -133.69661941 94.2011863 -136.296875 92.41015625 C-137.71419922 91.43852539 -137.71419922 91.43852539 -139.16015625 90.44726562 C-140.13597656 89.77115234 -141.11179688 89.09503906 -142.1171875 88.3984375 C-143.08527344 87.73392578 -144.05335938 87.06941406 -145.05078125 86.38476562 C-145.99824219 85.73314453 -146.94570312 85.08152344 -147.921875 84.41015625 C-148.83807617 83.78028809 -149.75427734 83.15041992 -150.69824219 82.50146484 C-152.91091175 80.94410221 -155.04592819 79.32012002 -157.1875 77.66796875 C-159.93799725 75.43069655 -159.93799725 75.43069655 -162.30810547 76.0300293 C-164.39986819 76.76645018 -166.28412151 77.67071494 -168.2421875 78.7109375 C-172.68117514 81.06914968 -176.33669154 81.86177208 -181.3671875 81.8984375 C-182.33914062 81.90617187 -183.31109375 81.91390625 -184.3125 81.921875 C-187.25904007 81.70972411 -189.46907041 80.98915559 -192.2421875 80.0234375 C-194.69610279 79.31959962 -194.69610279 79.31959962 -197.2421875 79.7109375 C-201.57710069 82.83471312 -204.82273453 86.62777083 -208.2421875 90.7109375 C-209.38689675 92.02441799 -210.53257564 93.33705477 -211.6796875 94.6484375 C-212.48212891 95.59009766 -212.48212891 95.59009766 -213.30078125 96.55078125 C-216.33715476 99.92928135 -219.59324485 103.08235217 -222.82421875 106.2734375 C-226.30417139 109.72702686 -229.59306116 113.28570706 -232.7734375 117.01953125 C-234.81778273 119.37379052 -237.00451949 121.54107761 -239.2421875 123.7109375 C-239.025625 124.27039063 -238.8090625 124.82984375 -238.5859375 125.40625 C-235.23899084 135.04421677 -234.41289048 144.67851857 -238.6796875 154.1484375 C-243.09660988 161.87032978 -248.55019131 166.19429617 -257.0546875 168.7734375 C-265.98406112 170.60248222 -274.50939452 169.04001289 -282.2734375 164.2578125 C-287.34079568 160.27631679 -291.86052672 154.05972586 -293.2421875 147.7109375 C-294.3190031 136.70348917 -292.89761337 129.01046747 -285.9921875 120.3984375 C-281.06880198 115.08329873 -274.98729044 112.09951286 -267.76171875 111.5078125 C-266.86839844 111.49234375 -265.97507812 111.476875 -265.0546875 111.4609375 C-264.17425781 111.43515625 -263.29382813 111.409375 -262.38671875 111.3828125 C-258.09626609 111.83051191 -254.27630115 113.23059027 -250.2421875 114.7109375 C-247.71701945 112.21528499 -245.19789377 109.71361299 -242.6796875 107.2109375 C-241.97521484 106.51484375 -241.27074219 105.81875 -240.54492188 105.1015625 C-236.47097139 101.04638598 -232.5985843 96.89212069 -228.84790039 92.53710938 C-226.58963592 89.96879278 -224.18936287 87.60053227 -221.7421875 85.2109375 C-213.2110867 77.4011007 -213.2110867 77.4011007 -207.2421875 67.7109375 C-207.9816902 65.86218075 -208.72463481 64.01469666 -209.48828125 62.17578125 C-211.81262022 54.57651756 -210.94289188 46.1473259 -207.62890625 38.99609375 C-203.90914038 32.86633872 -198.65717132 27.93840963 -191.921875 25.33984375 C-182.99675536 23.24517281 -174.21157189 23.58804145 -166.25390625 28.296875 C-160.15067072 32.58691629 -155.60662627 38.61762119 -153.2421875 45.7109375 C-153.39848633 46.96632324 -153.55478516 48.22170898 -153.71582031 49.51513672 C-154.80681804 57.91635592 -154.80681804 57.91635592 -151.92163086 65.58117676 C-147.54742071 69.85547476 -142.25638839 72.79885682 -136.9921875 75.8359375 C-135.43263291 76.80810632 -133.87659235 77.78593635 -132.32421875 78.76953125 C-124.81987105 83.85481146 -124.81987105 83.85481146 -116.2421875 85.7109375 C-114.77608681 84.92901713 -113.34075507 84.08828521 -111.9296875 83.2109375 C-105.30433155 79.75593706 -98.55078426 79.78774633 -91.2421875 80.7109375 C-89.81880736 81.18397867 -88.40752179 81.69487078 -87.01025391 82.24023438 C-86.30123932 82.51444214 -85.59222473 82.7886499 -84.86172485 83.07116699 C-84.32727753 83.28229126 -83.7928302 83.49341553 -83.2421875 83.7109375 C-77.731228 78.33893755 -72.2364735 72.95082445 -66.76201534 67.54163837 C-64.21950978 65.03045908 -61.67172234 62.52516813 -59.11108398 60.0324707 C-56.16811822 57.16710871 -53.24968998 54.27784716 -50.33203125 51.38671875 C-48.94624123 50.04738029 -48.94624123 50.04738029 -47.53245544 48.6809845 C-46.69150833 47.84049057 -45.85056122 46.99999664 -44.98413086 46.1340332 C-44.23578476 45.39901077 -43.48743866 44.66398834 -42.71641541 43.9066925 C-40.96486815 41.78737553 -40.96486815 41.78737553 -41.44190979 39.09465027 C-42.00263234 37.42447817 -42.62989757 35.77587204 -43.3046875 34.1484375 C-45.74913577 25.18546051 -44.66911557 16.82455321 -40.2421875 8.7109375 C-36.37791701 2.45384471 -30.20275446 -1.65524743 -23.1796875 -3.6015625 C-14.8425377 -5.05725532 -7.4126958 -4.26165438 0 0 Z " fill="#FEED93" transform="translate(359.2421875,62.2890625)"/>
<path d="M0 0 C2.74647333 1.94308317 4.98011602 4.19322462 7.296875 6.625 C4.80122249 9.15016805 2.29955049 11.66929373 -0.203125 14.1875 C-1.24726563 15.24420898 -1.24726563 15.24420898 -2.3125 16.32226562 C-6.93455022 20.96571423 -11.65822808 25.44075822 -16.703125 29.625 C-17.70182617 30.5058728 -17.70182617 30.5058728 -18.72070312 31.40454102 C-19.37490234 31.80729248 -20.02910156 32.21004395 -20.703125 32.625 C-22.5587748 31.91647917 -24.41116689 31.19712925 -26.23828125 30.41796875 C-33.18013355 28.18469456 -40.62448855 28.70615328 -47.203125 31.75 C-54.26128285 35.83870633 -58.39677641 41.88835976 -60.703125 49.625 C-62.03531288 57.20822335 -60.33889725 63.18458506 -56.69140625 69.87890625 C-52.92038551 75.08721191 -47.78080032 78.59910823 -41.703125 80.625 C-32.07110812 81.43878536 -25.06795773 80.40757791 -17.16015625 74.83203125 C-12.2693185 70.43883041 -9.29308319 64.17426458 -8.21875 57.7109375 C-8.0459042 51.57491175 -9.36192266 46.26896992 -11.703125 40.625 C0.11246922 28.63217187 0.11246922 28.63217187 6.5390625 23.16015625 C9.26395834 20.78041388 11.77125055 18.21376506 14.296875 15.625 C20.77398449 18.2576316 22.97667351 24.81224695 25.79296875 30.8125 C32.24762991 47.19600254 31.15472711 65.57470782 24.296875 81.625 C23.8740625 82.615 23.45125 83.605 23.015625 84.625 C15.56582071 99.87111111 1.4476866 111.3069109 -14.4375 116.91796875 C-15.18515625 117.15128906 -15.9328125 117.38460937 -16.703125 117.625 C-17.36828125 117.84800781 -18.0334375 118.07101562 -18.71875 118.30078125 C-34.77265616 122.8044534 -52.03630718 119.18390355 -66.41015625 111.57421875 C-71.28342604 108.68956676 -75.55237962 105.47097037 -79.703125 101.625 C-80.74726563 100.66207031 -80.74726563 100.66207031 -81.8125 99.6796875 C-86.20634569 95.20068976 -89.18822167 90.29771795 -92.015625 84.75 C-92.34127441 84.11449219 -92.66692383 83.47898437 -93.00244141 82.82421875 C-100.11030287 68.12798516 -101.50476521 50.22298063 -96.765625 34.5625 C-89.99840592 17.42523252 -78.33516958 4.13041874 -61.6171875 -3.84765625 C-40.75377293 -12.86044113 -19.74723943 -11.06851637 0 0 Z " fill="#E8EAF7" transform="translate(392.703125,324.375)"/>
<path d="M0 0 C0.91711258 0.01110306 1.83422516 0.02220612 2.77912903 0.03364563 C3.81998154 0.03402328 4.86083405 0.03440094 5.93322754 0.03479004 C7.05518021 0.06059647 8.17713287 0.08640289 9.33308411 0.11299133 C11.05800835 0.12360344 11.05800835 0.12360344 12.81777954 0.13442993 C16.49671526 0.16245596 20.17413836 0.2252141 23.85261536 0.28877258 C26.34412986 0.31384463 28.83566818 0.33665969 31.32722473 0.35713196 C37.44037249 0.41230969 43.55263589 0.49601915 49.66511536 0.60127258 C51.74546525 4.02764312 51.91631066 6.69259486 51.91908264 10.66729736 C51.92472229 11.91086502 51.93036194 13.15443268 51.93617249 14.4356842 C51.93228398 15.81111203 51.92818765 17.18653929 51.92390442 18.56196594 C51.92661492 20.01255468 51.93017619 21.46314205 51.93452454 22.91372681 C51.9436446 26.85175091 51.94010566 30.78967024 51.93376637 34.72769618 C51.92870343 38.84934061 51.93339873 42.97097607 51.9365387 47.09262085 C51.94017789 54.01536164 51.93538089 60.93805976 51.92585754 67.86079407 C51.91497737 75.8621853 51.91849557 83.86347458 51.92951035 91.86486334 C51.93858968 98.73546246 51.93986522 105.6060309 51.93463302 112.47663409 C51.93151632 116.57973531 51.93109565 120.68278863 51.93770599 124.78588676 C51.94348806 128.64447101 51.93946682 132.50292399 51.92791748 136.36149406 C51.92527531 137.77683291 51.92602843 139.19218282 51.93044281 140.60751724 C51.93591701 142.54109551 51.92783163 144.47469794 51.91908264 146.40826416 C51.91832859 147.48986281 51.91757454 148.57146147 51.91679764 149.68583584 C51.66511536 152.60127258 51.66511536 152.60127258 49.66511536 157.60127258 C32.17511536 157.60127258 14.68511536 157.60127258 -3.33488464 157.60127258 C-4.96705165 152.70477157 -5.58616041 150.25626143 -5.59558105 145.3706665 C-5.60266586 144.14117783 -5.60975067 142.91168915 -5.61705017 141.64494324 C-5.61475674 140.29566918 -5.6122471 138.94639548 -5.60954285 137.59712219 C-5.61389342 136.16594172 -5.61907772 134.73476357 -5.62503052 133.30358887 C-5.63839181 129.42767263 -5.63900261 125.55185407 -5.63646722 121.67591929 C-5.63539598 118.43769886 -5.64028457 115.19949806 -5.64507264 111.96128184 C-5.65615698 104.32262767 -5.65661068 96.68402269 -5.65055847 89.04536438 C-5.64451295 81.16772875 -5.65684674 73.29027147 -5.67812854 65.41266626 C-5.69574155 58.6439341 -5.70174655 51.87525874 -5.6984908 45.1065045 C-5.69667798 41.06599897 -5.69931429 37.02562079 -5.71320534 32.98513603 C-5.72577493 29.1872169 -5.72384802 25.38957628 -5.71079445 21.59166145 C-5.70842755 20.19889355 -5.71116747 18.80610608 -5.71941757 17.4133606 C-5.72987558 15.51056437 -5.71998696 13.60768887 -5.70910645 11.70489502 C-5.70927419 10.64064269 -5.70944193 9.57639036 -5.70961475 8.47988796 C-5.18915003 4.4817631 -4.14410599 1.06717791 0 0 Z " fill="#FFEE93" transform="translate(154.3348846435547,199.3987274169922)"/>
<path d="M0 0 C3.45332332 1.10212446 4.13926578 1.85936828 5.9375 4.9375 C6.31420618 7.54796231 6.31420618 7.54796231 6.31667423 10.57783699 C6.32489738 11.73408833 6.33312052 12.89033966 6.34159285 14.08162892 C6.33538103 15.35262625 6.32916922 16.62362358 6.32276917 17.93313599 C6.32677524 19.29635131 6.33210099 20.6595633 6.33863491 22.02276886 C6.35281363 25.77245798 6.34834601 29.52193092 6.34092176 33.271631 C6.3361906 37.31392202 6.34873717 41.35616266 6.35928345 45.3984375 C6.37527338 52.40362002 6.38053299 59.40874467 6.37875557 66.41394424 C6.37637486 76.54450196 6.3923443 86.67496698 6.41320812 96.80550049 C6.4467488 113.24386206 6.46840163 129.68221535 6.48120117 146.12060547 C6.48197066 147.10472172 6.48274015 148.08883796 6.48353296 149.10277592 C6.48663548 153.09068057 6.4897183 157.07858525 6.492773 161.06648994 C6.5013063 172.04937423 6.51220602 183.03225566 6.52416992 194.01513672 C6.52577195 195.49042698 6.52577195 195.49042698 6.52740634 196.99552108 C6.54547681 213.37407013 6.57145563 229.75259939 6.60230106 246.13112915 C6.62088932 256.24095395 6.63177292 266.35073437 6.63282298 276.46057652 C6.63392357 283.38192583 6.64184351 290.30324469 6.65520663 297.22458114 C6.66265065 301.22275307 6.66669847 305.22085839 6.66208839 309.2190361 C6.65791393 312.87423319 6.66276959 316.52929933 6.67499625 320.18447731 C6.67910424 322.14326828 6.67326452 324.10207216 6.66715056 326.06085789 C6.67276595 327.21189373 6.67838135 328.36292958 6.68416691 329.54884529 C6.68481901 330.54837923 6.68547112 331.54791317 6.68614298 332.57773602 C6.70775647 335.1265787 6.70775647 335.1265787 8.9375 336.9375 C11.83257705 337.14328393 14.63313378 337.22256534 17.53005981 337.2159729 C18.88019537 337.2246615 18.88019537 337.2246615 20.25760639 337.23352563 C23.29172768 337.250612 26.32569767 337.25340953 29.35986328 337.25634766 C31.52762224 337.26563988 33.6953776 337.27580748 35.86312866 337.28678894 C41.76364084 337.31418261 47.66412902 337.32926601 53.56468821 337.34221697 C59.72535372 337.35780667 65.88596993 337.38461005 72.04660034 337.4102478 C83.71961808 337.45710951 95.39264502 337.49381777 107.06570899 337.52692068 C120.35211157 337.56508995 133.638462 337.61451363 146.924824 337.66490483 C174.26234607 337.76833459 201.59989987 337.85755896 228.9375 337.9375 C229.5975 342.2275 230.2575 346.5175 230.9375 350.9375 C202.41005557 351.05161233 173.88263988 351.14007376 145.35501182 351.19282665 C141.98553485 351.19908003 138.61605833 351.20555166 135.24658203 351.2121582 C134.57579219 351.21346976 133.90500235 351.21478131 133.21388555 351.2161326 C122.35868845 351.23787728 111.50362402 351.27729356 100.64850557 351.32326398 C89.50656268 351.37005484 78.36466512 351.39742679 67.22262287 351.40794247 C60.96575726 351.41446149 54.70919235 351.42978554 48.4524231 351.46615028 C42.56239887 351.5001059 36.67279904 351.51055359 30.78268623 351.50303841 C28.62197119 351.50441312 26.46124185 351.51434783 24.3006115 351.53352737 C21.34702387 351.5584582 18.39503192 351.55240459 15.44140625 351.53877258 C14.58924562 351.55333679 13.73708498 351.567901 12.8591013 351.58290654 C6.74640945 351.50681062 2.55006446 350.01351826 -2.0625 345.9375 C-8.1345343 339.69163279 -7.76737757 332.5592045 -7.69068909 324.27775574 C-7.69573907 322.89117193 -7.70297139 321.50459465 -7.71218723 320.11803228 C-7.73107156 316.32215069 -7.71889802 312.5269156 -7.7014643 308.73105061 C-7.68807333 304.63222017 -7.70353326 300.53348325 -7.71528625 296.43466187 C-7.73365189 288.41217507 -7.72515884 280.38993205 -7.70719803 272.36745288 C-7.6931693 265.8497262 -7.68927981 259.33206566 -7.6926403 252.81432533 C-7.69311775 251.88652941 -7.69359519 250.95873348 -7.6940871 250.00282252 C-7.69511342 248.11805697 -7.69616878 246.23329144 -7.69725286 244.34852592 C-7.70581712 227.68941445 -7.68915115 211.03042072 -7.65942383 194.37133789 C-7.63056382 178.19811056 -7.62351423 162.02505267 -7.63891602 145.85180664 C-7.6556635 128.24132591 -7.65972906 110.63092559 -7.64220566 93.02044278 C-7.64036124 91.14416048 -7.63852651 89.26787816 -7.63670158 87.39159584 C-7.63578949 86.46840094 -7.6348774 85.54520604 -7.63393768 84.59403553 C-7.62832501 78.07961066 -7.63164602 71.56522498 -7.63824654 65.05080223 C-7.64596435 57.1188074 -7.63928264 49.18697958 -7.6140715 41.2550185 C-7.60154291 37.206 -7.59547046 33.15724197 -7.60661316 29.10821342 C-7.61661085 25.40548457 -7.6082928 21.7032766 -7.58503198 18.00061146 C-7.57738206 16.01889441 -7.58946915 14.03713194 -7.60213572 12.0554406 C-7.59108803 10.88746353 -7.58004034 9.71948646 -7.56865788 8.51611614 C-7.56746639 7.5039414 -7.56627491 6.49176666 -7.56504732 5.44891995 C-7.0625 2.9375 -7.0625 2.9375 -5.22227138 1.08493024 C-3.0625 -0.0625 -3.0625 -0.0625 0 0 Z " fill="#A69BA6" transform="translate(25.0625,52.0625)"/>
<path d="M0 0 C1.51683632 -0.01441132 1.51683632 -0.01441132 3.0643158 -0.02911377 C4.70805931 -0.03548859 4.70805931 -0.03548859 6.38500977 -0.04199219 C7.50706314 -0.04769226 8.62911652 -0.05339233 9.78517151 -0.05926514 C12.16162164 -0.06872307 14.53808494 -0.07525226 16.91455078 -0.07910156 C20.55792978 -0.08881789 24.20074739 -0.11983885 27.84399414 -0.15136719 C30.14932932 -0.15789592 32.45466855 -0.1631469 34.76000977 -0.16699219 C35.85381454 -0.17933899 36.94761932 -0.19168579 38.0745697 -0.20440674 C39.08894608 -0.20140564 40.10332245 -0.19840454 41.1484375 -0.1953125 C42.04175278 -0.19895813 42.93506805 -0.20260376 43.85545349 -0.20635986 C46.68285245 0.24867209 47.39270157 0.92706361 49.13891602 3.16113281 C49.5080595 5.27942181 49.5080595 5.27942181 49.49967957 7.77384949 C49.50380356 8.72035873 49.50792755 9.66686798 49.51217651 10.64205933 C49.50139069 11.67855621 49.49060486 12.7150531 49.47949219 13.78295898 C49.48014931 15.42221596 49.48014931 15.42221596 49.4808197 17.09458923 C49.47872607 20.71460706 49.45536733 24.33416443 49.43188477 27.95410156 C49.42629087 30.46087898 49.4220198 32.96765967 49.41902161 35.47444153 C49.40872912 41.40304938 49.38507371 47.33150896 49.35497314 53.26004058 C49.31815878 60.6717033 49.30204007 68.08338646 49.28540039 75.49511719 C49.25320711 88.71720668 49.20256577 101.93915926 49.13891602 115.16113281 C48.07608147 115.19626228 48.07608147 115.19626228 46.99177551 115.23210144 C43.73463683 115.34266512 40.47781496 115.46083382 37.22094727 115.57910156 C36.10659302 115.61579956 34.99223877 115.65249756 33.84411621 115.69030762 C21.1332017 116.16367317 9.35330122 117.98748653 -2.63842773 122.39160156 C-4.86108398 123.16113281 -4.86108398 123.16113281 -6.86108398 123.16113281 C-6.86108398 82.90113281 -6.86108398 42.64113281 -6.86108398 1.16113281 C-4.39884584 -0.06998626 -2.75360493 0.02106578 0 0 Z " fill="#60B6FE" transform="translate(322.861083984375,159.8388671875)"/>
<path d="M0 0 C6.57892668 4.64248788 10.60787636 9.9257062 12.7578125 17.7109375 C13.66783669 27.89848099 13.06687495 35.79873901 6.6953125 43.8984375 C1.53211696 49.47908289 -5.6536808 53.14556328 -13.25 53.9140625 C-19.89155999 54.06110811 -23.34946961 52.77875287 -30.2421875 50.7109375 C-44.4321875 64.9009375 -58.6221875 79.0909375 -73.2421875 93.7109375 C-72.2521875 96.3509375 -71.2621875 98.9909375 -70.2421875 101.7109375 C-69.06976049 111.15372803 -69.91275226 120.02238841 -75.78515625 127.73828125 C-81.12989791 133.52332199 -87.81464128 137.1820552 -95.6875 137.94921875 C-105.67128529 138.22573758 -113.22567418 135.51480049 -120.55078125 128.6484375 C-127.19150716 121.04150898 -127.85705794 112.44244473 -127.2421875 102.7109375 C-125.04515202 94.60936917 -118.93458672 86.84214504 -111.6796875 82.5859375 C-104.03365208 79.25335328 -94.74830324 79.22001867 -87.01025391 82.24023438 C-86.30123932 82.51444214 -85.59222473 82.7886499 -84.86172485 83.07116699 C-84.06005386 83.38785339 -84.06005386 83.38785339 -83.2421875 83.7109375 C-77.731228 78.33893755 -72.2364735 72.95082445 -66.76201534 67.54163837 C-64.21950978 65.03045908 -61.67172234 62.52516813 -59.11108398 60.0324707 C-56.16811822 57.16710871 -53.24968998 54.27784716 -50.33203125 51.38671875 C-48.94624123 50.04738029 -48.94624123 50.04738029 -47.53245544 48.6809845 C-46.69150833 47.84049057 -45.85056122 46.99999664 -44.98413086 46.1340332 C-44.23578476 45.39901077 -43.48743866 44.66398834 -42.71641541 43.9066925 C-40.96486815 41.78737553 -40.96486815 41.78737553 -41.44190979 39.09465027 C-42.00263234 37.42447817 -42.62989757 35.77587204 -43.3046875 34.1484375 C-45.74913577 25.18546051 -44.66911557 16.82455321 -40.2421875 8.7109375 C-36.37791701 2.45384471 -30.20275446 -1.65524743 -23.1796875 -3.6015625 C-14.8425377 -5.05725532 -7.4126958 -4.26165438 0 0 Z " fill="#5FB7FE" transform="translate(359.2421875,62.2890625)"/>
<path d="M0 0 C7.51132765 -0.0758691 15.02255704 -0.12852324 22.53417969 -0.16479492 C25.09118339 -0.1799107 27.64816106 -0.20040366 30.20507812 -0.22631836 C33.87376317 -0.26257862 37.5421064 -0.27969836 41.2109375 -0.29296875 C42.35992523 -0.30845261 43.50891296 -0.32393646 44.69271851 -0.33988953 C46.28414169 -0.34022942 46.28414169 -0.34022942 47.90771484 -0.34057617 C49.31336197 -0.35056892 49.31336197 -0.35056892 50.74740601 -0.36076355 C51.49076202 -0.24171158 52.23411804 -0.12265961 53 0 C55.24603555 3.36905332 55.28509471 4.64059036 55.38574219 8.59790039 C55.43393097 10.32098167 55.43393097 10.32098167 55.48309326 12.07887268 C55.57225689 17.34744052 55.65503992 22.61541443 55.70019531 27.88452148 C55.72678402 30.65866417 55.78228767 33.42983109 55.86425781 36.20288086 C55.98267725 40.20996676 56.01760641 44.21390962 56.046875 48.22265625 C56.09221375 49.45218521 56.13755249 50.68171417 56.18426514 51.94850159 C56.14987762 59.01164364 55.18917646 62.57253548 50.11474609 67.64379883 C48.41886995 69.10641266 46.71491941 70.55976163 45 72 C33.27429279 85.120584 26.76146308 101.33487921 22 118 C14.74 118 7.48 118 0 118 C-2.25008576 112.37478559 -2.25008576 112.37478559 -2.25396729 108.33227539 C-2.25960693 107.42389923 -2.26524658 106.51552307 -2.27105713 105.57962036 C-2.26700867 104.5955722 -2.26296021 103.61152405 -2.25878906 102.59765625 C-2.2622937 101.55157196 -2.26579834 100.50548767 -2.26940918 99.42770386 C-2.27820595 95.97256825 -2.27238448 92.51763767 -2.265625 89.0625 C-2.26697224 86.66023723 -2.26891326 84.25797473 -2.27142334 81.85571289 C-2.27437182 76.82207645 -2.27008574 71.788511 -2.26074219 66.75488281 C-2.2493479 60.30184782 -2.25590883 53.8489792 -2.26788712 47.39595032 C-2.2751131 42.43573757 -2.27281437 37.47556428 -2.26763153 32.51535034 C-2.26629708 30.13589458 -2.26793558 27.75643523 -2.27259064 25.37698364 C-2.27766789 22.05200709 -2.26992848 18.72730022 -2.25878906 15.40234375 C-2.26283752 14.41829559 -2.26688599 13.43424744 -2.27105713 12.42037964 C-2.24270446 7.85362557 -2.19910673 4.13490458 0 0 Z " fill="#21F0AC" transform="translate(234,239)"/>
<path d="M0 0 C2.23913574 -0.38095093 2.23913574 -0.38095093 5.06054688 -0.38818359 C6.64228699 -0.40236832 6.64228699 -0.40236832 8.25598145 -0.4168396 C9.39869507 -0.41076691 10.54140869 -0.40469421 11.71875 -0.3984375 C13.47197571 -0.40274277 13.47197571 -0.40274277 15.26062012 -0.40713501 C17.73543786 -0.40917939 20.21027163 -0.40362355 22.68505859 -0.39111328 C26.48441522 -0.37506583 30.28270792 -0.39095034 34.08203125 -0.41015625 C36.48177319 -0.40817389 38.88151447 -0.40433035 41.28125 -0.3984375 C42.42396362 -0.40451019 43.56667725 -0.41058289 44.74401855 -0.4168396 C45.79851196 -0.40738312 46.85300537 -0.39792664 47.93945312 -0.38818359 C48.8705188 -0.38579681 49.80158447 -0.38341003 50.76086426 -0.38095093 C51.86923645 -0.19238022 51.86923645 -0.19238022 53 0 C55.4853335 3.72800026 55.25334484 5.64734764 55.25878906 10.10180664 C55.2622937 10.82079636 55.26579834 11.53978607 55.26940918 12.28056335 C55.2782121 14.65719251 55.27238315 17.03352407 55.265625 19.41015625 C55.26697192 21.06017616 55.26891267 22.71019568 55.27142334 24.36021423 C55.27437252 27.81773661 55.27008304 31.27515565 55.26074219 34.73266602 C55.2493388 39.17051686 55.25591396 43.60812605 55.26788712 48.04596806 C55.27510367 51.45252819 55.2728189 54.85903073 55.26763153 58.26559258 C55.26629493 59.9023078 55.26794313 61.53902821 55.27259064 63.17573738 C55.27765355 65.45982914 55.26994968 67.74352567 55.25878906 70.02758789 C55.25719788 71.3287001 55.25560669 72.62981232 55.25396729 73.97035217 C55 77 55 77 53 79 C50.76086426 79.25396729 50.76086426 79.25396729 47.93945312 79.25878906 C46.35771301 79.26824554 46.35771301 79.26824554 44.74401855 79.27789307 C43.02994812 79.27182037 43.02994812 79.27182037 41.28125 79.265625 C39.52802429 79.26849518 39.52802429 79.26849518 37.73937988 79.27142334 C35.26456487 79.27278626 32.78974274 79.26908241 30.31494141 79.26074219 C26.51578795 79.25004446 22.71710741 79.26063418 18.91796875 79.2734375 C16.51822812 79.27211592 14.11848778 79.26955357 11.71875 79.265625 C10.00467957 79.27169769 10.00467957 79.27169769 8.25598145 79.27789307 C7.20148804 79.27158875 6.14699463 79.26528442 5.06054688 79.25878906 C4.1294812 79.25719788 3.19841553 79.25560669 2.23913574 79.25396729 C0 79 0 79 -2 77 C-2.25396729 73.97035217 -2.25396729 73.97035217 -2.25878906 70.02758789 C-2.2622937 69.31035049 -2.26579834 68.5931131 -2.26940918 67.85414124 C-2.27823077 65.47688188 -2.27237535 63.09991878 -2.265625 60.72265625 C-2.26697168 59.07360273 -2.26891223 57.4245496 -2.27142334 55.77549744 C-2.2743753 52.31619494 -2.27007524 48.8569956 -2.26074219 45.39770508 C-2.24935649 40.96104485 -2.255901 36.52462681 -2.26788712 32.0879755 C-2.27511141 28.68137281 -2.27281501 25.2748276 -2.26763153 21.86822319 C-2.26629615 20.23233448 -2.26793887 18.59644058 -2.27259064 16.96055794 C-2.27766427 14.67416678 -2.26993369 12.38816851 -2.25878906 10.10180664 C-2.25719788 8.79989883 -2.25560669 7.49799103 -2.25396729 6.15663147 C-2 3 -2 3 0 0 Z " fill="#FF7477" transform="translate(68,278)"/>
<path d="M0 0 C2 1.625 2 1.625 3 4 C2.97838551 7.03467441 2.67151004 9.16649948 0.73291016 11.57275391 C-1.01987353 13.28643419 -2.83138983 14.89879838 -4.6875 16.5 C-6.05946182 17.72804858 -7.42919849 18.95858691 -8.796875 20.19140625 C-9.84584961 21.13137451 -9.84584961 21.13137451 -10.91601562 22.09033203 C-14.77513303 25.62665072 -18.42149246 29.37441331 -22.07885742 33.1171875 C-24.86663351 35.946952 -27.7037968 38.63955593 -30.72265625 41.22265625 C-36.0930114 45.86264824 -41.02087863 50.94979668 -46 56 C-51.49833486 61.5768291 -56.99392784 67.07773614 -62.94921875 72.171875 C-67.32791798 76.0751726 -71.38343597 80.32437479 -75.5 84.5 C-80.95938838 90.03771533 -86.39718175 95.51278654 -92.32617188 100.55102539 C-94.67705221 102.58610048 -96.83618344 104.76856417 -99 107 C-98.67515625 107.78310547 -98.67515625 107.78310547 -98.34375 108.58203125 C-95.05370052 117.27933798 -94.57044246 124.64579698 -98.4375 133.25 C-102.09506314 139.90797545 -106.8193506 144.32320837 -113.8828125 147.15625 C-120.48814189 148.94415871 -128.14592011 149.30675864 -134.4375 146.3125 C-135.64609474 145.57518119 -136.835791 144.8055791 -138 144 C-139.03125 143.34 -140.0625 142.68 -141.125 142 C-146.16796645 137.48349708 -149.34901129 130.67414085 -150.515625 124.08984375 C-150.83416726 116.00114565 -148.21440748 109.62921895 -143.375 103.25 C-138.79017231 98.34503472 -133.45989122 95.4408842 -126.78125 94.58984375 C-119.90154259 94.4049918 -114.35731908 95.4139719 -108 98 C-107.443125 97.43152344 -106.88625 96.86304688 -106.3125 96.27734375 C-105.549375 95.50519531 -104.78625 94.73304688 -104 93.9375 C-102.88625 92.80634766 -102.88625 92.80634766 -101.75 91.65234375 C-99.656342 89.6330344 -97.54951634 87.736637 -95.34375 85.84765625 C-90.13416598 81.32775567 -85.33958251 76.40901698 -80.5 71.5 C-70.48287532 61.33915761 -70.48287532 61.33915761 -66.03125 57.53125 C-60.72942959 52.99066164 -55.89693613 47.96684481 -51 43 C-40.48907257 32.33901855 -40.48907257 32.33901855 -36.09765625 28.62109375 C-32.51196874 25.55951743 -29.26079342 22.24228494 -25.99609375 18.84765625 C-24.91476025 17.73107456 -23.83337948 16.61453864 -22.75195312 15.49804688 C-21.08213052 13.77245659 -19.41851341 12.04239606 -17.76977539 10.29663086 C-16.15298091 8.58891698 -14.51465332 6.90457314 -12.87109375 5.22265625 C-12.3854747 4.69777115 -11.89985565 4.17288605 -11.39952087 3.63209534 C-7.70558219 -0.09110708 -5.14979374 -0.67647721 0 0 Z " fill="#A75927" transform="translate(481,258)"/>
<path d="M0 0 C13.07222885 10.13014154 13.07222885 10.13014154 14.73046875 16.72265625 C16.0089324 27.52474771 15.50093419 35.92830302 9 45 C3.31023576 51.30699705 -3.6126263 54.16967102 -12 55 C-20.54456613 54.73231309 -28.74491111 52.4417156 -34.78125 46.140625 C-41.64824104 37.45590103 -43.10178866 30.01788656 -42 19 C-40.15639764 11.62559056 -35.30786313 4.78601989 -28.91015625 0.6484375 C-20.15796625 -3.8824914 -8.70276901 -5.45872608 0 0 Z " fill="#FE7476" transform="translate(108,177)"/>
<path d="M0 0 C7.862484 4.97422457 14.06767181 10.95301542 17.0625 19.9375 C17.82471746 29.54643814 17.51593615 38.08602313 11.51953125 45.96484375 C6.17478959 51.74988449 -0.50995378 55.4086177 -8.3828125 56.17578125 C-18.36659779 56.45230008 -25.92098668 53.74136299 -33.24609375 46.875 C-39.88681966 39.26807148 -40.55237044 30.66900723 -39.9375 20.9375 C-37.74046452 12.83593167 -31.62989922 5.06870754 -24.375 0.8125 C-17.15447828 -2.33949245 -7.4590295 -2.72015067 0 0 Z " fill="#22EFAB" transform="translate(271.9375,144.0625)"/>
<path d="M0 0 C-1.44667911 3.35953116 -3.25846706 5.43806577 -5.9140625 7.93359375 C-6.67460937 8.66513672 -7.43515625 9.39667969 -8.21875 10.15039062 C-9.82508153 11.67718788 -11.43709803 13.19802589 -13.0546875 14.71289062 C-13.81265625 15.44572266 -14.570625 16.17855469 -15.3515625 16.93359375 C-16.05104004 17.59415771 -16.75051758 18.25472168 -17.47119141 18.93530273 C-19.37445245 21.50570814 -19.46619747 22.8691261 -19 26 C-17.13676984 28.25408734 -17.13676984 28.25408734 -14.24609375 28.44140625 C-10.01128997 27.86555447 -7.96199925 25.85260321 -5.0625 22.9375 C-4.54397461 22.43887451 -4.02544922 21.94024902 -3.49121094 21.42651367 C-1.97902707 19.96550633 -0.48756073 18.48601815 1 17 C1.76957031 16.24460937 2.53914063 15.48921875 3.33203125 14.7109375 C4.90317796 13.15579025 6.45449379 11.58063135 8 10 C11.40448382 12.94023602 12.68325619 16.0721266 13.40625 20.47265625 C13.69453768 28.43660351 11.55236058 34.46470935 7 41 C0.84361078 47.29905065 -5.51360069 50.26771914 -14.375 50.375 C-20.25147306 50.27471889 -24.1871173 49.33029355 -29 46 C-30.03125 45.34 -31.0625 44.68 -32.125 44 C-37.16796645 39.48349708 -40.34901129 32.67414085 -41.515625 26.08984375 C-41.83416726 18.00114565 -39.21440748 11.62921895 -34.375 5.25 C-25.10615496 -4.66604619 -11.90889639 -5.60418654 0 0 Z " fill="#FE7678" transform="translate(372,356)"/>
<path d="M0 0 C1.51756722 0.33333657 3.02633707 0.70929118 4.5234375 1.125 C6.03222935 1.43905451 7.54134338 1.75156527 9.05078125 2.0625 C10.52215067 2.41115341 11.99222575 2.76531549 13.4609375 3.125 C14.21439453 3.30289062 14.96785156 3.48078125 15.74414062 3.6640625 C21.23766943 4.98211596 21.23766943 4.98211596 23.5234375 6.125 C22.65525889 10.76433311 19.85121851 13.19467316 16.58203125 16.39453125 C15.68037987 17.29337288 15.68037987 17.29337288 14.76051331 18.21037292 C13.4853541 19.47881084 12.20660275 20.74364626 10.92456055 22.00512695 C8.98566078 23.91317018 7.05735055 25.83139037 5.13085938 27.75195312 C-0.39316984 33.2400902 -5.92538985 38.64287687 -11.86352539 43.6862793 C-13.47800964 45.12629075 -14.91192818 46.63306107 -16.34765625 48.25 C-22.99317702 55.69460166 -22.99317702 55.69460166 -26.6171875 56.74609375 C-29.07347441 56.52577794 -31.12692892 55.88983674 -33.4765625 55.125 C-34.79960737 54.80469831 -36.12543799 54.49579229 -37.453125 54.1953125 C-48.82509186 51.57378164 -48.82509186 51.57378164 -53.4765625 49.125 C-48.79085844 43.49616701 -43.79176698 38.28921013 -38.6015625 33.125 C-37.83714844 32.35671875 -37.07273437 31.5884375 -36.28515625 30.796875 C-32.76303084 27.28072943 -29.22036196 23.85578 -25.43359375 20.625 C-22.5268709 18.12899406 -19.89244664 15.5022979 -17.29296875 12.6875 C-16.59236328 11.93855469 -15.89175781 11.18960937 -15.16992188 10.41796875 C-13.73548195 8.87440095 -12.31897734 7.31399165 -10.91992188 5.73828125 C-5.00491624 -0.48632523 -5.00491624 -0.48632523 0 0 Z " fill="#D5A757" transform="translate(481.4765625,271.875)"/>
<path d="M0 0 C0.70793701 0.27070313 1.41587402 0.54140625 2.14526367 0.8203125 C2.84530702 3.7136247 3.53058788 6.60914251 4.20776367 9.5078125 C4.40692383 10.32443359 4.60608398 11.14105469 4.8112793 11.98242188 C5.08681641 13.17641602 5.08681641 13.17641602 5.36791992 14.39453125 C5.54073486 15.12244873 5.7135498 15.85036621 5.89160156 16.6003418 C6.21439298 19.4253104 6.08706775 21.11034231 5.14526367 23.8203125 C3.29456401 26.02384933 1.47851679 27.97707914 -0.57739258 29.96875 C-1.15629745 30.54436676 -1.73520233 31.11998352 -2.33164978 31.71304321 C-4.18434411 33.55001658 -6.05071016 35.37240689 -7.91723633 37.1953125 C-9.14661468 38.41319225 -10.37513958 39.63193414 -11.6027832 40.8515625 C-16.96365785 46.15746702 -22.35184066 51.37320151 -28.09082031 56.27246094 C-31.32865344 59.11368752 -34.33124725 62.19215029 -37.35473633 65.2578125 C-38.30219727 66.21204102 -38.30219727 66.21204102 -39.26879883 67.18554688 C-40.79979406 68.72814056 -42.327613 70.27388564 -43.85473633 71.8203125 C-46.15066368 68.37642148 -46.7045029 65.24384019 -47.41723633 61.2578125 C-48.19025804 56.40268922 -48.19025804 56.40268922 -49.85473633 51.8203125 C-50.32348633 49.12890625 -50.32348633 49.12890625 -49.85473633 45.8203125 C-47.99753688 43.18189799 -45.71394853 41.07110218 -43.35473633 38.8828125 C-42.7540332 38.30080078 -42.15333008 37.71878906 -41.53442383 37.11914062 C-38.49973542 34.20390272 -35.3866422 31.41402031 -32.17895508 28.69140625 C-28.51681003 25.51668818 -25.14828221 22.11213112 -21.78051758 18.6328125 C-21.24405609 18.08141098 -20.7075946 17.53000946 -20.15487671 16.9618988 C-17.91926194 14.66308857 -15.68478066 12.36389445 -13.47363281 10.04150391 C-11.83953771 8.32896276 -10.18717726 6.63599596 -8.53051758 4.9453125 C-8.03457596 4.41526611 -7.53863434 3.88521973 -7.02766418 3.33911133 C-3.4959148 -0.22004561 -3.4959148 -0.22004561 0 0 Z " fill="#D6A757" transform="translate(464.854736328125,239.1796875)"/>
<path d="M0 0 C0.47050781 0.40992188 0.94101563 0.81984375 1.42578125 1.2421875 C2.04839844 1.78101563 2.67101562 2.31984375 3.3125 2.875 C4.23482422 3.67550781 4.23482422 3.67550781 5.17578125 4.4921875 C7.13498212 6.1640447 7.13498212 6.1640447 10 8 C8.45872649 11.71268094 6.19156766 13.98115698 3.3125 16.75 C0.29158484 19.7062736 -2.6426517 22.65015436 -5.375 25.875 C-8.89553484 29.99619481 -12.73041738 33.76150755 -16.58618164 37.56445312 C-19.45461755 40.40804822 -22.19670947 43.29273667 -24.8125 46.375 C-27.90323585 50.01384664 -31.30352616 52.98247034 -35 56 C-37.97 53.36 -40.94 50.72 -44 48 C-42.35148193 44.70296386 -41.48470368 43.2454581 -38.98828125 40.828125 C-38.10426636 39.96151245 -38.10426636 39.96151245 -37.20239258 39.07739258 C-36.57872803 38.47435303 -35.95506348 37.87131348 -35.3125 37.25 C-30.94538949 32.9622414 -26.72401841 28.66358632 -22.76953125 23.98828125 C-20.45228872 21.38458049 -17.98000754 18.94678017 -15.5 16.5 C-11.63833124 12.68076716 -7.94849605 8.79922534 -4.4375 4.65625 C-3.02363605 3.02723284 -1.54302144 1.50628283 0 0 Z " fill="#A79BA6" transform="translate(153,131)"/>
<path d="M0 0 C1.34423339 1.65788785 2.67618483 3.32576317 4 5 C6.12603185 6.76323505 6.12603185 6.76323505 8 8 C6.52877384 11.40353022 4.63057487 13.61255749 2.00927734 16.21777344 C1.18857758 17.03832214 0.36787781 17.85887085 -0.47769165 18.70428467 C-1.36419403 19.58046448 -2.25069641 20.45664429 -3.1640625 21.359375 C-4.07127045 22.26375305 -4.97847839 23.1681311 -5.91317749 24.09991455 C-8.31884419 26.49796458 -10.73045736 28.88994618 -13.14337158 31.28070068 C-15.60702344 33.72385171 -18.06498577 36.17271206 -20.5234375 38.62109375 C-25.34373573 43.41933788 -30.16969843 48.21182732 -35 53 C-38.72070823 51.75976392 -39.62521091 50.04269852 -42 47 C-42.99 46.34 -43.98 45.68 -45 45 C-43.53091388 41.61037866 -41.64216474 39.38914109 -39.04101562 36.78222656 C-38.22677124 35.96167786 -37.41252686 35.14112915 -36.5736084 34.29571533 C-35.69338013 33.41953552 -34.81315186 32.54335571 -33.90625 31.640625 C-33.0037854 30.73624695 -32.1013208 29.8318689 -31.17150879 28.90008545 C-29.26404896 26.99126509 -27.35469588 25.08459451 -25.44189453 23.18115234 C-22.98693691 20.73762119 -20.54111007 18.28517765 -18.09784698 15.82995987 C-15.76799406 13.49116087 -13.43055469 11.15997507 -11.09375 8.828125 C-10.21352173 7.94384827 -9.33329346 7.05957153 -8.4263916 6.14849854 C-7.61214722 5.34055847 -6.79790283 4.53261841 -5.95898438 3.70019531 C-5.24109741 2.98389954 -4.52321045 2.26760376 -3.78356934 1.52960205 C-2 0 -2 0 0 0 Z " fill="#A69BA6" transform="translate(321,103)"/>
<path d="M0 0 C7.57778347 4.75918286 15.05208982 9.65602648 22.45605469 14.68139648 C24.15527153 15.83301609 25.8588575 16.97798762 27.5625 18.12304688 C28.63757813 18.85201172 29.71265625 19.58097656 30.8203125 20.33203125 C31.79242676 20.98921143 32.76454102 21.6463916 33.76611328 22.32348633 C36 24 36 24 37 26 C34.69 29.3 32.38 32.6 30 36 C23.54669762 32.53457662 17.5051945 28.75046191 11.5 24.5625 C9.90662471 23.45909411 8.31287593 22.35622737 6.71875 21.25390625 C5.94660156 20.71910645 5.17445313 20.18430664 4.37890625 19.63330078 C0.61322833 17.04787536 -3.19079271 14.52069855 -7 12 C-4.93732622 7.81330899 -2.49487927 3.93928305 0 0 Z " fill="#A79BA7" transform="translate(204,125)"/>
</svg>
