<?xml version="1.0" encoding="UTF-8"?>
<svg version="1.1" xmlns="http://www.w3.org/2000/svg" width="512" height="512">
<path d="M0 0 C0.84867289 -0.00235223 1.69734578 -0.00470446 2.57173604 -0.00712797 C5.44670707 -0.01384292 8.32163317 -0.013359 11.1966114 -0.01294994 C13.26613723 -0.016247 15.33566242 -0.01997223 17.40518677 -0.02409142 C23.11653664 -0.03413727 28.82787599 -0.03783235 34.53923345 -0.04048073 C40.68930273 -0.04437607 46.83936362 -0.05395484 52.98942757 -0.0626936 C67.14998121 -0.08154315 81.31053293 -0.09171664 95.4710956 -0.10015428 C102.46494576 -0.10435815 109.45879505 -0.10958045 116.45264449 -0.11483881 C140.38182388 -0.13272921 164.31100351 -0.14772685 188.2401886 -0.155159 C189.74287987 -0.15563376 191.24557114 -0.15610965 192.74826241 -0.15658666 C193.86608712 -0.15694122 193.86608712 -0.15694122 195.00649415 -0.15730295 C198.78227909 -0.15850418 202.55806402 -0.15971962 206.33384895 -0.16094494 C207.08317118 -0.16118509 207.8324934 -0.16142524 208.60452236 -0.16167267 C232.91112882 -0.16956939 257.21768655 -0.19300878 281.52427172 -0.22550088 C307.20804982 -0.25977145 332.89179939 -0.2795075 358.57560074 -0.28280324 C361.3931199 -0.2832208 364.21063905 -0.28370036 367.02815819 -0.28422642 C368.06882646 -0.28441121 368.06882646 -0.28441121 369.13051833 -0.28459973 C380.31181721 -0.28693508 391.49305963 -0.30261357 402.67433836 -0.32306826 C413.90537878 -0.34328863 425.13635214 -0.34848718 436.36741363 -0.33929763 C442.45594381 -0.33473398 448.54429004 -0.33675853 454.63279533 -0.35605907 C460.20033626 -0.3735565 465.76755721 -0.37280312 471.3351009 -0.35716178 C473.3552912 -0.35476517 475.37550288 -0.35921421 477.39566027 -0.37099043 C480.13038034 -0.38595179 482.86394327 -0.37654707 485.59863281 -0.36076355 C486.39293447 -0.37098576 487.18723614 -0.38120796 488.00560755 -0.39173993 C491.52213125 -0.34708426 493.53079144 -0.16155442 496.38306534 1.97765762 C499.63335575 6.52307813 499.10864178 11.16021386 499.11265755 16.50922108 C499.12490364 17.36000233 499.13714973 18.21078358 499.14976692 19.08734608 C499.16889207 27.2729105 499.16889207 27.2729105 496.92515755 31.13422108 C493.92515755 33.13422108 493.92515755 33.13422108 477.92515755 33.13422108 C477.92515755 140.05422108 477.92515755 246.97422108 477.92515755 357.13422108 C482.21515755 357.13422108 486.50515755 357.13422108 490.92515755 357.13422108 C496.17037386 358.91226051 496.17037386 358.91226051 498.05088997 361.95673084 C499.62035157 365.86570265 499.25259014 369.91149953 499.23765755 374.07172108 C499.25377083 374.96568592 499.26988411 375.85965076 499.28648567 376.78070545 C499.29015796 381.72727623 499.14946083 385.12541578 495.92515755 389.13422108 C493.92515755 391.13422108 493.92515755 391.13422108 491.89108968 391.36831808 C491.04582683 391.3608391 490.20056399 391.35336011 489.32968712 391.34565449 C487.86841341 391.34020186 487.86841341 391.34020186 486.37761903 391.33463907 C485.29963792 391.32042618 484.2216568 391.30621329 483.1110096 391.29156971 C481.97170046 391.28466193 480.83239131 391.27775414 479.65855765 391.27063704 C476.48615442 391.24977391 473.31396828 391.22005629 470.14167285 391.18703246 C466.72360158 391.15379249 463.30545891 391.13235608 459.88730049 391.11024952 C455.49164718 391.08119382 451.09601064 391.0511474 446.70039701 391.01655102 C435.78770053 390.93099874 424.87518187 390.8779441 413.96220589 390.84479237 C413.17310012 390.84233413 412.38399435 390.83987589 411.57097629 390.83734316 C405.06993004 390.81714787 398.56888014 390.79823365 392.06782991 390.77937543 C386.20760454 390.76222923 380.34738502 390.74374992 374.48716927 390.72357655 C373.23383016 390.71928358 373.23383016 390.71928358 371.95517108 390.71490389 C358.43950722 390.66683553 344.92484543 390.56104758 331.40970603 390.43554717 C317.52614527 390.30813408 303.64346467 390.24969587 289.75931621 390.25293589 C281.20044107 390.25264585 272.64544304 390.19830109 264.08746222 390.0735271 C258.21154464 389.99288418 252.33778038 389.97901173 246.4614391 390.01639247 C243.07342625 390.03596263 239.69755459 390.01716104 236.30960846 389.93806362 C222.74914679 389.20588412 222.74914679 389.20588412 210.47866344 393.91112232 C206.22401807 398.11342614 203.06262445 402.8369257 200.13557768 408.02767944 C198.55809006 410.77304303 196.68947587 413.24015048 194.7415638 415.73187733 C193.65427325 417.21821993 192.56946365 418.70638198 191.48765755 420.19672108 C187.06872036 426.26428182 182.53682311 432.20493678 177.92515755 438.13422108 C177.59515755 462.55422108 177.26515755 486.97422108 176.92515755 512.13422108 C115.54515755 512.13422108 54.16515755 512.13422108 -9.07484245 512.13422108 C-9.11609245 494.19047108 -9.15734245 476.24672108 -9.19984245 457.75922108 C-9.21805046 452.10748768 -9.23625847 446.45575428 -9.25501823 440.63275623 C-9.26405144 433.69550037 -9.26405144 433.69550037 -9.2657299 430.44095325 C-9.26878753 428.18305134 -9.27579346 425.92515256 -9.28599358 423.66727161 C-9.30071995 420.23383436 -9.30265152 416.80059553 -9.30189323 413.36713123 C-9.31268756 411.87532306 -9.31268756 411.87532306 -9.32369995 410.35337734 C-9.30712456 404.71355826 -8.72794364 399.67424645 -7.27853012 394.21367931 C-6.7986962 391.787723 -6.7986962 391.787723 -9.38734245 389.19672108 C-10.27421745 388.51609608 -11.16109245 387.83547108 -12.07484245 387.13422108 C-13.50211833 382.85239346 -13.29932014 378.74476671 -13.32484245 374.25922108 C-13.34546745 373.36074451 -13.36609245 372.46226795 -13.38734245 371.53656483 C-13.43858603 362.86358896 -13.43858603 362.86358896 -10.07484245 359.13422108 C-5.07484245 357.13422108 -5.07484245 357.13422108 7.92515755 357.13422108 C7.92515755 335.68422108 7.92515755 314.23422108 7.92515755 292.13422108 C6.27515755 291.47422108 4.62515755 290.81422108 2.92515755 290.13422108 C-2.63757027 286.26301662 -6.69189736 281.91550445 -8.07484245 275.13422108 C-8.80145882 266.00959637 -7.53685162 259.85057041 -1.51234245 252.75922108 C1.59240798 249.30059586 1.59240798 249.30059586 3.92515755 248.13422108 C2.27515755 247.80422108 0.62515755 247.47422108 -1.07484245 247.13422108 C-1.17709942 239.96678462 -1.24666416 232.79953947 -1.29456902 225.63153553 C-1.31456068 223.19819579 -1.34176319 220.76490333 -1.37660027 218.33173084 C-1.79149399 188.58751172 -1.79149399 188.58751172 4.96959114 179.3370409 C8.13674088 173.76877514 7.49510681 167.53246663 7.47105598 161.30438709 C7.47979979 159.90434596 7.49028838 158.5043148 7.50238228 157.10429859 C7.53016463 153.3196298 7.5336487 149.53528833 7.53266239 145.75053239 C7.53579821 141.78931961 7.5614303 137.82825281 7.58464241 133.86711597 C7.62515483 126.37333231 7.64553189 118.87963557 7.6586163 111.38575929 C7.67450251 102.85121961 7.71292493 94.3168275 7.75320959 85.78237355 C7.83554338 68.23303346 7.88967616 50.68371716 7.92515755 33.13422108 C6.26226692 33.20383045 6.26226692 33.20383045 4.56578255 33.27484608 C3.10226787 33.31237209 1.63872399 33.34877137 0.17515755 33.38422108 C-0.55445183 33.4177367 -1.2840612 33.45125233 -2.03577995 33.48578358 C-5.59629781 33.55052027 -7.63118438 33.46484525 -10.52796745 31.30609608 C-13.84729737 26.64562276 -13.29362584 21.74554062 -13.32484245 16.25922108 C-13.34546745 15.36074451 -13.36609245 14.46226795 -13.38734245 13.53656483 C-13.41647621 8.60567586 -13.37767261 5.09441063 -10.07484245 1.13422108 C-6.90240128 -0.45199951 -3.48381448 -0.00646905 0 0 Z " fill="#FDE1C9" transform="translate(13.07484245300293,-0.13422107696533203)"/>
<path d="M0 0 C3.39743025 1.51866698 6.01618284 3.50279002 8.875 5.875 C9.84179688 6.67679687 10.80859375 7.47859375 11.8046875 8.3046875 C15.82246865 11.68082675 19.7997934 15.10416741 23.77539062 18.52978516 C29.10680876 23.11580845 34.53024888 27.57954808 40 32 C35.78063546 38.52351473 31.24808651 44.72850445 26.5 50.875 C21.26214091 57.69965066 16.08030221 64.5572383 11 71.5 C5.12789419 79.52370408 -0.87571282 87.44141714 -6.93554688 95.32421875 C-7.58201172 96.16726563 -8.22847656 97.0103125 -8.89453125 97.87890625 C-9.47050049 98.6272876 -10.04646973 99.37566895 -10.63989258 100.14672852 C-12.04915517 101.95776313 -12.04915517 101.95776313 -13 104 C-11.70163649 103.99208089 -10.40327297 103.98416178 -9.06556511 103.97600269 C21.75145286 103.78871631 52.56851379 103.61704705 83.38572241 103.46462174 C87.17837281 103.44584922 90.97102254 103.42694485 94.76367188 103.40795898 C95.51872355 103.40418144 96.27377522 103.40040389 97.05170725 103.39651188 C109.27914481 103.33502316 121.50649719 103.26285195 133.73385145 103.1867362 C146.27923113 103.1088784 158.82463366 103.04249273 171.37013137 102.98676747 C179.11206178 102.95201703 186.85383535 102.90830756 194.59564774 102.85315516 C200.5309897 102.81183027 206.46633234 102.78646304 212.40178871 102.7670784 C214.83748372 102.756618 217.27316271 102.74095912 219.70878792 102.71975899 C223.03051184 102.69161779 226.35178685 102.6820643 229.6736145 102.67720032 C230.64054737 102.66457084 231.60748024 102.65194137 232.60371411 102.63892919 C237.8259236 102.65348509 241.49285882 103.04628598 246 106 C248.97210219 110.16522333 248.33013953 115.02312777 248.3125 119.9375 C248.32861328 120.83146484 248.34472656 121.72542969 248.36132812 122.64648438 C248.36500041 127.59305516 248.22430328 130.9911947 245 135 C243 137 243 137 240.96593213 137.234097 C240.12066929 137.22661802 239.27540644 137.21913903 238.40452957 137.21143341 C237.4303471 137.20779832 236.45616463 137.20416324 235.45246148 137.200418 C234.37448037 137.18620511 233.29649926 137.17199222 232.18585205 137.15734863 C231.04654291 137.15044085 229.90723377 137.14353307 228.73340011 137.13641596 C225.56099687 137.11555284 222.38881074 137.08583522 219.2165153 137.05281138 C215.79844403 137.01957141 212.38030136 136.99813501 208.96214294 136.97602844 C204.56648964 136.94697275 200.1708531 136.91692632 195.77523947 136.88232994 C184.86254298 136.79677766 173.95002433 136.74372302 163.03704834 136.71057129 C162.24794257 136.70811305 161.4588368 136.70565481 160.64581874 136.70312208 C154.14477249 136.6829268 147.6437226 136.66401257 141.14267236 136.64515436 C135.28244699 136.62800816 129.42222747 136.60952884 123.56201172 136.58935547 C122.72645232 136.58649349 121.89089292 136.58363152 121.03001353 136.58068281 C107.51434967 136.53261445 93.99968788 136.42682651 80.48454848 136.3013261 C66.60098772 136.173913 52.71830713 136.1154748 38.83415866 136.11871481 C30.27528352 136.11842477 21.72028549 136.06408001 13.16230467 135.93930602 C7.28638709 135.8586631 1.41262284 135.84479065 -4.46371844 135.88217139 C-7.8517313 135.90174155 -11.22760296 135.88293996 -14.61554909 135.80384254 C-28.17601076 135.07166304 -28.17601076 135.07166304 -40.4464941 139.77690125 C-44.70113947 143.97920506 -47.86253309 148.70270462 -50.78957987 153.89345837 C-52.36706749 156.63882195 -54.23568167 159.10592941 -56.18359375 161.59765625 C-57.2708843 163.08399885 -58.35569389 164.57216091 -59.4375 166.0625 C-63.85643719 172.13006074 -68.38833444 178.07071571 -73 184 C-73.33 208.42 -73.66 232.84 -74 258 C-135.38 258 -196.76 258 -260 258 C-260.04125 240.05625 -260.0825 222.1125 -260.125 203.625 C-260.14320801 197.9732666 -260.16141602 192.3215332 -260.18017578 186.49853516 C-260.18920898 179.5612793 -260.18920898 179.5612793 -260.19088745 176.30673218 C-260.19394508 174.04883026 -260.20095101 171.79093148 -260.21115112 169.53305054 C-260.22587749 166.09961328 -260.22780907 162.66637445 -260.22705078 159.23291016 C-260.23784511 157.74110198 -260.23784511 157.74110198 -260.2488575 156.21915627 C-260.2322821 150.57933718 -259.65310118 145.54002538 -258.20368767 140.07945824 C-257.72385375 137.65350193 -257.72385375 137.65350193 -260.3125 135.0625 C-261.199375 134.381875 -262.08625 133.70125 -263 133 C-264.42727587 128.71817238 -264.22447769 124.61054564 -264.25 120.125 C-264.270625 119.22652344 -264.29125 118.32804687 -264.3125 117.40234375 C-264.36374358 108.72936788 -264.36374358 108.72936788 -261 105 C-257.15831309 103.07461567 -254.0992922 102.77641217 -249.83276367 102.86474609 C-248.61187546 102.88491791 -247.39098724 102.90508972 -246.13310242 102.9258728 C-244.82460831 102.95806915 -243.5161142 102.9902655 -242.16796875 103.0234375 C-240.80749708 103.04962656 -239.44700733 103.07489179 -238.08650208 103.09927368 C-234.51723239 103.16571029 -230.94834582 103.24464832 -227.37939453 103.32623291 C-223.73289622 103.40736323 -220.08617416 103.47661219 -216.43945312 103.546875 C-209.29270603 103.68631905 -202.14629613 103.83897743 -195 104 C-195 104.66 -195 105.32 -195 106 C-194.33871094 106.21914063 -193.67742187 106.43828125 -192.99609375 106.6640625 C-189.0034342 108.4443618 -185.62539392 110.86079445 -182.0625 113.375 C-180.00961741 114.80875927 -177.9563919 116.24155316 -175.89501953 117.66308594 C-174.68624984 118.51585878 -173.49674882 119.39710932 -172.33544922 120.31347656 C-170.66616899 121.64673015 -170.66616899 121.64673015 -168 123 C-161.83342472 121.17100216 -156.57202425 116.99359874 -151.25 113.5 C-149.65091797 112.46552734 -149.65091797 112.46552734 -148.01953125 111.41015625 C-147.00761719 110.74886719 -145.99570313 110.08757812 -144.953125 109.40625 C-144.02661133 108.80103516 -143.10009766 108.19582031 -142.14550781 107.57226562 C-139.89765608 106.17623145 -139.89765608 106.17623145 -139 104 C-137.94949463 104.10062744 -136.89898926 104.20125488 -135.81665039 104.30493164 C-113.83491237 106.61743046 -113.83491237 106.61743046 -93.90367126 99.19429016 C-86.64792957 93.01051165 -80.75922757 85.55017618 -75 78 C-67.72506211 69.01043744 -59.16694733 61.10492344 -50.9609375 52.98144531 C-41.57520966 43.74042062 -41.57520966 43.74042062 -32.75 33.97265625 C-28.09996028 28.73098201 -22.95683257 23.91049137 -17.97021484 18.99072266 C-12.08520491 13.17750418 -6.3561032 7.31285529 -1 1 C-0.67 0.67 -0.34 0.34 0 0 Z " fill="#C3E1FE" transform="translate(264,254)"/>
<path d="M0 0 C13.86 0 27.72 0 42 0 C42 107.25 42 214.5 42 325 C-37.2 325 -116.4 325 -198 325 C-196.52688963 322.05377925 -195.22464911 319.78821467 -193.3046875 317.19140625 C-192.76199219 316.45535156 -192.21929687 315.71929687 -191.66015625 314.9609375 C-191.07105469 314.16945313 -190.48195313 313.37796875 -189.875 312.5625 C-189.25753906 311.72847656 -188.64007813 310.89445312 -188.00390625 310.03515625 C-182.72816003 302.93034371 -177.36143106 295.89618779 -171.98632812 288.86645508 C-167.40175501 282.86229051 -162.86348729 276.82635 -158.375 270.75 C-157.81941406 270.00041016 -157.26382813 269.25082031 -156.69140625 268.47851562 C-152.96902165 263.42023874 -149.44174007 258.2529384 -146 253 C-146.67804688 252.45472656 -147.35609375 251.90945313 -148.0546875 251.34765625 C-152.80720197 247.49693469 -157.47924078 243.62101363 -162 239.5 C-165.43882922 236.36636006 -168.94868468 233.36775637 -172.5625 230.4375 C-173.46871094 229.69757813 -174.37492187 228.95765625 -175.30859375 228.1953125 C-177.08642084 226.74518358 -178.87019442 225.30231108 -180.66015625 223.8671875 C-186.62367404 218.89601419 -186.62367404 218.89601419 -188.3125 214.875 C-187.64702223 208.75260447 -182.37952434 203.94303659 -178.4375 199.4375 C-177.36815131 198.20211565 -176.29914876 196.9664316 -175.23046875 195.73046875 C-174.42295166 194.79920166 -174.42295166 194.79920166 -173.59912109 193.84912109 C-171.13258692 190.99697913 -168.68788428 188.12664329 -166.25 185.25 C-165.79874756 184.71842285 -165.34749512 184.1868457 -164.88256836 183.63916016 C-161.36909831 179.48156463 -157.98372155 175.23316497 -154.65625 170.92578125 C-152.39831541 168.30039976 -150.65528253 167.1078313 -147.22265625 166.54296875 C-142.87391597 167.15969919 -140.53677942 169.4176489 -137.4375 172.3125 C-136.33498182 173.31185858 -135.22956126 174.30802565 -134.12109375 175.30078125 C-133.59757324 175.77209473 -133.07405273 176.2434082 -132.53466797 176.72900391 C-130.85151214 178.18914288 -130.85151214 178.18914288 -128.09765625 179.73046875 C-127.05931641 180.35888672 -127.05931641 180.35888672 -126 181 C-126 181.66 -126 182.32 -126 183 C-125.46375 183.226875 -124.9275 183.45375 -124.375 183.6875 C-121.21499137 185.43382056 -118.7323017 187.6402849 -116 190 C-111.89601743 188.44791379 -109.62172126 185.4964969 -106.9375 182.1875 C-105.95721227 181.00375632 -104.97673835 179.82016681 -103.99609375 178.63671875 C-103.49835449 178.03134277 -103.00061523 177.4259668 -102.48779297 176.80224609 C-101.07746547 175.09383822 -99.65430556 173.39759044 -98.22265625 171.70703125 C-97.79920394 171.20683755 -97.37575163 170.70664385 -96.93946743 170.19129276 C-96.03143146 169.12440189 -95.11851609 168.06162697 -94.19881535 167.00477505 C-91.84852702 164.28393677 -89.65708384 161.55962148 -87.65855408 158.56886292 C-84.15225968 153.53087222 -81.22191 149.67003029 -75.19314575 147.85202026 C-70.75170863 147.31210886 -66.33916827 147.48381504 -61.87890625 147.65234375 C-60.24514602 147.664336 -58.611328 147.66996532 -56.9775238 147.66957092 C-52.70762881 147.68277809 -48.44270728 147.76991359 -44.17425537 147.87695312 C-37.32146209 148.03581763 -30.46695699 148.07960758 -23.61265373 148.12549019 C-21.22525898 148.1519683 -18.84019232 148.20948026 -16.45350647 148.27220154 C-14.99318335 148.29525227 -13.53285133 148.31774849 -12.07250977 148.33959961 C-10.79996841 148.36992783 -9.52742706 148.40025604 -8.21632385 148.4315033 C-4.40778397 147.92054806 -3.3092505 146.99798769 -1 144 C0.3284921 141.3430158 0.12287926 139.3450849 0.12025452 136.36862183 C0.12162918 135.17106262 0.12300385 133.97350342 0.12442017 132.73965454 C0.12088081 131.40570044 0.117246 130.07174658 0.11352539 128.73779297 C0.11324344 127.338501 0.11340142 125.93920888 0.1139679 124.53991699 C0.11425554 120.73435878 0.10836406 116.92883191 0.10139394 113.123281 C0.095155 109.14876812 0.09455617 105.17425457 0.09336853 101.19973755 C0.09025681 93.67036256 0.08204556 86.14100203 0.07201904 78.61163342 C0.06085297 70.04101449 0.0553462 61.47039489 0.05032361 52.8997705 C0.03986283 35.26650379 0.02151931 17.63325692 0 0 Z " fill="#FDD5B0" transform="translate(449,33)"/>
<path d="M0 0 C1.57458256 -0.00711937 3.14916258 -0.0148209 4.72373962 -0.02307129 C8.00576008 -0.03643595 11.28754023 -0.03812007 14.56958008 -0.03222656 C18.75120071 -0.02632104 22.9316641 -0.05699366 27.11306095 -0.09734344 C30.35869941 -0.1233271 33.60406247 -0.12608861 36.84979057 -0.12245178 C38.3906083 -0.12413135 39.93144037 -0.13366034 41.47215462 -0.15159607 C50.34087727 -0.24354189 58.13027824 0.00733394 65.52734375 5.46875 C66.6274024 6.62154377 67.69609047 7.80601359 68.71484375 9.03125 C72.40166445 13.084138 76.55034376 13.73149085 81.75854492 14.92138672 C92.39324499 17.47308274 99.76847411 23.32886096 105.52734375 32.46875 C105.98536377 33.1913501 106.44338379 33.9139502 106.9152832 34.65844727 C112.58882421 45.67963679 111.06361337 58.17403362 110.83984375 70.21875 C110.81472727 72.57289296 110.79192004 74.92706175 110.77148438 77.28125 C110.71676217 83.01098629 110.63340257 88.73974602 110.52734375 94.46875 C107.55734375 94.96375 107.55734375 94.96375 104.52734375 95.46875 C105.04683594 95.78585938 105.56632813 96.10296875 106.1015625 96.4296875 C112.03448204 100.3995893 115.38699261 104.61370833 117.52734375 111.46875 C118.65094784 118.61805392 117.71248632 124.52286784 113.52734375 130.46875 C109.50102613 134.99835733 105.39511804 138.69477173 99.52734375 140.46875 C97.19526355 140.54521165 94.85888497 140.56018299 92.52734375 140.46875 C92.57761719 141.31308594 92.62789062 142.15742188 92.6796875 143.02734375 C92.09674477 156.19587047 82.00170538 170.99263405 72.69140625 179.7734375 C67.09814822 184.1551595 60.88282773 188.29100801 54.52734375 191.46875 C54.55536205 193.22359408 54.59143895 194.97874897 54.67205811 196.73196411 C54.82198884 202.29295301 54.6489217 206.12034093 51.00195312 210.50488281 C48.24678271 212.78627267 45.27763755 214.67621686 42.19091797 216.47607422 C40.25861008 217.60469192 38.38983808 218.805116 36.515625 220.02734375 C27.50589849 225.6902634 27.50589849 225.6902634 23.98852539 224.89404297 C19.50503061 222.29760982 15.20122492 219.47318054 10.89624023 216.59179688 C9.20783795 215.46407065 7.51155081 214.34896001 5.81445312 213.234375 C4.75419922 212.52796875 3.69394531 211.8215625 2.6015625 211.09375 C1.62791748 210.44664062 0.65427246 209.79953125 -0.34887695 209.1328125 C-1.04972412 208.58367187 -1.75057129 208.03453125 -2.47265625 207.46875 C-2.47265625 206.80875 -2.47265625 206.14875 -2.47265625 205.46875 C-18.31265625 205.46875 -34.15265625 205.46875 -50.47265625 205.46875 C-50.47265625 183.68875 -50.47265625 161.90875 -50.47265625 139.46875 C-52.12265625 138.80875 -53.77265625 138.14875 -55.47265625 137.46875 C-61.03538406 133.59754554 -65.08971116 129.25003338 -66.47265625 122.46875 C-67.19927261 113.3441253 -65.93466542 107.18509934 -59.91015625 100.09375 C-56.80540581 96.63512478 -56.80540581 96.63512478 -54.47265625 95.46875 C-56.12265625 95.13875 -57.77265625 94.80875 -59.47265625 94.46875 C-59.57491321 87.30131355 -59.64447795 80.13406839 -59.69238281 72.96606445 C-59.71237447 70.53272471 -59.73957699 68.09943225 -59.77441406 65.66625977 C-60.05699781 45.40749825 -59.24342918 30.68539904 -44.84765625 15.34375 C-31.67736263 2.64735001 -17.59099824 -0.00976631 0 0 Z " fill="#FECDBE" transform="translate(71.47265625,152.53125)"/>
<path d="M0 0 C0.67605071 -0.00297112 1.35210142 -0.00594224 2.04863852 -0.0090034 C4.32481172 -0.01770808 6.60093243 -0.01920014 8.87712097 -0.02069092 C10.50475172 -0.02531786 12.13238138 -0.03034236 13.76000977 -0.03573608 C18.18983743 -0.0488745 22.61964992 -0.05530791 27.04949403 -0.05974674 C29.81580132 -0.06267531 32.58210445 -0.06677971 35.34840965 -0.07125092 C43.99977754 -0.08493 52.65113594 -0.09459449 61.3025139 -0.09845281 C71.29612301 -0.10293392 81.28959537 -0.12048252 91.28316289 -0.1494534 C99.00296555 -0.17105738 106.72272971 -0.18115641 114.44256228 -0.18249393 C119.05545883 -0.18354293 123.66822691 -0.18947089 128.28109169 -0.20731354 C132.62064402 -0.22377193 136.959971 -0.22596064 141.29954338 -0.21717453 C142.89227018 -0.21640294 144.48500898 -0.22076294 146.07770538 -0.23063278 C148.25251231 -0.24331938 150.42651715 -0.23749409 152.60131836 -0.22705078 C153.81825284 -0.22851734 155.03518732 -0.2299839 156.2889986 -0.2314949 C160.77360357 0.28940414 163.3963681 1.8356369 166.27838135 5.27058411 C167.96197116 9.25462881 167.9183451 12.77367738 167.89518738 17.0581665 C167.90205063 17.94658737 167.90891388 18.83500824 167.91598511 19.75035095 C167.93425668 22.68132601 167.93041505 25.61176596 167.92472839 28.54278564 C167.92929005 30.5839302 167.93459558 32.62507321 167.94061279 34.66621399 C167.94954463 38.94243614 167.94711992 43.21847155 167.93717957 47.49468994 C167.9256905 52.97029753 167.94590028 58.44526018 167.9750967 63.92078304 C167.99345703 68.13560571 167.99316654 72.35027379 167.98745918 76.56512642 C167.98730594 78.58371447 167.99335233 80.60231298 168.00575066 82.62086296 C168.02065531 85.44542585 168.00998734 88.26879675 167.99284363 91.09332275 C168.00734558 92.33958435 168.00734558 92.33958435 168.0221405 93.61102295 C167.9549945 98.90345548 167.01008252 101.94344852 163.49113464 106.14044189 C160.53948511 107.61626666 157.96996929 107.18466548 154.67741394 107.10772705 C153.22346324 107.07829282 151.76949804 107.04956905 150.31552124 107.02145386 C149.54233236 107.00542744 148.76914349 106.98940102 147.97252464 106.97288895 C143.00059833 106.8832797 138.02781136 106.86502618 133.05522442 106.83654213 C128.6945485 106.80756731 124.33750202 106.75199154 119.97819519 106.63653564 C100.23589745 105.10020258 100.23589745 105.10020258 82.43351746 111.34014893 C79.53098288 114.32234546 77.44490803 117.52833675 75.556427 121.22193909 C73.77126385 124.43686924 71.3131073 127.04338953 68.86613464 129.76544189 C67.97853951 130.81067329 67.09396742 131.85848702 66.21379089 132.90997314 C63.24923696 136.42895411 60.27657309 139.94104407 57.30363464 143.45294189 C56.37261717 144.55317871 55.44162487 145.65343683 54.51066589 146.75372314 C53.84422058 147.54134033 53.17777527 148.32895752 52.49113464 149.14044189 C48.97310775 147.88877775 46.44923531 146.51441504 43.67863464 144.01544189 C43.07406433 143.47661377 42.46949402 142.93778564 41.84660339 142.38262939 C41.39929871 141.97270752 40.95199402 141.56278564 40.49113464 141.14044189 C41.07800568 138.03810858 41.94739416 136.27147206 44.04582214 133.92559814 C44.57337097 133.32771484 45.1009198 132.72983154 45.64445496 132.11383057 C46.21260925 131.4832373 46.78076355 130.85264404 47.36613464 130.20294189 C48.54647398 128.86758028 49.72614894 127.53163114 50.90519714 126.19512939 C51.50235535 125.5219165 52.09951355 124.84870361 52.71476746 124.15509033 C55.42799557 121.07791079 58.08928012 117.95802162 60.74113464 114.82794189 C61.43892029 114.01111938 61.43892029 114.01111938 62.15080261 113.17779541 C64.57402361 110.33244283 64.57402361 110.33244283 66.49113464 107.14044189 C65.57516006 107.15154495 64.65918549 107.16264801 63.7154541 107.17408752 C55.07871684 107.27431741 46.4421752 107.35042105 37.80498981 107.39950275 C33.36458823 107.4255848 28.92466762 107.46095672 24.48454285 107.51763916 C20.19864368 107.57200969 15.91320681 107.60187291 11.62698936 107.61482811 C9.99267995 107.62405905 8.35839555 107.64208544 6.72428322 107.66909218 C4.43287842 107.70545204 2.14337772 107.71038472 -0.14826965 107.70806885 C-1.45176865 107.71917191 -2.75526764 107.73027496 -4.0982666 107.74171448 C-8.35855186 106.99064614 -9.78723119 105.4116689 -12.50886536 102.14044189 C-12.83886536 101.81044189 -13.16886536 101.48044189 -13.50886536 101.14044189 C-13.63076337 98.25062757 -13.68751404 95.38430897 -13.70173645 92.4932251 C-13.70991394 91.5858812 -13.71809143 90.67853729 -13.72651672 89.74369812 C-13.7514278 86.72621328 -13.76790326 83.70877572 -13.78230286 80.69122314 C-13.78762653 79.66256826 -13.79295021 78.63391338 -13.79843521 77.57408714 C-13.82519446 72.12721882 -13.84455851 66.68037362 -13.85896301 61.23345947 C-13.8755974 55.60525412 -13.92035741 49.97763587 -13.97133446 44.34965229 C-14.00499125 40.02505317 -14.01653892 35.70059343 -14.02219009 31.37587547 C-14.0289093 29.30142937 -14.04414866 27.22699265 -14.0680809 25.15267372 C-14.09969469 22.24617415 -14.09977448 19.34125767 -14.09236145 16.43463135 C-14.11696945 15.15089127 -14.11696945 15.15089127 -14.14207458 13.84121704 C-14.0981767 9.63145785 -13.79094878 6.95796724 -11.09739685 3.62205505 C-7.21396453 -0.10097354 -5.29926045 0.01296551 0 0 Z " fill="#89C8FD" transform="translate(282.5088653564453,74.85955810546875)"/>
<path d="M0 0 C0.84867289 -0.00235223 1.69734578 -0.00470446 2.57173604 -0.00712797 C5.44670707 -0.01384292 8.32163317 -0.013359 11.1966114 -0.01294994 C13.26613723 -0.016247 15.33566242 -0.01997223 17.40518677 -0.02409142 C23.11653664 -0.03413727 28.82787599 -0.03783235 34.53923345 -0.04048073 C40.68930273 -0.04437607 46.83936362 -0.05395484 52.98942757 -0.0626936 C67.14998121 -0.08154315 81.31053293 -0.09171664 95.4710956 -0.10015428 C102.46494576 -0.10435815 109.45879505 -0.10958045 116.45264449 -0.11483881 C140.38182388 -0.13272921 164.31100351 -0.14772685 188.2401886 -0.155159 C189.74287987 -0.15563376 191.24557114 -0.15610965 192.74826241 -0.15658666 C193.86608712 -0.15694122 193.86608712 -0.15694122 195.00649415 -0.15730295 C198.78227909 -0.15850418 202.55806402 -0.15971962 206.33384895 -0.16094494 C207.08317118 -0.16118509 207.8324934 -0.16142524 208.60452236 -0.16167267 C232.91112882 -0.16956939 257.21768655 -0.19300878 281.52427172 -0.22550088 C307.20804982 -0.25977145 332.89179939 -0.2795075 358.57560074 -0.28280324 C361.3931199 -0.2832208 364.21063905 -0.28370036 367.02815819 -0.28422642 C368.06882646 -0.28441121 368.06882646 -0.28441121 369.13051833 -0.28459973 C380.31181721 -0.28693508 391.49305963 -0.30261357 402.67433836 -0.32306826 C413.90537878 -0.34328863 425.13635214 -0.34848718 436.36741363 -0.33929763 C442.45594381 -0.33473398 448.54429004 -0.33675853 454.63279533 -0.35605907 C460.20033626 -0.3735565 465.76755721 -0.37280312 471.3351009 -0.35716178 C473.3552912 -0.35476517 475.37550288 -0.35921421 477.39566027 -0.37099043 C480.13038034 -0.38595179 482.86394327 -0.37654707 485.59863281 -0.36076355 C486.39293447 -0.37098576 487.18723614 -0.38120796 488.00560755 -0.39173993 C491.52213125 -0.34708426 493.53079144 -0.16155442 496.38306534 1.97765762 C499.63335575 6.52307813 499.10864178 11.16021386 499.11265755 16.50922108 C499.12490364 17.36000233 499.13714973 18.21078358 499.14976692 19.08734608 C499.16889207 27.2729105 499.16889207 27.2729105 496.92515755 31.13422108 C493.13284491 33.6624295 490.12012175 33.41416503 485.72726727 33.39148998 C484.45252716 33.39674909 484.45252716 33.39674909 483.15203473 33.40211445 C480.27910904 33.41148393 477.4063836 33.40649092 474.53344917 33.40164661 C472.4630593 33.40538008 470.39267084 33.40998037 468.32228464 33.41537726 C462.61317905 33.42766014 456.90413183 33.4273406 451.19501603 33.42498851 C445.04564128 33.42458168 438.89628558 33.43560661 432.74691963 33.44510365 C420.69219092 33.46174318 408.63748709 33.46724037 396.58274991 33.4683284 C386.78880129 33.46924661 376.99485903 33.4733587 367.20091248 33.47972965 C364.38428496 33.48152467 361.56765744 33.48330429 358.75102991 33.48507941 C358.05086003 33.4855215 357.35069015 33.4859636 356.62930301 33.48641909 C336.92886765 33.49873134 317.22843449 33.50661982 297.52799511 33.50573254 C296.78489818 33.50570138 296.04180125 33.50567022 295.27618623 33.50563812 C291.50964283 33.5054719 287.74309942 33.50527382 283.97655601 33.5050687 C283.22847211 33.50502881 282.4803882 33.50498892 281.70963509 33.50494782 C280.1968269 33.50486695 278.68401871 33.50478335 277.17121052 33.50469704 C253.62733549 33.50347116 230.08351805 33.51848986 206.5396595 33.54584217 C180.10444805 33.57654069 153.66927443 33.59377604 127.23404402 33.59191573 C124.41710214 33.59176646 121.60016026 33.59166905 118.78321838 33.59160709 C117.74276986 33.59157213 117.74276986 33.59157213 116.68130218 33.59153646 C105.50285173 33.59147483 94.32445114 33.60426454 83.14601553 33.62147162 C71.91845301 33.63839731 60.69096288 33.64008185 49.46338827 33.62725298 C43.37687993 33.62069737 37.2905529 33.62069925 31.20406151 33.63795948 C25.6384049 33.65358097 20.07307502 33.65093927 14.50742691 33.63339122 C12.48794188 33.63029709 10.46843312 33.63404335 8.44897605 33.64511137 C5.71521127 33.65910857 2.98261238 33.64874461 0.24888897 33.63199902 C-0.54512684 33.64193538 -1.33914266 33.65187173 -2.15721956 33.6621092 C-5.67291312 33.61621062 -7.68118939 33.42951072 -10.53257567 31.29060996 C-13.85496651 26.64526148 -13.2936947 21.73343801 -13.32484245 16.25922108 C-13.34546745 15.36074451 -13.36609245 14.46226795 -13.38734245 13.53656483 C-13.41647621 8.60567586 -13.37767261 5.09441063 -10.07484245 1.13422108 C-6.90240128 -0.45199951 -3.48381448 -0.00646905 0 0 Z " fill="#0268B4" transform="translate(13.07484245300293,-0.13422107696533203)"/>
<path d="M0 0 C1.57458256 -0.00711937 3.14916258 -0.0148209 4.72373962 -0.02307129 C8.00576008 -0.03643595 11.28754023 -0.03812007 14.56958008 -0.03222656 C18.75120071 -0.02632104 22.9316641 -0.05699366 27.11306095 -0.09734344 C30.35869941 -0.1233271 33.60406247 -0.12608861 36.84979057 -0.12245178 C38.3906083 -0.12413135 39.93144037 -0.13366034 41.47215462 -0.15159607 C50.34087727 -0.24354189 58.13027824 0.00733394 65.52734375 5.46875 C66.6274024 6.62154377 67.69609047 7.80601359 68.71484375 9.03125 C72.40166445 13.084138 76.55034376 13.73149085 81.75854492 14.92138672 C93.65460166 17.77573338 100.603758 24.63864643 106.9152832 34.67602539 C112.50257114 45.58897849 111.06606053 57.79669876 110.83984375 69.71875 C110.81472607 72.02471537 110.79191904 74.33070713 110.77148438 76.63671875 C110.71677442 82.24797798 110.63342484 87.85823909 110.52734375 93.46875 C106.24065687 93.51850174 101.95412678 93.5546347 97.66723633 93.57861328 C96.21147734 93.5886185 94.75573818 93.60222696 93.30004883 93.61962891 C91.19737835 93.64412044 89.09497551 93.65528794 86.9921875 93.6640625 C85.09907837 93.67977295 85.09907837 93.67977295 83.16772461 93.69580078 C75.85507954 93.23971065 71.0726196 90.99550579 65.52734375 86.46875 C65.52734375 85.80875 65.52734375 85.14875 65.52734375 84.46875 C64.83769531 84.86707031 64.14804688 85.26539063 63.4375 85.67578125 C62.49777344 86.20558594 61.55804688 86.73539062 60.58984375 87.28125 C59.67332031 87.80332031 58.75679688 88.32539063 57.8125 88.86328125 C50.12086499 92.62221346 43.40312625 93.91402517 34.86694336 93.90112305 C33.84150421 93.9113147 32.81606506 93.92150635 31.759552 93.93200684 C28.39954053 93.96199079 25.03981484 93.97138056 21.6796875 93.98046875 C19.33841515 93.99732623 16.9971518 94.0154779 14.65589905 94.03486633 C8.51574514 94.08225612 2.3756277 94.11213688 -3.76464844 94.13830566 C-10.03913574 94.16816676 -16.31349753 94.21467804 -22.58789062 94.25976562 C-34.8827467 94.34567341 -47.17762869 94.41307444 -59.47265625 94.46875 C-59.57491321 87.30131355 -59.64447795 80.13406839 -59.69238281 72.96606445 C-59.71237447 70.53272471 -59.73957699 68.09943225 -59.77441406 65.66625977 C-60.05699781 45.40749825 -59.24342918 30.68539904 -44.84765625 15.34375 C-31.67736263 2.64735001 -17.59099824 -0.00976631 0 0 Z " fill="#C3573A" transform="translate(71.47265625,152.53125)"/>
<path d="M0 0 C0.90909622 -0.0049649 1.81819244 -0.00992981 2.75483704 -0.01504517 C5.77170562 -0.02968738 8.7885216 -0.03647248 11.80541992 -0.04199219 C13.89808657 -0.04774227 15.99075319 -0.05350002 18.0834198 -0.05926514 C22.4758631 -0.06978122 26.86828806 -0.0756198 31.26074219 -0.07910156 C36.8899747 -0.08458527 42.51896521 -0.10860822 48.14812183 -0.13707352 C52.47267871 -0.15569545 56.79717727 -0.16090528 61.12177086 -0.16243744 C63.19701141 -0.16546587 65.27225089 -0.1735008 67.34745216 -0.18662262 C70.25135327 -0.20367243 73.15466293 -0.2018053 76.05859375 -0.1953125 C76.9164447 -0.20452728 77.77429565 -0.21374207 78.65814209 -0.22323608 C83.33243998 -0.19048802 86.44764458 0.0973711 90.22338867 3.16113281 C92.85092038 7.10243038 92.51121855 10.47716303 92.49804688 15.05126953 C92.50315781 15.96051178 92.50826874 16.86975403 92.51353455 17.80654907 C92.52745637 20.81803943 92.52647166 23.82930156 92.52416992 26.84082031 C92.52805575 28.93205857 92.53239019 31.02329603 92.53715515 33.11453247 C92.54462318 37.50102291 92.5443221 41.88743288 92.5390625 46.27392578 C92.53327062 51.89530467 92.55018938 57.51635378 92.57340717 63.13767815 C92.58814013 67.4579562 92.58901674 71.77815479 92.58589745 76.09845352 C92.58641099 78.17089618 92.59165498 80.24334324 92.60170937 82.31576157 C92.61404623 85.21479443 92.60729819 88.11318445 92.59570312 91.01220703 C92.60334686 91.86848694 92.6109906 92.72476685 92.61886597 93.60699463 C92.57783396 98.24858932 92.33783596 101.45785702 89.22338867 105.16113281 C86.46540938 106.81151895 84.40644484 107.41350568 81.20741272 107.43528748 C80.41820938 107.4452626 79.62900604 107.45523773 78.81588745 107.46551514 C77.53078781 107.46651215 77.53078781 107.46651215 76.21972656 107.4675293 C75.31033829 107.47585281 74.40095001 107.48417633 73.46400452 107.49275208 C70.45797445 107.51684718 67.45216131 107.52562291 64.44604492 107.53222656 C62.35623611 107.54119209 60.26642796 107.55031392 58.17662048 107.55958557 C53.79611653 107.57607597 49.41568903 107.58377599 45.03515625 107.58666992 C39.42147431 107.5920588 33.8085102 107.62975984 28.19503117 107.67541409 C23.87903718 107.70514934 19.56321696 107.71239269 15.24712944 107.71339607 C13.17745101 107.71760411 11.10777232 107.73006169 9.03819466 107.75091362 C6.14373977 107.77775901 3.25096096 107.77302329 0.35644531 107.76049805 C-0.49826355 107.77533234 -1.35297241 107.79016663 -2.23358154 107.80545044 C-6.60618781 107.75154727 -8.25516139 107.57929941 -11.78492737 104.74867249 C-14.66160924 101.01136846 -14.9173748 99.14636326 -15.0012207 94.47729492 C-15.02373901 93.28522934 -15.04625732 92.09316376 -15.06945801 90.86497498 C-15.14042404 85.39091151 -15.19819545 79.91701375 -15.23657227 74.44262695 C-15.25878364 71.5585524 -15.30045009 68.67578508 -15.35961914 65.79223633 C-15.43109995 62.30139925 -15.46746115 58.81178467 -15.47969055 55.32025337 C-15.49502545 53.3564892 -15.54479838 51.39309002 -15.59533691 49.42991638 C-15.57850556 41.85834861 -14.65176789 37.5405605 -9.4107666 31.93751526 C-7.54993058 30.11628692 -7.54993058 30.11628692 -6.46411133 27.03613281 C-6.94310433 22.62939719 -9.5855938 20.09363753 -12.77661133 17.16113281 C-13.43661133 16.83113281 -14.09661133 16.50113281 -14.77661133 16.16113281 C-15.40400763 7.18588011 -15.40400763 7.18588011 -12.90161133 3.09863281 C-8.90802799 -0.54257552 -5.15702421 0.00667284 0 0 Z " fill="#8AC9FD" transform="translate(356.776611328125,215.8388671875)"/>
<path d="M0 0 C3.4481739 2.48261816 6.67495491 5.21118921 9.87792969 8 C13.17703152 10.82456239 16.63660143 13.42075043 20.1171875 16.015625 C20.7373877 16.50135986 21.35758789 16.98709473 21.99658203 17.48754883 C25.23203109 20.02570612 25.23203109 20.02570612 29.1640625 20.62109375 C31.05414003 19.70747576 31.05414003 19.70747576 32.8671875 17.703125 C33.56079083 20.1771833 34.22099398 22.65408981 34.8671875 25.140625 C35.05796875 25.80900391 35.24875 26.47738281 35.4453125 27.16601562 C39.73251092 44.08513796 36.12067086 63.14001299 34.66595459 80.27062988 C34.37878516 83.67086928 34.10003076 87.07179734 33.8203125 90.47265625 C32.54793796 105.88684179 31.20706422 121.29454269 29.8671875 136.703125 C4.7871875 136.703125 -20.2928125 136.703125 -46.1328125 136.703125 C-46.21303012 109.65196137 -46.21303012 109.65196137 -46.23046875 98.08984375 C-46.24240791 90.21139826 -46.25650759 82.33299941 -46.28369141 74.45458984 C-46.30547808 68.10036077 -46.31739345 61.74618174 -46.32256699 55.39191818 C-46.32625228 52.97192981 -46.33344868 50.55194406 -46.34427261 48.13197708 C-46.3588648 44.73327031 -46.3607872 41.33476839 -46.35986328 37.93603516 C-46.36705383 36.94340668 -46.37424438 35.9507782 -46.38165283 34.92807007 C-46.34874298 23.68447391 -44.69193225 15.30180935 -37.1328125 6.703125 C-27.76917492 -2.1745753 -11.74303336 -7.40775124 0 0 Z " fill="#C3E1FE" transform="translate(50.1328125,375.296875)"/>
<path d="M0 0 C1.16525774 -0.01128937 2.33051548 -0.02257874 3.53108406 -0.03421021 C4.48278197 -0.04902939 5.43447989 -0.06384857 6.41501713 -0.07911682 C9.81960062 0.09391401 12.08668224 0.99401571 14.79257393 3.04171753 C17.54396227 7.49609054 17.12331999 11.89586372 17.10507393 16.97921753 C17.12118721 17.87318237 17.13730049 18.76714722 17.15390205 19.6882019 C17.15757434 24.63477269 17.01687721 28.03291223 13.79257393 32.04171753 C11.79257393 34.04171753 11.79257393 34.04171753 9.74239671 34.29011452 C8.88954485 34.28935508 8.03669299 34.28859564 7.15799713 34.28781319 C6.17518088 34.29179528 5.19236462 34.29577738 4.17976606 34.29988015 C2.54846988 34.29114162 2.54846988 34.29114162 0.88421822 34.28222656 C-0.83956238 34.28478984 -0.83956238 34.28478984 -2.59816682 34.28740489 C-5.79755018 34.29013811 -8.99677307 34.28385523 -12.19613743 34.27384877 C-15.64262396 34.26523712 -19.08910258 34.26813281 -22.53559685 34.26965332 C-28.51006291 34.27070362 -34.4844854 34.26441188 -40.45894051 34.25317764 C-49.09706527 34.23694525 -57.7351689 34.23171696 -66.37330727 34.22920166 C-80.38703591 34.224821 -94.40074131 34.21150185 -108.41445732 34.19259644 C-122.03001603 34.17424723 -135.64556844 34.16008603 -149.26113701 34.15158081 C-150.09995732 34.15105536 -150.93877763 34.15052992 -151.80301674 34.14998855 C-156.01099945 34.14737853 -160.21898221 34.1448511 -164.426965 34.14236474 C-199.35380193 34.12162069 -234.28061186 34.08638508 -269.20742607 34.04171753 C-266.95951312 30.06662251 -264.80464593 26.29038845 -261.96523857 22.70187378 C-261.37355888 21.94841675 -260.7818792 21.19495972 -260.17226982 20.41867065 C-259.56512138 19.65490112 -258.95797295 18.89113159 -258.33242607 18.10421753 C-257.12601871 16.57480433 -255.92028419 15.04486014 -254.71523857 13.51437378 C-254.18559502 12.84671997 -253.65595146 12.17906616 -253.1102581 11.49118042 C-251.23831266 9.18808798 -251.23831266 9.18808798 -250.05304819 7.08766842 C-246.51500823 1.5010702 -246.51500823 1.5010702 -243.08861148 0.29737949 C-240.50477168 0.01591172 -238.02286391 -0.01363508 -235.42408562 0.04171753 C-234.4439953 0.03079858 -233.46390499 0.01987963 -232.45411497 0.0086298 C-229.17155878 -0.018248 -225.89201953 0.0118595 -222.60952568 0.04171753 C-220.2553658 0.03411079 -217.90121503 0.02299139 -215.54708672 0.00862122 C-209.15180535 -0.02043681 -202.75750845 -0.00024488 -196.36226153 0.02863693 C-190.34360148 0.05212296 -184.32499398 0.03118788 -178.30634255 0.01427782 C-166.37166542 -0.01805525 -154.43727494 -0.01475656 -142.50259209 0.01095581 C-130.94329125 0.035783 -119.38417908 0.04399806 -107.82485771 0.0295105 C-107.11391836 0.02862529 -106.40297901 0.02774008 -105.67049604 0.02682805 C-102.10194293 0.02228159 -98.53339036 0.01740635 -94.96483791 0.01237106 C-70.32731103 -0.02201841 -45.68994634 -0.02047599 -21.05241203 0.01631165 C-20.01319387 0.01779992 -18.9739757 0.0192882 -17.90326607 0.02082157 C-15.92892806 0.02410395 -13.9545912 0.02821411 -11.98025692 0.03326321 C-7.98637423 0.04264357 -3.99366639 0.04592073 0 0 Z " fill="#0268B4" transform="translate(495.207426071167,356.9582824707031)"/>
<path d="M0 0 C0.33 0 0.66 0 1 0 C1.00808685 0.74280212 1.01617371 1.48560425 1.02450562 2.25091553 C1.10248018 9.25470437 1.18977942 16.2583006 1.28752708 23.26183701 C1.33745076 26.86234441 1.38378095 30.46282303 1.421875 34.06347656 C1.45877774 37.53899166 1.50515086 41.01426368 1.55806351 44.48957062 C1.58558648 46.45925455 1.60332708 48.42906728 1.62094116 50.39886475 C1.64081085 51.59980774 1.66068054 52.80075073 1.68115234 54.03808594 C1.69447601 55.09509705 1.70779968 56.15210815 1.7215271 57.2411499 C2.00480999 60.04765294 2.44450093 61.66538938 4 64 C7.94674251 66.63116167 11.32629411 66.28030061 15.90600586 66.25878906 C16.8168544 66.2622937 17.72770294 66.26579834 18.66615295 66.26940918 C21.68246035 66.27822443 24.69853389 66.27237754 27.71484375 66.265625 C29.80847722 66.26697183 31.9021104 66.2689125 33.9957428 66.27142334 C38.38643365 66.27437442 42.7770432 66.27007787 47.16772461 66.26074219 C52.79810793 66.24935474 58.42830043 66.2559028 64.05867672 66.26788712 C68.38319844 66.27511211 72.70767488 66.27281471 77.03219795 66.26763153 C79.1082518 66.26629644 81.18430975 66.26793783 83.26035881 66.27259064 C86.16188323 66.27766553 89.06309825 66.26993163 91.96459961 66.25878906 C92.82447479 66.26283752 93.68434998 66.26688599 94.57028198 66.27105713 C95.36237564 66.26541748 96.1544693 66.25977783 96.9705658 66.25396729 C97.65617049 66.25321323 98.34177519 66.25245918 99.04815578 66.25168228 C101.45533157 65.94128687 102.95089959 65.30645349 105 64 C105.99 62.68 106.98 61.36 108 60 C108 73.86 108 87.72 108 102 C42.66 102 -22.68 102 -90 102 C-88.52688963 99.05377925 -87.22464911 96.78821467 -85.3046875 94.19140625 C-84.76199219 93.45535156 -84.21929687 92.71929687 -83.66015625 91.9609375 C-83.07105469 91.16945313 -82.48195313 90.37796875 -81.875 89.5625 C-81.25753906 88.72847656 -80.64007813 87.89445312 -80.00390625 87.03515625 C-74.7285222 79.93083143 -69.36390171 72.89574839 -63.98632812 65.86865234 C-58.26269171 58.37758592 -52.6573047 50.80393164 -47.0859375 43.19921875 C-46.57248779 42.50787842 -46.05903809 41.81653809 -45.5300293 41.10424805 C-44.47168272 39.64870486 -43.44627581 38.16884736 -42.44848633 36.67114258 C-41.05614935 34.63916124 -39.72424833 32.7593108 -38 31 C-35.40234375 30.61328125 -35.40234375 30.61328125 -32.9375 31.3125 C-30.37452081 31.81780269 -30.37452081 31.81780269 -28 32 C-25.64494401 30.33422869 -24.67632022 29.24003853 -23 27 C-21.59064052 25.45165043 -20.17307897 23.91074959 -18.75 22.375 C-13.98889041 17.05842762 -9.48283756 11.55142094 -5 6 C-3.35887895 3.97204327 -1.70684707 1.97354192 0 0 Z " fill="#FDE1CA" transform="translate(341,256)"/>
<path d="M0 0 C3.39743025 1.51866698 6.01618284 3.50279002 8.875 5.875 C9.84179688 6.67679687 10.80859375 7.47859375 11.8046875 8.3046875 C15.82246865 11.68082675 19.7997934 15.10416741 23.77539062 18.52978516 C29.10680876 23.11580845 34.53024888 27.57954808 40 32 C35.78063546 38.52351473 31.24808651 44.72850445 26.5 50.875 C21.26213585 57.69965725 16.08057142 64.55743138 11 71.5 C6.07466168 78.22519767 1.06635566 84.88041514 -4 91.5 C-11.4556085 101.24515434 -18.75435089 111.09813679 -26 121 C-26.94122857 122.28398443 -27.88262582 123.56784524 -28.82421875 124.8515625 C-29.26878418 125.45774414 -29.71334961 126.06392578 -30.17138672 126.68847656 C-31.05712891 127.89615885 -31.94287109 129.10384115 -32.82861328 130.31152344 C-33.27317871 130.91770508 -33.71774414 131.52388672 -34.17578125 132.1484375 C-34.63033691 132.7681543 -35.08489258 133.38787109 -35.55322266 134.02636719 C-36.56131991 135.40157107 -37.56875649 136.77725941 -38.57568359 138.15332031 C-47.26984704 150.03115352 -56.11511214 161.78478648 -65.07226562 173.46557617 C-66.02649414 174.72011597 -66.02649414 174.72011597 -67 176 C-67.505242 176.4875174 -68.01048401 176.97503479 -68.53103638 177.47732544 C-74.79449702 184.17163382 -73.85756389 192.37993271 -73.8046875 200.96875 C-73.81594965 202.61643407 -73.82983553 204.26410209 -73.84622192 205.91174316 C-73.88213842 210.22566234 -73.88264904 214.53887106 -73.87554932 218.85290527 C-73.87463393 223.26404388 -73.90753002 227.67491974 -73.9375 232.0859375 C-73.99124827 240.72411706 -74.00442927 249.36165417 -74 258 C-83.9 258 -93.8 258 -104 258 C-104.31902583 248.81030309 -104.57463459 239.62440488 -104.72537041 230.43037701 C-104.79779764 226.15889603 -104.8956176 221.89146423 -105.05615234 217.62231445 C-106.29470222 183.7944129 -106.29470222 183.7944129 -95.54000854 171.66007996 C-94.32893154 170.39865124 -93.09976056 169.15431443 -91.8520813 167.92907715 C-88.53715332 164.47633897 -85.87828073 160.52875351 -83.125 156.625 C-77.49249375 148.96021888 -71.74232166 141.38966818 -65.96142578 133.83642578 C-61.57954805 128.10139884 -57.26470535 122.32258859 -53 116.5 C-47.4133758 108.87259983 -41.70723662 101.34355435 -35.9609375 93.8359375 C-31.57935674 88.10097273 -27.26457042 82.32240437 -23 76.5 C-18.07435109 69.77502728 -13.06643144 63.11953755 -8 56.5 C-2.6460914 49.50334093 2.65105351 42.46931564 7.875 35.375 C8.46410156 34.57513672 9.05320312 33.77527344 9.66015625 32.95117188 C11.82903904 29.99664864 13.96647142 27.05029286 16 24 C14.89942261 23.599021 14.89942261 23.599021 13.77661133 23.18994141 C11.05280366 22.02262947 8.95684411 20.70933884 6.57421875 18.9609375 C5.77822266 18.38085938 4.98222656 17.80078125 4.16210938 17.203125 C3.34548828 16.59984375 2.52886719 15.9965625 1.6875 15.375 C0.85154297 14.76398438 0.01558594 14.15296875 -0.84570312 13.5234375 C-2.90068461 12.02036533 -4.95192117 10.51245679 -7 9 C-5.27845212 5.23511958 -3.00765886 2.84936103 0 0 Z " fill="#B3DAFD" transform="translate(264,254)"/>
<path d="M0 0 C2.41180568 1.7053464 4.42649451 3.31738533 6.5625 5.3125 C7.66501818 6.31185858 8.77043874 7.30802565 9.87890625 8.30078125 C10.66418701 9.00775146 10.66418701 9.00775146 11.46533203 9.72900391 C13.14848786 11.18914288 13.14848786 11.18914288 15.90234375 12.73046875 C16.59457031 13.14941406 17.28679687 13.56835938 18 14 C18 14.66 18 15.32 18 16 C18.86818359 16.40798828 18.86818359 16.40798828 19.75390625 16.82421875 C25.61178396 19.89069039 30.41066287 24.30139294 35 29 C35.82242188 29.69351563 36.64484375 30.38703125 37.4921875 31.1015625 C38.85730469 32.25785156 38.85730469 32.25785156 40.25 33.4375 C41.12140625 34.15808594 41.9928125 34.87867188 42.890625 35.62109375 C45.49320432 38.55622488 46.05944126 40.08183044 46 44 C43.38016882 48.94270417 39.50835314 53.01650431 35.8125 57.1875 C30.40680033 63.35454454 25.16780455 69.63187205 20 76 C18.19445853 78.21412881 16.38073475 80.42128768 14.5625 82.625 C13.73878906 83.62789063 12.91507812 84.63078125 12.06640625 85.6640625 C9.74447364 88.28885589 8.82569532 88.83888872 5.4375 89.5 C0.04982794 88.71633861 -2.96299616 85.50718308 -7 82 C-8.15216228 81.00890358 -9.30451934 80.01803358 -10.45703125 79.02734375 C-13.02715119 76.81071601 -15.58810214 74.58395974 -18.14453125 72.3515625 C-21.71270253 69.2404821 -25.31811197 66.17619106 -28.9375 63.125 C-29.46988281 62.67261963 -30.00226563 62.22023926 -30.55078125 61.75415039 C-32.85939261 59.79320836 -35.1793657 57.85744135 -37.55078125 55.97265625 C-40.72145762 53.39894559 -42.68897207 51.76201842 -44.25 47.9375 C-43.72587806 41.77906722 -38.38589345 36.95031617 -34.4375 32.4375 C-33.36815131 31.20211565 -32.29914876 29.9664316 -31.23046875 28.73046875 C-30.69212402 28.10962402 -30.1537793 27.4887793 -29.59912109 26.84912109 C-27.13258692 23.99697913 -24.68788428 21.12664329 -22.25 18.25 C-21.57312134 17.45263428 -21.57312134 17.45263428 -20.88256836 16.63916016 C-17.36909831 12.48156463 -13.98372155 8.23316497 -10.65625 3.92578125 C-7.37873389 0.11489577 -4.87943168 -0.69199213 0 0 Z " fill="#FECDBF" transform="translate(305,200)"/>
<path d="M0 0 C11.88 0.33 23.76 0.66 36 1 C36 1.33 36 1.66 36 2 C34.02 2.33 32.04 2.66 30 3 C30.51949219 3.31710938 31.03898437 3.63421875 31.57421875 3.9609375 C37.50713829 7.9308393 40.85964886 12.14495833 43 19 C44.12360409 26.14930392 43.18514257 32.05411784 39 38 C34.97368238 42.52960733 30.86777429 46.22602173 25 48 C22.6679198 48.07646165 20.33154122 48.09143299 18 48 C18.05027344 48.84433594 18.10054688 49.68867188 18.15234375 50.55859375 C17.56940102 63.72712047 7.47436163 78.52388405 -1.8359375 87.3046875 C-7.42919553 91.6864095 -13.64451602 95.82225801 -20 99 C-19.9719817 100.75484408 -19.9359048 102.50999897 -19.85528564 104.26321411 C-19.70535491 109.82420301 -19.87842205 113.65159093 -23.52539062 118.03613281 C-26.28056104 120.31752267 -29.2497062 122.20746686 -32.33642578 124.00732422 C-34.26873367 125.13594192 -36.13750567 126.336366 -38.01171875 127.55859375 C-44.54271501 131.6635471 -44.54271501 131.6635471 -48 133 C-50.53881836 132.39453125 -50.53881836 132.39453125 -53 131 C-53.91434814 130.5241748 -54.82869629 130.04834961 -55.77075195 129.55810547 C-75.37069347 118.38992818 -75.37069347 118.38992818 -78.11474609 112.68066406 C-79.06813043 107.91272921 -78.32818759 103.62406051 -77 99 C-76.32453125 99.20496094 -75.6490625 99.40992188 -74.953125 99.62109375 C-74.06109375 99.89050781 -73.1690625 100.15992188 -72.25 100.4375 C-71.36828125 100.70433594 -70.4865625 100.97117187 -69.578125 101.24609375 C-57.26448999 104.84689914 -46.5225273 101.34346918 -35.3359375 95.40625 C-31.25249508 92.94799035 -27.5998125 90.11635311 -24 87 C-23.32066406 86.41605469 -22.64132813 85.83210938 -21.94140625 85.23046875 C-16.00520658 79.73398757 -11.69001035 73.1739297 -8 66 C-8 65.01 -8 64.02 -8 63 C-8.66 62.566875 -9.32 62.13375 -10 61.6875 C-12 60 -12 60 -12.4375 56.9375 C-12.293125 55.968125 -12.14875 54.99875 -12 54 C-8.81237635 51.87491756 -6.73487777 51.4979837 -3 51 C-2.67 50.01 -2.34 49.02 -2 48 C0.29296875 47.19140625 0.29296875 47.19140625 3.1875 46.5625 C10.52665549 44.71109596 14.75583184 41.87906635 19.01953125 35.68359375 C22.25962027 30.11993492 21.61028333 23.19197582 21 17 C19.09844183 11.83186473 15.69332218 7.85680481 11 5 C7.37771815 3.5244453 3.71451676 2.22299326 0 1 C0 0.67 0 0.34 0 0 Z " fill="#FEBEB0" transform="translate(146,245)"/>
<path d="M0 0 C1.22088821 0.02017181 2.44177643 0.04034363 3.69966125 0.06112671 C5.00815536 0.09332306 6.31664948 0.12551941 7.66479492 0.15869141 C9.02526659 0.18488046 10.38575634 0.2101457 11.7462616 0.23452759 C15.31553129 0.30096419 18.88441785 0.37990223 22.45336914 0.46148682 C26.09986745 0.54261714 29.74658951 0.61186609 33.39331055 0.68212891 C40.54005765 0.82157296 47.68646754 0.97423134 54.83276367 1.13525391 C54.83276367 1.79525391 54.83276367 2.45525391 54.83276367 3.13525391 C55.49405273 3.35439453 56.1553418 3.57353516 56.83666992 3.79931641 C60.82932947 5.57961571 64.20736975 7.99604835 67.77026367 10.51025391 C69.82314626 11.94401317 71.87637177 13.37680707 73.93774414 14.79833984 C75.14651383 15.65111269 76.33601485 16.53236322 77.49731445 17.44873047 C79.16659468 18.78198406 79.16659468 18.78198406 81.83276367 20.13525391 C87.99933895 18.30625607 93.26073943 14.12885264 98.58276367 10.63525391 C99.64881836 9.94560547 100.71487305 9.25595703 101.81323242 8.54541016 C102.82514648 7.88412109 103.83706055 7.22283203 104.87963867 6.54150391 C105.80615234 5.93628906 106.73266602 5.33107422 107.68725586 4.70751953 C109.93510759 3.31148536 109.93510759 3.31148536 110.83276367 1.13525391 C123.37276367 1.13525391 135.91276367 1.13525391 148.83276367 1.13525391 C146.85276367 3.44525391 144.87276367 5.75525391 142.83276367 8.13525391 C141.9424646 9.2202417 141.9424646 9.2202417 141.03417969 10.32714844 C136.81142475 15.40537822 132.14566171 19.20488975 126.77026367 23.01025391 C125.94260498 23.60523682 125.11494629 24.20021973 124.26220703 24.81323242 C122.5873687 26.01633081 120.91007129 27.21601394 119.23022461 28.41210938 C117.00458745 30.01175775 114.80899729 31.64373336 112.62182617 33.29541016 C111.98768799 33.7680127 111.3535498 34.24061523 110.70019531 34.72753906 C109.52613379 35.60256666 108.35824726 36.48596228 107.19775391 37.37890625 C103.3731545 40.1839671 103.3731545 40.1839671 100.88818359 39.95996094 C98.30526465 38.92360268 97.03518807 37.58963234 95.16088867 35.53759766 C94.49702148 34.81894531 93.8331543 34.10029297 93.14916992 33.35986328 C92.12629883 32.22774414 92.12629883 32.22774414 91.08276367 31.07275391 C90.38538086 30.31414062 89.68799805 29.55552734 88.96948242 28.77392578 C87.2497129 26.9010261 85.53795278 25.02142126 83.83276367 23.13525391 C80.50314719 24.71054231 78.29614879 26.43023906 75.70776367 29.07275391 C75.02456055 29.76240234 74.34135742 30.45205078 73.63745117 31.16259766 C71.67431793 33.20786403 71.67431793 33.20786403 69.83276367 36.13525391 C69.17276367 36.13525391 68.51276367 36.13525391 67.83276367 36.13525391 C67.17276367 37.45525391 66.51276367 38.77525391 65.83276367 40.13525391 C62.62087494 39.52074349 60.55361518 38.43868563 57.92651367 36.51025391 C56.8203772 35.70334106 56.8203772 35.70334106 55.69189453 34.88012695 C54.91338135 34.30431885 54.13486816 33.72851074 53.33276367 33.13525391 C52.52395752 32.55235596 51.71515137 31.96945801 50.88183594 31.36889648 C47.32566181 28.79163534 43.83972517 26.21757765 40.57885742 23.27197266 C34.13948909 17.65655687 29.35200706 16.08927401 20.99121094 16.40698242 C11.82468201 17.12757258 4.03323526 20.14533236 -2.16723633 27.13525391 C-3.71486889 29.4176675 -4.92935725 31.65949575 -6.16723633 34.13525391 C-9.42912789 33.57285881 -11.07858481 32.72120341 -13.16723633 30.13525391 C-14.5945122 25.85342629 -14.39171402 21.74579954 -14.41723633 17.26025391 C-14.43786133 16.36177734 -14.45848633 15.46330078 -14.47973633 14.53759766 C-14.53097991 5.86462179 -14.53097991 5.86462179 -11.16723633 2.13525391 C-7.32554942 0.20986958 -4.26652853 -0.08833392 0 0 Z " fill="#B2D8FC" transform="translate(14.167236328125,356.86474609375)"/>
<path d="M0 0 C4.65609136 2.07277751 7.54390703 5.35190186 11 9 C12.2375 10.1446875 12.2375 10.1446875 13.5 11.3125 C15.8448059 15.51361058 14.97934482 19.41363165 14 24 C13.66500488 24.89485107 13.33000977 25.78970215 12.98486328 26.71166992 C8.01227781 43.31448444 13.39843984 65.51352354 15 82.625 C15.50318062 88.01010024 16.00070951 93.39563729 16.48690796 98.78229904 C16.73435618 101.48911926 16.99426042 104.19468947 17.25764465 106.90000343 C18.01734035 115.76398966 18 123.97085763 18 133 C6.78 133 -4.44 133 -16 133 C-16 123.72242897 -15.8042373 114.83938659 -14.94140625 105.65625 C-14.8327977 104.44408813 -14.72418915 103.23192627 -14.61228943 101.98303223 C-14.26819407 98.15479998 -13.91570548 94.3274014 -13.5625 90.5 C-13.21460778 86.67245934 -12.86849506 82.84476361 -12.52342224 79.01696777 C-12.30950579 76.65032963 -12.09371842 74.28385947 -11.87562561 71.91760254 C-8.86515847 46.5288731 -8.86515847 46.5288731 -12.34375 21.515625 C-13.06355405 18.75637613 -13.40902071 16.83202385 -13 14 C-11.171875 11.46484375 -11.171875 11.46484375 -8.75 8.9375 C-7.96109375 8.10089844 -7.1721875 7.26429688 -6.359375 6.40234375 C-4.25140669 4.25598528 -2.13457443 2.11988699 0 0 Z " fill="#FB5650" transform="translate(96,379)"/>
<path d="M0 0 C0.33 0 0.66 0 1 0 C1 14.85 1 29.7 1 45 C-0.32 43.68 -1.64 42.36 -3 41 C-6.95947562 39.68017479 -10.76077596 39.82757559 -14.89013672 39.80712891 C-15.79937897 39.79895142 -16.70862122 39.79077393 -17.64541626 39.78234863 C-20.65683331 39.75751828 -23.66820337 39.74098659 -26.6796875 39.7265625 C-28.22179083 39.71857698 -28.22179083 39.71857698 -29.79504776 39.71043015 C-35.23428858 39.68371165 -40.67350652 39.66433065 -46.11279297 39.64990234 C-51.73431228 39.63323756 -57.35524727 39.58844051 -62.97654533 39.5375309 C-67.29681078 39.50390572 -71.61693653 39.49233024 -75.93732071 39.48667526 C-78.00980227 39.47995212 -80.08227431 39.46470258 -82.15462875 39.44078445 C-85.05393191 39.40922533 -87.95164496 39.40908202 -90.85107422 39.41650391 C-92.13549408 39.3918959 -92.13549408 39.3918959 -93.44586182 39.36679077 C-97.80904083 39.41253302 -99.48284009 39.59296639 -103.02761841 42.38290405 C-105.08676928 45.11513164 -105.66184232 46.4478119 -105.8125 49.8125 C-105.874375 51.194375 -105.93625 52.57625 -106 54 C-108.31 52.35 -110.62 50.7 -113 49 C-111.84960321 44.39841285 -109.69106518 41.99624662 -106.625 38.5625 C-105.5242872 37.30508336 -104.42403667 36.04726193 -103.32421875 34.7890625 C-102.76653809 34.15516602 -102.20885742 33.52126953 -101.63427734 32.86816406 C-99.68666958 30.64182785 -97.76941358 28.39179408 -95.8660574 26.12757206 C-94.53816588 24.55659398 -93.19357045 22.99977697 -91.84767151 21.44419861 C-89.9691935 19.23252448 -88.27599176 16.98710802 -86.66465759 14.57496643 C-83.15674861 9.53544778 -80.2236614 5.67065803 -74.19290161 3.85177612 C-69.75157352 3.3120817 -65.33904045 3.48381987 -60.87890625 3.65234375 C-59.24514602 3.664336 -57.611328 3.66996532 -55.9775238 3.66957092 C-51.70762881 3.68277809 -47.44270728 3.76991359 -43.17425537 3.87695312 C-36.32146209 4.03581763 -29.46695699 4.07960758 -22.61265373 4.12549019 C-20.22525898 4.1519683 -17.84019232 4.20948026 -15.45350647 4.27220154 C-13.99318335 4.29525227 -12.53285133 4.31774849 -11.07250977 4.33959961 C-9.79996841 4.36992783 -8.52742706 4.40025604 -7.21632385 4.4315033 C-3.42538848 3.92290989 -2.37434776 2.89934738 0 0 Z " fill="#FBE1CA" transform="translate(448,177)"/>
<path d="M0 0 C1.04264558 -0.01169993 1.04264558 -0.01169993 2.10635471 -0.02363622 C4.42358275 -0.04349863 6.73915779 -0.02781637 9.05639648 -0.01205444 C10.72241165 -0.0188332 12.38841932 -0.02773779 14.05441284 -0.03860474 C18.57103263 -0.06137417 23.08708055 -0.0525716 27.60371017 -0.03670931 C32.33347855 -0.02403807 37.06319842 -0.03579382 41.79296875 -0.04364014 C49.73535948 -0.05273313 57.67751764 -0.04075798 65.61987305 -0.01693726 C74.79841405 0.01027338 83.97639971 0.00145897 93.15492725 -0.02606928 C101.03962611 -0.04876933 108.92415792 -0.05195606 116.8088789 -0.03887594 C121.51624337 -0.03108634 126.22334693 -0.03002629 130.93069458 -0.04655838 C135.35668011 -0.06101696 139.78195064 -0.05095643 144.20785904 -0.0220871 C145.83078958 -0.01548364 147.45378043 -0.01736136 149.07668686 -0.02840042 C151.29525968 -0.04209831 153.51155237 -0.02489384 155.72998047 0 C156.97029526 0.00188513 158.21061005 0.00377026 159.48851013 0.00571251 C164.01317639 0.84888224 165.66635538 2.35906585 168.86499023 5.63491821 C169.51382971 9.1674887 169.32147494 10.83063564 167.55249023 13.94741821 C164.23291597 17.26699247 160.48612751 16.76905293 156.04605103 16.78881836 C155.34872813 16.79320061 154.65140523 16.79758287 153.93295133 16.80209792 C151.5907962 16.81547787 149.24867868 16.82166289 146.90649414 16.82778931 C145.22945486 16.83569074 143.55241727 16.84395972 141.87538147 16.85256958 C136.36412172 16.87877906 130.85285441 16.89409347 125.34155273 16.90835571 C123.44501109 16.91371533 121.54846949 16.91909284 119.65192795 16.92448807 C111.76487957 16.94611282 103.87783323 16.96485096 95.99076271 16.97611046 C84.68215414 16.9923604 73.37388856 17.02556806 62.0654093 17.08251131 C54.11629178 17.12117689 46.16726615 17.14073898 38.21805704 17.14603102 C33.46869802 17.14968836 28.71970491 17.16175052 23.97044754 17.19413376 C19.50356042 17.22415598 15.03726176 17.23054731 10.57029533 17.21875 C8.93078737 17.21852879 7.29125255 17.226873 5.6518383 17.24440384 C3.41314648 17.26704047 1.17659873 17.25882923 -1.06210327 17.24291992 C-2.31461065 17.24623007 -3.56711803 17.24954021 -4.85758018 17.25295067 C-9.04299353 16.46369762 -10.52197435 14.93026649 -13.13500977 11.63491821 C-13.82250977 8.63491821 -13.82250977 8.63491821 -13.13500977 5.63491821 C-8.81679035 1.23225263 -6.32533416 0.00961374 0 0 Z " fill="#445D5C" transform="translate(68.135009765625,80.36508178710938)"/>
<path d="M0 0 C1.04264558 -0.01169993 1.04264558 -0.01169993 2.10635471 -0.02363622 C4.42358275 -0.04349863 6.73915779 -0.02781637 9.05639648 -0.01205444 C10.72241165 -0.0188332 12.38841932 -0.02773779 14.05441284 -0.03860474 C18.57103263 -0.06137417 23.08708055 -0.0525716 27.60371017 -0.03670931 C32.33347855 -0.02403807 37.06319842 -0.03579382 41.79296875 -0.04364014 C49.73535948 -0.05273313 57.67751764 -0.04075798 65.61987305 -0.01693726 C74.79841405 0.01027338 83.97639971 0.00145897 93.15492725 -0.02606928 C101.03962611 -0.04876933 108.92415792 -0.05195606 116.8088789 -0.03887594 C121.51624337 -0.03108634 126.22334693 -0.03002629 130.93069458 -0.04655838 C135.35668011 -0.06101696 139.78195064 -0.05095643 144.20785904 -0.0220871 C145.83078958 -0.01548364 147.45378043 -0.01736136 149.07668686 -0.02840042 C151.29525968 -0.04209831 153.51155237 -0.02489384 155.72998047 0 C156.97029526 0.00188513 158.21061005 0.00377026 159.48851013 0.00571251 C164.01310678 0.84886927 165.66393751 2.36152805 168.86499023 5.63491821 C169.48999023 8.69741821 169.48999023 8.69741821 168.86499023 11.63491821 C166.99789113 13.93767377 165.50851282 15.31315692 162.86499023 16.63491821 C160.63399014 16.74022678 158.39976757 16.77888321 156.16630554 16.78881836 C155.46983707 16.79320061 154.77336859 16.79758287 154.05579501 16.80209792 C151.71053384 16.81550506 149.36531025 16.82166903 147.02001953 16.82778931 C145.34312774 16.83568872 143.66623765 16.84395757 141.98934937 16.85256958 C136.47265246 16.87880657 130.9559479 16.89409807 125.43920898 16.90835571 C123.541741 16.91371455 121.64427307 16.91909206 119.74680519 16.92448807 C111.85550819 16.94611853 103.96421325 16.96485633 96.0728941 16.97611046 C84.75469129 16.99235676 73.43683141 17.02554911 62.1187579 17.08251131 C54.16541429 17.12117802 46.21216253 17.14073922 38.25872737 17.14603102 C33.50600013 17.14968875 28.7536385 17.1617546 24.0010128 17.19413376 C19.53003521 17.2241573 15.05964554 17.23054683 10.58858871 17.21875 C8.94746906 17.21852879 7.30632258 17.22687315 5.66529655 17.24440384 C3.4243624 17.26704048 1.18557018 17.25882914 -1.05537415 17.24291992 C-2.30918035 17.24623007 -3.56298655 17.24954021 -4.85478687 17.25295067 C-9.04227052 16.46397965 -10.5210595 14.93208026 -13.13500977 11.63491821 C-13.82250977 8.63491821 -13.82250977 8.63491821 -13.13500977 5.63491821 C-8.81679035 1.23225263 -6.32533416 0.00961374 0 0 Z " fill="#445D5C" transform="translate(68.135009765625,115.36508178710938)"/>
<path d="M0 0 C3.4375 0.9375 3.4375 0.9375 5.4375 2.5625 C6.88806133 6.00758316 6.22710863 8.32070732 5.4375 11.9375 C3.79296875 14.53515625 3.79296875 14.53515625 1.625 17 C0.40490234 18.41345703 0.40490234 18.41345703 -0.83984375 19.85546875 C-1.28054199 20.35353027 -1.72124023 20.8515918 -2.17529297 21.36474609 C-3.61426156 22.99618497 -5.03011174 24.6453607 -6.44140625 26.30078125 C-8.46168313 28.67038937 -10.48761931 31.03489157 -12.51953125 33.39453125 C-15.40480617 36.74892676 -18.26924413 40.12045871 -21.125 43.5 C-21.57544678 44.03294678 -22.02589355 44.56589355 -22.48999023 45.11499023 C-23.84786208 46.72218264 -25.20527043 48.32976519 -26.5625 49.9375 C-28.37440825 52.083834 -30.18682337 54.22973737 -32 56.375 C-32.67470337 57.17345337 -32.67470337 57.17345337 -33.36303711 57.98803711 C-36.78388326 62.03074487 -40.23348049 66.04813259 -43.6875 70.0625 C-47.18065106 74.12378745 -50.62698396 78.21268587 -54 82.375 C-58.13885027 87.47532547 -62.43572875 92.42549933 -66.75219727 97.375 C-70.78077053 102.00546235 -74.68782175 106.71458397 -78.55078125 111.484375 C-81.46985976 115.04395035 -84.50015904 118.50098233 -87.5625 121.9375 C-92.54262761 120.42837042 -95.80509942 117.38088151 -99.5625 113.9375 C-98.97670538 110.85696349 -98.1257761 109.08959996 -96.04296875 106.7578125 C-95.5212207 106.16581055 -94.99947266 105.57380859 -94.46191406 104.96386719 C-93.89698242 104.33641602 -93.33205078 103.70896484 -92.75 103.0625 C-91.56080019 101.71649712 -90.37200731 100.37013462 -89.18359375 99.0234375 C-88.5788623 98.34249023 -87.97413086 97.66154297 -87.35107422 96.95996094 C-84.64087034 93.89535147 -81.97347839 90.79485557 -79.3125 87.6875 C-78.81379395 87.10621338 -78.31508789 86.52492676 -77.80126953 85.92602539 C-74.86093235 82.48850393 -71.97436372 79.01369624 -69.125 75.5 C-64.98189009 70.39442535 -60.6801955 65.43949947 -56.35961914 60.48461914 C-53.19784162 56.85012149 -50.09399794 53.18229157 -47.0625 49.4375 C-42.98492873 44.40401459 -38.75744085 39.51416691 -34.50439453 34.62939453 C-30.95274248 30.54804663 -27.42816219 26.44612919 -23.9375 22.3125 C-23.49672119 21.79139648 -23.05594238 21.27029297 -22.60180664 20.73339844 C-20.24756945 17.94645099 -17.90574445 15.14972722 -15.57421875 12.34375 C-15.08066895 11.75287598 -14.58711914 11.16200195 -14.07861328 10.55322266 C-13.13710545 9.42575359 -12.19904693 8.29539145 -11.26513672 7.16162109 C-5.19555552 -0.0911501 -5.19555552 -0.0911501 0 0 Z " fill="#3F5B5B" transform="translate(422.5625,102.0625)"/>
<path d="M0 0 C4.12461681 -0.14688806 8.24854924 -0.23460044 12.375 -0.3125 C14.10943359 -0.3753418 14.10943359 -0.3753418 15.87890625 -0.43945312 C23.65226495 -0.54924633 29.5637315 0.4410089 36 5 C37.76220703 6.83666992 37.76220703 6.83666992 39.1875 8.5625 C42.8743207 12.615388 47.02300001 13.26274085 52.23120117 14.45263672 C64.12725791 17.30698338 71.07641425 24.16989643 77.38793945 34.20727539 C82.97522739 45.12022849 81.53871678 57.32794876 81.3125 69.25 C81.28738232 71.55596537 81.26457529 73.86195713 81.24414062 76.16796875 C81.19371046 81.7798377 81.09580432 87.38799568 81 93 C73.41 93 65.82 93 58 93 C57.96261719 89.79539062 57.92523438 86.59078125 57.88671875 83.2890625 C57.84040225 80.15797408 57.78920545 77.02700043 57.73754883 73.89599609 C57.70445798 71.73330765 57.67637764 69.57053612 57.65356445 67.40771484 C57.61972574 64.28447326 57.56739649 61.16198223 57.51171875 58.0390625 C57.50532883 57.08448151 57.4989389 56.12990051 57.49235535 55.14639282 C57.23037549 42.96736171 53.30090754 31.76082491 44.375 23.1875 C38.54141647 18.46028576 31.18667844 14.97266338 23.625 14.625 C19.065329 13.83884983 18.35273741 12.39260472 15.703125 8.84765625 C12.53232196 5.4077713 8.217187 3.85806754 4 2 C2.66448795 1.33770868 1.3307976 0.67171421 0 0 Z " fill="#A74B30" transform="translate(101,153)"/>
<path d="M0 0 C2.41180568 1.7053464 4.42649451 3.31738533 6.5625 5.3125 C7.66501818 6.31185858 8.77043874 7.30802565 9.87890625 8.30078125 C10.66418701 9.00775146 10.66418701 9.00775146 11.46533203 9.72900391 C13.14848786 11.18914288 13.14848786 11.18914288 15.90234375 12.73046875 C16.59457031 13.14941406 17.28679687 13.56835938 18 14 C18 14.66 18 15.32 18 16 C18.86818359 16.40798828 18.86818359 16.40798828 19.75390625 16.82421875 C25.61178396 19.89069039 30.41066287 24.30139294 35 29 C35.82242188 29.69351563 36.64484375 30.38703125 37.4921875 31.1015625 C38.85730469 32.25785156 38.85730469 32.25785156 40.25 33.4375 C41.12140625 34.15808594 41.9928125 34.87867188 42.890625 35.62109375 C45.49320432 38.55622488 46.05944126 40.08183044 46 44 C43.38016882 48.94270417 39.50835314 53.01650431 35.8125 57.1875 C30.40680033 63.35454454 25.16780455 69.63187205 20 76 C18.19445853 78.21412881 16.38073475 80.42128768 14.5625 82.625 C13.73878906 83.62789063 12.91507812 84.63078125 12.06640625 85.6640625 C9.74447364 88.28885589 8.82569532 88.83888872 5.4375 89.5 C0.17173305 88.73407026 -3.0686231 85.4246661 -7 82 C-6.12482055 77.47314649 -3.49780807 74.78981874 -0.5 71.4375 C0.59730162 70.18442279 1.69364639 68.93050707 2.7890625 67.67578125 C3.33336914 67.05525879 3.87767578 66.43473633 4.43847656 65.79541016 C8.06945481 61.62057995 11.534786 57.31272196 15 53 C15.62261719 52.25878906 16.24523437 51.51757812 16.88671875 50.75390625 C19.35053843 47.71576963 20.8539304 45.6772318 21.6875 41.8125 C20.24059699 35.89335133 13.52722535 31.76670188 9 27.875 C8.3507959 27.31312988 7.7015918 26.75125977 7.03271484 26.17236328 C3.76869265 23.35412006 0.48606077 20.56221404 -2.8359375 17.8125 C-3.43277344 17.31637207 -4.02960938 16.82024414 -4.64453125 16.30908203 C-5.77522979 15.37204433 -6.9104819 14.44046705 -8.05078125 13.51513672 C-10.63767575 11.37008775 -11.9136395 10.25908149 -13 7 C-9.00371674 1.59961722 -6.84764444 -0.82236871 0 0 Z " fill="#FEBFB1" transform="translate(305,200)"/>
<path d="M0 0 C2.97 0.33 5.94 0.66 9 1 C9.20753906 1.85980469 9.41507813 2.71960938 9.62890625 3.60546875 C14.75670372 23.27990507 24.99317719 37.6428046 42.32421875 48.44921875 C43.86129281 49.33779097 45.42656737 50.17752385 47 51 C47 55.95 47 60.9 47 66 C31.49 66 15.98 66 0 66 C0 44.22 0 22.44 0 0 Z " fill="#FDE1C9" transform="translate(21,292)"/>
<path d="M0 0 C12.13489004 -0.49029859 12.13489004 -0.49029859 16.87353516 3.09570312 C19.6249235 7.55007614 19.20428122 11.94984931 19.18603516 17.03320312 C19.20214844 17.92716797 19.21826172 18.82113281 19.23486328 19.7421875 C19.23853557 24.68875828 19.09783844 28.08689783 15.87353516 32.09570312 C13.87353516 34.09570312 13.87353516 34.09570312 10.25 34.32275391 C8.69478827 34.32243669 7.13955465 34.31110611 5.58447266 34.29101562 C4.35683701 34.28677078 4.35683701 34.28677078 3.10440063 34.28244019 C0.48563123 34.27122844 -2.13279848 34.24612241 -4.75146484 34.22070312 C-6.52489741 34.21067459 -8.29833533 34.20154852 -10.07177734 34.19335938 C-14.4234711 34.1712859 -18.77491034 34.13674957 -23.12646484 34.09570312 C-22.48708984 33.82757813 -21.84771484 33.55945313 -21.18896484 33.28320312 C-18.79514798 32.2090256 -18.79514798 32.2090256 -18.12646484 29.09570312 C-17.84394882 25.30881934 -17.84894261 21.51695626 -17.81396484 17.72070312 C-17.78496094 16.67914063 -17.75595703 15.63757813 -17.72607422 14.56445312 C-17.63225668 8.39098253 -17.63225668 8.39098253 -20.14599609 2.86914062 C-20.79955078 2.28390625 -21.45310547 1.69867188 -22.12646484 1.09570312 C-14.75270139 0.68400746 -7.3776976 0.33203874 0 0 Z " fill="#005A9A" transform="translate(493.12646484375,356.904296875)"/>
<path d="M0 0 C5.19606986 -0.09895826 10.39158998 -0.17150993 15.58837891 -0.21972656 C17.35572872 -0.2398285 19.12301213 -0.26711472 20.89013672 -0.30175781 C23.43213285 -0.35034009 25.97324896 -0.37298226 28.515625 -0.390625 C29.69865204 -0.42159271 29.69865204 -0.42159271 30.90557861 -0.45318604 C34.47953062 -0.45464428 36.5587975 -0.32841389 39.46777344 1.83691406 C42.69802339 6.39714583 42.18348142 11.02225344 42.1875 16.375 C42.19974609 17.22578125 42.21199219 18.0765625 42.22460938 18.953125 C42.24373453 27.13868942 42.24373453 27.13868942 40 31 C36.16327717 33.55781522 33.05464013 33.25306456 28.61328125 33.1953125 C27.79627243 33.1924826 26.97926361 33.18965271 26.13749695 33.18673706 C23.52901541 33.17554541 20.9208777 33.1504429 18.3125 33.125 C16.54362475 33.11496888 14.77474412 33.10584326 13.00585938 33.09765625 C8.67044051 33.07560942 4.33527855 33.0410867 0 33 C0.639375 32.731875 1.27875 32.46375 1.9375 32.1875 C4.33131686 31.11332248 4.33131686 31.11332248 5 28 C5.23137114 24.17051591 5.18516398 20.33574434 5.1875 16.5 C5.19974609 15.44167969 5.21199219 14.38335937 5.22460938 13.29296875 C5.22654297 12.27847656 5.22847656 11.26398437 5.23046875 10.21875 C5.23663208 8.8255957 5.23663208 8.8255957 5.24291992 7.40429688 C5.16300159 4.73723215 5.16300159 4.73723215 3 2 C2.01 1.34 1.02 0.68 0 0 Z " fill="#015A9A" transform="translate(470,0)"/>
<path d="M0 0 C1.22088821 0.02017181 2.44177643 0.04034363 3.69966125 0.06112671 C5.00815536 0.09332306 6.31664948 0.12551941 7.66479492 0.15869141 C9.02526659 0.18488046 10.38575634 0.2101457 11.7462616 0.23452759 C15.31553129 0.30096419 18.88441785 0.37990223 22.45336914 0.46148682 C26.09986745 0.54261714 29.74658951 0.61186609 33.39331055 0.68212891 C40.54005765 0.82157296 47.68646754 0.97423134 54.83276367 1.13525391 C54.83276367 1.79525391 54.83276367 2.45525391 54.83276367 3.13525391 C31.26625707 17.37138383 31.26625707 17.37138383 18.18823242 17.12744141 C10.79673216 17.14465095 4.64626939 20.53828408 -0.69458008 25.47509766 C-3.05430655 28.13526675 -4.57954261 30.95986646 -6.16723633 34.13525391 C-9.42912789 33.57285881 -11.07858481 32.72120341 -13.16723633 30.13525391 C-14.5945122 25.85342629 -14.39171402 21.74579954 -14.41723633 17.26025391 C-14.43786133 16.36177734 -14.45848633 15.46330078 -14.47973633 14.53759766 C-14.53097991 5.86462179 -14.53097991 5.86462179 -11.16723633 2.13525391 C-7.32554942 0.20986958 -4.26652853 -0.08833392 0 0 Z " fill="#0469B4" transform="translate(14.167236328125,356.86474609375)"/>
<path d="M0 0 C12.54 0 25.08 0 38 0 C36.02 2.31 34.04 4.62 32 7 C31.40646729 7.7233252 30.81293457 8.44665039 30.20141602 9.19189453 C25.97866108 14.27012432 21.31289804 18.06963584 15.9375 21.875 C15.10984131 22.46998291 14.28218262 23.06496582 13.42944336 23.67797852 C11.75460503 24.88107691 10.07730762 26.08076003 8.39746094 27.27685547 C6.17182378 28.87650385 3.97623361 30.50847946 1.7890625 32.16015625 C1.15492432 32.63275879 0.52078613 33.10536133 -0.13256836 33.59228516 C-1.30662988 34.46731275 -2.47451641 35.35070837 -3.63500977 36.24365234 C-7.39016136 38.99777837 -7.39016136 38.99777837 -10.14453125 39.0078125 C-12.57950822 37.68523554 -13.98926495 36.07069823 -15.75 33.9375 C-16.67039062 32.83728516 -16.67039062 32.83728516 -17.609375 31.71484375 C-18.06828125 31.14894531 -18.5271875 30.58304687 -19 30 C-15.47386038 26.18304474 -11.44625082 23.27225248 -7.25 20.25 C-6.55261719 19.74339844 -5.85523437 19.23679687 -5.13671875 18.71484375 C-3.42678278 17.47338339 -1.71370384 16.23625401 0 15 C-3.3 13.02 -6.6 11.04 -10 9 C-6.85132448 5.85132448 -4.67466905 4.18493836 -1 2 C-0.67 1.34 -0.34 0.68 0 0 Z " fill="#8AC8FC" transform="translate(125,358)"/>
<path d="M0 0 C13.86 0 27.72 0 42 0 C40.84666871 10.37998158 39.43649274 17.38731595 31.78125 24.625 C26.79456189 28.47437328 22.14622266 28.77071681 16 28 C9.72248767 24.98196523 5.48152967 19.70762318 2.1875 13.6875 C1 10 1 10 0 0 Z " fill="#FFB09E" transform="translate(76,299)"/>
<path d="M0 0 C2.1875 1.4375 2.1875 1.4375 4 4 C4.59172757 7.17712187 4.55833755 10.27685041 4.5 13.5 C4.51546875 14.35464844 4.5309375 15.20929688 4.546875 16.08984375 C4.52228066 20.03108606 4.50435832 22.28694168 2.1875 25.5625 C-1.03593141 27.68075492 -3.23264777 27.53819318 -7 27 C-9.1875 25.5625 -9.1875 25.5625 -11 23 C-11.59172757 19.82287813 -11.55833755 16.72314959 -11.5 13.5 C-11.51546875 12.64535156 -11.5309375 11.79070312 -11.546875 10.91015625 C-11.52228066 6.96891394 -11.50435832 4.71305832 -9.1875 1.4375 C-5.96406859 -0.68075492 -3.76735223 -0.53819318 0 0 Z " fill="#3A4A4A" transform="translate(134,261)"/>
<path d="M0 0 C2.14770326 1.79626091 2.8954538 3.27927658 3.29663086 6.04492188 C3.44120332 8.53744395 3.45820991 11.00351482 3.4375 13.5 C3.45748047 14.35464844 3.47746094 15.20929688 3.49804688 16.08984375 C3.49320098 22.30227506 3.49320098 22.30227506 1.19140625 25.55859375 C-2.0625163 27.69887436 -4.19981631 27.61074381 -8 27 C-11.16868455 24.14818391 -12.25373307 21.86993893 -12.53125 17.71484375 C-12.54180474 16.12239674 -12.53084132 14.52968331 -12.5 12.9375 C-12.51546875 12.13505859 -12.5309375 11.33261719 -12.546875 10.50585938 C-12.52169653 6.71335306 -12.44454531 4.63213367 -10.22265625 1.47265625 C-6.52948828 -0.97431093 -4.36994039 -0.55491307 0 0 Z " fill="#3A4A4A" transform="translate(68,261)"/>
<path d="M0 0 C12.21 0 24.42 0 37 0 C33 4.66666667 29 9.33333333 25 14 C21.24936435 13.4133247 18.440724 12.35059992 15.13671875 10.49609375 C14.25048828 10.00302734 13.36425781 9.50996094 12.45117188 9.00195312 C11.53916016 8.48568359 10.62714844 7.96941406 9.6875 7.4375 C8.75615234 6.91736328 7.82480469 6.39722656 6.86523438 5.86132812 C4.57336205 4.58023026 2.28518387 3.29297895 0 2 C0 1.34 0 0.68 0 0 Z " fill="#0369B4" transform="translate(126,358)"/>
<path d="M0 0 C1.051875 -0.01675781 2.10375 -0.03351563 3.1875 -0.05078125 C6 0.3125 6 0.3125 7.85546875 1.671875 C9.46743337 3.982541 9.35271324 5.56133676 9 8.3125 C7 10.3125 7 10.3125 3.8125 10.578125 C1.9253125 10.57039063 1.9253125 10.57039063 0 10.5625 C-1.258125 10.56765625 -2.51625 10.5728125 -3.8125 10.578125 C-7 10.3125 -7 10.3125 -9 8.3125 C-9.3125 5.3125 -9.3125 5.3125 -9 2.3125 C-5.55324591 0.01466394 -4.06671888 0.01495117 0 0 Z " fill="#FFB09E" transform="translate(143,296.6875)"/>
<path d="M0 0 C1.06347656 0.00515625 2.12695312 0.0103125 3.22265625 0.015625 C4.28355469 0.01046875 5.34445313 0.0053125 6.4375 0 C9.28515625 0.265625 9.28515625 0.265625 12.28515625 2.265625 C12.59765625 5.265625 12.59765625 5.265625 12.28515625 8.265625 C9.41215082 11.13863043 7.28172405 10.56584047 3.28515625 10.578125 C2.02703125 10.59488281 0.76890625 10.61164063 -0.52734375 10.62890625 C-2.10515625 10.44908203 -2.10515625 10.44908203 -3.71484375 10.265625 C-5.71484375 7.265625 -5.71484375 7.265625 -5.46484375 4.703125 C-4.40974595 1.27405713 -3.61013774 0.35322211 0 0 Z " fill="#FFB09E" transform="translate(47.71484375,296.734375)"/>
</svg>
