<?xml version="1.0" encoding="UTF-8"?>
<svg version="1.1" xmlns="http://www.w3.org/2000/svg" width="512" height="512">
<path d="M0 0 C1.07123045 -0.00623996 2.1424609 -0.01247993 3.24615288 -0.01890898 C6.81813767 -0.03480138 10.38943652 -0.02224882 13.96142578 -0.00964355 C16.52940263 -0.01506631 19.09737638 -0.02218982 21.66534424 -0.03088379 C27.90564665 -0.04862888 34.14575613 -0.04484705 40.38606596 -0.03323323 C45.4596842 -0.02418331 50.53324855 -0.02298162 55.60687256 -0.02732849 C56.33019929 -0.02794142 57.05352602 -0.02855436 57.79877174 -0.02918586 C59.26840037 -0.03046482 60.73802898 -0.03176167 62.20765758 -0.03307623 C75.9740049 -0.04447027 89.74024552 -0.03138683 103.50657535 -0.00987476 C115.30733412 0.00799518 127.10793547 0.00489074 138.90869141 -0.0135498 C152.62726748 -0.03497735 166.34575012 -0.04337174 180.06434059 -0.03110075 C181.52842838 -0.02982661 182.99251619 -0.02856913 184.456604 -0.02732849 C185.1768796 -0.02671139 185.89715519 -0.02609429 186.63925731 -0.02545848 C191.70416889 -0.02201123 196.76902098 -0.02782043 201.83392334 -0.0372467 C208.65646963 -0.04966555 215.47871426 -0.04076761 222.30123138 -0.01766968 C224.80336769 -0.01238596 227.30552903 -0.01389053 229.80765533 -0.02272034 C233.22659843 -0.03367206 236.64459364 -0.01991514 240.06347656 0 C241.05055037 -0.00892289 242.03762417 -0.01784577 243.0546093 -0.02703905 C250.78615213 0.06014582 256.82381238 1.87030661 262.84423828 6.82043457 C266.71327512 12.10367108 267.66695427 19.22489666 269.03173828 25.50793457 C269.37398438 27.02193848 269.37398438 27.02193848 269.72314453 28.56652832 C275.95138371 61.36278079 266.57049754 95.88513053 248.15673828 123.25793457 C246.47745262 125.69592963 244.75923371 128.10394619 243.03173828 130.50793457 C242.03722418 131.90955194 241.04377366 133.31192444 240.05126953 134.71496582 C239.54402344 135.431604 239.03677734 136.14824219 238.51416016 136.88659668 C237.74942383 137.96759644 237.74942383 137.96759644 236.96923828 139.07043457 C236.46328125 139.78530029 235.95732422 140.50016602 235.43603516 141.23669434 C227.69336032 152.20339694 220.6806781 162.78295185 216.03173828 175.50793457 C215.69142578 176.42316895 215.35111328 177.33840332 215.00048828 178.28137207 C208.3159069 199.88247301 214.67272929 223.90266866 222.46533203 244.31262207 C225.74283578 252.94740533 227.84739176 259.35348503 224.46923828 268.19543457 C221.63463109 273.96552465 216.9610761 278.06035524 211.03173828 280.50793457 C208.15123177 280.76241016 208.15123177 280.76241016 204.74465942 280.76863098 C203.452052 280.77571579 202.15944458 280.7828006 200.82766724 280.7901001 C199.39715541 280.78780631 197.96664392 280.78529662 196.53613281 280.78259277 C195.02805326 280.78694049 193.51997591 280.79212384 192.01190186 280.79808044 C187.91680026 280.81147631 183.82179093 280.81204839 179.7266717 280.80951715 C176.30721731 280.80844768 172.88778161 280.81333025 169.46833122 280.81812257 C161.40009723 280.8292201 153.3319098 280.82965398 145.26367188 280.8236084 C136.94303243 280.81756948 128.62256212 280.82987694 120.30195153 280.85117847 C113.15617772 280.86879898 106.01045773 280.87479506 98.864663 280.87154073 C94.59773847 280.8697282 90.33093454 280.87236077 86.06402969 280.88625526 C82.05027504 280.89883609 78.03678378 280.8968872 74.02303314 280.88384438 C72.55167171 280.88147947 71.08029173 280.88421025 69.60895157 280.8924675 C67.59692019 280.90294301 65.58481371 280.89302719 63.57278442 280.88215637 C62.4478615 280.88232411 61.32293858 280.88249186 60.16392708 280.88266468 C54.03602712 280.14953243 49.94258085 277.1391955 46.03173828 272.50793457 C42.53156246 266.74930794 40.81058556 260.70986244 39.28173828 254.19543457 C38.95109375 252.8564209 38.95109375 252.8564209 38.61376953 251.49035645 C37.03173828 244.96079268 37.03173828 244.96079268 37.03173828 241.50793457 C35.87802734 241.72449707 34.72431641 241.94105957 33.53564453 242.16418457 C23.66802195 243.89556262 13.99357641 244.82874489 3.96923828 244.88293457 C2.94838135 244.89646973 1.92752441 244.91000488 0.87573242 244.9239502 C-10.24279693 244.85889257 -20.25161476 242.4765913 -28.68701172 234.98059082 C-33.94667696 229.50177286 -35.60123681 223.17818368 -36.34326172 215.75793457 C-36.24707192 211.82216871 -35.10144208 208.23411237 -34.09326172 204.44543457 C-32.85912343 199.73322102 -32.85912343 199.73322102 -34.03466797 195.22668457 C-35.59105723 193.51653155 -37.22200356 192.0202028 -38.96826172 190.50793457 C-41.95596595 185.34735454 -41.60355958 179.10206752 -40.21826172 173.44543457 C-39.89336338 169.6278791 -41.21259953 167.74657491 -43.04248047 164.47668457 C-44.31520402 161.77013321 -44.26210541 159.44637146 -43.96826172 156.50793457 C-44.95826172 156.44605957 -45.94826172 156.38418457 -46.96826172 156.32043457 C-52.90943598 155.46480907 -57.44169668 152.19107038 -61.40576172 147.82043457 C-65.23436785 142.1540975 -64.73848107 136.15439639 -63.96826172 129.50793457 C-60.93171899 120.34631079 -55.1408954 112.77225881 -49.53393555 105.04699707 C-45.97966168 100.09725888 -42.79893117 95.05916886 -39.90576172 89.69543457 C-39.54820801 89.05114502 -39.1906543 88.40685547 -38.82226562 87.74304199 C-33.62267701 77.78571714 -32.57969751 67.51686142 -32.46826172 56.44543457 C-31.55964548 19.13330069 -31.55964548 19.13330069 -22.78076172 6.94543457 C-15.90090341 0.98289071 -8.86328293 -0.08012174 0 0 Z " fill="#FABC7F" transform="translate(135.96826171875,231.4920654296875)"/>
<path d="M0 0 C6.95188919 5.63631832 10.6332437 11.81813323 12.79296875 20.45703125 C12.97232256 22.86971839 13.05804244 25.29055735 13.06712341 27.70988464 C13.07236009 28.40568628 13.07759677 29.10148792 13.08299214 29.81837445 C13.09790057 32.13182407 13.09869525 34.44505072 13.09936523 36.75854492 C13.10699299 38.42481861 13.11542154 40.0910888 13.12458801 41.75735474 C13.14648132 46.27207164 13.15532515 50.78672084 13.16041446 55.30148482 C13.16406466 58.12667559 13.17030822 60.9518488 13.17741585 63.77703285 C13.20189404 73.64636637 13.21495836 83.51564746 13.21850586 93.38500977 C13.2221381 102.56284039 13.25201535 111.74033599 13.29391044 120.9180643 C13.32868492 128.81472985 13.34405555 136.71128477 13.34475189 144.60802633 C13.34554238 149.31673276 13.3541752 154.02509776 13.38274956 158.73372459 C13.4090527 163.16705792 13.4110677 167.59976972 13.39509392 172.0331459 C13.39328902 173.65197043 13.39988268 175.27083171 13.41591263 176.88957787 C13.51842233 187.92188483 12.25136551 197.20876718 5.65234375 206.45703125 C-2.69817995 214.37456484 -10.78330375 217.82086251 -22.265625 217.66796875 C-32.45984143 216.9369094 -39.72989329 212.44309118 -46.51953125 205.01953125 C-50.83257984 199.68682171 -52.51507925 194.23816081 -53.20703125 187.45703125 C-54.30015625 187.53953125 -55.39328125 187.62203125 -56.51953125 187.70703125 C-66.47973626 187.67183618 -76.2416436 182.402754 -83.1796875 175.4921875 C-90.03250326 167.44631252 -92.49515095 159.11850421 -92.01953125 148.64453125 C-91.73674735 143.73958578 -91.73674735 143.73958578 -93.5390625 139.37109375 C-94.74536307 138.29357036 -95.98676969 137.25424014 -97.2578125 136.25390625 C-103.91426796 130.11769481 -107.08558696 119.22943919 -107.5078125 110.34375 C-107.52706869 108.94413743 -107.53063743 107.54423222 -107.51953125 106.14453125 C-107.5146167 105.40396484 -107.50970215 104.66339844 -107.50463867 103.90039062 C-107.23627727 91.25024714 -102.72671745 81.19893524 -94.5390625 71.671875 C-93.20703125 70.45703125 -93.20703125 70.45703125 -91.20703125 70.45703125 C-91.53703125 69.79703125 -91.86703125 69.13703125 -92.20703125 68.45703125 C-93.13990901 56.11434093 -91.15994479 46.11542286 -83.20703125 36.45703125 C-74.30086983 27.12676691 -65.86888901 24.80857786 -53.20703125 23.45703125 C-53.00078125 22.17828125 -52.79453125 20.89953125 -52.58203125 19.58203125 C-50.55821698 10.70516313 -45.8968933 4.06912052 -38.46875 -1.13671875 C-26.89112388 -8.33524276 -11.19223412 -7.82465925 0 0 Z " fill="#FB4545" transform="translate(239.20703125,5.54296875)"/>
<path d="M0 0 C0.88558594 -0.02835937 1.77117187 -0.05671875 2.68359375 -0.0859375 C7.44809411 -0.10013869 11.28146619 0.11181707 14.86865234 3.66357422 C17.69015814 7.78781958 19.01568846 12.58522763 20.5 17.3125 C20.85449219 18.38693359 21.20898438 19.46136719 21.57421875 20.56835938 C22.44206154 23.20707055 23.29152811 25.85027253 24.125 28.5 C27.32265346 28.5 28.29085627 28.04731853 31.00390625 26.53125 C32.13989258 25.92216797 32.13989258 25.92216797 33.29882812 25.30078125 C34.87022836 24.44505553 36.43559015 23.57813036 37.99414062 22.69921875 C43.73740698 19.65610874 48.63124758 18.39108746 55.125 19.5 C61.52818513 22.45015859 66.45831985 28.54081253 71.375 33.5 C72.74011719 34.85351562 72.74011719 34.85351562 74.1328125 36.234375 C75.00164062 37.10578125 75.87046875 37.9771875 76.765625 38.875 C77.55485352 39.66648438 78.34408203 40.45796875 79.15722656 41.2734375 C82.74384517 45.3317454 83.66143524 48.57880566 83.5390625 53.90966797 C82.7128651 59.07827316 80.08265605 63.50043821 77.625 68.0625 C77.10035156 69.07119141 76.57570313 70.07988281 76.03515625 71.11914062 C74.74782999 73.58846645 73.44444594 76.04773189 72.125 78.5 C72.84510254 78.69408447 73.56520508 78.88816895 74.30712891 79.08813477 C97.25457988 85.30378903 97.25457988 85.30378903 101.22338867 91.10571289 C102.54804974 94.6234359 102.43015435 98.09959692 102.42578125 101.80859375 C102.43006638 102.61232925 102.4343515 103.41606476 102.43876648 104.24415588 C102.44449992 105.94116272 102.4450173 107.63819412 102.44067383 109.33520508 C102.43751516 111.92507044 102.46097969 114.51379151 102.48632812 117.10351562 C102.48860143 118.7552069 102.48930447 120.40690123 102.48828125 122.05859375 C102.497491 122.82956894 102.50670074 123.60054413 102.51618958 124.3948822 C102.47727229 128.94015004 102.01191721 131.93059254 99.125 135.5 C94.09335088 139.1774167 87.50082592 140.87432919 81.625 142.75 C80.39136719 143.1521875 80.39136719 143.1521875 79.1328125 143.5625 C77.132019 144.21392114 75.12876218 144.85776853 73.125 145.5 C74.27553456 148.57011065 75.59876062 151.50011294 77.0703125 154.42578125 C77.60205078 155.49795898 77.60205078 155.49795898 78.14453125 156.59179688 C78.87840703 158.06603143 79.6231481 159.53490956 80.37890625 160.99804688 C82.89492128 166.13606293 83.84880598 169.77274154 83.125 175.5 C80.32427159 182.12058981 75.37743654 186.69662427 70.3125 191.6875 C69.53068359 192.48091797 68.74886719 193.27433594 67.94335938 194.09179688 C58.18671401 203.79953674 58.18671401 203.79953674 50.86328125 205.0625 C45.47893126 204.25231568 41.13051974 201.96054838 36.3125 199.5 C34.43254415 198.55938653 32.55110586 197.62172819 30.66796875 196.6875 C29.84321045 196.26855469 29.01845215 195.84960938 28.16870117 195.41796875 C26.19433135 194.36342175 26.19433135 194.36342175 24.125 194.5 C23.94437012 195.09949463 23.76374023 195.69898926 23.57763672 196.31665039 C22.73643814 199.07113734 21.86850071 201.8165051 21 204.5625 C20.71640625 205.50544922 20.4328125 206.44839844 20.140625 207.41992188 C18.22056302 213.40968045 16.01262214 218.36038384 11.125 222.5 C4.86169729 224.58776757 -4.01212344 224.55460748 -10.37890625 222.81640625 C-14.5703054 220.63470604 -16.1669845 217.75432285 -17.875 213.5 C-18.15567584 210.61626512 -18.28508901 207.95337005 -18.26268005 205.07421875 C-18.26806559 204.24028091 -18.27345113 203.40634308 -18.27899987 202.5471344 C-18.29327598 199.76043829 -18.28617663 196.97421742 -18.27905273 194.1875 C-18.28475643 192.18651956 -18.29172069 190.18554237 -18.29985046 188.18457031 C-18.31779566 182.75489694 -18.31661106 177.32538505 -18.31090808 171.89569092 C-18.30781863 167.36270482 -18.31390588 162.82974986 -18.31994683 158.29676819 C-18.33399452 147.60406914 -18.33242831 136.91144998 -18.32104492 126.21875 C-18.30955935 115.18623341 -18.3236463 104.15395979 -18.3504414 93.12147522 C-18.37258723 83.64870999 -18.3792384 74.17602109 -18.37336498 64.70323181 C-18.36999204 59.0457477 -18.37243314 53.38841939 -18.38961601 47.73095703 C-18.40506552 42.41210649 -18.40115162 37.09361647 -18.38231087 31.77478027 C-18.37861968 29.82287669 -18.38174884 27.8709465 -18.39219666 25.91906738 C-18.40537181 23.25422154 -18.39389025 20.59057536 -18.37620544 17.92578125 C-18.38581045 17.15359756 -18.39541546 16.38141388 -18.40531152 15.58583069 C-18.32184536 9.47225686 -16.19571588 6.12052128 -12.2421875 1.65625 C-8.31073133 -0.26406523 -4.31322283 -0.01244797 0 0 Z " fill="#000000" transform="translate(277.875,-0.5)"/>
<path d="M0 0 C1.07123045 -0.00623996 2.1424609 -0.01247993 3.24615288 -0.01890898 C6.81813767 -0.03480138 10.38943652 -0.02224882 13.96142578 -0.00964355 C16.52940263 -0.01506631 19.09737638 -0.02218982 21.66534424 -0.03088379 C27.90564665 -0.04862888 34.14575613 -0.04484705 40.38606596 -0.03323323 C45.4596842 -0.02418331 50.53324855 -0.02298162 55.60687256 -0.02732849 C56.33019929 -0.02794142 57.05352602 -0.02855436 57.79877174 -0.02918586 C59.26840037 -0.03046482 60.73802898 -0.03176167 62.20765758 -0.03307623 C75.9740049 -0.04447027 89.74024552 -0.03138683 103.50657535 -0.00987476 C115.30733412 0.00799518 127.10793547 0.00489074 138.90869141 -0.0135498 C152.62726748 -0.03497735 166.34575012 -0.04337174 180.06434059 -0.03110075 C181.52842838 -0.02982661 182.99251619 -0.02856913 184.456604 -0.02732849 C185.1768796 -0.02671139 185.89715519 -0.02609429 186.63925731 -0.02545848 C191.70416889 -0.02201123 196.76902098 -0.02782043 201.83392334 -0.0372467 C208.65646963 -0.04966555 215.47871426 -0.04076761 222.30123138 -0.01766968 C224.80336769 -0.01238596 227.30552903 -0.01389053 229.80765533 -0.02272034 C233.22659843 -0.03367206 236.64459364 -0.01991514 240.06347656 0 C241.05055037 -0.00892289 242.03762417 -0.01784577 243.0546093 -0.02703905 C250.78615213 0.06014582 256.82381238 1.87030661 262.84423828 6.82043457 C266.71327512 12.10367108 267.66695427 19.22489666 269.03173828 25.50793457 C269.37398438 27.02193848 269.37398438 27.02193848 269.72314453 28.56652832 C275.95138371 61.36278079 266.57049754 95.88513053 248.15673828 123.25793457 C246.47745262 125.69592963 244.75923371 128.10394619 243.03173828 130.50793457 C242.03722418 131.90955194 241.04377366 133.31192444 240.05126953 134.71496582 C239.54402344 135.431604 239.03677734 136.14824219 238.51416016 136.88659668 C237.74942383 137.96759644 237.74942383 137.96759644 236.96923828 139.07043457 C236.46328125 139.78530029 235.95732422 140.50016602 235.43603516 141.23669434 C227.69336032 152.20339694 220.6806781 162.78295185 216.03173828 175.50793457 C215.69142578 176.42316895 215.35111328 177.33840332 215.00048828 178.28137207 C208.3159069 199.88247301 214.67272929 223.90266866 222.46533203 244.31262207 C225.74283578 252.94740533 227.84739176 259.35348503 224.46923828 268.19543457 C221.63463109 273.96552465 216.9610761 278.06035524 211.03173828 280.50793457 C208.15123177 280.76241016 208.15123177 280.76241016 204.74465942 280.76863098 C203.452052 280.77571579 202.15944458 280.7828006 200.82766724 280.7901001 C199.39715541 280.78780631 197.96664392 280.78529662 196.53613281 280.78259277 C195.02805326 280.78694049 193.51997591 280.79212384 192.01190186 280.79808044 C187.91680026 280.81147631 183.82179093 280.81204839 179.7266717 280.80951715 C176.30721731 280.80844768 172.88778161 280.81333025 169.46833122 280.81812257 C161.40009723 280.8292201 153.3319098 280.82965398 145.26367188 280.8236084 C136.94303243 280.81756948 128.62256212 280.82987694 120.30195153 280.85117847 C113.15617772 280.86879898 106.01045773 280.87479506 98.864663 280.87154073 C94.59773847 280.8697282 90.33093454 280.87236077 86.06402969 280.88625526 C82.05027504 280.89883609 78.03678378 280.8968872 74.02303314 280.88384438 C72.55167171 280.88147947 71.08029173 280.88421025 69.60895157 280.8924675 C67.59692019 280.90294301 65.58481371 280.89302719 63.57278442 280.88215637 C62.4478615 280.88232411 61.32293858 280.88249186 60.16392708 280.88266468 C54.03602712 280.14953243 49.94258085 277.1391955 46.03173828 272.50793457 C42.53156246 266.74930794 40.81058556 260.70986244 39.28173828 254.19543457 C38.95109375 252.8564209 38.95109375 252.8564209 38.61376953 251.49035645 C37.03173828 244.96079268 37.03173828 244.96079268 37.03173828 241.50793457 C35.87802734 241.72449707 34.72431641 241.94105957 33.53564453 242.16418457 C23.66802195 243.89556262 13.99357641 244.82874489 3.96923828 244.88293457 C2.94838135 244.89646973 1.92752441 244.91000488 0.87573242 244.9239502 C-10.24279693 244.85889257 -20.25161476 242.4765913 -28.68701172 234.98059082 C-33.94667696 229.50177286 -35.60123681 223.17818368 -36.34326172 215.75793457 C-36.24707192 211.82216871 -35.10144208 208.23411237 -34.09326172 204.44543457 C-32.85912343 199.73322102 -32.85912343 199.73322102 -34.03466797 195.22668457 C-35.59105723 193.51653155 -37.22200356 192.0202028 -38.96826172 190.50793457 C-41.95596595 185.34735454 -41.60355958 179.10206752 -40.21826172 173.44543457 C-39.89336338 169.6278791 -41.21259953 167.74657491 -43.04248047 164.47668457 C-44.31520402 161.77013321 -44.26210541 159.44637146 -43.96826172 156.50793457 C-44.95826172 156.44605957 -45.94826172 156.38418457 -46.96826172 156.32043457 C-52.90943598 155.46480907 -57.44169668 152.19107038 -61.40576172 147.82043457 C-65.23436785 142.1540975 -64.73848107 136.15439639 -63.96826172 129.50793457 C-60.93171899 120.34631079 -55.1408954 112.77225881 -49.53393555 105.04699707 C-45.97966168 100.09725888 -42.79893117 95.05916886 -39.90576172 89.69543457 C-39.54820801 89.05114502 -39.1906543 88.40685547 -38.82226562 87.74304199 C-33.62267701 77.78571714 -32.57969751 67.51686142 -32.46826172 56.44543457 C-31.55964548 19.13330069 -31.55964548 19.13330069 -22.78076172 6.94543457 C-15.90090341 0.98289071 -8.86328293 -0.08012174 0 0 Z M-8.96826172 17.50793457 C-14.40531645 28.38204403 -15.00026772 38.81901696 -15.20654297 50.79748535 C-15.72928383 77.37129207 -23.1867957 97.45175967 -38.75830078 118.83508301 C-40.40214229 121.10780335 -41.97323289 123.42544018 -43.53076172 125.75793457 C-43.96517578 126.40246582 -44.39958984 127.04699707 -44.84716797 127.71105957 C-47.21518361 131.50648534 -48.22017958 133.97341315 -47.96826172 138.50793457 C-41.80924031 140.98087498 -36.30501541 141.87388058 -29.66748047 142.00402832 C-26.24589974 142.64278941 -25.03966567 143.75099456 -22.96826172 146.50793457 C-23.05485305 151.35704886 -24.11811096 153.75091766 -26.96826172 157.50793457 C-26.895745 159.52026204 -26.895745 159.52026204 -25.96826172 161.50793457 C-24.16514083 163.02824653 -24.16514083 163.02824653 -21.96826172 164.19543457 C-17.98091995 166.49527634 -17.98091995 166.49527634 -16.96826172 167.50793457 C-16.59326172 170.25793457 -16.59326172 170.25793457 -16.96826172 173.50793457 C-19.14089672 176.08079181 -20.9482001 177.99790376 -23.96826172 179.50793457 C-24.00351304 181.39452331 -24.00351304 181.39452331 -22.96826172 183.50793457 C-20.72894135 185.03749492 -18.36398609 186.2245108 -15.96826172 187.50793457 C-13.99729303 191.44987194 -14.538859 195.19159961 -15.86279297 199.25012207 C-16.22759766 200.2427002 -16.59240234 201.23527832 -16.96826172 202.25793457 C-19.37246987 209.07698759 -20.4336584 215.60021009 -17.84326172 222.50793457 C-13.28955015 227.36522691 -7.62933445 228.36273438 -1.24560547 228.71105957 C10.9656001 228.92795236 23.27045239 227.96905583 35.15136719 224.97351074 C37.31626881 224.43748537 39.30287531 224.30373312 41.53173828 224.25793457 C42.66095703 224.2192627 42.66095703 224.2192627 43.81298828 224.17980957 C46.69826894 224.60650601 47.88831663 225.53855599 50.03173828 227.50793457 C51.00488281 229.89294434 51.00488281 229.89294434 51.66455078 232.69934082 C51.91333984 233.72736816 52.16212891 234.75539551 52.41845703 235.8145752 C52.66208984 236.88900879 52.90572266 237.96344238 53.15673828 239.07043457 C53.40810547 240.11779785 53.65947266 241.16516113 53.91845703 242.2442627 C55.27526814 247.95920793 56.47491268 253.66378992 57.40234375 259.46472168 C58.18473885 262.00462262 58.91831482 262.8920668 61.03173828 264.50793457 C63.74618448 264.96137728 63.74618448 264.96137728 66.8770752 264.8888855 C68.70683647 264.90157471 68.70683647 264.90157471 70.57356262 264.91452026 C71.92746105 264.9086872 73.28135816 264.90254268 74.63525391 264.89611816 C76.05938622 264.90018272 77.48351538 264.90552394 78.90763855 264.91204834 C82.77745206 264.92574175 86.64702602 264.92041505 90.5168438 264.91091108 C94.56335987 264.90332492 98.6098552 264.91035719 102.65637207 264.91506958 C109.45226735 264.92053019 116.24806487 264.91332755 123.04394531 264.89904785 C130.90509516 264.88272071 138.76601159 264.888009 146.62715578 264.90452707 C153.37202597 264.91813328 160.11682583 264.92006585 166.8617053 264.91221106 C170.89212083 264.90752976 174.92242658 264.90692216 178.95283508 264.91682053 C182.74169677 264.9254754 186.53025702 264.91949569 190.31908607 264.90213776 C191.71107291 264.89816495 193.10308504 264.89932053 194.49506187 264.90592575 C196.39216594 264.91409913 198.28932532 264.90204153 200.18640137 264.8888855 C201.24901939 264.88775442 202.31163742 264.88662334 203.40645599 264.88545799 C206.06253928 264.71946325 206.06253928 264.71946325 207.88515472 263.10611916 C209.8239778 260.40365832 209.03482353 258.09907114 208.56542969 254.95178223 C207.70630627 251.01773585 206.24755183 247.410406 204.71923828 243.69543457 C200.86371086 233.83748466 198.79303843 223.91561728 197.03173828 213.50793457 C196.83837891 212.50117676 196.64501953 211.49441895 196.44580078 210.45715332 C192.0744753 179.32176903 205.9616123 153.13894455 223.82470703 128.88293457 C237.44259976 110.38560065 250.56183228 89.67068372 254.03173828 66.50793457 C254.14130859 65.78348145 254.25087891 65.05902832 254.36376953 64.31262207 C256.4003081 47.85739041 254.8733945 33.08568449 249.03173828 17.50793457 C163.89173828 17.50793457 78.75173828 17.50793457 -8.96826172 17.50793457 Z " fill="#020101" transform="translate(135.96826171875,231.4920654296875)"/>
<path d="M0 0 C5.44479525 3.23612936 9.67591696 7.36952955 14.13671875 11.8359375 C14.89797562 12.59290924 15.65923248 13.34988098 16.44355774 14.12979126 C18.04539813 15.72590826 19.64465079 17.32462599 21.24145508 18.92578125 C23.68118798 21.36867979 26.13395796 23.79793825 28.58789062 26.2265625 C30.14664376 27.78304298 31.70461337 29.3403086 33.26171875 30.8984375 C33.99299484 31.62050385 34.72427094 32.34257019 35.47770691 33.08651733 C40.09641302 37.74746032 43.58047519 41.70373363 44.4375 48.4375 C43.7600368 53.95398605 41.92432696 57.47040677 37.5625 60.9375 C33.87719662 62.03662557 31.1039763 62.10688712 27.27734375 62.06640625 C26.10292725 62.05681885 24.92851074 62.04723145 23.71850586 62.03735352 C22.82139893 62.02502686 21.92429199 62.0127002 21 62 C21.00368717 62.56561173 21.00737434 63.13122347 21.01117325 63.71397495 C21.09961805 77.49429995 21.16549949 91.27457504 21.20724869 105.05512333 C21.22811768 111.71940564 21.25642336 118.38344315 21.30175781 125.04760742 C21.34523903 131.47964427 21.36914232 137.91148405 21.37950897 144.34365654 C21.38689615 146.79684997 21.40132153 149.2500327 21.42292023 151.70314217 C21.45198334 155.1409544 21.45595463 158.57795369 21.45410156 162.01586914 C21.46848267 163.02863419 21.48286377 164.04139923 21.49768066 165.08485413 C21.46167254 171.26400728 20.677019 174.97286543 17 180 C10.86217297 184.22154316 3.97815742 183.48711486 -3.16723633 183.44604492 C-5.4281728 183.43753511 -7.68657815 183.46633087 -9.94726562 183.49804688 C-11.40104092 183.49965937 -12.85482063 183.49908044 -14.30859375 183.49609375 C-15.61626709 183.49794678 -16.92394043 183.4997998 -18.27124023 183.50170898 C-22.98734281 182.86715187 -25.15422199 181.81106316 -29 179 C-32.68614226 173.58410691 -32.40748078 168.43388887 -32.34057617 162.12939453 C-32.34101425 161.04587204 -32.34145233 159.96234955 -32.34190369 158.84599304 C-32.33981843 155.27474776 -32.31649901 151.70397549 -32.29296875 148.1328125 C-32.28737188 145.65274309 -32.28310221 143.17267035 -32.28010559 140.69259644 C-32.26866407 134.17251389 -32.2392025 127.65263257 -32.20599365 121.13262939 C-32.17365232 114.47647904 -32.16159704 107.82027005 -32.14648438 101.1640625 C-32.11433243 88.10928927 -32.06372274 75.05465535 -32 62 C-33.33587158 62.02827881 -33.33587158 62.02827881 -34.69873047 62.05712891 C-35.86807129 62.07179199 -37.03741211 62.08645508 -38.2421875 62.1015625 C-39.40089355 62.12041504 -40.55959961 62.13926758 -41.75341797 62.15869141 C-46.42273341 61.93045746 -48.40523967 60.96958462 -52 58 C-54.97893979 53.67573256 -55.79149626 50.18869768 -55 45 C-51.50260278 38.50226931 -46.66919695 33.21270688 -41.4765625 28.04296875 C-40.77155609 27.33272049 -40.06654968 26.62247223 -39.34017944 25.89070129 C-37.85978132 24.4039277 -36.37556598 22.9209459 -34.88769531 21.44165039 C-32.62550395 19.18800205 -30.38266825 16.91625125 -28.140625 14.64257812 C-26.69123568 13.19157719 -25.24075127 11.74166914 -23.7890625 10.29296875 C-22.79647934 9.28353462 -22.79647934 9.28353462 -21.78384399 8.25370789 C-15.70883015 2.2676407 -8.84408338 -3.22825857 0 0 Z " fill="#010200" transform="translate(444,40)"/>
<path d="M0 0 C5.86042292 3.64497058 10.78819217 8.48056618 15.640625 13.33984375 C16.67482574 14.36761681 16.67482574 14.36761681 17.72991943 15.41615295 C19.17436481 16.85489598 20.61625207 18.29621149 22.05566406 19.73999023 C24.24939283 21.93689195 26.45615993 24.1200888 28.6640625 26.30273438 C30.07372684 27.71012648 31.48260827 29.1183033 32.890625 30.52734375 C33.87195404 31.49485817 33.87195404 31.49485817 34.87310791 32.48191833 C39.55326648 37.20951353 43.52914551 41.70401859 44.5 48.5 C43.71935517 53.96451379 41.89973169 57.48995686 37.5625 60.9375 C33.87719662 62.03662557 31.1039763 62.10688712 27.27734375 62.06640625 C26.10292725 62.05681885 24.92851074 62.04723145 23.71850586 62.03735352 C22.82139893 62.02502686 21.92429199 62.0127002 21 62 C21.00368717 62.56561173 21.00737434 63.13122347 21.01117325 63.71397495 C21.09961805 77.49429995 21.16549949 91.27457504 21.20724869 105.05512333 C21.22811768 111.71940564 21.25642336 118.38344315 21.30175781 125.04760742 C21.34523903 131.47964427 21.36914232 137.91148405 21.37950897 144.34365654 C21.38689615 146.79684997 21.40132153 149.2500327 21.42292023 151.70314217 C21.45198334 155.1409544 21.45595463 158.57795369 21.45410156 162.01586914 C21.46848267 163.02863419 21.48286377 164.04139923 21.49768066 165.08485413 C21.46167254 171.26400728 20.677019 174.97286543 17 180 C10.86217297 184.22154316 3.97815742 183.48711486 -3.16723633 183.44604492 C-5.4281728 183.43753511 -7.68657815 183.46633087 -9.94726562 183.49804688 C-11.40104092 183.49965937 -12.85482063 183.49908044 -14.30859375 183.49609375 C-15.61626709 183.49794678 -16.92394043 183.4997998 -18.27124023 183.50170898 C-22.98734281 182.86715187 -25.15422199 181.81106316 -29 179 C-32.68614226 173.58410691 -32.40748078 168.43388887 -32.34057617 162.12939453 C-32.34101425 161.04587204 -32.34145233 159.96234955 -32.34190369 158.84599304 C-32.33981843 155.27474776 -32.31649901 151.70397549 -32.29296875 148.1328125 C-32.28737188 145.65274309 -32.28310221 143.17267035 -32.28010559 140.69259644 C-32.26866407 134.17251389 -32.2392025 127.65263257 -32.20599365 121.13262939 C-32.17365232 114.47647904 -32.16159704 107.82027005 -32.14648438 101.1640625 C-32.11433243 88.10928927 -32.06372274 75.05465535 -32 62 C-32.89710693 62.01232666 -33.79421387 62.02465332 -34.71850586 62.03735352 C-36.48013062 62.05173462 -36.48013062 62.05173462 -38.27734375 62.06640625 C-39.44257568 62.07873291 -40.60780762 62.09105957 -41.80834961 62.10375977 C-45.70888201 61.97695442 -47.92722314 61.44246366 -51 59 C-53.73430513 55.6619051 -54.88909158 52.77635891 -55.5 48.5 C-54.34963386 40.44743699 -48.7652645 35.3091148 -43.234375 29.80078125 C-42.48214661 29.043311 -41.72991821 28.28584076 -40.95489502 27.50541687 C-39.36839834 25.9125222 -37.7780479 24.32345754 -36.18408203 22.73803711 C-33.75932182 20.32178909 -31.35380952 17.88747315 -28.94921875 15.45117188 C-27.39956932 13.89991019 -25.84882361 12.34974272 -24.296875 10.80078125 C-23.58513123 10.0778035 -22.87338745 9.35482574 -22.14007568 8.60993958 C-15.94081788 2.4953063 -9.05309578 -3.34416377 0 0 Z " fill="#010200" transform="translate(79,40)"/>
<path d="M0 0 C6.95188919 5.63631832 10.6332437 11.81813323 12.79296875 20.45703125 C12.97232256 22.86971839 13.05804244 25.29055735 13.06712341 27.70988464 C13.07236009 28.40568628 13.07759677 29.10148792 13.08299214 29.81837445 C13.09790057 32.13182407 13.09869525 34.44505072 13.09936523 36.75854492 C13.10699299 38.42481861 13.11542154 40.0910888 13.12458801 41.75735474 C13.14648132 46.27207164 13.15532515 50.78672084 13.16041446 55.30148482 C13.16406466 58.12667559 13.17030822 60.9518488 13.17741585 63.77703285 C13.20189404 73.64636637 13.21495836 83.51564746 13.21850586 93.38500977 C13.2221381 102.56284039 13.25201535 111.74033599 13.29391044 120.9180643 C13.32868492 128.81472985 13.34405555 136.71128477 13.34475189 144.60802633 C13.34554238 149.31673276 13.3541752 154.02509776 13.38274956 158.73372459 C13.4090527 163.16705792 13.4110677 167.59976972 13.39509392 172.0331459 C13.39328902 173.65197043 13.39988268 175.27083171 13.41591263 176.88957787 C13.51842233 187.92188483 12.25136551 197.20876718 5.65234375 206.45703125 C-2.69817995 214.37456484 -10.78330375 217.82086251 -22.265625 217.66796875 C-32.45984143 216.9369094 -39.72989329 212.44309118 -46.51953125 205.01953125 C-50.83257984 199.68682171 -52.51507925 194.23816081 -53.20703125 187.45703125 C-54.30015625 187.53953125 -55.39328125 187.62203125 -56.51953125 187.70703125 C-66.47973626 187.67183618 -76.2416436 182.402754 -83.1796875 175.4921875 C-90.03250326 167.44631252 -92.49515095 159.11850421 -92.01953125 148.64453125 C-91.73674735 143.73958578 -91.73674735 143.73958578 -93.5390625 139.37109375 C-94.74536307 138.29357036 -95.98676969 137.25424014 -97.2578125 136.25390625 C-103.91426796 130.11769481 -107.08558696 119.22943919 -107.5078125 110.34375 C-107.52706869 108.94413743 -107.53063743 107.54423222 -107.51953125 106.14453125 C-107.5146167 105.40396484 -107.50970215 104.66339844 -107.50463867 103.90039062 C-107.23627727 91.25024714 -102.72671745 81.19893524 -94.5390625 71.671875 C-93.20703125 70.45703125 -93.20703125 70.45703125 -91.20703125 70.45703125 C-91.53703125 69.79703125 -91.86703125 69.13703125 -92.20703125 68.45703125 C-93.13990901 56.11434093 -91.15994479 46.11542286 -83.20703125 36.45703125 C-74.30086983 27.12676691 -65.86888901 24.80857786 -53.20703125 23.45703125 C-53.00078125 22.17828125 -52.79453125 20.89953125 -52.58203125 19.58203125 C-50.55821698 10.70516313 -45.8968933 4.06912052 -38.46875 -1.13671875 C-26.89112388 -8.33524276 -11.19223412 -7.82465925 0 0 Z M-33.51953125 17.08203125 C-36.85062795 21.77024142 -36.67557141 25.82587269 -36.20703125 31.45703125 C-34.44615713 36.64182727 -31.64883755 39.32163857 -27.20703125 42.45703125 C-23.99437209 43.78053783 -23.99437209 43.78053783 -21.20703125 44.45703125 C-19.64133782 51.56287067 -19.64133782 51.56287067 -22.14453125 55.51953125 C-25.38543616 57.56989966 -27.18498548 58.05605005 -30.9609375 57.28515625 C-37.70401127 54.79901427 -42.7033108 50.79703138 -46.14453125 44.51953125 C-47.83730074 41.72215794 -48.53220216 40.65905689 -51.69921875 39.7109375 C-58.48249915 39.40089837 -63.96811457 41.15218499 -69.20703125 45.45703125 C-73.11572115 49.26881149 -75.0042791 52.61238419 -75.60546875 58.08203125 C-75.88208335 64.45569807 -75.88208335 64.45569807 -74.20703125 70.45703125 C-73.83203125 73.26953125 -73.83203125 73.26953125 -74.20703125 76.45703125 C-76.23196676 78.91149854 -78.33070294 80.83222314 -80.921875 82.6796875 C-87.42656445 87.56176295 -90.38601735 94.29328595 -91.65234375 102.2578125 C-92.00904943 110.4739333 -89.64918732 118.35769784 -85.45703125 125.39453125 C-83.35527312 127.32114287 -81.48926027 128.45408975 -79.01953125 129.83203125 C-75.64082475 131.81655031 -75.31834508 132.07725466 -74.14453125 136.08203125 C-74.20703125 139.45703125 -74.20703125 139.45703125 -75.20703125 142.45703125 C-75.87499047 149.96680137 -76.34117606 156.69070421 -71.63671875 162.91015625 C-66.85707197 168.08157735 -62.37483638 170.7415394 -55.33203125 171.08203125 C-50.94787789 171.06859243 -50.94787789 171.06859243 -47.3359375 168.87890625 C-46.36236847 167.49638546 -45.43939471 166.07704005 -44.56640625 164.62890625 C-41.58398509 159.86388854 -36.6972428 155.82958414 -31.20703125 154.45703125 C-27.26831256 154.04242928 -25.09606594 153.90138457 -21.70703125 156.01953125 C-20.20703125 158.45703125 -20.20703125 158.45703125 -20.14453125 162.01953125 C-21.20703125 165.45703125 -21.20703125 165.45703125 -23.33203125 167.08203125 C-24.28078125 167.53578125 -25.22953125 167.98953125 -26.20703125 168.45703125 C-32.4529963 172.34629645 -32.4529963 172.34629645 -36.20703125 178.45703125 C-37.09185452 185.57985857 -36.64340196 190.73644796 -32.20703125 196.45703125 C-28.52204991 199.96225741 -25.65351243 200.73345181 -20.70703125 200.89453125 C-14.78231325 200.65336227 -11.05320025 199.45704767 -6.95703125 195.01953125 C-3.76819758 190.35016766 -2.95611623 187.49522815 -2.94633484 181.75234985 C-2.94250929 181.07937941 -2.93868374 180.40640897 -2.93474227 179.71304548 C-2.92442769 177.4591708 -2.92840143 175.2055516 -2.93237305 172.95166016 C-2.92802568 171.33520777 -2.92284245 169.71875744 -2.91688538 168.10231018 C-2.90348589 163.71176515 -2.90291783 159.32130615 -2.90544868 154.93074465 C-2.90651788 151.26524327 -2.90163625 147.59975933 -2.89684325 143.93426168 C-2.8857445 135.28591381 -2.88531255 126.63760936 -2.89135742 117.98925781 C-2.89739668 109.06877549 -2.88508827 100.14845092 -2.86378735 91.22799551 C-2.8461701 83.56842627 -2.84017024 75.90890724 -2.8434251 68.24931848 C-2.84523811 63.67499464 -2.84260009 59.1007833 -2.82871056 54.52647781 C-2.81613503 50.22381602 -2.81807366 45.92140001 -2.83112144 41.61874199 C-2.83348749 40.04095184 -2.83075151 38.46314441 -2.82249832 36.88537407 C-2.81203097 34.72852467 -2.82013055 32.57249994 -2.83280945 30.41567993 C-2.83255784 28.60661887 -2.83255784 28.60661887 -2.83230114 26.76101112 C-3.43858292 21.41544978 -5.55173082 17.5252691 -9.70703125 14.14453125 C-10.58875 13.40783203 -10.58875 13.40783203 -11.48828125 12.65625 C-19.29284284 7.21079453 -27.81885979 10.61099879 -33.51953125 17.08203125 Z " fill="#010000" transform="translate(239.20703125,5.54296875)"/>
<path d="M0 0 C2.475 0.495 2.475 0.495 5 1 C5.24121582 1.79696289 5.48243164 2.59392578 5.73095703 3.41503906 C6.64198254 6.38767674 7.57221928 9.35341235 8.515625 12.31591797 C9.11646402 14.22290785 9.69512426 16.13683983 10.2734375 18.05078125 C10.66015625 19.25605469 11.046875 20.46132813 11.4453125 21.703125 C11.79094238 22.81333008 12.13657227 23.92353516 12.49267578 25.06738281 C14.41823833 28.81371538 16.25153224 30.12718923 20 32 C24.71300812 32.65325052 27.57295817 31.54477779 31.6953125 29.3046875 C32.74074219 28.75425781 33.78617187 28.20382813 34.86328125 27.63671875 C37.04707698 26.45720753 39.22935936 25.27489034 41.41015625 24.08984375 C42.45300781 23.54199219 43.49585938 22.99414062 44.5703125 22.4296875 C45.51664551 21.91647949 46.46297852 21.40327148 47.43798828 20.87451172 C50 20 50 20 52.15527344 20.67407227 C53.92733431 21.94777033 55.43075349 23.21622713 56.9453125 24.78515625 C57.72455078 25.58083008 57.72455078 25.58083008 58.51953125 26.39257812 C59.04933594 26.94365234 59.57914062 27.49472656 60.125 28.0625 C63.69553366 32.0044894 63.69553366 32.0044894 68 35 C66.16870018 41.49374706 62.77851521 47.09979357 59.45703125 52.92382812 C56.77451463 57.82352685 55.32788898 61.26176184 56 67 C56.96671374 70.28682671 57.77025148 72.29837143 60.81860352 74.03759766 C66.45178929 76.45802358 72.12991341 78.42464248 78 80.1875 C79.68833418 80.69907795 81.37588306 81.21325737 83.0625 81.73046875 C83.79597656 81.95114014 84.52945313 82.17181152 85.28515625 82.39916992 C87 83 87 83 88 84 C88.08713831 85.70772358 88.10700007 87.41898649 88.09765625 89.12890625 C88.09282227 90.68061523 88.09282227 90.68061523 88.08789062 92.26367188 C88.07532227 93.8965918 88.07532227 93.8965918 88.0625 95.5625 C88.05798828 96.65498047 88.05347656 97.74746094 88.04882812 98.87304688 C88.03699826 101.58208495 88.02051543 104.29101599 88 107 C73 112 73 112 58 117 C56.08680552 121.22916674 55.12958069 125.41548241 56 130 C58.24602212 135.14132562 61.13155436 139.94733975 63.91015625 144.81445312 C64.45800781 145.80767578 65.00585938 146.80089844 65.5703125 147.82421875 C66.08352051 148.72229248 66.59672852 149.62036621 67.12548828 150.5456543 C68 153 68 153 67.35546875 155.10766602 C65.94106634 157.08227572 64.475589 158.75123989 62.7421875 160.453125 C62.11699219 161.071875 61.49179687 161.690625 60.84765625 162.328125 C60.19667969 162.96234375 59.54570312 163.5965625 58.875 164.25 C58.21628906 164.8996875 57.55757813 165.549375 56.87890625 166.21875 C55.25703357 167.81711727 53.6306719 169.41061897 52 171 C48.95781784 169.56358915 45.91634877 168.12567446 42.875 166.6875 C41.59109375 166.08131836 41.59109375 166.08131836 40.28125 165.46289062 C39.44335938 165.06650391 38.60546875 164.67011719 37.7421875 164.26171875 C36.92395508 163.87508057 36.10572266 163.48844238 35.26269531 163.09008789 C33.35754427 162.17225239 31.47636054 161.20490538 29.6015625 160.2265625 C25.24152043 158.17092705 21.40968674 158.81023448 16.75 159.4375 C13.69120092 161.17545402 13.50053 161.52810358 12.4375 164.6875 C11.95480673 166.45737531 11.47624247 168.228378 11 170 C10.15849673 172.56766384 9.30545534 175.12890221 8.4375 177.6875 C8.02371094 178.92886719 7.60992187 180.17023438 7.18359375 181.44921875 C6.12239583 184.6328125 5.06119792 187.81640625 4 191 C2.68 191 1.36 191 0 191 C0 177.14 0 163.28 0 149 C5.61 147.02 11.22 145.04 17 143 C20.34730766 141.04060039 23.05196854 139.36716933 26 137 C26.6084375 136.56300781 27.216875 136.12601563 27.84375 135.67578125 C33.34762018 131.46338938 36.70628455 126.02413514 40 120 C40.76763672 118.63488281 40.76763672 118.63488281 41.55078125 117.2421875 C46.87559399 105.99258311 47.19767384 90.89895408 44.11328125 78.9140625 C38.63420192 63.5872027 28.19515479 53.30430295 14 46 C9.38 44.68 4.76 43.36 0 42 C0 28.14 0 14.28 0 0 Z " fill="#2E5071" transform="translate(276,16)"/>
<path d="M0 0 C5.98527736 4.92757056 11.46310225 10.30948225 16.92749023 15.79711914 C18.45507121 17.33013372 19.98802081 18.85763767 21.52148438 20.38476562 C22.49250893 21.35644973 23.46322392 22.32844331 24.43359375 23.30078125 C25.31072021 24.17903564 26.18784668 25.05729004 27.09155273 25.9621582 C29 28 29 28 29 29 C28.26394531 29.02578125 27.52789062 29.0515625 26.76953125 29.078125 C20.566012 29.40723598 20.566012 29.40723598 14.9375 31.8125 C11.81325305 35.33987558 10.75316186 38.02993671 10.7215271 42.73297119 C10.71036362 43.6808551 10.69920013 44.62873901 10.68769836 45.60534668 C10.68553818 46.63824829 10.68337799 47.6711499 10.68115234 48.73535156 C10.66608391 50.37482758 10.66608391 50.37482758 10.65071106 52.04742432 C10.61980864 55.66181917 10.60282409 59.27613971 10.5859375 62.890625 C10.56723156 65.39598228 10.54765858 67.90133323 10.5272522 70.40667725 C10.48111751 76.32806127 10.44373097 82.24945963 10.41057932 88.17092681 C10.36859167 95.57495579 10.31302738 102.97887239 10.2578125 110.3828125 C10.1609746 123.58848165 10.0765949 136.79419901 10 150 C3.73 150 -2.54 150 -9 150 C-9.00364563 148.61017914 -9.00729126 147.22035828 -9.01104736 145.78842163 C-9.04798324 132.69278054 -9.10574089 119.59737491 -9.18390274 106.50191307 C-9.22368162 99.76933782 -9.25607984 93.03687925 -9.27099609 86.30419922 C-9.28541106 79.80719494 -9.32053554 73.31049403 -9.36830902 66.81364822 C-9.38315004 64.33457202 -9.39104257 61.85544419 -9.39188385 59.3763237 C-9.39424695 55.90462401 -9.42127589 52.43392907 -9.45410156 48.96240234 C-9.4490712 47.93669128 -9.44404083 46.91098022 -9.43885803 45.85418701 C-9.52552024 39.93274009 -10.06836808 36.52033561 -14 32 C-16.9560226 29.9452038 -19.70026813 29.65524199 -23.25 29.375 C-24.14203125 29.30023438 -25.0340625 29.22546875 -25.953125 29.1484375 C-26.96632813 29.07496094 -26.96632813 29.07496094 -28 29 C-22.61359076 22.44622903 -16.64114873 16.52753365 -10.625 10.5625 C-9.59221405 9.53474017 -8.55966009 8.50674715 -7.52734375 7.47851562 C-5.02089713 4.98298402 -2.5113292 2.49061918 0 0 Z " fill="#6ED63E" transform="translate(438,57)"/>
<path d="M0 0 C5.98527736 4.92757056 11.46310225 10.30948225 16.92749023 15.79711914 C18.45507121 17.33013372 19.98802081 18.85763767 21.52148438 20.38476562 C22.49250893 21.35644973 23.46322392 22.32844331 24.43359375 23.30078125 C25.31072021 24.17903564 26.18784668 25.05729004 27.09155273 25.9621582 C29 28 29 28 29 29 C28.26394531 29.02578125 27.52789062 29.0515625 26.76953125 29.078125 C20.566012 29.40723598 20.566012 29.40723598 14.9375 31.8125 C11.81325305 35.33987558 10.75316186 38.02993671 10.7215271 42.73297119 C10.71036362 43.6808551 10.69920013 44.62873901 10.68769836 45.60534668 C10.68553818 46.63824829 10.68337799 47.6711499 10.68115234 48.73535156 C10.66608391 50.37482758 10.66608391 50.37482758 10.65071106 52.04742432 C10.61980864 55.66181917 10.60282409 59.27613971 10.5859375 62.890625 C10.56723156 65.39598228 10.54765858 67.90133323 10.5272522 70.40667725 C10.48111751 76.32806127 10.44373097 82.24945963 10.41057932 88.17092681 C10.36859167 95.57495579 10.31302738 102.97887239 10.2578125 110.3828125 C10.1609746 123.58848165 10.0765949 136.79419901 10 150 C3.73 150 -2.54 150 -9 150 C-9.00364563 148.61017914 -9.00729126 147.22035828 -9.01104736 145.78842163 C-9.04798324 132.69278054 -9.10574089 119.59737491 -9.18390274 106.50191307 C-9.22368162 99.76933782 -9.25607984 93.03687925 -9.27099609 86.30419922 C-9.28541106 79.80719494 -9.32053554 73.31049403 -9.36830902 66.81364822 C-9.38315004 64.33457202 -9.39104257 61.85544419 -9.39188385 59.3763237 C-9.39424695 55.90462401 -9.42127589 52.43392907 -9.45410156 48.96240234 C-9.4490712 47.93669128 -9.44404083 46.91098022 -9.43885803 45.85418701 C-9.52552024 39.93274009 -10.06836808 36.52033561 -14 32 C-16.9560226 29.9452038 -19.70026813 29.65524199 -23.25 29.375 C-24.14203125 29.30023438 -25.0340625 29.22546875 -25.953125 29.1484375 C-26.96632812 29.07496094 -26.96632812 29.07496094 -28 29 C-22.61359076 22.44622903 -16.64114873 16.52753365 -10.625 10.5625 C-9.59221405 9.53474017 -8.55966009 8.50674715 -7.52734375 7.47851562 C-5.02089713 4.98298402 -2.5113292 2.49061918 0 0 Z " fill="#6ED63E" transform="translate(73,57)"/>
<path d="M0 0 C14.15388031 4.24616409 20.92235601 9.14997784 28.1640625 22.078125 C31.68798482 30.44332378 31.86244327 42.56727294 28.67578125 51.03125 C22.96337755 63.90645269 14.48969292 69.67041638 2 75 C1.34 75 0.68 75 0 75 C0 50.25 0 25.5 0 0 Z " fill="#E4EEF5" transform="translate(276,74)"/>
<path d="M0 0 C2.5 1.625 2.5 1.625 4 4 C4.64116685 7.76685522 4.3861333 9.3993482 2.3125 12.625 C0 15 0 15 -2.625 17.0625 C-5.84206607 19.68694864 -6.83542002 21.64317205 -7.3359375 25.76953125 C-7.4216643 32.44764894 -7.20087615 36.69363013 -3 42 C-1.948125 42.66 -0.89625 43.32 0.1875 44 C3 46 3 46 4 49.5 C4 52.85477567 3.9632898 54.34955877 2 57 C-1.53430656 59.35620437 -2.83571287 59.48991613 -7 59 C-14.66056577 55.08822173 -20.46638794 48.02935331 -23.33984375 39.96875 C-25.4867707 30.31393057 -25.25773132 19.59377721 -20 11 C-14.5049695 3.40852422 -9.67596543 -1.07510727 0 0 Z " fill="#040101" transform="translate(202,82)"/>
<path d="M0 0 C1.2065625 0.0309375 1.2065625 0.0309375 2.4375 0.0625 C2.25574219 0.93648437 2.25574219 0.93648437 2.0703125 1.828125 C1.50987835 4.5699413 0.97146936 7.31540272 0.4375 10.0625 C0.17525635 11.40598511 0.17525635 11.40598511 -0.09228516 12.77661133 C-1.4716343 20.37493398 -1.91275817 27.78829576 -2.0625 35.5 C-2.58364495 62.24699806 -11.61206469 81.50970585 -27.61328125 102.42578125 C-32.58648361 109.15305899 -34.22011401 114.70828174 -34.5625 123.0625 C-39.3125 122.1875 -39.3125 122.1875 -41.5625 121.0625 C-41.17575538 112.16737382 -35.85203226 105.73928884 -30.6875 98.8125 C-16.93395875 80.17697655 -9.26149927 60.82324397 -9 37.5 C-8.46411598 0.20644185 -8.46411598 0.20644185 0 0 Z " fill="#DCA670" transform="translate(129.5625,248.9375)"/>
<path d="M0 0 C1.98 0.66 3.96 1.32 6 2 C5.4747345 5.88696472 4.56370941 9.50482249 3.4375 13.25 C1.22735268 21.22386485 1.28556059 28.1959867 4 36 C0.69517048 35.19215278 -1.48283562 34.53440319 -3.875 32.0625 C-6.82685659 24.0268904 -4.92482132 16.58026533 -1.97265625 8.82421875 C-0.96137947 5.88786086 -0.43087608 3.070559 0 0 Z " fill="#DAA46F" transform="translate(122,422)"/>
<path d="M0 0 C2.31 0.33 4.62 0.66 7 1 C7.96033968 4.81199744 8.91790172 8.62468755 9.875 12.4375 C10.14441406 13.50677734 10.41382813 14.57605469 10.69140625 15.67773438 C12.21861409 21.76794123 13.67074427 27.86348447 15 34 C10.49255172 34.36546878 10.49255172 34.36546878 8.43017578 32.83520508 C6.57362104 30.45286947 6.10821444 28.38910479 5.4296875 25.44921875 C5.17316406 24.35802734 4.91664063 23.26683594 4.65234375 22.14257812 C4.39582031 21.00240234 4.13929688 19.86222656 3.875 18.6875 C3.61074219 17.55892578 3.34648437 16.43035156 3.07421875 15.26757812 C1.89743607 10.19307618 0.8193258 5.1458823 0 0 Z " fill="#DCA570" transform="translate(187,462)"/>
<path d="M0 0 C1.98 0 3.96 0 6 0 C5.34 0.825 4.68 1.65 4 2.5 C1.38765874 6.34492481 1.68665866 9.45655064 2 14 C-2.75 13.25 -2.75 13.25 -5 11 C-4.69890649 6.93523764 -2.03366739 3.41131304 0 0 Z " fill="#DAA46F" transform="translate(114,381)"/>
<path d="M0 0 C1.20272819 2.40545638 1.10071472 3.94996953 1.0625 6.625 C1.05347656 7.44226563 1.04445313 8.25953125 1.03515625 9.1015625 C1.02355469 9.72804688 1.01195313 10.35453125 1 11 C-1.9375 9.75 -1.9375 9.75 -5 8 C-5.875 5.8125 -5.875 5.8125 -6 4 C-4.02 2.68 -2.04 1.36 0 0 Z " fill="#D6A16D" transform="translate(118,407)"/>
<path d="M0 0 C1.98 0.66 3.96 1.32 6 2 C1.25 5.875 1.25 5.875 -1 7 C-0.67 4.69 -0.34 2.38 0 0 Z " fill="#DFA872" transform="translate(120,400)"/>
</svg>
