<?xml version="1.0" encoding="UTF-8"?>
<svg version="1.1" xmlns="http://www.w3.org/2000/svg" width="512" height="512">
<path d="M0 0 C3.48947433 0.91390994 4.90690364 2.77161712 7.1328125 5.55859375 C7.80316904 8.43356601 7.71789348 11.20163407 7.62109375 14.140625 C7.61401901 14.95480392 7.60694427 15.76898285 7.59965515 16.60783386 C7.57176848 19.19654018 7.50904566 21.78304648 7.4453125 24.37109375 C7.420222 26.13082803 7.39741014 27.89059638 7.37695312 29.65039062 C7.32196122 33.95396671 7.23573242 38.25590785 7.1328125 42.55859375 C8.36257813 42.52378906 9.59234375 42.48898438 10.859375 42.453125 C12.49217377 42.4249733 14.1249874 42.39767462 15.7578125 42.37109375 C16.56605469 42.34595703 17.37429688 42.32082031 18.20703125 42.29492188 C23.25305867 42.23338496 26.82957667 42.61253229 31.1328125 45.55859375 C33.64129879 49.1478753 33.41573526 52.92978287 33.39350891 57.14317322 C33.39924723 58.29456979 33.39924723 58.29456979 33.40510148 59.4692269 C33.41542655 62.04327481 33.41144029 64.61709945 33.4074707 67.19116211 C33.41181744 69.03583483 33.41700046 70.88050573 33.42295837 72.72517395 C33.43636349 77.73752995 33.43692537 82.74981061 33.43439507 87.76218104 C33.43332642 91.9447241 33.43820601 96.12725184 33.4430005 100.30979162 C33.45410085 110.17585903 33.45453007 120.04188836 33.44848633 129.90795898 C33.44244462 140.09063227 33.45476136 150.27316744 33.4760564 160.45581716 C33.49366112 169.1947661 33.49967555 177.93367103 33.49641865 186.67263705 C33.4946039 191.89358655 33.49726115 197.11443754 33.51113319 202.33537102 C33.52368859 207.24457285 33.52178913 212.15355906 33.50872231 217.06275749 C33.506352 218.86511304 33.5091074 220.66748365 33.51734543 222.46982193 C33.52777634 224.92914311 33.51974202 227.38773589 33.5070343 229.84703064 C33.51440859 230.56123623 33.52178287 231.27544183 33.52938062 232.01129001 C33.48201792 236.36448427 32.8140309 239.10574489 30.1328125 242.55859375 C26.92874788 244.69463683 26.13680503 244.80068283 22.46484375 244.75390625 C21.57216797 244.74746094 20.67949219 244.74101562 19.75976562 244.734375 C18.36661133 244.70923828 18.36661133 244.70923828 16.9453125 244.68359375 C16.00494141 244.67457031 15.06457031 244.66554688 14.09570312 244.65625 C11.77448282 244.63268431 9.45377606 244.59978491 7.1328125 244.55859375 C7.14946709 245.48154488 7.14946709 245.48154488 7.16645813 246.42314148 C7.27712747 252.83069331 7.3525113 259.23797343 7.4074707 265.64624023 C7.43260565 268.03730294 7.46671883 270.42828889 7.51000977 272.8190918 C7.57070311 276.25719139 7.59903322 279.69427471 7.62109375 283.1328125 C7.64690018 284.20069504 7.6727066 285.26857758 7.69929504 286.36882019 C7.70210163 293.8053341 7.70210163 293.8053341 4.73339844 297.73339844 C0.71811428 300.55148559 -1.04870514 300.24694837 -5.8671875 299.55859375 C-8.29838373 297.68844281 -9.50787923 296.2772103 -10.8671875 293.55859375 C-10.95722716 291.98568167 -10.98475259 290.408978 -10.98071289 288.83349609 C-10.98063736 287.85263031 -10.98056183 286.87176453 -10.98048401 285.86117554 C-10.97532272 284.79968292 -10.97016144 283.73819031 -10.96484375 282.64453125 C-10.9634288 281.55975494 -10.96201385 280.47497864 -10.96055603 279.35733032 C-10.95494552 275.88272375 -10.94239122 272.40818094 -10.9296875 268.93359375 C-10.92467385 266.58203218 -10.92011071 264.2304696 -10.91601562 261.87890625 C-10.90497268 256.10544689 -10.88822429 250.33202487 -10.8671875 244.55859375 C-12.18074219 244.59339844 -13.49429687 244.62820313 -14.84765625 244.6640625 C-16.58332051 244.69220841 -18.31899865 244.71950771 -20.0546875 244.74609375 C-20.91900391 244.77123047 -21.78332031 244.79636719 -22.67382812 244.82226562 C-27.55553972 244.87837725 -30.9345095 244.81349558 -34.8671875 241.55859375 C-36.38305563 238.5268575 -36.01518886 235.38205653 -36.01435852 232.05593872 C-36.01803521 231.27301008 -36.0217119 230.49008144 -36.0255 229.68342769 C-36.03656123 227.04561844 -36.04038477 224.40784854 -36.04418945 221.77001953 C-36.05045217 219.88461175 -36.05709879 217.99920522 -36.06410217 216.11380005 C-36.08152755 210.98158648 -36.09206771 205.84938223 -36.1003077 200.7171464 C-36.10545364 197.51331195 -36.1115295 194.30948043 -36.11781883 191.10564804 C-36.13687353 181.08901015 -36.15110517 171.07237966 -36.1594308 161.05572712 C-36.16921113 149.47901718 -36.19555028 137.90249805 -36.23593169 126.32585537 C-36.26604778 117.38654671 -36.28089531 108.44729288 -36.28421181 99.50793445 C-36.28656709 94.16453717 -36.29558955 88.82134367 -36.32067299 83.47800064 C-36.34388053 78.45307225 -36.34821654 73.42848286 -36.33791161 68.40351486 C-36.33741438 66.55719122 -36.34378958 64.71085129 -36.35746765 62.86457825 C-36.37507359 60.3477134 -36.36813705 57.83208019 -36.35493469 55.31521606 C-36.36590394 54.5811696 -36.37687318 53.84712313 -36.38817483 53.09083283 C-36.34502664 49.6939314 -36.10734186 47.87423576 -34.0242033 45.13630486 C-30.89499937 42.84750391 -28.40452277 42.43421549 -24.63671875 42.4609375 C-23.43305664 42.46577148 -23.43305664 42.46577148 -22.20507812 42.47070312 C-20.95500977 42.48327148 -20.95500977 42.48327148 -19.6796875 42.49609375 C-18.4122168 42.50286133 -18.4122168 42.50286133 -17.11914062 42.50976562 C-15.03512595 42.52153972 -12.95114773 42.53947485 -10.8671875 42.55859375 C-10.87766113 41.48899414 -10.88813477 40.41939453 -10.89892578 39.31738281 C-10.93516156 35.34410965 -10.958101 31.37085106 -10.97705078 27.39746094 C-10.9871002 25.67868594 -11.00074195 23.959928 -11.01806641 22.24121094 C-11.04236141 19.76883734 -11.05368118 17.29669006 -11.0625 14.82421875 C-11.07798386 13.67400238 -11.07798386 13.67400238 -11.09378052 12.50054932 C-11.09522581 5.60768315 -11.09522581 5.60768315 -8.8671875 2.55859375 C-5.69899994 0.44646871 -3.73499498 0.22702911 0 0 Z " fill="#089617" transform="translate(419.8671875,50.44140625)"/>
<path d="M0 0 C3.21489279 3.11118657 3.97148724 6.10751999 4.11352539 10.5534668 C4.1133674 12.01872699 4.10773819 13.48399324 4.09765625 14.94921875 C4.0962413 15.72183548 4.09482635 16.49445221 4.09336853 17.29048157 C4.08777466 19.75619389 4.07522333 22.22181515 4.0625 24.6875 C4.05748421 26.36002473 4.05292144 28.03255088 4.04882812 29.70507812 C4.03780724 33.80342046 4.02054684 37.90169479 4 42 C4.86951294 41.96072388 4.86951294 41.96072388 5.7565918 41.9206543 C8.39994875 41.81629388 11.04287199 41.75155673 13.6875 41.6875 C14.59951172 41.64560547 15.51152344 41.60371094 16.45117188 41.56054688 C17.33740234 41.54443359 18.22363281 41.52832031 19.13671875 41.51171875 C19.94842529 41.48553467 20.76013184 41.45935059 21.59643555 41.43237305 C25.25534095 42.29646193 26.65830066 44.10583446 29 47 C29.49333519 49.81022124 29.67804225 52.01484414 29.63491821 54.81872559 C29.64271817 55.59942838 29.65051812 56.38013118 29.65855443 57.18449163 C29.67847887 59.79730434 29.662709 62.40866119 29.64697266 65.02148438 C29.6537486 66.89586741 29.66265161 68.77024379 29.67352295 70.64460754 C29.69632554 75.73349376 29.68747591 80.82187339 29.67162752 85.91076851 C29.65897356 91.23491919 29.67070724 96.55902634 29.67855835 101.88317871 C29.68765636 110.8243794 29.67566294 119.76537362 29.65185547 128.70654297 C29.62464398 139.04556178 29.63345803 149.3840876 29.6609875 159.72309446 C29.68367316 168.59797751 29.68688128 177.4727121 29.67379415 186.34761477 C29.66599669 191.64907697 29.66496625 196.95030742 29.68147659 202.25175476 C29.69591412 207.23582233 29.68591259 212.21925397 29.65700531 217.20325279 C29.65039068 219.03301118 29.65229861 220.86282304 29.66331863 222.6925602 C29.67697133 225.18952205 29.6598639 227.68444287 29.63491821 230.18127441 C29.65164863 231.26906889 29.65164863 231.26906889 29.66871703 232.37883902 C29.59319675 236.27221862 29.09295679 237.88511234 26.61054039 240.95319366 C23.76270076 243.18605557 22.68266779 243.6026667 19.13671875 243.48828125 C17.80737305 243.46411133 17.80737305 243.46411133 16.45117188 243.43945312 C15.53916016 243.39755859 14.62714844 243.35566406 13.6875 243.3125 C12.29047852 243.27866211 12.29047852 243.27866211 10.86523438 243.24414062 C8.5751604 243.18542078 6.28842125 243.10336858 4 243 C4.00666183 243.58802399 4.01332367 244.17604797 4.02018738 244.78189087 C4.08666884 250.91394573 4.13185377 257.04589782 4.16479492 263.17822266 C4.17986116 265.46537435 4.20031797 267.75249725 4.22631836 270.03955078 C4.26279606 273.33112707 4.27974834 276.62232062 4.29296875 279.9140625 C4.31619453 281.44252304 4.31619453 281.44252304 4.33988953 283.00186157 C4.34116955 288.42796913 4.10058896 292.32889637 1 297 C-1.64444635 299.17222379 -3.02987018 298.99893321 -6.5 298.875 C-10.40112603 297.89971849 -11.53302725 297.08951955 -14 294 C-14.48101807 291.58282471 -14.48101807 291.58282471 -14.45410156 288.86425781 C-14.45364838 287.33312347 -14.45364838 287.33312347 -14.45318604 285.77105713 C-14.43254089 284.67613953 -14.41189575 283.58122192 -14.390625 282.453125 C-14.38496521 281.3267865 -14.37930542 280.200448 -14.37347412 279.03997803 C-14.35108545 275.44288618 -14.30088213 271.84679074 -14.25 268.25 C-14.22993833 265.8112123 -14.21168698 263.37240899 -14.1953125 260.93359375 C-14.15121244 254.95538926 -14.08427463 248.97776581 -14 243 C-14.60996826 243.02618408 -15.21993652 243.05236816 -15.84838867 243.0793457 C-18.62782758 243.18365719 -21.40685439 243.24842982 -24.1875 243.3125 C-25.62706055 243.3753418 -25.62706055 243.3753418 -27.09570312 243.43945312 C-28.02705078 243.45556641 -28.95839844 243.47167969 -29.91796875 243.48828125 C-30.77156982 243.51446533 -31.6251709 243.54064941 -32.50463867 243.56762695 C-36.23339356 242.71943645 -37.61969576 240.94857033 -40 238 C-40.48711671 235.1978093 -40.66581886 233.00682795 -40.61473083 230.21250916 C-40.62041409 229.43518435 -40.62609735 228.65785954 -40.63195282 227.85697943 C-40.64485888 225.25558728 -40.62206491 222.65575028 -40.59936523 220.05444336 C-40.60122926 218.18829522 -40.60526581 216.32214818 -40.61131287 214.45600891 C-40.62129477 209.38986901 -40.60010576 204.32428781 -40.57283282 199.25822902 C-40.54901747 193.95899318 -40.55194789 188.65976871 -40.55152893 183.36048889 C-40.54689977 174.46215343 -40.5232496 165.56403182 -40.48706055 156.66577148 C-40.44531366 146.37344255 -40.42774498 136.0813062 -40.4244408 125.78889745 C-40.42084291 114.83693121 -40.40197067 103.88503441 -40.37732053 92.93309712 C-40.37108815 89.77450422 -40.3674542 86.61591659 -40.36428642 83.45731926 C-40.3583908 78.497227 -40.34209145 73.53727271 -40.31768227 68.57723808 C-40.31023445 66.75512254 -40.30616983 64.93298962 -40.30570221 63.11085892 C-40.30444676 60.62726552 -40.29091934 58.14403733 -40.27415466 55.6605072 C-40.27656975 54.93628899 -40.27898483 54.21207078 -40.2814731 53.46590656 C-40.24301202 49.83662852 -40.13919495 47.00895948 -38 44 C-34.74610012 41.83073341 -33.86604043 41.75919951 -30.11328125 41.8046875 C-29.17548828 41.81113281 -28.23769531 41.81757813 -27.27148438 41.82421875 C-26.29501953 41.84097656 -25.31855469 41.85773438 -24.3125 41.875 C-23.32443359 41.88402344 -22.33636719 41.89304688 -21.31835938 41.90234375 C-18.87866235 41.9259157 -16.43945303 41.95881978 -14 42 C-14.02094727 40.86981445 -14.04189453 39.73962891 -14.06347656 38.57519531 C-14.13592696 34.37838431 -14.18181784 30.18162848 -14.21972656 25.984375 C-14.23983061 24.1685252 -14.26711835 22.35274005 -14.30175781 20.53710938 C-14.35033039 17.92561895 -14.37298027 15.31498502 -14.390625 12.703125 C-14.41127014 11.89256653 -14.43191528 11.08200806 -14.45318604 10.24688721 C-14.45464111 6.58427227 -14.3629773 4.47420325 -12.10058594 1.51855469 C-8.05410415 -1.40672619 -4.75318722 -1.27595805 0 0 Z " fill="#099618" transform="translate(159,107)"/>
<path d="M0 0 C2.93871298 2.20214437 3.8947294 3.36305377 4.49975401 7.02379221 C4.49959301 8.81732271 4.49959301 8.81732271 4.49942875 10.64708614 C4.50483371 11.31711114 4.51023867 11.98713614 4.51580742 12.67746493 C4.52911165 14.93304866 4.51382326 17.18753991 4.49879456 19.44309998 C4.50251991 21.0722897 4.50800786 22.70147619 4.51511139 24.33065468 C4.52959774 28.81570527 4.51917058 33.30040979 4.50482833 37.78544819 C4.49373706 42.6192117 4.50569915 47.45292261 4.51501465 52.28668213 C4.5281207 60.66531507 4.52693023 69.0438483 4.51642036 77.42248344 C4.50150035 89.54208901 4.51138066 101.66157724 4.52793955 113.7811761 C4.55441629 133.45055609 4.56525889 153.11990981 4.56420898 172.78930664 C4.56415066 173.96702592 4.56409234 175.14474519 4.56403225 176.35815293 C4.56376639 181.1302811 4.5634491 185.90240926 4.56306899 190.67453742 C4.5621028 203.80979939 4.56343036 216.94506056 4.56616211 230.08032227 C4.566402 231.25630761 4.56664189 232.43229295 4.56688906 233.64391422 C4.57129243 253.23736295 4.58751317 272.83078724 4.6113829 292.42422158 C4.62547253 304.51635446 4.62831655 316.60839466 4.61676001 328.70053077 C4.60944883 336.98290875 4.61248046 345.26523997 4.62371845 353.54761343 C4.6298045 358.32996126 4.6308454 363.11217843 4.61884117 367.8945179 C4.60792464 372.26971716 4.61066257 376.64468424 4.62438463 381.01987363 C4.62688736 382.6052973 4.62427239 384.19073873 4.61611075 385.77614336 C4.60575213 387.92673826 4.61375674 390.07650811 4.62641239 392.22707272 C4.6261427 393.42292207 4.62587301 394.61877142 4.62559515 395.85085863 C5.03676988 399.30927365 6.08244088 401.14091189 8 404 C8 404.66 8 405.32 8 406 C12.45539514 407.70762326 16.13215752 408.24883438 20.8931818 408.24495316 C21.56551449 408.24715164 22.23784718 408.24935012 22.93055359 408.25161523 C25.18167313 408.25656573 27.43250608 408.24728354 29.68360901 408.23809814 C31.31452063 408.2388046 32.94543207 408.24040505 34.57634205 408.24282241 C39.05678996 408.24698237 43.53714408 408.2388051 48.01757944 408.22871995 C52.849926 408.22007618 57.68226596 408.22305354 62.51461792 408.22486877 C70.88773637 408.22668011 79.26082975 408.22188488 87.63394356 408.21326447 C100.86355865 408.20022619 114.09312472 408.20778111 127.32273865 408.21868896 C131.84824841 408.22216704 136.37375826 408.22551209 140.89926815 408.22881699 C142.59565111 408.23006399 142.59565111 408.23006399 144.32630442 408.23133619 C157.19759706 408.24051885 170.06889011 408.24547003 182.94018555 408.24853516 C184.70506796 408.24896378 184.70506796 408.24896378 186.50560456 408.24940106 C205.58781085 408.25350865 224.66998593 408.24227123 243.75218523 408.22715965 C263.33668042 408.2122059 282.92108088 408.22014436 302.50556225 408.24777675 C314.59022593 408.26396897 326.67459182 408.26120705 338.75923776 408.23430362 C347.03510711 408.21744848 355.31078308 408.22221871 363.58663983 408.24418792 C368.36508874 408.25618099 373.14301903 408.25825424 377.9214344 408.23430824 C382.29309927 408.21259295 386.66382582 408.21829922 391.03544819 408.24611339 C392.61946633 408.25127996 394.20355643 408.24622849 395.78750093 408.23010364 C407.61596083 408.11772325 407.61596083 408.11772325 411.05043781 410.30708265 C412.92267757 412.44939987 413.90323237 414.42443418 414.375 417.23046875 C413.82309001 420.11074902 413.33804443 422.52366467 411.625 424.9375 C408.01374278 427.29870664 404.67373534 427.12705765 400.48992825 427.13142776 C399.82255507 427.1334804 399.1551819 427.13553303 398.4675853 427.13764787 C396.21530529 427.14333445 393.96308612 427.14185858 391.71080017 427.14044189 C390.08604107 427.1430246 388.4612826 427.14603749 386.83652502 427.1494453 C382.35898438 427.15752999 377.88145975 427.15930569 373.40391266 427.16004276 C368.57959379 427.16189081 363.75528329 427.16943699 358.93096924 427.17617798 C348.37502811 427.18977319 337.81909077 427.19578813 327.26314235 427.20018864 C320.67304767 427.20294957 314.08295447 427.2071867 307.49286079 427.21169281 C289.25087927 427.223888 271.00889893 427.23418619 252.76691341 427.2375679 C251.01478522 427.23789725 251.01478522 427.23789725 249.2272605 427.23823325 C248.05635494 427.23845153 246.88544938 427.23866981 245.67906183 427.2388947 C243.30630489 427.23933817 240.93354795 427.23978473 238.56079102 427.24023438 C237.38381779 427.2404558 236.20684456 427.24067723 234.99420548 427.24090537 C215.92811441 427.24485235 196.86206158 427.26230221 177.79598527 427.2855939 C158.22628573 427.30930799 138.65660538 427.32176981 119.08689123 427.32293582 C108.09723775 427.32385265 97.10763407 427.32960686 86.11799431 427.34775543 C76.75844678 427.36315732 67.39896444 427.36827642 58.03940665 427.36001733 C53.26454454 427.35611089 48.48981368 427.35704011 43.71496773 427.37107468 C39.34070446 427.38381408 34.96667108 427.38261569 30.59240813 427.37048396 C29.01292033 427.36852702 27.43341625 427.37160531 25.85395133 427.38032833 C13.6375796 427.44350546 3.22989996 426.73544103 -6 418 C-14.69614927 408.7603414 -14.43622341 396.79112634 -14.38095093 384.83537292 C-14.38441153 383.20100652 -14.38917879 381.56664245 -14.39513266 379.93228322 C-14.40761638 375.46084404 -14.40148435 370.9895978 -14.39217401 366.51815808 C-14.38537334 361.68859581 -14.39586961 356.85906623 -14.40411377 352.0295105 C-14.41744091 342.57758496 -14.41457833 333.12573096 -14.40587585 323.67380264 C-14.39909771 315.99387162 -14.39818314 308.31396063 -14.4014473 300.63402748 C-14.401907 299.5405583 -14.40236669 298.44708913 -14.40284032 297.32048452 C-14.4037995 295.09911351 -14.40477214 292.87774251 -14.4057581 290.65637151 C-14.41430849 269.83739635 -14.40448231 249.01846085 -14.388357 228.19949219 C-14.37494474 210.32967093 -14.37729007 192.45990811 -14.39111328 174.59008789 C-14.40715909 153.83730094 -14.41349445 133.0845487 -14.40427649 112.33175641 C-14.40332083 110.12013551 -14.40237772 107.9085146 -14.4014473 105.69689369 C-14.40098447 104.60872357 -14.40052164 103.52055346 -14.40004479 102.39940849 C-14.3974526 94.72472626 -14.40183063 87.05006602 -14.40888596 79.37538719 C-14.41728963 70.02866582 -14.4150443 60.68202006 -14.39904372 51.33530738 C-14.39114719 46.56507344 -14.38809305 41.79496567 -14.39799118 37.02473259 C-14.40690942 32.66086738 -14.40205285 28.29724571 -14.38605852 23.93340269 C-14.38269863 22.3521989 -14.3844318 20.77097467 -14.39168589 19.18978395 C-14.40077353 17.04495019 -14.39148824 14.9009569 -14.37752342 12.75616741 C-14.37703637 11.5635705 -14.37654931 10.37097358 -14.37604749 9.14223737 C-13.96069241 5.6715474 -13.05164907 3.79932057 -11 1 C-7.44544736 -1.79286279 -4.2131487 -1.05328717 0 0 Z " fill="#FFB932" transform="translate(56,43)"/>
<path d="M0 0 C0.64195312 0.07992187 1.28390625 0.15984375 1.9453125 0.2421875 C4.98684662 1.63365858 6.09525429 3.28694692 7.875 6.125 C8.41840213 9.28449324 8.34142085 12.38420444 8.265625 15.58203125 C8.25996521 16.48499435 8.25430542 17.38795746 8.24847412 18.31828308 C8.22614895 21.19190303 8.17596018 24.06425928 8.125 26.9375 C8.10492999 28.8899559 8.0866801 30.84243142 8.0703125 32.79492188 C8.02629682 37.57209878 7.95729626 42.3483354 7.875 47.125 C9.18855469 47.09019531 10.50210938 47.05539063 11.85546875 47.01953125 C13.59113301 46.99138534 15.32681115 46.96408604 17.0625 46.9375 C17.92681641 46.91236328 18.79113281 46.88722656 19.68164062 46.86132812 C24.56335222 46.8052165 27.942322 46.87009817 31.875 50.125 C33.23049494 52.83598988 33.00716861 54.9588118 33.01544189 57.99520874 C33.02115204 59.24588638 33.02686218 60.49656403 33.03274536 61.78514099 C33.03399077 63.17886343 33.03511586 64.57258597 33.03613281 65.96630859 C33.04076002 67.42807643 33.04578454 68.88984306 33.05117798 70.35160828 C33.06431301 74.32890384 33.07074903 78.30618251 33.07518864 82.28349638 C33.07811746 84.76703972 33.08222189 87.25057841 33.08669281 89.73411942 C33.10037036 97.50075331 33.11003588 105.26737663 33.1138947 113.03402174 C33.11837689 122.00660842 33.13593113 130.97904288 33.1648953 139.95158327 C33.18649388 146.88241749 33.196598 153.81320884 33.19793582 160.74407637 C33.19898512 164.88578298 33.20491936 169.02734654 33.22275543 173.16901779 C33.2392048 177.0645351 33.24140702 180.95980135 33.23261642 184.85534096 C33.23184437 186.2856202 33.23621091 187.71591278 33.24607468 189.14615822 C33.25874478 191.09767271 33.25114368 193.04928753 33.24249268 195.00082397 C33.24469252 196.63956262 33.24469252 196.63956262 33.2469368 198.31140709 C32.82533352 201.50071233 32.12405237 202.85540011 29.875 205.125 C27.05088235 206.06637255 25.34581968 206.24225382 22.42578125 206.22265625 C21.57822266 206.21943359 20.73066406 206.21621094 19.85742188 206.21289062 C18.97634766 206.20451172 18.09527344 206.19613281 17.1875 206.1875 C16.29482422 206.18298828 15.40214844 206.17847656 14.48242188 206.17382812 C12.27988013 206.16204983 10.07747401 206.14560164 7.875 206.125 C7.89071045 207.18936279 7.9064209 208.25372559 7.92260742 209.3503418 C7.97703054 213.31055086 8.01139493 217.27072704 8.03979492 221.23120117 C8.0548534 222.94317184 8.07530455 224.65510411 8.10131836 226.36694336 C8.1378319 228.83196505 8.15475562 231.29647535 8.16796875 233.76171875 C8.18345261 234.52336838 8.19893646 235.28501801 8.21488953 236.06974792 C8.21631816 240.61157472 7.71037454 243.52767974 4.875 247.125 C1.96553057 248.8549548 0.2000358 249.13163338 -3.1875 249.0625 C-7.03642414 247.83411995 -8.00557782 246.55346053 -10.125 243.125 C-10.467908 240.13156068 -10.59416655 237.5237739 -10.515625 234.54296875 C-10.50996521 233.72878983 -10.50430542 232.9146109 -10.49847412 232.07575989 C-10.47616774 229.48739647 -10.42598445 226.9004416 -10.375 224.3125 C-10.35492747 222.55275444 -10.33667802 220.79298707 -10.3203125 219.03320312 C-10.27632207 214.72992995 -10.20733627 210.4277034 -10.125 206.125 C-10.70467529 206.14594727 -11.28435059 206.16689453 -11.8815918 206.18847656 C-14.52504924 206.27196807 -17.1682288 206.32376153 -19.8125 206.375 C-20.72451172 206.40851563 -21.63652344 206.44203125 -22.57617188 206.4765625 C-26.90108078 206.53947027 -29.41992511 206.54321932 -33.20703125 204.296875 C-36.31547323 200.77692848 -36.25275854 197.81283307 -36.26544189 193.29312134 C-36.27115204 192.07617081 -36.27686218 190.85922028 -36.28274536 189.60539246 C-36.28399069 188.25466929 -36.28511579 186.90394601 -36.28613281 185.55322266 C-36.29076154 184.13233817 -36.29578628 182.71145492 -36.30117798 181.29057312 C-36.3142978 177.42896843 -36.32074599 173.56738112 -36.32518864 169.70575762 C-36.32811974 167.29339266 -36.3322246 164.88103246 -36.33669281 162.46866989 C-36.35036598 154.92148505 -36.3600338 147.37431107 -36.3638947 139.8271147 C-36.36837665 131.11376842 -36.38593156 122.40057891 -36.4148953 113.6872803 C-36.43650535 106.95258691 -36.4465986 100.21793766 -36.44793582 93.48320997 C-36.44898424 89.46053312 -36.45489991 85.43800368 -36.47275543 81.41536331 C-36.48922474 77.63145294 -36.4913973 73.84780099 -36.48261642 70.06386757 C-36.48184546 68.6759338 -36.48619665 67.28798619 -36.49607468 65.90008736 C-36.50877902 64.00371573 -36.50113115 62.10724045 -36.49249268 60.21084595 C-36.49395924 59.15007151 -36.4954258 58.08929707 -36.4969368 56.99637794 C-36.06475189 53.65988039 -35.1197535 51.81494142 -33.125 49.125 C-29.92093538 46.98895692 -29.12899253 46.88291092 -25.45703125 46.9296875 C-24.56435547 46.93613281 -23.67167969 46.94257813 -22.75195312 46.94921875 C-21.82318359 46.96597656 -20.89441406 46.98273438 -19.9375 47 C-18.99712891 47.00902344 -18.05675781 47.01804688 -17.08789062 47.02734375 C-14.76667032 47.05090944 -12.44596356 47.08380884 -10.125 47.125 C-10.1564209 45.87887939 -10.1878418 44.63275879 -10.22021484 43.34887695 C-10.32895682 38.7179559 -10.39774834 34.08714723 -10.45458984 29.45532227 C-10.48473149 27.45219943 -10.52565315 25.44920825 -10.57763672 23.4465332 C-10.65056881 20.56428549 -10.68448174 17.68378445 -10.7109375 14.80078125 C-10.74190521 13.90788895 -10.77287292 13.01499664 -10.80477905 12.095047 C-10.80805656 6.01647798 -10.80805656 6.01647798 -8.82650757 3.43029785 C-6.01322 1.00136439 -3.75743233 -0.62370334 0 0 Z " fill="#CE3B3B" transform="translate(287.125,105.875)"/>
<path d="M0 0 C5.94 0 11.88 0 18 0 C18.12364115 7.1715669 18.21436178 14.34251281 18.2746582 21.51489258 C18.29979496 23.95445564 18.33390946 26.39394345 18.37719727 28.83325195 C18.43788229 32.34084646 18.466219 35.8474449 18.48828125 39.35546875 C18.51408768 40.44522507 18.5398941 41.53498138 18.56648254 42.65776062 C18.56928929 50.24349632 18.56928929 50.24349632 15.60058594 54.18847656 C11.58188359 56.9878355 9.81246939 56.68749563 5 56 C2.56880377 54.12984906 1.35930827 52.71861655 0 50 C-0.09016377 48.39645548 -0.11756075 46.78917778 -0.11352539 45.18310547 C-0.11344986 44.18221893 -0.11337433 43.1813324 -0.11329651 42.15011597 C-0.10813522 41.06674957 -0.10297394 39.98338318 -0.09765625 38.8671875 C-0.0962413 37.76021515 -0.09482635 36.6532428 -0.09336853 35.51272583 C-0.08775772 31.96679007 -0.07520337 28.42091677 -0.0625 24.875 C-0.05748639 22.47526133 -0.05292325 20.07552167 -0.04882812 17.67578125 C-0.03778478 11.78382999 -0.02051286 5.8919256 0 0 Z " fill="#005513" transform="translate(409,294)"/>
<path d="M0 0 C5.94 0 11.88 0 18 0 C18.0742768 6.72604977 18.12866276 13.4518596 18.16479492 20.17822266 C18.17986116 22.46537435 18.20031797 24.75249725 18.22631836 27.03955078 C18.26279606 30.33112707 18.27974834 33.62232062 18.29296875 36.9140625 C18.30845261 37.93303619 18.32393646 38.95200989 18.33988953 40.00186157 C18.34116955 45.42796913 18.10058896 49.32889637 15 54 C12.35555365 56.17222379 10.97012982 55.99893321 7.5 55.875 C3.59887397 54.89971849 2.46697275 54.08951955 0 51 C-0.48101807 48.58282471 -0.48101807 48.58282471 -0.45410156 45.86425781 C-0.45379944 44.84350159 -0.45349731 43.82274536 -0.45318604 42.77105713 C-0.43254089 41.67613953 -0.41189575 40.58122192 -0.390625 39.453125 C-0.38496521 38.3267865 -0.37930542 37.200448 -0.37347412 36.03997803 C-0.35108545 32.44288618 -0.30088213 28.84679074 -0.25 25.25 C-0.22993833 22.8112123 -0.21168698 20.37240899 -0.1953125 17.93359375 C-0.15121211 11.9553453 -0.0821653 5.97784158 0 0 Z " fill="#005413" transform="translate(145,350)"/>
<path d="M0 0 C0.64195312 0.07992187 1.28390625 0.15984375 1.9453125 0.2421875 C4.99535365 1.63755045 6.09457574 3.27307907 7.875 6.125 C8.42042531 9.3567484 8.34122088 12.53129628 8.265625 15.80078125 C8.25996521 16.7259404 8.25430542 17.65109955 8.24847412 18.60429382 C8.2261448 21.54922986 8.17595486 24.49293386 8.125 27.4375 C8.10493054 29.43813343 8.08668055 31.43878599 8.0703125 33.43945312 C8.02629125 38.33510764 7.95728747 43.22984518 7.875 48.125 C1.935 48.125 -4.005 48.125 -10.125 48.125 C-10.27349192 42.09280145 -10.38228505 36.06166987 -10.45458984 30.02807617 C-10.48473452 27.97645534 -10.52565836 25.9249631 -10.57763672 23.8737793 C-10.65055446 20.92204059 -10.68447901 17.97200726 -10.7109375 15.01953125 C-10.74190521 14.10476517 -10.77287292 13.18999908 -10.80477905 12.24751282 C-10.80805688 6.02354191 -10.80805688 6.02354191 -8.82650757 3.41687012 C-6.01753514 0.99123388 -3.74988426 -0.62245042 0 0 Z " fill="#941B1B" transform="translate(287.125,105.875)"/>
<path d="M0 0 C5.94 0 11.88 0 18 0 C18.06897612 5.17831849 18.12867654 10.35503494 18.16479492 15.53344727 C18.17985553 17.29391896 18.20030826 19.0543533 18.22631836 20.81469727 C18.26282229 23.34921503 18.27975354 25.88323552 18.29296875 28.41796875 C18.30845261 29.20149216 18.32393646 29.98501556 18.33988953 30.7922821 C18.34129484 35.38412213 17.88272751 38.3668372 15 42 C12.09053057 43.7299548 10.3250358 44.00663338 6.9375 43.9375 C3.08170996 42.70692871 2.11728967 41.44073612 0 38 C-0.53114941 35.05568048 -0.46710711 32.18289762 -0.390625 29.19921875 C-0.38496521 28.36284378 -0.37930542 27.52646881 -0.37347412 26.66474915 C-0.35116268 24.00507289 -0.30097788 21.34676595 -0.25 18.6875 C-0.22992815 16.87957681 -0.21167858 15.07163241 -0.1953125 13.26367188 C-0.15472351 8.84150173 -0.07642915 4.42227528 0 0 Z " fill="#941B1B" transform="translate(277,311)"/>
<path d="M0 0 C3.49837986 0.91624234 4.90616084 2.75798799 7.1328125 5.55859375 C7.80599891 8.5052832 7.71752874 11.34971878 7.62109375 14.359375 C7.61401901 15.19574997 7.60694427 16.03212494 7.59965515 16.8938446 C7.57176235 19.55385427 7.50903731 22.21172514 7.4453125 24.87109375 C7.42022284 26.67900596 7.39741083 28.48695132 7.37695312 30.29492188 C7.32621079 34.71762383 7.22836169 39.13572786 7.1328125 43.55859375 C1.1928125 43.55859375 -4.7471875 43.55859375 -10.8671875 43.55859375 C-10.91312771 38.36224585 -10.95294432 33.16660409 -10.97705078 27.97021484 C-10.98710134 26.20293793 -11.00074392 24.43567762 -11.01806641 22.66845703 C-11.04235635 20.1265859 -11.05368005 17.58493486 -11.0625 15.04296875 C-11.07282257 14.25428406 -11.08314514 13.46559937 -11.09378052 12.65301514 C-11.09522312 5.58176132 -11.09522312 5.58176132 -8.8671875 2.55859375 C-5.69899994 0.44646871 -3.73499498 0.22702911 0 0 Z " fill="#005513" transform="translate(419.8671875,50.44140625)"/>
<path d="M0 0 C3.21489279 3.11118657 3.97148724 6.10751999 4.11352539 10.5534668 C4.1133674 12.01872699 4.10773819 13.48399324 4.09765625 14.94921875 C4.0962413 15.72183548 4.09482635 16.49445221 4.09336853 17.29048157 C4.08777466 19.75619389 4.07522333 22.22181515 4.0625 24.6875 C4.05748421 26.36002473 4.05292144 28.03255088 4.04882812 29.70507812 C4.03865847 33.80344866 4.01908194 37.90162248 4 42 C-1.94 42 -7.88 42 -14 42 C-14.09188266 36.66059647 -14.17150073 31.32393956 -14.21972656 25.984375 C-14.23983061 24.1685252 -14.26711835 22.35274005 -14.30175781 20.53710938 C-14.35033039 17.92561895 -14.37298027 15.31498502 -14.390625 12.703125 C-14.41127014 11.89256653 -14.43191528 11.08200806 -14.45318604 10.24688721 C-14.45464111 6.58427227 -14.3629773 4.47420325 -12.10058594 1.51855469 C-8.05410415 -1.40672619 -4.75318722 -1.27595805 0 0 Z " fill="#005413" transform="translate(159,107)"/>
</svg>
