<?xml version="1.0" encoding="UTF-8"?>
<svg version="1.1" xmlns="http://www.w3.org/2000/svg" width="512" height="512">
<path d="M0 0 C1.15628906 -0.05607422 1.15628906 -0.05607422 2.3359375 -0.11328125 C5.57658413 0.48950114 6.60129766 1.73704596 8.625 4.3125 C9.07910156 7.42871094 9.07910156 7.42871094 9.015625 11.046875 C9.00273437 12.34238281 8.98984375 13.63789063 8.9765625 14.97265625 C8.94314366 16.33594824 8.90928391 17.69922949 8.875 19.0625 C8.85492707 20.44138064 8.83667767 21.82028912 8.8203125 23.19921875 C8.77316016 26.57061138 8.7014174 29.94164373 8.625 33.3125 C13.905 33.3125 19.185 33.3125 24.625 33.3125 C24.955 31.3325 25.285 29.3525 25.625 27.3125 C28.67791317 24.22302499 31.72848909 24.11252014 35.87426758 23.97192383 C38.00608115 23.97239709 40.13793278 23.98924433 42.26953125 24.01953125 C43.3944548 24.02377609 44.51937836 24.02802094 45.6783905 24.03239441 C49.26500562 24.0491631 52.85105521 24.08681312 56.4375 24.125 C58.87173667 24.14004913 61.30598216 24.15373713 63.74023438 24.16601562 C69.70201529 24.19906075 75.66346723 24.24924272 81.625 24.3125 C81.53798828 22.34216797 81.53798828 22.34216797 81.44921875 20.33203125 C81.40230952 18.59638977 81.35681061 16.86070977 81.3125 15.125 C81.2496582 13.82852539 81.2496582 13.82852539 81.18554688 12.50585938 C81.09766404 7.91837516 81.10984627 5.97443466 84.015625 2.24072266 C86.52669454 0.38514376 87.56806174 -0.37413182 90.625 -0.3125 C91.264375 -0.32539063 91.90375 -0.33828125 92.5625 -0.3515625 C95.86299793 0.71109782 97.4265437 2.68360486 99.625 5.3125 C100.19262695 8.45043945 100.19262695 8.45043945 100.11328125 11.92578125 C100.09716797 13.17294922 100.08105469 14.42011719 100.06445312 15.70507812 C100.02255859 16.99865234 99.98066406 18.29222656 99.9375 19.625 C99.90366211 21.59436523 99.90366211 21.59436523 99.86914062 23.60351562 C99.81028942 26.84033181 99.72061212 30.07656106 99.625 33.3125 C112 32.8175 112 32.8175 124.625 32.3125 C125.615 30.3325 126.605 28.3525 127.625 26.3125 C130.69271191 24.26735873 131.28068048 24.06422726 134.72924805 24.08544922 C135.54987228 24.08560028 136.37049652 24.08575134 137.21598816 24.08590698 C138.5379998 24.10139084 138.5379998 24.10139084 139.88671875 24.1171875 C141.24540825 24.12143234 141.24540825 24.12143234 142.63154602 24.12576294 C145.52533158 24.13696036 148.41880794 24.16206411 151.3125 24.1875 C153.27408407 24.19753037 155.235673 24.20665612 157.19726562 24.21484375 C162.0066296 24.23689827 166.81576237 24.27142511 171.625 24.3125 C171.60405273 23.72758789 171.58310547 23.14267578 171.56152344 22.54003906 C171.47819885 19.88103535 171.42629103 17.22230645 171.375 14.5625 C171.34148437 13.64210938 171.30796875 12.72171875 171.2734375 11.7734375 C171.1743803 4.93849094 171.1743803 4.93849094 173.50195312 1.70507812 C177.09599613 -0.65237602 180.48854705 -0.45548115 184.625 0.3125 C187.65715675 2.51081364 188.44154398 3.76213194 189.625 7.3125 C189.70791953 9.3045303 189.73238177 11.29923713 189.72265625 13.29296875 C189.71943359 14.45634766 189.71621094 15.61972656 189.71289062 16.81835938 C189.70451172 18.03330078 189.69613281 19.24824219 189.6875 20.5 C189.68298828 21.72654297 189.67847656 22.95308594 189.67382812 24.21679688 C189.66203076 27.24871865 189.64409514 30.2806154 189.625 33.3125 C196.225 33.3125 202.825 33.3125 209.625 33.3125 C209.955 31.3325 210.285 29.3525 210.625 27.3125 C214.36570978 24.06354886 217.71041414 23.92758914 222.54296875 23.9140625 C223.20025467 23.91119232 223.85754059 23.90832214 224.53474426 23.90536499 C225.92234155 23.90333086 227.30996794 23.90881519 228.69750977 23.92138672 C230.7892519 23.93732288 232.87902396 23.92158552 234.97070312 23.90234375 C248.00131124 23.88070741 257.19936423 25.97632972 266.5703125 35.234375 C273.66580052 42.89393947 275.74495548 50.2480453 275.75922108 60.62809944 C275.76157331 61.35826216 275.76392554 62.08842488 275.76634905 62.84071374 C275.7730215 65.29455043 275.77258136 67.74833396 275.77217102 70.20217896 C275.77547073 71.97644439 275.77919652 73.75070907 275.7833125 75.5249728 C275.7933283 80.40651874 275.79704861 85.2880524 275.79970181 90.16960716 C275.80360606 95.4322245 275.81318426 100.69483211 275.82191467 105.95744324 C275.84167476 118.66890586 275.85174432 131.38036928 275.86064246 144.09184343 C275.86502575 150.07756528 275.87039242 156.06328626 275.87563133 162.04900742 C275.89264248 181.94583261 275.90713708 201.84265725 275.91438007 221.7394886 C275.91628997 226.90249762 275.9182103 232.06550663 275.92016602 237.22851562 C275.92064976 238.51175767 275.9211335 239.79499971 275.9216319 241.11712788 C275.92993381 261.90898867 275.95527399 282.70079196 275.98774669 303.49262764 C276.0208117 324.83764444 276.0388283 346.18263201 276.04202431 367.52767456 C276.04418983 379.51277029 276.05294472 391.49778215 276.07848549 403.48285294 C276.10018473 413.68884018 276.10824665 423.89472316 276.09851871 434.10073085 C276.09397192 439.30714493 276.09588249 444.51334386 276.11528015 449.71972847 C276.13289709 454.48938405 276.1319259 459.25866728 276.11638286 464.02832673 C276.11400459 465.7504388 276.11834173 467.47257655 276.13021151 469.19464935 C276.20733081 481.12566336 275.27128102 491.82685894 267.4609375 501.4609375 C261.7981136 507.17195565 255.018135 511.82039605 246.85229039 512.56549966 C245.41482618 512.56761294 245.41482618 512.56761294 243.9483223 512.56976891 C242.8348232 512.5762178 241.72132411 512.58266669 240.57408261 512.589311 C239.3610593 512.5862138 238.14803599 512.5831166 236.89825439 512.57992554 C235.60161385 512.58445665 234.30497331 512.58898776 232.96904063 512.59365618 C229.37617671 512.60587676 225.78340597 512.60562683 222.19052601 512.60326743 C218.3130888 512.60285902 214.43568136 512.61390075 210.55825806 512.62338257 C202.96369582 512.63998866 195.36916463 512.64549195 187.77458575 512.64660732 C181.60013388 512.64755804 175.42569223 512.65166951 169.25124359 512.65800858 C151.74000988 512.67562037 134.22880068 512.68484761 116.71755806 512.68334763 C115.77371312 512.68326772 114.82986818 512.6831878 113.85742188 512.68310547 C112.4399228 512.68298283 112.4399228 512.68298283 110.99378738 512.68285771 C95.68168102 512.68204495 80.36967306 512.70118006 65.05759516 512.7293822 C49.32983732 512.75812101 33.60212745 512.77192193 17.87434268 512.77019465 C9.04659034 512.76953106 0.21894114 512.77500948 -8.60878754 512.79655075 C-16.12559048 512.81477573 -23.64224353 512.81909914 -31.15905902 512.8055319 C-34.9922489 512.7990087 -38.82515134 512.79886132 -42.65831375 512.8162384 C-46.8191992 512.83490667 -50.97942117 512.82239775 -55.14031982 512.80697632 C-56.34442025 512.81726344 -57.54852067 512.82755057 -58.78910899 512.83814943 C-69.40746215 512.75125499 -77.5445497 510.07632901 -85.328125 502.734375 C-91.75624669 495.12858216 -94.49583403 486.87070598 -94.50922108 477.10433102 C-94.51157331 476.37363377 -94.51392554 475.64293652 -94.51634905 474.89009693 C-94.52303455 472.42842035 -94.52258096 469.9667966 -94.52217102 467.50511169 C-94.52546993 465.72758452 -94.52919555 463.95005809 -94.5333125 462.17253262 C-94.54333762 457.27732575 -94.54705012 452.38213115 -94.54970181 447.48691547 C-94.55360335 442.21132884 -94.56318181 436.93575194 -94.57191467 431.66017151 C-94.59168353 418.91417893 -94.60174592 406.16818554 -94.61064246 393.42218146 C-94.61502475 387.42101638 -94.62039173 381.41985219 -94.62563133 375.41868782 C-94.64264419 355.47129086 -94.65713853 335.52389446 -94.66438007 315.57649136 C-94.66628999 310.39922014 -94.66821032 305.22194893 -94.67016602 300.04467773 C-94.67064976 298.75787957 -94.6711335 297.47108141 -94.6716319 296.14528937 C-94.6799328 275.29839959 -94.70527051 254.45156719 -94.73774669 233.60470247 C-94.77081179 212.20547673 -94.78882835 190.80628015 -94.79202431 169.40702873 C-94.79418994 157.39061906 -94.80294631 145.37429304 -94.82848549 133.35790825 C-94.85018495 123.12444849 -94.85824659 112.89109271 -94.84851871 102.65761255 C-94.84397183 97.43702879 -94.84588294 92.21665958 -94.86528015 86.99610519 C-94.88289669 82.21345709 -94.88192622 77.43118031 -94.86638286 72.64852834 C-94.86400451 70.9216758 -94.86834212 69.19479764 -94.88021151 67.46798425 C-94.96845853 53.77738906 -93.48005258 43.56181826 -83.59765625 33.40625 C-74.42643221 24.76692472 -64.28684683 23.85934513 -52.1484375 24.01953125 C-50.91960846 24.02377609 -49.69077942 24.02802094 -48.42471313 24.03239441 C-44.5329111 24.0490721 -40.64164327 24.08670496 -36.75 24.125 C-34.09766377 24.14006089 -31.44531936 24.15374683 -28.79296875 24.16601562 C-22.32013287 24.1989399 -15.84760462 24.24902992 -9.375 24.3125 C-9.40980469 23.07113281 -9.44460937 21.82976563 -9.48046875 20.55078125 C-9.50861584 18.90886774 -9.53591501 17.26693954 -9.5625 15.625 C-9.58763672 14.80837891 -9.61277344 13.99175781 -9.63867188 13.15039062 C-9.69670486 8.37234178 -9.52403871 5.17826907 -6.375 1.3125 C-4.07513269 0.16256634 -2.56030912 0.0808071 0 0 Z " fill="#FEEAD1" transform="translate(165.375,-0.3125)"/>
<path d="M0 0 C1.15628906 -0.05607422 1.15628906 -0.05607422 2.3359375 -0.11328125 C5.56847845 0.48799343 6.59765753 1.75274139 8.625 4.3125 C9.10601807 7.2991333 9.10601807 7.2991333 9.07910156 10.82519531 C9.07968567 11.46951508 9.08026978 12.11383484 9.08087158 12.77767944 C9.07809334 14.89921677 9.04701774 17.01933436 9.015625 19.140625 C9.00816159 20.61463656 9.00246912 22.08865806 8.99847412 23.56268311 C8.9832254 27.43615267 8.94395107 31.30901916 8.8996582 35.18225098 C8.85868852 39.13704267 8.84045954 43.09193212 8.8203125 47.046875 C8.77745528 54.80235782 8.70921422 62.5573443 8.625 70.3125 C9.30554443 70.29074707 9.98608887 70.26899414 10.68725586 70.24658203 C12.03122437 70.22120361 12.03122437 70.22120361 13.40234375 70.1953125 C14.28913818 70.17355957 15.17593262 70.15180664 16.08959961 70.12939453 C19.97294999 70.40984834 21.72294894 71.78250677 24.625 74.3125 C26.06930855 77.20111709 26.00188506 79.10897701 25.625 82.3125 C23.61722118 85.08092055 22.00877312 86.9957955 18.57662964 87.78131104 C16.06803653 87.97468486 13.60576904 88.00548763 11.08984375 87.9765625 C10.1741713 87.98134613 9.25849884 87.98612976 8.31507874 87.99105835 C6.38443274 87.99445286 4.45372892 87.98528181 2.52319336 87.96435547 C-0.43180275 87.93755168 -3.38301133 87.96413316 -6.33789062 87.99609375 C-8.21615421 87.99279017 -10.09441544 87.98638502 -11.97265625 87.9765625 C-12.85502457 87.98668365 -13.73739288 87.99680481 -14.64649963 88.00723267 C-20.7405498 87.89073156 -20.7405498 87.89073156 -23.92358398 84.98974609 C-25.87176336 81.39618258 -26.09423239 79.34020138 -25.375 75.3125 C-23.0625 72.375 -23.0625 72.375 -19.375 70.3125 C-15.745 70.3125 -12.115 70.3125 -8.375 70.3125 C-8.375 61.0725 -8.375 51.8325 -8.375 42.3125 C-15.69735455 42.35916893 -23.01797852 42.40958865 -30.33969116 42.49629211 C-33.7495931 42.53559184 -37.15923564 42.56800916 -40.56933594 42.58349609 C-44.48666247 42.60160825 -48.40327759 42.65158218 -52.3203125 42.703125 C-53.53615021 42.70435364 -54.75198792 42.70558228 -56.00466919 42.70684814 C-64.4424977 42.80956151 -64.4424977 42.80956151 -71.375 47.3125 C-75.01388348 51.9135806 -75.87544965 54.91083475 -75.87836456 60.74670315 C-75.88417833 61.47752972 -75.88999209 62.2083563 -75.89598203 62.96132913 C-75.91058689 65.41168418 -75.89669517 67.86103827 -75.88293457 70.31138611 C-75.88754331 72.08524496 -75.89389605 73.85909999 -75.90184355 75.63294703 C-75.91856382 80.50865714 -75.9102782 85.38405465 -75.89789867 90.25976598 C-75.8888615 95.51753395 -75.90281134 100.77524754 -75.91381836 106.03300476 C-75.93162276 116.33373291 -75.92775492 126.63434461 -75.9161678 136.93507736 C-75.90714082 145.30588023 -75.90590629 153.67665041 -75.91026306 162.04745674 C-75.91087599 163.23802807 -75.91148893 164.42859941 -75.91212043 165.65524866 C-75.91339931 168.07374935 -75.91469616 170.49225003 -75.9160108 172.91075069 C-75.92742235 195.59967593 -75.91429411 218.28853657 -75.89280933 240.97745121 C-75.87494014 260.4510643 -75.87803989 279.924582 -75.89648438 299.39819336 C-75.91788487 322.00338883 -75.92632124 344.60852764 -75.91403532 367.21373183 C-75.9127611 369.62373037 -75.91150362 372.03372893 -75.91026306 374.44372749 C-75.90933741 376.22244625 -75.90933741 376.22244625 -75.90839306 378.03709872 C-75.90493753 386.39859108 -75.91077293 394.76004754 -75.92018127 403.12153435 C-75.9313936 413.31042863 -75.92837738 423.49919963 -75.9070583 433.68807977 C-75.89653728 438.88791689 -75.89244403 444.08754838 -75.90565491 449.28738403 C-75.91756285 454.04632599 -75.91104252 458.80487147 -75.8897447 463.56377739 C-75.88527184 465.28645283 -75.88756021 467.00916168 -75.89724785 468.73181569 C-75.90940263 471.07250603 -75.89694735 473.4118364 -75.87836456 475.75245571 C-75.87771515 477.05278317 -75.87706574 478.35311063 -75.87639666 479.69284195 C-75.09064976 485.36526726 -72.92182551 489.05773569 -68.40979671 492.71783352 C-63.19836521 495.3014975 -57.50452783 494.86686326 -51.81825256 494.8271637 C-50.55201488 494.83410922 -49.28577721 494.84105475 -47.98116869 494.84821075 C-44.47780582 494.86680984 -40.97486646 494.86054283 -37.47148621 494.85005772 C-33.68883419 494.84305784 -29.90626849 494.85906961 -26.12364197 494.87205505 C-18.71767732 494.89368724 -11.31186637 494.89357018 -3.90588052 494.88542951 C2.11411296 494.87912731 8.13406164 494.88026856 14.15405464 494.88670158 C15.4397103 494.88805407 15.4397103 494.88805407 16.7513388 494.88943387 C18.49259222 494.89128509 20.23384563 494.89314765 21.97509903 494.89502143 C38.30040423 494.91159722 54.62562298 494.90288263 70.95092297 494.88603585 C85.88282526 494.87133954 100.81452631 494.88596668 115.74640267 494.91480602 C131.08321318 494.94420656 146.41993083 494.95517035 161.75676829 494.94562382 C163.49188871 494.94460128 165.22700914 494.94360667 166.96212959 494.9426403 C167.81581316 494.94216391 168.66949674 494.94168752 169.54904951 494.9411967 C175.56019561 494.93903341 181.57125371 494.94883211 187.58238029 494.96341133 C194.91041461 494.98093679 202.2381924 494.98081438 209.56621664 494.95805968 C213.30403034 494.94691918 217.04139211 494.94375004 220.77918625 494.96236038 C224.83358551 494.9822871 228.88688438 494.96337676 232.94126892 494.94068909 C234.11938532 494.95252482 235.29750172 494.96436054 236.51131862 494.97655493 C242.57202945 494.90757751 246.91368385 494.32174966 252.02794367 490.97010273 C256.35364038 486.48041346 257.0005409 481.91163114 257.00531673 475.87550354 C257.01230661 474.77881428 257.01230661 474.77881428 257.0194377 473.65996969 C257.03139366 471.20875839 257.02199018 468.75810075 257.01268005 466.30688477 C257.0168527 464.532315 257.02232984 462.7577479 257.02899987 460.98318577 C257.04348205 456.10559576 257.0392011 451.22817432 257.03183305 446.35057497 C257.0271106 441.09078659 257.039603 435.83103516 257.04985046 430.57125854 C257.06706139 420.26687591 257.06787379 409.9625542 257.06263756 399.65816092 C257.05859922 391.28496923 257.06003542 382.91179557 257.06538582 374.53860474 C257.06613424 373.34774468 257.06688266 372.15688462 257.06765376 370.9299379 C257.06918521 368.51087149 257.07072355 366.09180508 257.07226873 363.67273867 C257.08600185 340.97908812 257.08055017 318.28547203 257.06908352 295.59182227 C257.05914829 274.81927335 257.07209541 254.04681347 257.09601771 233.27427828 C257.12038483 211.95523613 257.13002259 190.63623549 257.12336498 169.31717968 C257.11986771 157.34400531 257.12213842 145.37089946 257.13961601 133.3977356 C257.15430807 123.20625697 257.15501263 113.01489511 257.1375451 102.82341886 C257.12900838 97.62167623 257.12695063 92.42014245 257.14219666 87.21841049 C257.1559741 82.45891088 257.15137052 77.69980041 257.13195742 72.94032371 C257.12817571 71.21631735 257.13118142 69.49228034 257.14156907 67.76830113 C257.15466902 65.4282275 257.14321968 63.08951096 257.12557125 60.74949646 C257.12546391 59.44878928 257.12535658 58.1480821 257.12524599 56.80795956 C256.41950883 51.87663426 254.27083752 48.75884206 250.5625 45.5 C246.7012451 43.13342441 243.37482231 43.17773819 238.9453125 43.13671875 C237.61066132 43.11351993 236.27602585 43.08940256 234.94140625 43.06445312 C232.84575884 43.02937029 230.7506903 43.00000442 228.65478516 42.98657227 C226.62592215 42.97103916 224.5987303 42.93080661 222.5703125 42.88671875 C221.35875488 42.87213623 220.14719727 42.85755371 218.89892578 42.8425293 C215.04547134 42.21867772 213.38366345 41.02021772 210.625 38.3125 C209.09653339 35.25556678 209.39257555 32.68265453 209.625 29.3125 C211.38515131 26.1274643 212.12390916 25.47953028 215.625 24.3125 C219.92960325 24.0834025 224.23670039 24.08414007 228.54663086 24.07226562 C230.65585053 24.06264437 232.76405931 24.03165089 234.87304688 24 C246.58320549 23.90685938 255.81730829 25.19919062 264.625 33.3125 C271.53209407 40.13637607 275.37613725 46.79745641 275.75380117 56.68441975 C275.75558974 57.98583405 275.75737831 59.28724835 275.75922108 60.62809944 C275.76157331 61.35826216 275.76392554 62.08842488 275.76634905 62.84071374 C275.7730215 65.29455043 275.77258136 67.74833396 275.77217102 70.20217896 C275.77547073 71.97644439 275.77919652 73.75070907 275.7833125 75.5249728 C275.7933283 80.40651874 275.79704861 85.2880524 275.79970181 90.16960716 C275.80360606 95.4322245 275.81318426 100.69483211 275.82191467 105.95744324 C275.84167476 118.66890586 275.85174432 131.38036928 275.86064246 144.09184343 C275.86502575 150.07756528 275.87039242 156.06328626 275.87563133 162.04900742 C275.89264248 181.94583261 275.90713708 201.84265725 275.91438007 221.7394886 C275.91628997 226.90249762 275.9182103 232.06550663 275.92016602 237.22851562 C275.92064976 238.51175767 275.9211335 239.79499971 275.9216319 241.11712788 C275.92993381 261.90898867 275.95527399 282.70079196 275.98774669 303.49262764 C276.0208117 324.83764444 276.0388283 346.18263201 276.04202431 367.52767456 C276.04418983 379.51277029 276.05294472 391.49778215 276.07848549 403.48285294 C276.10018473 413.68884018 276.10824665 423.89472316 276.09851871 434.10073085 C276.09397192 439.30714493 276.09588249 444.51334386 276.11528015 449.71972847 C276.13289709 454.48938405 276.1319259 459.25866728 276.11638286 464.02832673 C276.11400459 465.7504388 276.11834173 467.47257655 276.13021151 469.19464935 C276.20733081 481.12566336 275.27128102 491.82685894 267.4609375 501.4609375 C261.7981136 507.17195565 255.018135 511.82039605 246.85229039 512.56549966 C245.41482618 512.56761294 245.41482618 512.56761294 243.9483223 512.56976891 C242.8348232 512.5762178 241.72132411 512.58266669 240.57408261 512.589311 C239.3610593 512.5862138 238.14803599 512.5831166 236.89825439 512.57992554 C235.60161385 512.58445665 234.30497331 512.58898776 232.96904063 512.59365618 C229.37617671 512.60587676 225.78340597 512.60562683 222.19052601 512.60326743 C218.3130888 512.60285902 214.43568136 512.61390075 210.55825806 512.62338257 C202.96369582 512.63998866 195.36916463 512.64549195 187.77458575 512.64660732 C181.60013388 512.64755804 175.42569223 512.65166951 169.25124359 512.65800858 C151.74000988 512.67562037 134.22880068 512.68484761 116.71755806 512.68334763 C115.77371312 512.68326772 114.82986818 512.6831878 113.85742188 512.68310547 C112.4399228 512.68298283 112.4399228 512.68298283 110.99378738 512.68285771 C95.68168102 512.68204495 80.36967306 512.70118006 65.05759516 512.7293822 C49.32983732 512.75812101 33.60212745 512.77192193 17.87434268 512.77019465 C9.04659034 512.76953106 0.21894114 512.77500948 -8.60878754 512.79655075 C-16.12559048 512.81477573 -23.64224353 512.81909914 -31.15905902 512.8055319 C-34.9922489 512.7990087 -38.82515134 512.79886132 -42.65831375 512.8162384 C-46.8191992 512.83490667 -50.97942117 512.82239775 -55.14031982 512.80697632 C-56.34442025 512.81726344 -57.54852067 512.82755057 -58.78910899 512.83814943 C-69.40746215 512.75125499 -77.5445497 510.07632901 -85.328125 502.734375 C-91.75624669 495.12858216 -94.49583403 486.87070598 -94.50922108 477.10433102 C-94.51157331 476.37363377 -94.51392554 475.64293652 -94.51634905 474.89009693 C-94.52303455 472.42842035 -94.52258096 469.9667966 -94.52217102 467.50511169 C-94.52546993 465.72758452 -94.52919555 463.95005809 -94.5333125 462.17253262 C-94.54333762 457.27732575 -94.54705012 452.38213115 -94.54970181 447.48691547 C-94.55360335 442.21132884 -94.56318181 436.93575194 -94.57191467 431.66017151 C-94.59168353 418.91417893 -94.60174592 406.16818554 -94.61064246 393.42218146 C-94.61502475 387.42101638 -94.62039173 381.41985219 -94.62563133 375.41868782 C-94.64264419 355.47129086 -94.65713853 335.52389446 -94.66438007 315.57649136 C-94.66628999 310.39922014 -94.66821032 305.22194893 -94.67016602 300.04467773 C-94.67064976 298.75787957 -94.6711335 297.47108141 -94.6716319 296.14528937 C-94.6799328 275.29839959 -94.70527051 254.45156719 -94.73774669 233.60470247 C-94.77081179 212.20547673 -94.78882835 190.80628015 -94.79202431 169.40702873 C-94.79418994 157.39061906 -94.80294631 145.37429304 -94.82848549 133.35790825 C-94.85018495 123.12444849 -94.85824659 112.89109271 -94.84851871 102.65761255 C-94.84397183 97.43702879 -94.84588294 92.21665958 -94.86528015 86.99610519 C-94.88289669 82.21345709 -94.88192622 77.43118031 -94.86638286 72.64852834 C-94.86400451 70.9216758 -94.86834212 69.19479764 -94.88021151 67.46798425 C-94.96845853 53.77738906 -93.48005258 43.56181826 -83.59765625 33.40625 C-74.42643221 24.76692472 -64.28684683 23.85934513 -52.1484375 24.01953125 C-50.91960846 24.02377609 -49.69077942 24.02802094 -48.42471313 24.03239441 C-44.5329111 24.0490721 -40.64164327 24.08670496 -36.75 24.125 C-34.09766377 24.14006089 -31.44531936 24.15374683 -28.79296875 24.16601562 C-22.32013287 24.1989399 -15.84760462 24.24902992 -9.375 24.3125 C-9.40980469 23.07113281 -9.44460937 21.82976563 -9.48046875 20.55078125 C-9.50861584 18.90886774 -9.53591501 17.26693954 -9.5625 15.625 C-9.58763672 14.80837891 -9.61277344 13.99175781 -9.63867188 13.15039062 C-9.69670486 8.37234178 -9.52403871 5.17826907 -6.375 1.3125 C-4.07513269 0.16256634 -2.56030912 0.0808071 0 0 Z " fill="#040403" transform="translate(165.375,-0.3125)"/>
<path d="M0 0 C1.12101105 0.00007553 2.24202209 0.00015106 3.39700317 0.00022888 C4.61161224 0.00539017 5.82622131 0.01055145 7.07763672 0.01586914 C8.31778534 0.01728409 9.55793396 0.01869904 10.83566284 0.02015686 C14.13350555 0.02481443 17.43129968 0.033801 20.72912598 0.04486084 C24.09398808 0.05508808 27.4588573 0.0596573 30.82373047 0.06469727 C37.42661661 0.07574271 44.02946097 0.09301568 50.63232422 0.11352539 C50.63232422 7.70352539 50.63232422 15.29352539 50.63232422 23.11352539 C48.73482422 23.15477539 46.83732422 23.19602539 44.88232422 23.23852539 C36.72194214 23.89705132 29.43175283 26.18130122 23.62060547 32.19555664 C17.40570439 40.7880712 17.34028367 50.37403127 17.39854431 60.64071655 C17.39754103 61.87952249 17.39653774 63.11832843 17.39550406 64.39467394 C17.39471936 67.81191397 17.40286635 71.22891708 17.41485202 74.64612174 C17.42558687 78.33930281 17.42465307 82.03248342 17.42512512 85.72567749 C17.42748247 92.1179946 17.4370388 98.51026794 17.45142937 104.90256882 C17.47214443 114.14792412 17.48079721 123.39326077 17.48635072 132.63863619 C17.49559727 147.6444386 17.51304387 162.65021912 17.53637695 177.65600586 C17.53846692 179.00193968 17.53846692 179.00193968 17.54059912 180.37506409 C17.54199465 181.27350585 17.54339018 182.17194761 17.544828 183.09761488 C17.56461636 195.84949817 17.58243938 208.60138219 17.59790039 221.35327148 C17.59899124 222.25128343 17.60008209 223.14929537 17.601206 224.0745198 C17.61921149 239.03279061 17.63317877 253.99106362 17.64507204 268.94934046 C17.65267026 278.17583193 17.66442807 287.40230171 17.6815337 296.62878056 C17.69307886 302.94315724 17.70127146 309.25753217 17.7067992 315.57191698 C17.71013867 319.21784162 17.71519153 322.8637444 17.72461319 326.50965881 C17.73479301 330.45585236 17.7373336 334.40202931 17.73912048 338.34823608 C17.7455361 340.08851926 17.7455361 340.08851926 17.75208133 341.86395967 C17.75132368 342.91636799 17.75056603 343.96877631 17.74978542 345.05307579 C17.75124929 345.96446229 17.75271315 346.8758488 17.75422138 347.81485307 C17.63232422 350.11352539 17.63232422 350.11352539 16.63232422 353.11352539 C16.5359696 355.60457563 16.49299962 358.06093242 16.50732422 360.55102539 C16.50474609 361.86973633 16.50216797 363.18844727 16.49951172 364.54711914 C16.48157994 367.84631493 16.48157994 367.84631493 17.13154602 369.87597656 C17.84565106 373.06670032 17.77972423 376.22807181 17.77758789 379.48071289 C17.7809465 380.21614319 17.78430511 380.95157349 17.7877655 381.70928955 C17.79724992 384.13571876 17.79921717 386.56207881 17.80029297 388.98852539 C17.80350664 390.677165 17.80687079 392.36580433 17.81037903 394.05444336 C17.81636354 397.59172206 17.81821956 401.12897636 17.81762695 404.66625977 C17.81752522 409.19915094 17.8311921 413.73188588 17.84839916 418.26473999 C17.8595144 421.75114665 17.86154633 425.23751542 17.86101723 428.72393799 C17.8621975 430.39528951 17.8666219 432.066642 17.87434959 433.73797607 C17.88414252 436.07420843 17.88127461 438.4101001 17.87524414 440.74633789 C17.88086365 441.43632874 17.88648315 442.12631958 17.89227295 442.83721924 C17.86866272 446.4351569 17.59165735 449.0505286 15.63232422 452.11352539 C12.09093804 452.23034351 8.55005181 452.30098039 5.00732422 452.36352539 C4.00830078 452.39704102 3.00927734 452.43055664 1.97998047 452.46508789 C-3.95630299 452.54371416 -7.86344248 452.409871 -12.36767578 448.11352539 C-15.77090125 443.02785687 -16.86792057 439.80027205 -16.87104034 433.5534811 C-16.87685411 432.82120109 -16.88266787 432.08892107 -16.88865781 431.33445075 C-16.90323448 428.88518123 -16.88938419 426.43691754 -16.87561035 423.98765564 C-16.88022019 422.21222105 -16.88657367 420.43679027 -16.89451933 418.66136748 C-16.91122415 413.78598594 -16.90296101 408.91091743 -16.89057446 404.03553474 C-16.88153111 398.77644021 -16.8954901 393.51739984 -16.90649414 388.25831604 C-16.92429119 377.95739208 -16.92043418 367.65658463 -16.90884358 357.35565608 C-16.8998147 348.98534528 -16.89858289 340.61506716 -16.90293884 332.24475288 C-16.90355177 331.05402832 -16.90416471 329.86330375 -16.90479621 328.63649662 C-16.9060751 326.21767174 -16.90737195 323.79884686 -16.90868658 321.380022 C-16.92009573 298.6930302 -16.90697314 276.00610304 -16.88548511 253.31912185 C-16.86761154 233.84520252 -16.87071975 214.37137855 -16.88916016 194.89746094 C-16.91055697 172.29080289 -16.91899948 149.68420149 -16.9067111 127.07753474 C-16.90543688 124.66785054 -16.9041794 122.25816634 -16.90293884 119.84848213 C-16.90232174 118.6628239 -16.90170464 117.47716568 -16.90106884 116.25557841 C-16.89761254 107.8931037 -16.90345025 99.53066488 -16.91285706 91.16819572 C-16.92406509 80.98039501 -16.92106203 70.7927176 -16.89973408 60.60493105 C-16.88920797 55.40521085 -16.8851285 50.20569639 -16.89833069 45.00597763 C-16.91022787 40.24836134 -16.90373622 35.49114198 -16.88242048 30.73356182 C-16.8779431 29.01026113 -16.88024609 27.28692708 -16.88992363 25.56364774 C-16.9020545 23.22452849 -16.88964759 20.886776 -16.87104034 18.54772854 C-16.87039093 17.24756343 -16.86974153 15.94739833 -16.86907244 14.60783428 C-16.11047551 9.32105795 -13.68424393 6.27335923 -9.74267578 2.80102539 C-6.17442001 0.26568576 -4.34636658 -0.00974522 0 0 Z " fill="#FEF5EA" transform="translate(105.36767578125,41.886474609375)"/>
<path d="M0 0 C2.9375 2.3125 2.9375 2.3125 3.9375 4.3125 C4.34570726 7.98636532 4.18591035 9.86536137 2.375 13.125 C-0.00587735 15.2616848 -1.58328574 16.31430746 -4.796875 16.59375 C-9.13487702 16.0552394 -13.07050239 14.22335211 -17.07421875 12.5390625 C-27.35274986 8.32016215 -39.66153941 9.34384316 -49.96875 12.9921875 C-65.32452156 19.54553445 -75.66507966 29.46241385 -82.16015625 44.92578125 C-85.57650797 55.39729652 -85.56439263 68.88686537 -82.0625 79.3125 C-81.80597656 80.11816406 -81.54945313 80.92382812 -81.28515625 81.75390625 C-78.97353445 88.25224221 -75.57446525 93.14213639 -71.0625 98.3125 C-70.58554688 98.91835937 -70.10859375 99.52421875 -69.6171875 100.1484375 C-62.73564007 108.11085626 -49.55406687 114.51795793 -39.0625 115.3125 C-22.74563831 116.21330541 -8.38798273 112.29604274 4.1015625 101.4296875 C13.47312307 92.47932066 19.63270181 80.963091 20.17578125 67.87109375 C20.38871427 57.81810401 19.74990584 49.73676724 15.9375 40.3125 C15.10976305 37.69295599 14.8802203 36.11920511 14.9375 33.3125 C17.09182339 30.634152 18.86258839 28.84995581 21.9375 27.3125 C24.21302651 27.19464563 26.49204741 27.14262347 28.77050781 27.11962891 C29.82450523 27.10736267 29.82450523 27.10736267 30.89979553 27.09484863 C33.23006335 27.0699949 35.56027017 27.05347724 37.890625 27.0390625 C39.084706 27.03107698 39.084706 27.03107698 40.30290985 27.02293015 C44.51784808 26.99619641 48.73275668 26.97682379 52.94775391 26.96240234 C57.29694552 26.94576947 61.64537714 26.90100466 65.99428177 26.8500309 C69.34180549 26.81633501 72.6891495 26.80482233 76.03682709 26.79917526 C77.63959296 26.79246732 79.24234719 26.77725693 80.84494781 26.75328445 C83.0928946 26.72158199 85.33880145 26.72160255 87.58691406 26.72900391 C88.86439514 26.72091705 90.14187622 26.7128302 91.45806885 26.70449829 C96.1702304 27.5279094 97.72054897 28.77487844 100.9375 32.3125 C101.6859436 35.20265198 101.6859436 35.20265198 101.68212891 38.41625977 C101.69458649 39.62423721 101.70704407 40.83221466 101.71987915 42.07679749 C101.69224991 44.02071632 101.69224991 44.02071632 101.6640625 46.00390625 C101.66302432 47.3548126 101.66406351 48.70572199 101.66708374 50.05662537 C101.66690469 52.88220572 101.64613121 55.70664001 101.60986328 58.53198242 C101.56444177 62.14940857 101.56341097 65.76516519 101.57689857 69.38279819 C101.58358814 72.17020959 101.57030091 74.95724181 101.55064011 77.74458122 C101.53922672 79.72540531 101.54180435 81.70629403 101.54458618 83.68714905 C101.52552216 84.89197433 101.50645813 86.09679962 101.48681641 87.33813477 C101.47760162 88.39782974 101.46838684 89.45752472 101.45889282 90.54933167 C100.81111509 93.98228822 99.61860148 95.14637179 96.9375 97.3125 C93.81257581 98.87496209 90.47554567 98.51748127 87.04296875 98.55078125 C86.2585994 98.558853 85.47423004 98.56692474 84.66609192 98.57524109 C83.00422373 98.58908062 81.34232713 98.59980337 79.68041992 98.60766602 C77.14511865 98.62486353 74.61112686 98.66874655 72.07617188 98.71289062 C70.46094708 98.72301915 68.84571121 98.73153476 67.23046875 98.73828125 C66.47509323 98.75578934 65.71971771 98.77329742 64.94145203 98.79133606 C61.28148176 98.77633777 59.13205676 98.43232763 55.98950195 96.49682617 C53.9375 94.3125 53.9375 94.3125 52.8125 90.9375 C52.94140291 87.19931548 53.51213525 85.35497827 55.99414062 82.54736328 C60.40932189 79.7418373 66.22286457 80.72817753 71.25 80.9375 C77.5303125 81.123125 77.5303125 81.123125 83.9375 81.3125 C83.9375 69.1025 83.9375 56.8925 83.9375 44.3125 C68.0975 44.3125 52.2575 44.3125 35.9375 44.3125 C36.9275 47.2825 36.9275 47.2825 37.9375 50.3125 C40.35819671 71.59632322 35.63100237 91.65711577 22.25 108.625 C10.08655908 122.44458265 -6.69574212 131.77715686 -25.14453125 133.5078125 C-44.29778742 134.58991737 -60.62577336 129.73613375 -76.0625 118.3125 C-76.71863281 117.84199219 -77.37476563 117.37148437 -78.05078125 116.88671875 C-83.76197102 112.43592948 -88.09910019 106.31601717 -92.0625 100.3125 C-92.0625 99.6525 -92.0625 98.9925 -92.0625 98.3125 C-92.90330612 98.32360306 -93.74411224 98.33470612 -94.61039734 98.34614563 C-102.54075194 98.44640105 -110.47089321 98.52249184 -118.40173626 98.57156086 C-122.47895567 98.59763629 -126.55565073 98.63299537 -130.63256836 98.68969727 C-134.56834363 98.74409253 -138.50361512 98.773936 -142.43973732 98.78688622 C-143.9400812 98.79611281 -145.44039802 98.8141309 -146.94052696 98.84115028 C-149.04518196 98.87754452 -151.14776565 98.88244161 -153.25268555 98.88012695 C-154.44959518 98.89123001 -155.64650482 98.90233307 -156.87968445 98.91377258 C-161.08193316 98.11991667 -162.53066931 96.71691047 -165.0625 93.3125 C-165.70414734 90.42907715 -165.70414734 90.42907715 -165.7253418 87.22460938 C-165.75382454 85.41748474 -165.75382454 85.41748474 -165.78288269 83.57385254 C-165.77589859 82.2810437 -165.76891449 80.98823486 -165.76171875 79.65625 C-165.76763193 78.30773285 -165.77488044 76.95922096 -165.78340149 75.61071777 C-165.79526225 72.78951591 -165.78860774 69.96910396 -165.76928711 67.14794922 C-165.74639228 63.5392154 -165.77319001 59.93283495 -165.81434917 56.32433319 C-165.83997039 53.54115919 -165.83733635 50.75854529 -165.82645607 47.97529602 C-165.82425418 46.00052641 -165.84718682 44.02578033 -165.87052917 42.05114746 C-165.74079816 32.08680578 -165.74079816 32.08680578 -162.65576172 28.99829102 C-157.88604744 26.76056326 -154.0190816 26.60991969 -148.80859375 26.68359375 C-147.83011978 26.68118179 -146.85164581 26.67876984 -145.84352112 26.67628479 C-143.78178847 26.67726137 -141.72002898 26.69060976 -139.65844727 26.71557617 C-136.5064174 26.74993006 -133.35718583 26.73621337 -130.20507812 26.71679688 C-128.19790476 26.72369452 -126.19073861 26.73336615 -124.18359375 26.74609375 C-122.77405678 26.73865395 -122.77405678 26.73865395 -121.33604431 26.73106384 C-117.0628034 26.80786053 -114.68840239 26.92302197 -110.99243164 29.22290039 C-108.69436853 31.71108789 -108.13564977 32.76387673 -107.6875 36.125 C-108.18488755 40.35279414 -109.85631077 41.64067564 -113.0625 44.3125 C-116.07475494 45.81862747 -119.17506063 45.43420642 -122.4765625 45.41015625 C-123.12326904 45.40914917 -123.76997559 45.40814209 -124.4362793 45.40710449 C-126.85337089 45.40187024 -129.27043721 45.38790898 -131.6875 45.375 C-137.09125 45.354375 -142.495 45.33375 -148.0625 45.3125 C-148.0625 57.1925 -148.0625 69.0725 -148.0625 81.3125 C-132.2225 81.3125 -116.3825 81.3125 -100.0625 81.3125 C-100.7225 78.6725 -101.3825 76.0325 -102.0625 73.3125 C-104.21162127 53.41597137 -100.25504274 35.34232858 -87.859375 19.49609375 C-85.67846754 16.99872594 -83.41874174 14.64428248 -81.0625 12.3125 C-80.39992188 11.61640625 -79.73734375 10.9203125 -79.0546875 10.203125 C-59.34488035 -9.13197098 -23.88915414 -14.38486701 0 0 Z " fill="#040303" transform="translate(288.0625,122.6875)"/>
<path d="M0 0 C3.51962529 1.23247499 6.68588594 1.91006268 10.40234375 2.19140625 C11.74509544 1.20408883 13.07966648 0.20545882 14.40234375 -0.80859375 C18.83187053 0.36658682 21.36639445 2.78012462 24.52734375 6.00390625 C25.79964844 7.28201172 25.79964844 7.28201172 27.09765625 8.5859375 C29.24235356 11.01053599 30.84797692 13.36205226 32.40234375 16.19140625 C31.72171875 16.70703125 31.04109375 17.22265625 30.33984375 17.75390625 C28.09122169 20.06386293 28.09122169 20.06386293 28.40234375 23.19140625 C28.85449043 25.46165853 29.50953355 27.45787407 30.375 29.609375 C34.79561181 40.84311613 35.73590693 55.56753062 31.3671875 67.04296875 C31.04878906 67.75195312 30.73039062 68.4609375 30.40234375 69.19140625 C30.07363281 70.00351563 29.74492187 70.815625 29.40625 71.65234375 C22.97512642 86.11680854 10.61407792 95.79464775 -3.78515625 101.44140625 C-19.37405798 105.59844671 -34.51510747 103.2542338 -48.41796875 95.3359375 C-59.69907061 87.72743023 -67.56926187 77.12467242 -71.59765625 64.19140625 C-74.40264344 47.85531888 -73.15636501 32.70119072 -63.55859375 18.75 C-47.9853385 -1.56968564 -23.86997776 -9.25785878 0 0 Z " fill="#FC6C79" transform="translate(275.59765625,135.80859375)"/>
<path d="M0 0 C0.639375 -0.01289063 1.27875 -0.02578125 1.9375 -0.0390625 C5.23335406 1.02210263 6.79995376 3.00413042 9 5.625 C9.60127258 8.69392395 9.60127258 8.69392395 9.56762695 12.15942383 C9.5672493 13.46039505 9.56687164 14.76136627 9.56648254 16.10176086 C9.54095295 17.51186083 9.51487303 18.92195092 9.48828125 20.33203125 C9.47894903 21.78218871 9.47183485 23.232362 9.46684265 24.68254089 C9.44780435 28.488759 9.39873306 32.29401432 9.34332275 36.09985352 C9.29206055 39.98766049 9.26931387 43.87562393 9.24414062 47.76367188 C9.19060936 55.38455224 9.10533738 63.00464092 9 70.625 C9.68634521 70.60904785 10.37269043 70.5930957 11.07983398 70.57666016 C11.98032471 70.56425293 12.88081543 70.5518457 13.80859375 70.5390625 C14.70118896 70.52311035 15.59378418 70.5071582 16.51342773 70.49072266 C19.70647006 70.66315008 21.56232611 71.58049932 24 73.625 C25.56471233 76.75442465 25.69701958 80.23582223 25 83.625 C23.33301092 86.05707617 21.99683886 87.43318165 19.04121399 88.00192261 C16.54012448 88.1557244 14.06827487 88.17916242 11.5625 88.15625 C10.6454126 88.1600769 9.7283252 88.16390381 8.78344727 88.16784668 C6.84683127 88.17056549 4.91017853 88.16320646 2.97363281 88.14648438 C0.01023447 88.12507394 -2.95073951 88.14628669 -5.9140625 88.171875 C-7.79688035 88.16923172 -9.67969669 88.16410673 -11.5625 88.15625 C-12.44800537 88.16434692 -13.33351074 88.17244385 -14.24584961 88.18078613 C-20.38056402 88.08732923 -20.38056402 88.08732923 -23.55664062 85.71679688 C-25.56293352 82.80916535 -25.56475617 80.96246393 -25.3984375 77.52734375 C-24.79104423 74.62733861 -23.33500208 73.34191329 -21 71.625 C-19 70.625 -19 70.625 -9 70.625 C-9 61.385 -9 52.145 -9 42.625 C-14.43533203 42.69460937 -14.43533203 42.69460937 -19.98046875 42.765625 C-23.49192911 42.79682453 -27.003374 42.82111019 -30.51489258 42.84472656 C-32.95441607 42.86483564 -35.3938914 42.89212683 -37.83325195 42.92675781 C-41.34077848 42.97530489 -44.84766743 42.99797632 -48.35546875 43.015625 C-49.44522507 43.03627014 -50.53498138 43.05691528 -51.65776062 43.07818604 C-59.24104639 43.08043071 -59.24104639 43.08043071 -63.1652832 40.72558594 C-65.60209002 37.93566101 -65.97082528 37.01885874 -66.25 33.25 C-65.99015512 29.48224926 -65.67186361 28.1979057 -63 25.625 C-60.02118573 24.63206191 -58.08512761 24.50380215 -54.9777832 24.51147461 C-53.95695145 24.51155014 -52.93611969 24.51162567 -51.88435364 24.51170349 C-50.78427475 24.51686478 -49.68419586 24.52202606 -48.55078125 24.52734375 C-47.4230278 24.5287587 -46.29527435 24.53017365 -45.13334656 24.53163147 C-41.52637088 24.5372353 -37.91945696 24.54978847 -34.3125 24.5625 C-31.86914152 24.56751451 -29.42578207 24.5720775 -26.98242188 24.57617188 C-20.98826013 24.58720597 -14.99413448 24.60394785 -9 24.625 C-9.05800781 23.31144531 -9.11601562 21.99789063 -9.17578125 20.64453125 C-9.22269048 18.90888977 -9.26818939 17.17320977 -9.3125 15.4375 C-9.35439453 14.57318359 -9.39628906 13.70886719 -9.43945312 12.81835938 C-9.52733596 8.23087516 -9.51515373 6.28693466 -6.609375 2.55322266 C-4.09830546 0.69764376 -3.05693826 -0.06163182 0 0 Z " fill="#050504" transform="translate(256,-0.625)"/>
<path d="M0 0 C3.03215675 2.19831364 3.81654398 3.44963194 5 7 C5.09417866 8.55767946 5.1307122 10.11916499 5.1328125 11.6796875 C5.13474609 12.65437988 5.13667969 13.62907227 5.13867188 14.63330078 C5.13416016 15.70306152 5.12964844 16.77282227 5.125 17.875 C5.12306641 18.9872998 5.12113281 20.09959961 5.11914062 21.24560547 C5.04006779 37.50166348 4.49984166 53.75248726 4 70 C4.75128174 69.97607178 5.50256348 69.95214355 6.27661133 69.92749023 C7.75810669 69.89957397 7.75810669 69.89957397 9.26953125 69.87109375 C10.73676636 69.83520142 10.73676636 69.83520142 12.23364258 69.79858398 C15.08836815 70.00643401 16.41316393 70.37880325 18.6875 72.0625 C21 75 21 75 21.6875 78.5 C20.80602013 82.98753389 19.62036739 84.23117561 16 87 C12.90197248 87.72377375 9.88948641 87.70158181 6.71875 87.6640625 C5.82764526 87.66884613 4.93654053 87.67362976 4.01843262 87.67855835 C2.13906076 87.68195272 0.2596295 87.67278262 -1.61962891 87.65185547 C-4.49125198 87.62508156 -7.35896679 87.65161711 -10.23046875 87.68359375 C-12.05990443 87.68028957 -13.88933769 87.67388316 -15.71875 87.6640625 C-16.57408325 87.67418365 -17.4294165 87.68430481 -18.31066895 87.69473267 C-22.68349203 87.60904793 -24.47751404 87.40392958 -28.04492188 84.64599609 C-30 82 -30 82 -30.5625 79 C-29.87642343 75.34092496 -28.57265686 73.64832324 -26 71 C-24 70 -24 70 -13 70 C-13 60.76 -13 51.52 -13 42 C-15.82949219 42.04640625 -18.65898437 42.0928125 -21.57421875 42.140625 C-24.32118944 42.17183925 -27.06814022 42.19611637 -29.81518555 42.21972656 C-31.7212003 42.23981546 -33.62715362 42.26709194 -35.53295898 42.30175781 C-38.27603326 42.35039642 -41.01829125 42.37299579 -43.76171875 42.390625 C-44.61086349 42.41127014 -45.46000824 42.43191528 -46.33488464 42.45318604 C-50.37996733 42.45471282 -52.468501 42.32861521 -55.98364258 40.15527344 C-58.50541811 37.45976134 -59.41554688 35.65283198 -60 32 C-58.53502838 27.99060398 -57.57596197 26.38397465 -54 24 C-52.0827179 23.75949097 -52.0827179 23.75949097 -49.89575195 23.77294922 C-49.07512772 23.77310028 -48.25450348 23.77325134 -47.40901184 23.77340698 C-46.0870002 23.78889084 -46.0870002 23.78889084 -44.73828125 23.8046875 C-43.37959175 23.80893234 -43.37959175 23.80893234 -41.99345398 23.81326294 C-39.09966842 23.82446036 -36.20619206 23.84956411 -33.3125 23.875 C-31.35091593 23.88503037 -29.389327 23.89415612 -27.42773438 23.90234375 C-22.6183704 23.92439827 -17.80923763 23.95892511 -13 24 C-13.02094727 23.41508789 -13.04189453 22.83017578 -13.06347656 22.22753906 C-13.14680115 19.56853535 -13.19870897 16.90980645 -13.25 14.25 C-13.28351563 13.32960938 -13.31703125 12.40921875 -13.3515625 11.4609375 C-13.4506197 4.62599094 -13.4506197 4.62599094 -11.12304688 1.39257812 C-7.52900387 -0.96487602 -4.13645295 -0.76798115 0 0 Z " fill="#030202" transform="translate(350,0)"/>
<path d="M0 0 C6.97965043 6.64943041 10.85605774 13.81660004 11.25390625 23.48046875 C11.13747573 26.83832482 10.97164708 28.45232893 9.31640625 31.41796875 C5.87513168 33.2246379 2.61054734 33.73828748 -1.18359375 32.73046875 C-4.73566898 29.94918742 -5.74473198 27.65060211 -6.62109375 23.29296875 C-8.03548377 17.52779206 -10.19622882 14.8216242 -15.05859375 11.41796875 C-18.840443 10.19442929 -22.32584125 10.02475168 -26.0859375 11.453125 C-30.08981085 13.54394258 -32.61670383 15.49064897 -34.18359375 19.73046875 C-34.85994468 24.77773757 -34.7598223 28.55666986 -32.49609375 33.16796875 C-28.86095242 37.19609833 -25.87051149 38.66111322 -20.62109375 39.66796875 C-17.7879752 40.26391689 -16.08407615 40.78970542 -13.55859375 42.29296875 C-11.70274266 45.58288659 -12.03627591 47.92797688 -12.43359375 51.609375 C-13.43511245 54.44179507 -14.57920946 55.27454559 -17.18359375 56.73046875 C-25.83885516 58.56686467 -33.01048206 55.37249674 -40.18359375 50.73046875 C-46.43154914 45.90965425 -50.67324717 39.5316167 -52.18359375 31.73046875 C-53.15864318 21.46159373 -52.29443506 13.36365733 -46.18359375 4.73046875 C-34.1368518 -8.9522505 -14.46148107 -11.83212088 0 0 Z " fill="#030202" transform="translate(173.18359375,378.26953125)"/>
<path d="M0 0 C1.075345 -0.0071553 2.15069 -0.01431061 3.25862122 -0.02168274 C6.81151877 -0.03858479 10.36315729 -0.01915677 13.91601562 0.00219727 C16.3855398 0.00136872 18.85506392 -0.00109014 21.32458496 -0.00511169 C26.49959925 -0.00797075 31.67418099 0.00674296 36.84912109 0.03417969 C43.48394659 0.06826182 50.11799851 0.06224482 56.75286102 0.04351711 C61.85209606 0.03295075 66.95115097 0.04188181 72.05036926 0.05690193 C74.49680547 0.06208682 76.94326047 0.06159825 79.38969421 0.05535698 C82.808385 0.04990947 86.22596679 0.07026701 89.64453125 0.09765625 C91.16268181 0.08786743 91.16268181 0.08786743 92.71150208 0.07788086 C97.04358555 0.13692361 99.63249625 0.22710978 103.42712402 2.44960022 C106.07288692 5.49514598 106.32226562 7.63451188 106.32226562 11.63110352 C104.97664163 14.57866083 104.23672018 16.17387624 101.32226562 17.63110352 C99.82366641 17.73169114 98.32070721 17.77050635 96.8187561 17.77827454 C95.87098801 17.78542984 94.92321991 17.79258514 93.94673157 17.79995728 C92.90357285 17.80264618 91.86041412 17.80533508 90.78564453 17.80810547 C89.141614 17.81796227 89.141614 17.81796227 87.46437073 17.82801819 C83.8258559 17.84778107 80.18738236 17.8594193 76.54882812 17.86938477 C75.30897533 17.87346029 74.06912254 17.87753582 72.79169846 17.88173485 C66.90879359 17.90045275 61.02590192 17.91501705 55.1429745 17.92334682 C48.35048682 17.93312315 41.55832469 17.95945323 34.76595175 17.99984771 C28.88412916 18.03362783 23.00238653 18.04549021 17.12046432 18.04955101 C14.61735194 18.05443437 12.11424346 18.06609765 9.61119461 18.084589 C6.11308839 18.1088288 2.61583954 18.10804302 -0.88232422 18.10107422 C-1.92143448 18.11388428 -2.96054474 18.12669434 -4.03114319 18.13989258 C-10.9997639 18.08913903 -10.9997639 18.08913903 -14.31729126 15.8478241 C-15.95360826 13.18159165 -16.20174538 10.83242504 -16.30664062 7.72875977 C-13.86555384 -0.41325019 -7.06912864 -0.08166548 0 0 Z " fill="#050404" transform="translate(278.677734375,308.368896484375)"/>
<path d="M0 0 C5.26241307 1.15951474 7.97274297 4.05271561 11.6875 7.8125 C12.29464844 8.40675781 12.90179688 9.00101563 13.52734375 9.61328125 C14.93045725 10.99658609 16.31156102 12.40216255 17.6875 13.8125 C21.56071093 12.23619323 23.93485163 9.73502331 26.8125 6.75 C32.41763038 0.95359662 32.41763038 0.95359662 36.5 0.5 C40.53961856 0.89604104 41.98479155 1.80091058 44.6875 4.8125 C45.9375 8.0625 45.9375 8.0625 45.6875 11.8125 C43.73635758 14.87169862 41.28153306 17.2923009 38.6875 19.8125 C37.68396484 20.8334375 37.68396484 20.8334375 36.66015625 21.875 C35.01943113 23.53921198 33.3627046 25.18312166 31.6875 26.8125 C34.81553199 30.55087969 37.8970719 34.02966676 41.5 37.3125 C43.98861941 39.79003425 44.72757663 40.92671841 45.9375 44.375 C45.6875 47.8125 45.6875 47.8125 43.75 51.25 C40.52351694 53.94971032 38.95708317 54.44543638 34.80249023 54.30883789 C30.7348469 53.35425877 28.38322122 50.3349753 25.6875 47.3125 C25.10355469 46.69246094 24.51960938 46.07242188 23.91796875 45.43359375 C22.48887168 43.9107854 21.08548344 42.36392064 19.6875 40.8125 C15.81428907 42.38880677 13.44014837 44.88997669 10.5625 47.875 C4.98688243 53.64088345 4.98688243 53.64088345 0.375 54.25 C-3.3125 53.8125 -3.3125 53.8125 -6.3125 51.25 C-8.3125 47.8125 -8.3125 47.8125 -8.34765625 44.53125 C-6.97084241 39.58511124 -4.45822831 37.27844242 -0.75 33.875 C-0.13447266 33.28654297 0.48105469 32.69808594 1.11523438 32.09179688 C2.62601894 30.65128136 4.15500555 29.22989751 5.6875 27.8125 C2.55946801 24.07412031 -0.5220719 20.59533324 -4.125 17.3125 C-6.61361941 14.83496575 -7.35257663 13.69828159 -8.5625 10.25 C-8.3125 6.8125 -8.3125 6.8125 -6.3125 3.375 C-3.3125 0.8125 -3.3125 0.8125 0 0 Z " fill="#030101" transform="translate(237.3125,158.1875)"/>
<path d="M0 0 C8.58 0 17.16 0 26 0 C26.99 1.98 27.98 3.96 29 6 C32.01000852 8.00667234 32.63492456 8.25491971 36.01245117 8.31884766 C36.81305466 8.33871735 37.61365814 8.35858704 38.43852234 8.37905884 C39.29798965 8.39061005 40.15745697 8.40216125 41.04296875 8.4140625 C41.9265657 8.43342865 42.81016266 8.4527948 43.72053528 8.4727478 C46.54275866 8.53252805 49.36502286 8.57892266 52.1875 8.625 C54.10092925 8.66318122 56.01434133 8.70223304 57.92773438 8.7421875 C62.6184003 8.83986731 67.3088834 8.91944761 72 9 C72 16.59 72 24.18 72 32 C48.24 32 24.48 32 0 32 C0 21.44 0 10.88 0 0 Z " fill="#FEF5EA" transform="translate(265,33)"/>
<path d="M0 0 C15.84 0 31.68 0 48 0 C48 12.21 48 24.42 48 37 C35.25 37.1875 35.25 37.1875 31.24707031 37.20776367 C30.20131836 37.23588135 29.15556641 37.26399902 28.078125 37.29296875 C27.00981445 37.3086792 25.94150391 37.32438965 24.84082031 37.34057617 C21.07923364 38.21373238 20.06844553 39.82740311 18 43 C17.67 43.66 17.34 44.32 17 45 C10.4 45.33 3.8 45.66 -3 46 C-2.01 42.5040625 -2.01 42.5040625 -1 38.9375 C2.21571032 26.34484404 2.12827194 12.76963166 0 0 Z " fill="#C9E0F7" transform="translate(324,167)"/>
<path d="M0 0 C5.28 0 10.56 0 16 0 C16.99 1.98 17.98 3.96 19 6 C22.25634479 8.17089653 23.24643282 8.26291012 27.0222168 8.31884766 C28.04304855 8.33871735 29.06388031 8.35858704 30.11564636 8.37905884 C31.21572525 8.39061005 32.31580414 8.40216125 33.44921875 8.4140625 C35.14084892 8.44311172 35.14084892 8.44311172 36.86665344 8.4727478 C40.47352503 8.53259307 44.08042844 8.57894922 47.6875 8.625 C50.1308734 8.66317518 52.57423328 8.70222664 55.01757812 8.7421875 C61.01164894 8.83995012 67.00557329 8.91948101 73 9 C73 16.59 73 24.18 73 32 C48.91 32 24.82 32 0 32 C0 21.44 0 10.88 0 0 Z " fill="#FEF5EA" transform="translate(174,33)"/>
<path d="M0 0 C6.6 0 13.2 0 20 0 C20.99 1.98 21.98 3.96 23 6 C26.61078243 8.40718829 28.34898166 8.26457667 32.64453125 8.30859375 C33.96130859 8.33373047 35.27808594 8.35886719 36.63476562 8.38476562 C38.72142321 8.41343052 40.80800578 8.43745943 42.89477539 8.45629883 C44.91592751 8.47809345 46.93619131 8.5175482 48.95703125 8.55859375 C50.16335205 8.57204834 51.36967285 8.58550293 52.61254883 8.59936523 C57.5190605 9.1796597 61.67758193 11.03182825 64.9375 14.8125 C67 18 67 18 67.125 21 C65.51074373 25.30468338 63.10468444 28.6557362 59.18743896 31.15768433 C56.44540233 32.21355856 54.25160457 32.24005135 51.31347656 32.22705078 C50.17259583 32.22689972 49.03171509 32.22674866 47.85626221 32.22659302 C46.63010193 32.21627045 45.40394165 32.20594788 44.140625 32.1953125 C42.88111023 32.1924826 41.62159546 32.18965271 40.32391357 32.18673706 C36.98326098 32.17744121 33.64288331 32.15948583 30.30230713 32.1373291 C26.89036472 32.11683208 23.47839301 32.10761738 20.06640625 32.09765625 C13.37744964 32.07730033 6.68897361 32.03815004 0 32 C0 21.44 0 10.88 0 0 Z " fill="#FEF5EA" transform="translate(355,33)"/>
<path d="M0 0 C3.27155869 2.36665948 4.70646942 3.89926032 5.75 7.8125 C4.94835433 11.21949411 4.17873057 12.20980712 1.890625 14.74243164 C0.93784668 15.79915573 0.93784668 15.79915573 -0.03417969 16.87722778 C-4.90831945 22.14052087 -9.91895877 27.26376172 -14.9609375 32.3659668 C-16.32659192 33.75336835 -17.68593666 35.14700751 -19.0390625 36.54663086 C-21.01167589 38.58612461 -23.0032606 40.60524808 -25 42.62109375 C-25.8971875 43.56002724 -25.8971875 43.56002724 -26.8125 44.51792908 C-30.67308158 48.35996312 -33.31377316 49.93999394 -39 50 C-41.08203125 48.91796875 -41.08203125 48.91796875 -42.8125 47.1875 C-43.79669922 46.21683594 -43.79669922 46.21683594 -44.80078125 45.2265625 C-45.88939453 44.12441406 -45.88939453 44.12441406 -47 43 C-47.90105469 42.20335937 -48.80210937 41.40671875 -49.73046875 40.5859375 C-57.64634355 33.3734479 -57.64634355 33.3734479 -58 28.6875 C-56.65018722 23.71006536 -55.45697004 22.55863095 -51 20 C-47.40442957 19.6873417 -45.68877162 20.47468686 -42.84375 22.64453125 C-40.83836984 24.3780553 -38.90045567 26.15260274 -37 28 C-30.6633784 22.78521459 -24.944184 17.02719884 -19.1875 11.1875 C-17.30885256 9.28226344 -15.42694031 7.38046275 -13.54296875 5.48046875 C-12.71821045 4.64410889 -11.89345215 3.80774902 -11.04370117 2.94604492 C-7.48433815 -0.44323744 -4.86088596 -0.49432739 0 0 Z " fill="#030302" transform="translate(179,289)"/>
<path d="M0 0 C1.95739357 -0.0237545 1.95739357 -0.0237545 3.95433044 -0.04798889 C5.37588865 -0.04414718 6.79744405 -0.039108 8.21899414 -0.03295898 C9.68103939 -0.03819547 11.14308125 -0.04447204 12.6051178 -0.05174255 C15.66757109 -0.0621451 18.72955971 -0.05758852 21.79199219 -0.04296875 C25.71095443 -0.02578879 29.62844941 -0.04926465 33.54724789 -0.08445835 C36.56626548 -0.1064521 39.5849331 -0.10498619 42.60400581 -0.09669304 C44.04846365 -0.09587442 45.49294742 -0.10272094 46.93733025 -0.11746407 C48.95945752 -0.13493913 50.98179628 -0.11703068 53.00390625 -0.09765625 C54.15322128 -0.09669449 55.30253632 -0.09573273 56.48667908 -0.09474182 C60.51918029 0.72772469 62.02433421 2.36533243 64.56665039 5.53344727 C65.31128279 9.50482007 64.93931917 10.9744441 62.69165039 14.34594727 C60.23610779 16.8737117 59.42534349 17.48332383 55.93009949 17.68734741 C54.25395317 17.70663803 54.25395317 17.70663803 52.54394531 17.72631836 C50.64638741 17.75041275 50.64638741 17.75041275 48.710495 17.7749939 C47.32270987 17.78648083 45.93491724 17.79708946 44.54711914 17.80688477 C43.84911005 17.81220844 43.15110096 17.81753212 42.43194008 17.82301712 C38.73686445 17.84974291 35.04182254 17.86911895 31.34667969 17.88354492 C28.29006006 17.89688302 25.23410824 17.92473194 22.17773438 17.96557617 C18.48599557 18.01491111 14.79486238 18.03966673 11.102808 18.046772 C9.69737451 18.05348189 8.29195439 18.06869757 6.88670921 18.09266281 C4.91722381 18.12433236 2.94727415 18.1213481 0.97753906 18.11694336 C-0.70218742 18.12907364 -0.70218742 18.12907364 -2.41584778 18.14144897 C-6.37135017 17.3444479 -7.85383223 15.54754825 -10.43334961 12.53344727 C-10.76334961 12.20344727 -11.09334961 11.87344727 -11.43334961 11.53344727 C-11.22517043 7.85561509 -11.02580643 5.32298211 -8.78465271 2.33631897 C-5.70392855 -0.02583945 -3.86013007 0.02083318 0 0 Z " fill="#050404" transform="translate(224.433349609375,394.466552734375)"/>
<path d="M0 0 C0.66022156 0.00565979 1.32044312 0.01131958 2.00067139 0.01715088 C4.10015763 0.0394627 6.1979087 0.08964186 8.296875 0.140625 C9.7239336 0.16069706 11.15101908 0.17894661 12.578125 0.1953125 C16.06826793 0.23930807 19.55740199 0.30829624 23.046875 0.390625 C23.04163818 1.13634766 23.03640137 1.88207031 23.03100586 2.65039062 C23.01008261 6.06379334 22.99716627 9.47718251 22.984375 12.890625 C22.97180664 14.65019531 22.97180664 14.65019531 22.95898438 16.4453125 C22.95576172 17.59257812 22.95253906 18.73984375 22.94921875 19.921875 C22.94398193 20.96923828 22.93874512 22.01660156 22.93334961 23.09570312 C23.06362205 26.87668567 23.57762355 30.63661342 24.046875 34.390625 C8.206875 34.390625 -7.633125 34.390625 -23.953125 34.390625 C-23.953125 34.060625 -23.953125 33.730625 -23.953125 33.390625 C-19.663125 33.390625 -15.373125 33.390625 -10.953125 33.390625 C-10.99953125 31.34359375 -11.0459375 29.2965625 -11.09375 27.1875 C-11.12156923 25.19842473 -11.14924452 23.20934457 -11.17285156 21.22021484 C-11.19293142 19.8408582 -11.22020166 18.46158631 -11.25488281 17.08251953 C-11.30355317 15.09705521 -11.32398918 13.11096246 -11.34375 11.125 C-11.36469727 9.93100586 -11.38564453 8.73701172 -11.40722656 7.50683594 C-10.953125 4.390625 -10.953125 4.390625 -9.36328125 1.99414062 C-6.09873839 -0.17781212 -3.90242251 -0.06614275 0 0 Z " fill="#FABA79" transform="translate(163.953125,169.609375)"/>
<path d="M0 0 C4.11968973 2.37993045 7.04216503 4.53796591 8.88671875 9.046875 C9.41468979 11.34557969 9.88038954 13.63324047 10.26171875 15.9609375 C11.00618496 18.44559349 11.84813569 19.46563515 13.88671875 21.046875 C16.99510896 21.7737976 16.99510896 21.7737976 19.88671875 22.046875 C19.26796875 22.10875 18.64921875 22.170625 18.01171875 22.234375 C17.31046875 22.5025 16.60921875 22.770625 15.88671875 23.046875 C15.63921875 23.748125 15.39171875 24.449375 15.13671875 25.171875 C13.22877787 29.56013902 9.69722268 32.23992953 5.88671875 35.046875 C4.40171875 35.541875 4.40171875 35.541875 2.88671875 36.046875 C2.23703125 34.9021875 2.23703125 34.9021875 1.57421875 33.734375 C-1.35326575 30.8068905 -2.57923398 30.46696368 -6.48828125 29.546875 C-11.70322114 28.31450603 -14.42296652 26.92643664 -18.11328125 23.046875 C-20.83684042 18.57043692 -20.75033041 14.14326824 -20.11328125 9.046875 C-16.52874103 1.30426813 -8.42680396 -3.80062877 0 0 Z " fill="#FA6B78" transform="translate(158.11328125,388.953125)"/>
<path d="M0 0 C-2.27566194 1.14057273 -4.55528489 2.2681211 -6.84765625 3.375 C-24.63857662 12.36773739 -34.367227 25.51240402 -40.75 44.1953125 C-44.53810666 58.03242431 -41.52004084 70.87818447 -37 84 C-36 87 -36 87 -35 90 C-43.54874332 83.89375477 -48.78684468 74.06534824 -50.5546875 63.76953125 C-52.52998304 47.04882776 -50.49990924 32.70008078 -40 19 C-29.88083517 6.6030152 -16.04600898 -0.66858371 0 0 Z " fill="#FA8891" transform="translate(254,133)"/>
<path d="M0 0 C3.3 0 6.6 0 10 0 C9.34 3.63 8.68 7.26 8 11 C6.61494263 11.02187378 6.61494263 11.02187378 5.2019043 11.04418945 C1.77422796 11.10526308 -1.65264662 11.1794161 -5.07983398 11.26245117 C-6.56279854 11.29569423 -8.04588944 11.32372823 -9.52905273 11.34643555 C-11.66184293 11.37999468 -13.79347612 11.43230638 -15.92578125 11.48828125 C-17.85031128 11.52755737 -17.85031128 11.52755737 -19.8137207 11.56762695 C-22.90286085 11.77903216 -22.90286085 11.77903216 -24.91015625 13.1171875 C-26.54792465 15.94659385 -26.44074029 18.38590509 -26.51171875 21.63671875 C-26.54716797 22.93544922 -26.58261719 24.23417969 -26.61914062 25.57226562 C-26.6422405 26.94400517 -26.6650229 28.3157501 -26.6875 29.6875 C-26.72067542 31.07099607 -26.75516531 32.45446129 -26.79101562 33.83789062 C-26.8736273 37.22496933 -26.93848572 40.61247246 -27 44 C-31.29 44 -35.58 44 -40 44 C-40 32.45 -40 20.9 -40 9 C-23.8125 8.6875 -23.8125 8.6875 -18.72973633 8.61206055 C-17.38880672 8.57975185 -16.04790223 8.54637547 -14.70703125 8.51171875 C-14.02008179 8.50547485 -13.33313232 8.49923096 -12.62536621 8.49279785 C-8.27963788 8.36334395 -5.44914664 7.68658976 -2 5 C-0.65310085 2.42900598 -0.65310085 2.42900598 0 0 Z " fill="#FED1A3" transform="translate(180,159)"/>
<path d="M0 0 C2.08406636 0.0138565 4.16362805 -0.02019587 6.24731445 -0.05834961 C7.56666992 -0.05641602 8.88602539 -0.05448242 10.24536133 -0.05249023 C12.05315063 -0.05357788 12.05315063 -0.05357788 13.89746094 -0.0546875 C18.06153595 0.75191677 19.55030579 2.29623816 22.15551758 5.57641602 C22.89358799 9.51279152 22.51688466 11.015674 20.34301758 14.38891602 C15.51219947 19.21973412 8.18535162 17.87817987 1.78051758 17.95141602 C0.54817383 17.98879883 -0.68416992 18.02618164 -1.95385742 18.06469727 C-10.83934839 18.15143199 -10.83934839 18.15143199 -13.77514648 16.47192383 C-15.13354492 15.11547852 -15.13354492 15.11547852 -16.84448242 12.57641602 C-17.17448242 12.24641602 -17.50448242 11.91641602 -17.84448242 11.57641602 C-17.63706956 7.91212203 -17.43223703 5.36928949 -15.21728516 2.38134766 C-10.80902203 -0.97190775 -5.34200302 -0.04970183 0 0 Z " fill="#060605" transform="translate(326.844482421875,394.423583984375)"/>
<path d="M0 0 C1.04671875 -0.02578125 2.0934375 -0.0515625 3.171875 -0.078125 C6.6623604 0.2939572 8.45635717 1.15965187 11.25 3.25 C13.25 6.25 13.25 6.25 13.125 9.6875 C12.14169381 13.69096094 11.49609512 14.8035912 8.25 17.25 C2.92367914 18.16648426 -3.96866993 18.81190364 -8.84375 16.07421875 C-10.82139063 13.84937304 -11.67699278 11.54932962 -12.375 8.6875 C-11.47663851 5.1838902 -9.41984417 3.59425342 -6.75 1.25 C-4.96430839 -0.53569161 -2.41346262 0.03531897 0 0 Z " fill="#080707" transform="translate(224.75,308.75)"/>
<path d="M0 0 C15.84 0 31.68 0 48 0 C48 0.99 48 1.98 48 3 C32.16 3 16.32 3 0 3 C0 2.01 0 1.02 0 0 Z " fill="#C3CCD5" transform="translate(324,167)"/>
</svg>
