<?xml version="1.0" encoding="UTF-8"?>
<svg version="1.1" xmlns="http://www.w3.org/2000/svg" width="512" height="512">
<path d="M0 0 C1.54132394 0.17455499 1.54132394 0.17455499 3.11378574 0.35263634 C4.24264163 0.48774431 5.37149752 0.62285229 6.53456116 0.76205444 C8.32591822 0.9692105 8.32591822 0.9692105 10.15346432 1.18055153 C14.1124176 1.64202446 18.06984069 2.11504077 22.0269928 2.59164429 C23.37141026 2.7528772 24.71582783 2.91410919 26.06024551 3.07534027 C44.71791537 5.31819134 63.36320632 7.66361311 82.0079813 10.01085472 C91.57512056 11.21499027 101.14362575 12.40687303 110.7141977 13.58342111 C117.51052922 14.41998843 124.30500956 15.27065056 131.09829658 16.13158667 C135.13137691 16.64230748 139.16499526 17.14688542 143.2007618 17.63596725 C146.98133277 18.0943765 150.75929717 18.57030408 154.53602219 19.0593586 C155.9130019 19.23463148 157.29078542 19.40372936 158.66937447 19.56585884 C168.6482777 20.74462931 177.97340576 22.38683584 184.5269928 30.59164429 C192.71711407 42.40065635 188.90057226 58.95140726 187.1309967 72.41171265 C186.92650177 74.02495808 186.72287941 75.63831433 186.52005005 77.25177002 C185.97324499 81.58100023 185.41412568 85.90855444 184.85234499 90.23586345 C184.26328055 94.78845379 183.68508798 99.34242624 183.10545349 103.89622498 C182.13197585 111.53166305 181.15089968 119.16609299 180.16468811 126.79989624 C179.02695048 135.60695984 177.89912077 144.41524615 176.77703345 153.22431654 C175.5774421 162.64146686 174.37143663 172.05778702 173.16313124 181.47382283 C172.81713779 184.17304309 172.47224542 186.87240219 172.12756729 189.5717907 C171.58494481 193.81842889 171.03794788 198.06448239 170.48763847 202.31013107 C170.28708715 203.86229742 170.08792114 205.41464353 169.8902874 206.96718407 C166.58266495 232.9253044 166.58266495 232.9253044 158.0269928 240.46664429 C152.83472006 244.14450414 148.60778494 244.92424799 142.31973267 244.84088135 C141.57377101 244.83498548 140.82780934 244.82908962 140.05924278 244.82301509 C131.74598633 244.68111956 123.57732467 243.68527204 115.34315491 242.60385132 C113.64932896 242.38945364 111.95538573 242.17598084 110.26133728 241.96334839 C105.71729003 241.39025608 101.17502168 240.80408873 96.63301539 240.21506739 C91.85579157 239.59760469 87.07711014 238.99162086 82.2986145 238.38409424 C74.288272 237.36398283 66.27900556 236.33575596 58.270401 235.30209351 C49.02657084 234.10905764 39.78140719 232.92685381 30.53539652 231.75084412 C20.65467196 230.49402623 10.77490077 229.22983988 0.89542699 227.96323156 C-1.93888645 227.60032452 -4.77336512 227.23873253 -7.60788155 226.8774147 C-12.06308193 226.30910043 -16.51761393 225.73579918 -20.9716835 225.15869141 C-22.60164491 224.94824095 -24.23181475 224.73939727 -25.86220741 224.5323143 C-28.09461465 224.24846683 -30.32617094 223.9586511 -32.55761719 223.6673584 C-34.42707803 223.42677043 -34.42707803 223.42677043 -36.33430576 223.1813221 C-46.9557415 221.46004183 -46.9557415 221.46004183 -50.5355072 218.40414429 C-52.489289 214.58152772 -52.21169939 212.67204208 -50.9730072 208.59164429 C-49.36132142 206.87175345 -47.68459794 205.21214196 -45.9730072 203.59164429 C-45.02793912 202.64215004 -44.08657124 201.68895964 -43.14878845 200.73226929 C-42.19437384 199.76871527 -41.23994669 198.80517367 -40.2855072 197.84164429 C-39.55750916 197.10107788 -39.55750916 197.10107788 -38.81480408 196.34555054 C-35.19866622 192.70447379 -35.19866622 192.70447379 -32.9730072 191.59164429 C-33.5945626 186.93587428 -35.52978483 183.10885944 -37.64878845 178.98226929 C-38.01521957 178.25602356 -38.3816507 177.52977783 -38.75918579 176.78152466 C-39.92895646 174.46530884 -41.1067707 172.15330835 -42.2855072 169.84164429 C-54.9513104 144.8934522 -54.9513104 144.8934522 -55.0355072 139.84164429 C-52.86001425 133.18719526 -46.10089892 129.21380812 -40.7230072 125.09164429 C-39.94393005 124.4901355 -39.16485291 123.88862671 -38.36216736 123.26889038 C-35.90247205 121.3720612 -33.43841114 119.48104636 -30.9730072 117.59164429 C-30.14832947 116.95903687 -29.32365173 116.32642944 -28.47398376 115.6746521 C-23.64604769 111.97278759 -18.81198201 108.27906559 -13.9730072 104.59164429 C-15.28835934 101.09955897 -16.82470051 97.95378465 -18.7308197 94.74789429 C-19.27069519 93.83733276 -19.81057068 92.92677124 -20.36680603 91.98861694 C-20.93810242 91.03261597 -21.5093988 90.07661499 -22.0980072 89.09164429 C-22.67897156 88.108573 -23.25993591 87.12550171 -23.85850525 86.11264038 C-26.3726635 81.87294257 -28.89615172 77.65256212 -31.60972595 73.53695679 C-32.32773376 72.44125366 -33.04574158 71.34555054 -33.7855072 70.21664429 C-34.41070251 69.30140991 -35.03589783 68.38617554 -35.68003845 67.44320679 C-37.63933604 63.12209731 -37.74470708 58.94911222 -36.2784729 54.46990967 C-35.28155739 52.19211162 -34.19712224 49.98392617 -33.06285095 47.77133179 C-32.65772781 46.95020905 -32.25260468 46.1290863 -31.83520508 45.28308105 C-30.54166756 42.6699844 -29.22662673 40.06842768 -27.9105072 37.46664429 C-27.05293985 35.74340557 -26.19680725 34.01945207 -25.34214783 32.29476929 C-23.67925547 28.94499767 -22.00504754 25.6013105 -20.32017517 22.26254272 C-18.82431928 19.29640504 -17.34770809 16.32248937 -15.89537048 13.33480835 C-15.42098289 12.36488449 -15.42098289 12.36488449 -14.93701172 11.37536621 C-14.10350159 9.66821844 -13.27545188 7.95840758 -12.44786072 6.24838257 C-9.32786754 0.62815979 -6.3658954 -0.73902292 0 0 Z " fill="#000100" transform="translate(298.97300720214844,243.40835571289063)"/>
<path d="M0 0 C1.24561649 -0.00679667 1.24561649 -0.00679667 2.51639694 -0.01373065 C5.29695294 -0.02638382 8.07731331 -0.02475371 10.8578949 -0.02310181 C12.85211947 -0.02908631 14.84634172 -0.03589168 16.84056091 -0.04345703 C22.25566235 -0.061128 27.67070059 -0.06581276 33.08582807 -0.0670886 C37.60403549 -0.06898731 42.12222817 -0.07634418 46.64042991 -0.08343279 C57.29609641 -0.09971706 67.95172911 -0.10460155 78.60740662 -0.10317993 C89.6086902 -0.10197716 100.60977802 -0.12310594 111.61101204 -0.15466726 C121.05144634 -0.18078817 130.4918165 -0.19154905 139.93228668 -0.19026911 C145.57296534 -0.18975842 151.21346989 -0.19550103 156.85411263 -0.21662521 C162.15569234 -0.23593817 167.45693053 -0.23617978 172.75852203 -0.22159195 C174.70643294 -0.21949439 176.65436485 -0.22426075 178.60223961 -0.23631287 C181.25687943 -0.25167718 183.91032848 -0.24251638 186.56494141 -0.22705078 C187.33974195 -0.23733791 188.11454249 -0.24762503 188.91282183 -0.25822389 C192.36919379 -0.21357522 194.36440078 0.0110449 197.19955349 2.06102562 C199.47429223 5.36423708 199.35454613 8.45223425 198.71897888 12.26742554 C197.68925506 14.90774304 196.67168793 17.08772137 195.28147888 19.51742554 C194.70877258 20.55927002 194.70877258 20.55927002 194.12449646 21.62216187 C186.21869934 35.76929892 177.77150515 49.82465595 168.71897888 63.26742554 C170.3970335 67.12976353 172.92262023 70.25393703 175.53147888 73.51742554 C176.00706238 74.11861206 176.48264587 74.71979858 176.97264099 75.33920288 C179.70770527 78.78486274 182.47672263 82.20135289 185.26585388 85.60336304 C185.85132996 86.31847046 186.43680603 87.03357788 187.0400238 87.77035522 C188.18220164 89.1621693 189.3280791 90.55095728 190.47801208 91.93637085 C191.00225769 92.57413452 191.5265033 93.21189819 192.06663513 93.86898804 C192.76284973 94.70937622 192.76284973 94.70937622 193.47312927 95.56674194 C195.78409541 98.72139413 196.69225072 100.48016503 196.82859802 104.4961853 C195.23329906 109.91809578 191.97956276 112.75626699 187.96507263 116.60726929 C187.18962601 117.37422623 186.41417938 118.14118317 185.61523438 118.93138123 C183.14273956 121.37037252 180.65018198 123.78764121 178.15647888 126.20492554 C176.47347058 127.85783098 174.7918132 129.51211315 173.11155701 131.16781616 C168.99622193 135.21710697 164.86422761 139.24877485 160.71897888 143.26742554 C162.39311777 148.44626753 165.51681133 152.55609192 168.60179138 156.97055054 C169.78114745 158.68993723 170.9595021 160.41001118 172.13694763 162.13070679 C173.98842473 164.82764757 175.84561321 167.51976242 177.72044373 170.20053101 C179.5335396 172.79864917 181.31936027 175.41383368 183.10179138 178.03305054 C183.94545761 179.21946136 183.94545761 179.21946136 184.8061676 180.42984009 C187.97258061 185.1355118 189.3337633 188.57141175 189.14190674 194.27618408 C188.33940495 198.05454676 185.91481452 200.44980725 183.28147888 203.14242554 C182.17869384 204.34312676 181.07714475 205.54496423 179.97679138 206.74789429 C179.42668396 207.33619019 178.87657654 207.92448608 178.30979919 208.53060913 C175.97239959 211.08252146 173.8227134 213.756069 171.65647888 216.45492554 C170.35667339 218.0693953 169.04615413 219.6753788 167.71897888 221.26742554 C167.32782237 221.79994966 166.93666586 222.33247377 166.53365612 222.88113499 C163.73753822 225.01717975 161.32308316 224.64841064 157.84429932 224.65510559 C156.78923936 224.6631839 156.78923936 224.6631839 155.71286505 224.6714254 C153.34989886 224.68576203 150.9874884 224.67858737 148.62449646 224.67147827 C146.93261767 224.6771791 145.24074274 224.68414223 143.5488739 224.692276 C138.94736629 224.71026016 134.34604885 224.7090285 129.74451661 224.70333362 C125.90278866 224.70024753 122.06109755 224.70632815 118.21937484 224.71237236 C109.15239869 224.72643493 100.0855167 224.72484358 91.01853943 224.71347046 C81.67033887 224.70200351 72.32242567 224.71603698 62.97426301 224.74286693 C54.94694716 224.76504189 46.91972138 224.77165679 38.89237708 224.76579052 C34.09885421 224.7624221 29.30551528 224.76482767 24.5120182 224.78204155 C20.00000187 224.79753584 15.48840964 224.79352764 10.97640991 224.7747364 C9.32367215 224.77105654 7.67090282 224.7741414 6.0181942 224.78462219 C-11.01241144 224.88434308 -11.01241144 224.88434308 -18.52320862 218.30258179 C-19.33145081 217.32611694 -19.33145081 217.32611694 -20.15602112 216.32992554 C-20.71031799 215.6815271 -21.26461487 215.03312866 -21.83570862 214.36508179 C-24.88438353 209.94038334 -25.53269864 206.13313451 -25.54844666 200.80867004 C-25.55697662 199.50338348 -25.56550659 198.19809692 -25.57429504 196.85325623 C-25.57359609 195.4137572 -25.57267306 193.97425827 -25.57154846 192.53475952 C-25.57753503 191.01343456 -25.58434087 189.49211262 -25.59190369 187.97079468 C-25.60955288 183.84490442 -25.61425847 179.71909715 -25.61553526 175.59317279 C-25.61695745 173.01563388 -25.62122822 170.43811603 -25.62652969 167.86058235 C-25.64502282 158.86931138 -25.65320076 149.87809967 -25.65162659 140.8868103 C-25.65042374 132.50301677 -25.67155587 124.11948007 -25.70311391 115.73575157 C-25.72924567 108.53733401 -25.73999527 101.33900054 -25.73871577 94.14053589 C-25.73820544 89.84122784 -25.7439284 85.54214833 -25.76507187 81.2428875 C-25.78440348 77.20198526 -25.78461396 73.16153092 -25.7700386 69.1206131 C-25.76794341 67.63711711 -25.77269364 66.15359344 -25.78475952 64.67014503 C-25.80015413 62.64655202 -25.78853118 60.62280698 -25.77549744 58.59919739 C-25.77658697 57.46635535 -25.77767651 56.33351332 -25.77879906 55.16634274 C-25.16449226 51.58879458 -24.20105707 50.37842521 -21.28102112 48.26742554 C-19.96102112 48.26742554 -18.64102112 48.26742554 -17.28102112 48.26742554 C-17.28102112 42.98742554 -17.28102112 37.70742554 -17.28102112 32.26742554 C-19.26102112 31.93742554 -21.24102112 31.60742554 -23.28102112 31.26742554 C-26.28120501 26.7671497 -25.84530082 22.54127042 -25.28102112 17.26742554 C-23.46357578 10.6302992 -18.84261657 6.0994373 -13.28102112 2.26742554 C-8.91125311 0.04770791 -4.79880401 -0.01923823 0 0 Z " fill="#000000" transform="translate(49.28102111816406,239.73257446289063)"/>
<path d="M0 0 C11.81311013 0.48347017 23.40803613 1.70987002 35.11297607 3.3538208 C40.04329168 4.04536689 44.97671575 4.71398133 49.91015625 5.3828125 C50.91703491 5.51960419 51.92391357 5.65639587 52.96130371 5.79733276 C63.25269896 7.18619018 73.56075833 8.41955846 83.875 9.625 C87.34772812 10.03194154 90.82038958 10.43944563 94.29296875 10.84765625 C95.53797653 10.99399757 95.53797653 10.99399757 96.80813599 11.14329529 C105.84187728 12.20989757 114.86481854 13.35517743 123.88208008 14.5534668 C129.71762229 15.32834452 135.55231674 16.07406578 141.40354919 16.7191925 C144.26789042 17.036478 147.13035848 17.36915419 149.99282837 17.70285034 C152.00359444 17.93082156 154.01681939 18.13676818 156.0300293 18.34204102 C157.24859619 18.48569092 158.46716309 18.62934082 159.72265625 18.77734375 C160.79265869 18.89327881 161.86266113 19.00921387 162.96508789 19.12866211 C167.05355017 20.30247933 169.15937969 21.83560321 172 25 C172.36629016 27.93530615 172.38218739 29.86857475 172.01953125 32.72265625 C171.94950394 33.46781998 171.87947662 34.2129837 171.80732727 34.98072815 C171.57496143 37.326229 171.29388699 39.66147384 171 42 C170.91506287 42.71919617 170.83012573 43.43839233 170.74261475 44.17938232 C170.22701392 48.51189778 169.63876372 52.83145396 169.01657104 57.14984131 C168.43801033 61.17191944 167.88345122 65.19731477 167.328125 69.22265625 C167.21488388 70.04113037 167.10164276 70.85960449 166.98497009 71.70288086 C165.85767351 79.91426305 164.88341068 88.14106141 163.9375 96.375 C162.29380694 110.61261722 160.52075832 124.82911231 158.65087891 139.0390625 C158.00355111 143.96361989 157.36425409 148.88921127 156.72462463 153.81477356 C156.10100289 158.61107167 155.47411037 163.40693908 154.84658813 168.20272827 C154.53460672 170.59079024 154.22369696 172.97899247 153.91390991 175.36734009 C153.47452115 178.75184033 153.03071718 182.13573579 152.5859375 185.51953125 C152.45583786 186.5288269 152.32573822 187.53812256 152.19169617 188.57800293 C149.90655569 205.84620185 149.90655569 205.84620185 146.9375 209.625 C141.32230275 212.2533902 135.8832901 211.20923231 129.9375 210.125 C121.92942776 208.76070248 113.8725221 207.86969781 105.80493164 206.94113159 C92.5164849 205.40931663 79.24353077 203.82229055 66 201.9375 C55.68163137 200.46984851 45.353129 199.1899465 35 198 C20.63719507 196.34869457 6.32405419 194.44944906 -7.99121094 192.42285156 C-12.09579143 191.8459988 -16.20336031 191.29329878 -20.3125 190.75 C-21.44300781 190.60046875 -22.57351563 190.4509375 -23.73828125 190.296875 C-24.85783203 190.14992188 -24.85783203 190.14992188 -26 190 C-25.0919838 188.86800647 -24.17316174 187.74467637 -23.25 186.625 C-22.73953125 185.99851562 -22.2290625 185.37203125 -21.703125 184.7265625 C-20 183 -20 183 -17.921875 182.1484375 C-15.06327736 180.4402511 -14.92805267 178.08853044 -14 175 C-8.60338315 175.57620731 -3.20763988 176.16012243 2.1875 176.75 C3.3989267 176.88239075 3.3989267 176.88239075 4.63482666 177.01745605 C17.11895536 178.38901201 29.55896377 179.95504966 41.98510742 181.78027344 C43.09088135 181.94043945 44.19665527 182.10060547 45.3359375 182.265625 C46.29032715 182.40774414 47.2447168 182.54986328 48.22802734 182.69628906 C53.9218857 183.33901551 53.9218857 183.33901551 59.375 182 C61.56599072 179.30339603 61.44001222 177.32644965 61.43359375 173.9375 C60.87032313 171.42054299 59.98170353 170.62822181 58 169 C55.96030814 168.36016929 55.96030814 168.36016929 53.66796875 168.14038086 C52.36146362 167.97021706 52.36146362 167.97021706 51.02856445 167.7966156 C50.09101318 167.68713089 49.15346191 167.57764618 48.1875 167.46484375 C47.22223389 167.34065567 46.25696777 167.21646759 45.26245117 167.08851624 C42.17635744 166.69272927 39.08852122 166.31383847 36 165.9375 C32.9117519 165.55591165 29.82413418 165.17059292 26.73754883 164.77577209 C24.81653231 164.53052422 22.89448979 164.29315895 20.97143555 164.06443787 C19.66493042 163.8990023 19.66493042 163.8990023 18.33203125 163.73022461 C17.56608643 163.63712509 16.8001416 163.54402557 16.01098633 163.44810486 C14 163 14 163 11 161 C11.75925781 160.45730469 12.51851563 159.91460937 13.30078125 159.35546875 C14.29464844 158.64003906 15.28851563 157.92460937 16.3125 157.1875 C17.29863281 156.47980469 18.28476562 155.77210938 19.30078125 155.04296875 C21.93281129 153.15411598 21.93281129 153.15411598 23.73046875 151.23828125 C25 150 25 150 27 150 C27.26554687 149.40703125 27.53109375 148.8140625 27.8046875 148.203125 C29.03104515 145.94277953 30.31076459 144.5557971 32.125 142.75 C46.84743494 126.27562603 49.79868058 104.16272713 49 83 C47.77723659 65.68085923 39.20566849 50.15860662 27.50390625 37.6796875 C26 36 26 36 26 35 C33.9694798 35.67344913 41.90210342 36.54788892 49.83984375 37.5234375 C51.64310875 37.74370102 51.64310875 37.74370102 53.48280334 37.96841431 C56.01671965 38.27851811 58.55052655 38.58951701 61.08422852 38.90136719 C64.89495731 39.36977078 68.70623624 39.83348997 72.51757812 40.296875 C78.5710308 41.03495176 84.61972905 41.80626461 90.6678772 42.5864563 C93.82099983 42.97778461 96.97578498 43.32281739 100.13549805 43.65600586 C101.94719888 43.87012016 103.75881068 44.08498974 105.5703125 44.30078125 C106.37947617 44.37279755 107.18863983 44.44481384 108.02232361 44.51901245 C110.94068027 44.89281053 113.31637374 45.24580363 115.35147095 47.49098206 C117.70697956 51.40592429 118.80014743 55.62910851 120 60 C123.07164511 65.61702934 128.71549106 68.70916795 134 72 C133.41785877 85.95832397 131.43432603 99.73036095 129.5625 113.5625 C129.24630981 115.92897838 128.93055174 118.29551454 128.61523438 120.66210938 C127.12975568 131.78232053 125.62503505 142.89919373 124 154 C122.88625 154.20625 121.7725 154.4125 120.625 154.625 C112.30463905 156.74934748 105.9439108 161.15138024 101.05859375 168.16796875 C99.84783115 170.12179118 99.84783115 170.12179118 99 173 C97.87980469 172.96519531 96.75960937 172.93039062 95.60546875 172.89453125 C94.13282749 172.86639161 92.66017002 172.83909163 91.1875 172.8125 C90.44951172 172.78736328 89.71152344 172.76222656 88.95117188 172.73632812 C84.76032074 172.64370975 84.76032074 172.64370975 81.015625 174.296875 C79.25858441 177.24329692 79.59172976 179.67551376 80 183 C82.36651049 186.37458249 83.81651595 186.96102343 87.8984375 187.828125 C89.38882677 187.98667705 90.8812724 188.12680597 92.375 188.25 C93.1175 188.32734375 93.86 188.4046875 94.625 188.484375 C102.22660893 189.62857438 102.22660893 189.62857438 109.1875 187.5625 C110.94037642 185.0842954 111.5100092 183.49172919 112.3125 180.625 C113.63704936 176.41556825 115.20222231 173.86554357 118.6953125 171.14453125 C122.63525114 169.18791765 126.77099505 168.84562374 131.109375 168.421875 C134.18952151 168.18328628 134.18952151 168.18328628 137 166 C139.36696394 159.79534757 139.83761966 153.20833055 140.5859375 146.6484375 C140.72786026 145.44804337 140.86978302 144.24764923 141.01600647 143.01087952 C141.47391793 139.13281329 141.92441837 135.253924 142.375 131.375 C142.99372391 126.10227606 143.61965092 120.83040553 144.24609375 115.55859375 C144.39802689 114.27757278 144.54996002 112.99655182 144.70649719 111.67671204 C145.9634577 101.14813623 147.34788428 90.64399296 148.93310547 80.15966797 C150.88838672 69.67345996 150.88838672 69.67345996 148 60 C145.52626138 58.94508966 145.52626138 58.94508966 142.6875 58.125 C137.28436509 56.27209248 133.92291754 54.17520904 130.90234375 49.1875 C129.48890548 45.76098298 129.6499321 42.32502571 129.5390625 38.65625 C128.84146884 35.21883197 127.69986304 34.2036383 125 32 C122.24153691 31.15431558 122.24153691 31.15431558 119.13110352 30.875 C117.3499691 30.65457031 117.3499691 30.65457031 115.53285217 30.4296875 C114.24455002 30.28789062 112.95624786 30.14609375 111.62890625 30 C110.2690106 29.83752024 108.90930708 29.67342527 107.54978943 29.5078125 C103.95076253 29.07343273 100.34968975 28.65935543 96.7477417 28.25 C93.1984079 27.84394265 89.65097525 27.42207065 86.10351562 27 C85.40932117 26.91744335 84.71512671 26.8348867 83.99989605 26.74982834 C82.59848733 26.58316231 81.19708548 26.41643849 79.79569054 26.24965668 C77.68330531 25.99903889 75.57065772 25.75073228 73.45796204 25.50274658 C61.82418384 24.13146152 50.22376106 22.55308095 38.62329102 20.92382812 C29.32172866 19.61811038 20.00558206 18.43081397 10.6875 17.25 C8.94073779 17.02748045 7.19399302 16.80482396 5.44726562 16.58203125 C1.29837337 16.05313244 -2.85073975 15.52600372 -7 15 C-5.23509296 9.54781506 -2.84716713 4.94507975 0 0 Z " fill="#158F15" transform="translate(300,261)"/>
<path d="M0 0 C29.04 0 58.08 0 88 0 C86.35 1.65 84.7 3.3 83 5 C66.20865147 22.12295505 57.44922499 42.48220584 57.57617188 66.45703125 C58.27879258 91.40956107 70.82136125 110.82136125 88 128 C58.96 128 29.92 128 0 128 C-2.475 123.05 -2.475 123.05 -5 118 C-9.01582741 111.45568866 -16.32555037 108.33722482 -23 105 C-23 77.94 -23 50.88 -23 23 C-19.37 21.02 -15.74 19.04 -12 17 C-6.45722044 12.4211821 -3.17707101 6.35414201 0 0 Z " fill="#159015" transform="translate(95,288)"/>
<path d="M0 0 C0.74254068 -0.00256327 1.48508135 -0.00512655 2.25012326 -0.0077675 C4.73925543 -0.01271054 7.22778159 0.00379571 9.71685791 0.02018738 C11.50067633 0.02103354 13.28449579 0.02055872 15.0683136 0.01885986 C19.91305485 0.01799806 24.7575739 0.03565383 29.60226345 0.05658174 C34.6644777 0.07531764 39.72669686 0.07709654 44.78894043 0.08065796 C54.37595877 0.0899875 63.96287465 0.1146136 73.54984784 0.14470643 C84.46386604 0.17822214 95.3778891 0.19472933 106.29194593 0.20979273 C128.74386145 0.24116234 151.19568597 0.29394053 173.64752197 0.36076355 C171.38619392 6.24098104 169.07502136 11.77387637 164.64752197 16.36076355 C160.36228658 17.92691127 156.32195804 17.77503722 151.7991333 17.63786316 C150.51706497 17.64279785 149.23499664 17.64773254 147.91407776 17.65281677 C145.13607784 17.6629412 142.36134006 17.63854283 139.58381081 17.58672905 C135.19208376 17.50486739 130.80226141 17.49979205 126.40989685 17.50445557 C119.46561602 17.50263492 112.52287944 17.44836147 105.57905358 17.37218815 C93.13691883 17.23718654 80.69433166 17.1867974 68.25153369 17.1627503 C63.88590427 17.15216949 59.52134741 17.11706755 55.15606463 17.06158721 C53.09631012 17.03783467 51.03671018 17.02288362 48.97685242 17.01164246 C46.46587645 16.99722425 43.95492575 16.96814951 41.44433594 16.92181396 C40.33828506 16.91983002 39.23223419 16.91784607 38.09266663 16.915802 C36.65171489 16.89990225 36.65171489 16.89990225 35.18165302 16.8836813 C31.89058786 17.50326598 30.71423687 18.7833014 28.64752197 21.36076355 C27.9655585 23.69470041 27.9655585 23.69470041 27.77252197 26.17326355 C26.86715895 31.59742962 24.81595952 34.80717054 20.64752197 38.36076355 C18.22295951 39.73686657 16.12314576 40.26630168 13.40533447 40.80607605 C12.19490479 41.04970886 12.19490479 41.04970886 10.96002197 41.29826355 C10.19302979 41.43103699 9.4260376 41.56381042 8.63580322 41.7006073 C6.27089435 42.25959471 6.27089435 42.25959471 4.64752197 45.36076355 C4.34818042 47.33985635 4.34818042 47.33985635 4.39355469 49.52896118 C4.38791504 50.37713409 4.38227539 51.22530701 4.37646484 52.09918213 C4.38051331 53.02653671 4.38456177 53.9538913 4.38873291 54.90934753 C4.38522827 55.88847107 4.38172363 56.8675946 4.37811279 57.87638855 C4.36929493 61.1199498 4.37514535 64.36329374 4.38189697 67.6068573 C4.38055023 69.85743247 4.37860962 72.10800737 4.37609863 74.35858154 C4.3731472 79.07881943 4.37744526 83.7989817 4.38677979 88.51921082 C4.39816773 94.57332863 4.39161906 100.62726899 4.37963486 106.68138027 C4.37241123 111.33016296 4.37470663 115.97890351 4.37989044 120.62768745 C4.38122588 122.86004215 4.37958292 125.09240065 4.37493134 127.3247509 C4.36985865 130.4441988 4.3775873 133.56335862 4.38873291 136.68278503 C4.38468445 137.60811539 4.38063599 138.53344574 4.37646484 139.48681641 C4.38210449 140.33780914 4.38774414 141.18880188 4.39355469 142.06558228 C4.39468576 143.17141993 4.39468576 143.17141993 4.39583969 144.29959774 C4.69164281 146.72209352 5.33094792 148.30969896 6.64752197 150.36076355 C9.27811785 151.28238481 9.27811785 151.28238481 12.33502197 151.73576355 C18.0651634 152.99460614 21.90613696 154.77924718 25.64752197 159.36076355 C27.88783633 163.09982479 28.33742484 166.86556484 28.98736572 171.11857605 C29.49311364 173.72113427 29.49311364 173.72113427 32.64752197 175.36076355 C35.19167017 175.67277118 35.19167017 175.67277118 38.09544373 175.63923645 C39.22706436 175.65039993 40.358685 175.66156342 41.52459717 175.67306519 C42.7668103 175.67522537 44.00902344 175.67738556 45.28887939 175.67961121 C47.2500042 175.69467964 47.2500042 175.69467964 49.25074768 175.71005249 C52.83722001 175.73738527 56.42365299 175.75251153 60.01020217 175.76548052 C63.75786977 175.78109677 67.50545685 175.80789176 71.25306702 175.83351135 C78.35029671 175.88032588 85.4475415 175.91705701 92.54484683 175.95018423 C100.6246189 175.98838676 108.70431014 176.03780179 116.78401411 176.08816838 C133.40512538 176.19152799 150.02628145 176.28077524 166.64752197 176.36076355 C165.25380392 178.28031662 163.84050477 180.1764368 162.38771534 182.05199718 C160.63235246 184.30793009 160.63235246 184.30793009 159.23578167 186.63966084 C156.70802563 190.29691509 154.88010826 192.0837877 150.46456337 193.07600975 C146.33253455 193.37064962 142.27541083 193.38615513 138.13702393 193.3165741 C136.55628542 193.31923109 134.97554953 193.32537009 133.39483643 193.3347168 C129.11553774 193.34979174 124.83794762 193.31518941 120.55890679 193.27070975 C116.07783726 193.2317723 111.59679465 193.23596175 107.11558533 193.23474121 C99.59427962 193.22642879 92.07362371 193.1878649 84.55255127 193.1290741 C75.85630079 193.06126195 67.16060521 193.03143626 58.4641059 193.02409905 C49.2020961 193.01622663 39.94028147 192.98542717 30.67835975 192.94530511 C28.00991687 192.93497887 25.34148485 192.92841643 22.67302895 192.92247581 C18.48268109 192.91168245 14.29271124 192.88516952 10.10253143 192.84643364 C8.56424494 192.83447077 7.0259097 192.82756046 5.48757744 192.82604599 C3.38920487 192.82304088 1.29181079 192.80161523 -0.80638123 192.77536011 C-2.56811692 192.76392235 -2.56811692 192.76392235 -4.36544323 192.75225353 C-7.65331596 192.3213348 -9.03126764 191.69351249 -11.35247803 189.36076355 C-12.43231964 186.1212387 -12.47985169 183.77842957 -12.48377991 180.37030029 C-12.48778809 179.11824799 -12.49179626 177.86619568 -12.4959259 176.57620239 C-12.49545081 175.18611143 -12.4949147 173.79602048 -12.49432373 172.40592957 C-12.49735535 170.94401443 -12.50087681 169.48210025 -12.50485229 168.02018738 C-12.51274067 164.87067116 -12.51788594 161.72116626 -12.52114296 158.57164192 C-12.52705121 153.59253595 -12.54358912 148.61350153 -12.56248474 143.63442993 C-12.56882204 141.93021874 -12.57514766 140.2260075 -12.58146191 138.52179623 C-12.58462772 137.66835404 -12.58779353 136.81491186 -12.59105527 135.93560779 C-12.63314761 124.3428826 -12.66611837 112.75019095 -12.67840576 101.15739441 C-12.6867783 93.33851323 -12.70923745 85.51980933 -12.74776143 77.70101684 C-12.76754684 73.56266646 -12.77991845 69.42458122 -12.77492714 65.2861805 C-12.77029058 61.39462855 -12.78403093 57.5035797 -12.81193924 53.61212921 C-12.81886742 52.1834853 -12.81896008 50.75478954 -12.81173897 49.32614708 C-12.80288062 47.37683187 -12.82085876 45.42744958 -12.84022522 43.47821045 C-12.84261357 42.38701684 -12.84500193 41.29582323 -12.84746265 40.17156315 C-13.47558731 36.67556557 -14.58314641 35.51940569 -17.35247803 33.36076355 C-18.34247803 33.03076355 -19.33247803 32.70076355 -20.35247803 32.36076355 C-20.35247803 27.08076355 -20.35247803 21.80076355 -20.35247803 16.36076355 C-18.37247803 15.37076355 -16.39247803 14.38076355 -14.35247803 13.36076355 C-13.14853664 11.00897561 -13.14853664 11.00897561 -12.72747803 8.36076355 C-11.7930517 3.81051362 -11.7930517 3.81051362 -9.75976181 1.73487377 C-6.52002186 -0.11441372 -3.62791074 -0.04577262 0 0 Z " fill="#2AB93B" transform="translate(52.35247802734375,255.6392364501953)"/>
<path d="M0 0 C11.81311013 0.48347017 23.40803613 1.70987002 35.11297607 3.3538208 C40.04329168 4.04536689 44.97671575 4.71398133 49.91015625 5.3828125 C50.91703491 5.51960419 51.92391357 5.65639587 52.96130371 5.79733276 C63.25269896 7.18619018 73.56075833 8.41955846 83.875 9.625 C87.34772812 10.03194154 90.82038958 10.43944563 94.29296875 10.84765625 C95.53797653 10.99399757 95.53797653 10.99399757 96.80813599 11.14329529 C105.84187728 12.20989757 114.86481854 13.35517743 123.88208008 14.5534668 C129.71762229 15.32834452 135.55231674 16.07406578 141.40354919 16.7191925 C144.26789042 17.036478 147.13035848 17.36915419 149.99282837 17.70285034 C152.00359444 17.93082156 154.01681939 18.13676818 156.0300293 18.34204102 C157.24859619 18.48569092 158.46716309 18.62934082 159.72265625 18.77734375 C160.79265869 18.89327881 161.86266113 19.00921387 162.96508789 19.12866211 C167.05355017 20.30247933 169.15937969 21.83560321 172 25 C172.36629016 27.93530615 172.38218739 29.86857475 172.01953125 32.72265625 C171.94950394 33.46781998 171.87947662 34.2129837 171.80732727 34.98072815 C171.57496143 37.326229 171.29388699 39.66147384 171 42 C170.91506287 42.71919617 170.83012573 43.43839233 170.74261475 44.17938232 C170.22701392 48.51189778 169.63876372 52.83145396 169.01657104 57.14984131 C168.43801033 61.17191944 167.88345122 65.19731477 167.328125 69.22265625 C167.21488388 70.04113037 167.10164276 70.85960449 166.98497009 71.70288086 C165.85767351 79.91426305 164.88341068 88.14106141 163.9375 96.375 C162.29380694 110.61261722 160.52075832 124.82911231 158.65087891 139.0390625 C158.00355111 143.96361989 157.36425409 148.88921127 156.72462463 153.81477356 C156.10100289 158.61107167 155.47411037 163.40693908 154.84658813 168.20272827 C154.53460672 170.59079024 154.22369696 172.97899247 153.91390991 175.36734009 C153.47452115 178.75184033 153.03071718 182.13573579 152.5859375 185.51953125 C152.45583786 186.5288269 152.32573822 187.53812256 152.19169617 188.57800293 C149.90655569 205.84620185 149.90655569 205.84620185 146.9375 209.625 C141.32230275 212.2533902 135.8832901 211.20923231 129.9375 210.125 C121.92942776 208.76070248 113.8725221 207.86969781 105.80493164 206.94113159 C92.5164849 205.40931663 79.24353077 203.82229055 66 201.9375 C55.68163137 200.46984851 45.353129 199.1899465 35 198 C20.63719507 196.34869457 6.32405419 194.44944906 -7.99121094 192.42285156 C-12.09579143 191.8459988 -16.20336031 191.29329878 -20.3125 190.75 C-21.44300781 190.60046875 -22.57351563 190.4509375 -23.73828125 190.296875 C-24.85783203 190.14992188 -24.85783203 190.14992188 -26 190 C-25.0919838 188.86800647 -24.17316174 187.74467637 -23.25 186.625 C-22.73953125 185.99851562 -22.2290625 185.37203125 -21.703125 184.7265625 C-20 183 -20 183 -17.921875 182.1484375 C-15.06327736 180.4402511 -14.92805267 178.08853044 -14 175 C-8.60338315 175.57620731 -3.20763988 176.16012243 2.1875 176.75 C3.3989267 176.88239075 3.3989267 176.88239075 4.63482666 177.01745605 C17.11895536 178.38901201 29.55896377 179.95504966 41.98510742 181.78027344 C43.09088135 181.94043945 44.19665527 182.10060547 45.3359375 182.265625 C46.29032715 182.40774414 47.2447168 182.54986328 48.22802734 182.69628906 C53.98552066 183.43131583 53.98552066 183.43131583 59.3125 181.6875 C61.24689917 180.00465847 61.24689917 180.00465847 62 177 C76.67754307 176.72692943 76.67754307 176.72692943 79.8828125 179.8125 C80.81191263 181.86090973 81.39509139 183.84094156 82 186 C85.20098563 187.60049281 88.73137115 187.66332782 92.25 188.0625 C93.00152344 188.15337891 93.75304687 188.24425781 94.52734375 188.33789062 C102.1640483 189.62544248 102.1640483 189.62544248 109.1875 187.5625 C110.94037642 185.0842954 111.5100092 183.49172919 112.3125 180.625 C113.63704936 176.41556825 115.20222231 173.86554357 118.6953125 171.14453125 C122.63525114 169.18791765 126.77099505 168.84562374 131.109375 168.421875 C134.18952151 168.18328628 134.18952151 168.18328628 137 166 C139.36696394 159.79534757 139.83761966 153.20833055 140.5859375 146.6484375 C140.72786026 145.44804337 140.86978302 144.24764923 141.01600647 143.01087952 C141.47391793 139.13281329 141.92441837 135.253924 142.375 131.375 C142.99372391 126.10227606 143.61965092 120.83040553 144.24609375 115.55859375 C144.39802689 114.27757278 144.54996002 112.99655182 144.70649719 111.67671204 C145.9634577 101.14813623 147.34788428 90.64399296 148.93310547 80.15966797 C150.88838672 69.67345996 150.88838672 69.67345996 148 60 C145.52626138 58.94508966 145.52626138 58.94508966 142.6875 58.125 C137.28436509 56.27209248 133.92291754 54.17520904 130.90234375 49.1875 C129.48890548 45.76098298 129.6499321 42.32502571 129.5390625 38.65625 C128.84146884 35.21883197 127.69986304 34.2036383 125 32 C122.24153691 31.15431558 122.24153691 31.15431558 119.13110352 30.875 C117.3499691 30.65457031 117.3499691 30.65457031 115.53285217 30.4296875 C114.24455002 30.28789062 112.95624786 30.14609375 111.62890625 30 C110.2690106 29.83752024 108.90930708 29.67342527 107.54978943 29.5078125 C103.95076253 29.07343273 100.34968975 28.65935543 96.7477417 28.25 C93.1984079 27.84394265 89.65097525 27.42207065 86.10351562 27 C85.40932117 26.91744335 84.71512671 26.8348867 83.99989605 26.74982834 C82.59848733 26.58316231 81.19708548 26.41643849 79.79569054 26.24965668 C77.68330531 25.99903889 75.57065772 25.75073228 73.45796204 25.50274658 C61.82418384 24.13146152 50.22376106 22.55308095 38.62329102 20.92382812 C29.32172866 19.61811038 20.00558206 18.43081397 10.6875 17.25 C8.94073779 17.02748045 7.19399302 16.80482396 5.44726562 16.58203125 C1.29837337 16.05313244 -2.85073975 15.52600372 -7 15 C-5.23509296 9.54781506 -2.84716713 4.94507975 0 0 Z " fill="#2AB73B" transform="translate(300,261)"/>
<path d="M0 0 C1.10794922 -0.01260864 2.21589844 -0.02521729 3.35742188 -0.03820801 C4.54916016 -0.03011108 5.74089844 -0.02201416 6.96875 -0.01367188 C8.19658203 -0.01749878 9.42441406 -0.02132568 10.68945312 -0.02526855 C13.28516459 -0.02799029 15.88090336 -0.02061099 18.4765625 -0.00390625 C22.45374599 0.01749738 26.42912282 -0.0037015 30.40625 -0.02929688 C32.92708733 -0.02665365 35.44792353 -0.02152878 37.96875 -0.01367188 C39.16048828 -0.0217688 40.35222656 -0.02986572 41.58007812 -0.03820801 C43.24200195 -0.01929504 43.24200195 -0.01929504 44.9375 0 C46.39833008 0.00477356 46.39833008 0.00477356 47.88867188 0.00964355 C51.27078878 0.67547382 52.44323345 1.75573719 54.46875 4.51757812 C54.94976807 6.97271729 54.94976807 6.97271729 54.92285156 9.74511719 C54.92254944 10.78589417 54.92224731 11.82667114 54.92193604 12.89898682 C54.90129089 14.0157782 54.88064575 15.13256958 54.859375 16.28320312 C54.85371521 17.43173767 54.84805542 18.58027222 54.84222412 19.76361084 C54.81983331 23.43202387 54.76962942 27.09946029 54.71875 30.76757812 C54.69868861 33.25454319 54.68043722 35.74152356 54.6640625 38.22851562 C54.61995955 44.32520301 54.55301949 50.4213208 54.46875 56.51757812 C55.05366211 56.49663086 55.63857422 56.47568359 56.24121094 56.45410156 C58.90021465 56.37077697 61.55894355 56.31886916 64.21875 56.26757812 C65.59933594 56.21730469 65.59933594 56.21730469 67.0078125 56.16601562 C73.81836554 56.06731196 73.81836554 56.06731196 77.05859375 58.31054688 C78.73266255 60.93062686 79.33979138 63.08487471 79.15625 66.20507812 C77.75039973 70.93384721 74.17696154 74.33379522 70.91503906 77.91796875 C68.83414688 80.21945517 66.81885657 82.57577839 64.79541016 84.92773438 C63.13565571 86.85397903 61.46739572 88.77254149 59.796875 90.68945312 C55.16181854 96.01357721 50.57659512 101.38017223 45.98779297 106.74414062 C44.39124615 108.60806157 42.79166044 110.46933943 41.19140625 112.33007812 C40.65201416 112.957771 40.11262207 113.58546387 39.55688477 114.23217773 C38.53066804 115.42624912 37.50385408 116.61980761 36.47631836 117.81274414 C34.34567854 120.29364628 32.26433453 122.77921553 30.25 125.35742188 C27.67665306 128.47816937 26.79654059 128.48533643 22.65625 128.89257812 C20.63671875 129.04101562 20.63671875 129.04101562 18.46875 128.51757812 C16.03515625 126.34570313 16.03515625 126.34570313 13.46875 123.51757812 C12.61796875 122.6178125 11.7671875 121.71804687 10.890625 120.79101562 C5.60726448 115.05965085 0.53945589 109.24062566 -4.3515625 103.16601562 C-6.50882399 100.54482694 -8.74436 98.02603532 -11.03125 95.51757812 C-14.9272575 91.23602822 -18.62766024 86.83270872 -22.24609375 82.31445312 C-23.8177184 80.39089201 -25.43848298 78.50677973 -27.09765625 76.65820312 C-34.10311611 68.72087458 -34.10311611 68.72087458 -34.34375 64.08007812 C-33.40602198 59.96850141 -32.97045494 58.89856616 -29.53125 56.51757812 C-26.1021403 56.02520679 -22.73630572 56.14176377 -19.28125 56.26757812 C-17.87746094 56.29464844 -17.87746094 56.29464844 -16.4453125 56.32226562 C-14.13957985 56.36932139 -11.83594055 56.435041 -9.53125 56.51757812 C-9.54013245 55.87500061 -9.54901489 55.2324231 -9.5581665 54.57037354 C-9.64660648 47.88717538 -9.70697054 41.20414322 -9.75097656 34.52050781 C-9.77110164 32.02564747 -9.79840452 29.53083435 -9.83300781 27.03613281 C-9.88148457 23.45170444 -9.9042102 19.86789928 -9.921875 16.28320312 C-9.94252014 15.16641174 -9.96316528 14.04962036 -9.98443604 12.89898682 C-9.98473816 11.85820984 -9.98504028 10.81743286 -9.98535156 9.74511719 C-9.99423401 8.83022522 -10.00311646 7.91533325 -10.01226807 6.97271729 C-8.90968426 1.34507692 -5.28753904 0.01727811 0 0 Z " fill="#000000" transform="translate(385.53125,87.482421875)"/>
<path d="M0 0 C1.10794922 -0.01260864 2.21589844 -0.02521729 3.35742188 -0.03820801 C4.54916016 -0.03011108 5.74089844 -0.02201416 6.96875 -0.01367188 C8.19658203 -0.01749878 9.42441406 -0.02132568 10.68945312 -0.02526855 C13.28516459 -0.02799029 15.88090336 -0.02061099 18.4765625 -0.00390625 C22.45374599 0.01749738 26.42912282 -0.0037015 30.40625 -0.02929688 C32.92708733 -0.02665365 35.44792353 -0.02152878 37.96875 -0.01367188 C39.16048828 -0.0217688 40.35222656 -0.02986572 41.58007812 -0.03820801 C43.24200195 -0.01929504 43.24200195 -0.01929504 44.9375 0 C46.39833008 0.00477356 46.39833008 0.00477356 47.88867188 0.00964355 C51.27078878 0.67547382 52.44323345 1.75573719 54.46875 4.51757812 C54.94976807 6.97271729 54.94976807 6.97271729 54.92285156 9.74511719 C54.92254944 10.78589417 54.92224731 11.82667114 54.92193604 12.89898682 C54.90129089 14.0157782 54.88064575 15.13256958 54.859375 16.28320312 C54.85371521 17.43173767 54.84805542 18.58027222 54.84222412 19.76361084 C54.81983331 23.43202387 54.76962942 27.09946029 54.71875 30.76757812 C54.69868861 33.25454319 54.68043722 35.74152356 54.6640625 38.22851562 C54.61995955 44.32520301 54.55301949 50.4213208 54.46875 56.51757812 C55.05366211 56.49663086 55.63857422 56.47568359 56.24121094 56.45410156 C58.90021465 56.37077697 61.55894355 56.31886916 64.21875 56.26757812 C65.59933594 56.21730469 65.59933594 56.21730469 67.0078125 56.16601562 C73.81836554 56.06731196 73.81836554 56.06731196 77.05859375 58.31054688 C78.73266255 60.93062686 79.33979138 63.08487471 79.15625 66.20507812 C77.75039973 70.93384721 74.17696154 74.33379522 70.91503906 77.91796875 C68.83414688 80.21945517 66.81885657 82.57577839 64.79541016 84.92773438 C63.13565571 86.85397903 61.46739572 88.77254149 59.796875 90.68945312 C55.16181854 96.01357721 50.57659512 101.38017223 45.98779297 106.74414062 C44.39124615 108.60806157 42.79166044 110.46933943 41.19140625 112.33007812 C40.65201416 112.957771 40.11262207 113.58546387 39.55688477 114.23217773 C38.53066804 115.42624912 37.50385408 116.61980761 36.47631836 117.81274414 C34.34567854 120.29364628 32.26433453 122.77921553 30.25 125.35742188 C27.67665306 128.47816937 26.79654059 128.48533643 22.65625 128.89257812 C20.63671875 129.04101562 20.63671875 129.04101562 18.46875 128.51757812 C16.03515625 126.34570313 16.03515625 126.34570313 13.46875 123.51757812 C12.61796875 122.6178125 11.7671875 121.71804687 10.890625 120.79101562 C5.60726448 115.05965085 0.53945589 109.24062566 -4.3515625 103.16601562 C-6.50882399 100.54482694 -8.74436 98.02603532 -11.03125 95.51757812 C-14.9272575 91.23602822 -18.62766024 86.83270872 -22.24609375 82.31445312 C-23.8177184 80.39089201 -25.43848298 78.50677973 -27.09765625 76.65820312 C-34.10311611 68.72087458 -34.10311611 68.72087458 -34.34375 64.08007812 C-33.40602198 59.96850141 -32.97045494 58.89856616 -29.53125 56.51757812 C-26.1021403 56.02520679 -22.73630572 56.14176377 -19.28125 56.26757812 C-17.87746094 56.29464844 -17.87746094 56.29464844 -16.4453125 56.32226562 C-14.13957985 56.36932139 -11.83594055 56.435041 -9.53125 56.51757812 C-9.54013245 55.87500061 -9.54901489 55.2324231 -9.5581665 54.57037354 C-9.64660648 47.88717538 -9.70697054 41.20414322 -9.75097656 34.52050781 C-9.77110164 32.02564747 -9.79840452 29.53083435 -9.83300781 27.03613281 C-9.88148457 23.45170444 -9.9042102 19.86789928 -9.921875 16.28320312 C-9.94252014 15.16641174 -9.96316528 14.04962036 -9.98443604 12.89898682 C-9.98473816 11.85820984 -9.98504028 10.81743286 -9.98535156 9.74511719 C-9.99423401 8.83022522 -10.00311646 7.91533325 -10.01226807 6.97271729 C-8.90968426 1.34507692 -5.28753904 0.01727811 0 0 Z " fill="#000000" transform="translate(81.53125,87.482421875)"/>
<path d="M0 0 C1.10794922 -0.01260864 2.21589844 -0.02521729 3.35742188 -0.03820801 C4.54916016 -0.03011108 5.74089844 -0.02201416 6.96875 -0.01367188 C8.19658203 -0.01749878 9.42441406 -0.02132568 10.68945312 -0.02526855 C13.28516459 -0.02799029 15.88090336 -0.02061099 18.4765625 -0.00390625 C22.45374599 0.01749738 26.42912282 -0.0037015 30.40625 -0.02929688 C32.92708733 -0.02665365 35.44792353 -0.02152878 37.96875 -0.01367188 C39.16048828 -0.0217688 40.35222656 -0.02986572 41.58007812 -0.03820801 C43.24200195 -0.01929504 43.24200195 -0.01929504 44.9375 0 C46.39833008 0.00477356 46.39833008 0.00477356 47.88867188 0.00964355 C51.27078878 0.67547382 52.44323345 1.75573719 54.46875 4.51757812 C54.94976807 6.97271729 54.94976807 6.97271729 54.92285156 9.74511719 C54.92254944 10.78589417 54.92224731 11.82667114 54.92193604 12.89898682 C54.90129089 14.0157782 54.88064575 15.13256958 54.859375 16.28320312 C54.85371521 17.43173767 54.84805542 18.58027222 54.84222412 19.76361084 C54.81983331 23.43202387 54.76962942 27.09946029 54.71875 30.76757812 C54.69868861 33.25454319 54.68043722 35.74152356 54.6640625 38.22851562 C54.61995955 44.32520301 54.55301949 50.4213208 54.46875 56.51757812 C55.05366211 56.49663086 55.63857422 56.47568359 56.24121094 56.45410156 C58.90021465 56.37077697 61.55894355 56.31886916 64.21875 56.26757812 C65.59933594 56.21730469 65.59933594 56.21730469 67.0078125 56.16601562 C73.81836554 56.06731196 73.81836554 56.06731196 77.05859375 58.31054688 C78.73266255 60.93062686 79.33979138 63.08487471 79.15625 66.20507812 C77.75039973 70.93384721 74.17696154 74.33379522 70.91503906 77.91796875 C68.83414688 80.21945517 66.81885657 82.57577839 64.79541016 84.92773438 C63.13565571 86.85397903 61.46739572 88.77254149 59.796875 90.68945312 C55.16181854 96.01357721 50.57659512 101.38017223 45.98779297 106.74414062 C44.39124615 108.60806157 42.79166044 110.46933943 41.19140625 112.33007812 C40.65201416 112.957771 40.11262207 113.58546387 39.55688477 114.23217773 C38.53066804 115.42624912 37.50385408 116.61980761 36.47631836 117.81274414 C34.34567854 120.29364628 32.26433453 122.77921553 30.25 125.35742188 C27.67665306 128.47816937 26.79654059 128.48533643 22.65625 128.89257812 C20.63671875 129.04101562 20.63671875 129.04101562 18.46875 128.51757812 C16.03515625 126.34570313 16.03515625 126.34570313 13.46875 123.51757812 C12.61796875 122.6178125 11.7671875 121.71804687 10.890625 120.79101562 C5.60726448 115.05965085 0.53945589 109.24062566 -4.3515625 103.16601562 C-6.50882399 100.54482694 -8.74436 98.02603532 -11.03125 95.51757812 C-14.9272575 91.23602822 -18.62766024 86.83270872 -22.24609375 82.31445312 C-23.8177184 80.39089201 -25.43848298 78.50677973 -27.09765625 76.65820312 C-34.10311611 68.72087458 -34.10311611 68.72087458 -34.34375 64.08007812 C-33.40602198 59.96850141 -32.97045494 58.89856616 -29.53125 56.51757812 C-26.1021403 56.02520679 -22.73630572 56.14176377 -19.28125 56.26757812 C-17.87746094 56.29464844 -17.87746094 56.29464844 -16.4453125 56.32226562 C-14.13957985 56.36932139 -11.83594055 56.435041 -9.53125 56.51757812 C-9.54013245 55.87500061 -9.54901489 55.2324231 -9.5581665 54.57037354 C-9.64660648 47.88717538 -9.70697054 41.20414322 -9.75097656 34.52050781 C-9.77110164 32.02564747 -9.79840452 29.53083435 -9.83300781 27.03613281 C-9.88148457 23.45170444 -9.9042102 19.86789928 -9.921875 16.28320312 C-9.94252014 15.16641174 -9.96316528 14.04962036 -9.98443604 12.89898682 C-9.98473816 11.85820984 -9.98504028 10.81743286 -9.98535156 9.74511719 C-9.99423401 8.83022522 -10.00311646 7.91533325 -10.01226807 6.97271729 C-8.90968426 1.34507692 -5.28753904 0.01727811 0 0 Z " fill="#000000" transform="translate(233.53125,23.482421875)"/>
<path d="M0 0 C17.30785811 4.102314 30.44658729 13.90201004 40.0234375 28.72265625 C49.01977451 43.63950754 52.23562089 61.28753686 48.08984375 78.44921875 C46.9241392 82.09626224 45.59230723 85.51973167 44 89 C43.56558594 89.9796875 43.13117188 90.959375 42.68359375 91.96875 C35.29970519 106.94689432 22.40268291 117.15981606 7 123 C1.92170042 124.64647994 -2.64029968 126 -8 126 C-8.47626831 125.00202393 -8.47626831 125.00202393 -8.9621582 123.98388672 C-10.41170504 120.94732006 -11.86209496 117.91115683 -13.3125 114.875 C-13.81201172 113.82828125 -14.31152344 112.7815625 -14.82617188 111.703125 C-15.55610352 110.17558594 -15.55610352 110.17558594 -16.30078125 108.6171875 C-16.76822754 107.63459961 -17.23567383 106.65201172 -17.71728516 105.63964844 C-18.73687386 103.54147694 -19.80494269 101.49398995 -20.91796875 99.4453125 C-22 97 -22 97 -21 94 C-18.6610082 92.09845323 -16.31898605 90.31919452 -13.875 88.5625 C-12.41123777 87.48905237 -10.94903559 86.4134747 -9.48828125 85.3359375 C-8.74143066 84.78518555 -7.99458008 84.23443359 -7.22509766 83.66699219 C-3.13135478 80.60005381 0.84565828 77.38895897 4.81347656 74.16162109 C8.90146612 70.84219117 13.08014181 67.72170295 17.4609375 64.79296875 C20.00258646 61.83201222 20.08101477 59.89256698 20 56 C18.49095736 52.33941672 16.43005809 49.08694505 14.3125 45.75 C13.72758789 44.79504639 13.14267578 43.84009277 12.54003906 42.85620117 C10.71503938 39.88996377 8.862214 36.94299382 7 34 C6.41202637 33.06687988 5.82405273 32.13375977 5.21826172 31.17236328 C1.97466483 26.0268471 1.97466483 26.0268471 -1.3034668 20.90332031 C-1.7756665 20.16823242 -2.24786621 19.43314453 -2.734375 18.67578125 C-3.14913086 18.03552002 -3.56388672 17.39525879 -3.99121094 16.7355957 C-5 15 -5 15 -6 12 C-4.78515625 9.08203125 -4.78515625 9.08203125 -3.0625 5.8125 C-2.49660156 4.72582031 -1.93070312 3.63914062 -1.34765625 2.51953125 C-0.90292969 1.68808594 -0.45820313 0.85664063 0 0 Z " fill="#2AB83B" transform="translate(285,291)"/>
<path d="M0 0 C0 3 0 3 -2 6 C-2.54962355 9.93064118 -2.8543657 12.49560563 -0.87304688 15.984375 C0.75078458 18.07964139 2.46447252 20.04074427 4.25 22 C5.53181063 23.47512047 6.81038475 24.95305868 8.0859375 26.43359375 C8.7365918 27.18237793 9.38724609 27.93116211 10.05761719 28.70263672 C13.15778703 32.36937857 16.02117476 36.20277545 18.875 40.0625 C19.39223633 40.75923828 19.90947266 41.45597656 20.44238281 42.17382812 C21.63185086 43.77989533 22.81652083 45.38951461 24 47 C22.6453777 50.04306019 21.14579702 52.07568019 18.74365234 54.37231445 C18.08311859 55.0101033 17.42258484 55.64789215 16.74203491 56.30500793 C16.03052277 56.98423813 15.31901062 57.66346832 14.5859375 58.36328125 C13.08780831 59.82151258 11.59043534 61.28052116 10.09375 62.74023438 C7.73327311 65.03260167 5.36803899 67.31915257 2.98925781 69.5925293 C0.69300827 71.7919519 -1.58048402 74.012916 -3.8515625 76.23828125 C-4.92490341 77.2480175 -4.92490341 77.2480175 -6.01992798 78.27815247 C-9.28720404 81.51054935 -10.86100546 83.09170478 -11.57250977 87.74121094 C-11.05502482 90.68679261 -10.61837258 92.44855591 -8.98828125 94.90234375 C-8.55966797 95.56556641 -8.13105469 96.22878906 -7.68945312 96.91210938 C-7.23505859 97.58048828 -6.78066406 98.24886719 -6.3125 98.9375 C-5.43359375 100.27994792 -4.5546875 101.62239583 -3.67578125 102.96484375 C-3.01956787 103.94880127 -3.01956787 103.94880127 -2.35009766 104.95263672 C-0.16844225 108.26102049 1.91567507 111.62973355 4 115 C-9.95425498 110.96330656 -20.19349202 99.32621345 -27 87 C-28.5169065 83.72122073 -29.8075781 80.40864039 -31 77 C-31.391875 75.948125 -31.78375 74.89625 -32.1875 73.8125 C-36.83074155 57.73974079 -34.22699375 41.12921571 -26.9375 26.375 C-20.63512476 15.33237672 -11.46541114 5.73270557 0 0 Z " fill="#2AB73B" transform="translate(202,295)"/>
<path d="M0 0 C10.56 0 21.12 0 32 0 C32.04898438 3.56296875 32.09796875 7.1259375 32.1484375 10.796875 C32.20243842 14.24548565 32.25974948 17.69402649 32.31738281 21.14257812 C32.35567905 23.54031174 32.39053076 25.93810293 32.421875 28.3359375 C32.46751105 31.78145942 32.5255087 35.22658472 32.5859375 38.671875 C32.59748871 39.74491882 32.60903992 40.81796265 32.62094116 41.92352295 C32.64081085 42.92425842 32.66068054 43.9249939 32.68115234 44.95605469 C32.69447601 45.83541687 32.70779968 46.71477905 32.7215271 47.62078857 C33.02212195 50.18900513 33.62214075 51.82143675 35 54 C37.29629994 55.14814997 39.07698086 55.30769809 41.625 55.5625 C42.44226563 55.64628906 43.25953125 55.73007813 44.1015625 55.81640625 C45.04128906 55.90728516 45.04128906 55.90728516 46 56 C43.00314676 60.95132275 39.33646022 65.02340551 35.43359375 69.28515625 C32.21149832 72.87962868 29.18868578 76.61969051 26.15234375 80.37109375 C23.18823137 83.99150687 20.11260732 87.5070741 17 91 C12.71738753 89.42432183 10.3144362 86.16209461 7.5 82.75 C6.43913585 81.48539701 5.37792748 80.22108272 4.31640625 78.95703125 C3.77258301 78.30557129 3.22875977 77.65411133 2.66845703 76.98291016 C1.01475493 75.01753578 -0.66120853 73.07403483 -2.34765625 71.13671875 C-2.88648438 70.51635742 -3.4253125 69.89599609 -3.98046875 69.25683594 C-5.01079831 68.07195694 -6.04324669 66.88891599 -7.078125 65.70800781 C-9.74081621 62.6276753 -12.02831431 59.56496706 -14 56 C-13.22914063 55.90203125 -12.45828125 55.8040625 -11.6640625 55.703125 C-10.66117187 55.55359375 -9.65828125 55.4040625 -8.625 55.25 C-7.62726563 55.11078125 -6.62953125 54.9715625 -5.6015625 54.828125 C-2.91999277 54.27502991 -2.91999277 54.27502991 -1.85733032 52.26348877 C-0.88283735 49.69067191 -0.72279593 47.70453164 -0.68115234 44.95605469 C-0.66128265 43.95531921 -0.64141296 42.95458374 -0.62094116 41.92352295 C-0.60361435 40.31395721 -0.60361435 40.31395721 -0.5859375 38.671875 C-0.56657135 37.56773254 -0.5472052 36.46359009 -0.5272522 35.32598877 C-0.46749108 31.80073767 -0.42108436 28.27545385 -0.375 24.75 C-0.33681708 22.35936079 -0.29776517 19.96873529 -0.2578125 17.578125 C-0.16015744 11.71882149 -0.08055977 5.85966337 0 0 Z " fill="#FE3D3A" transform="translate(392,104)"/>
<path d="M0 0 C10.56 0 21.12 0 32 0 C32.04898438 3.56296875 32.09796875 7.1259375 32.1484375 10.796875 C32.20243842 14.24548565 32.25974948 17.69402649 32.31738281 21.14257812 C32.35567905 23.54031174 32.39053076 25.93810293 32.421875 28.3359375 C32.46751105 31.78145942 32.5255087 35.22658472 32.5859375 38.671875 C32.59748871 39.74491882 32.60903992 40.81796265 32.62094116 41.92352295 C32.64081085 42.92425842 32.66068054 43.9249939 32.68115234 44.95605469 C32.69447601 45.83541687 32.70779968 46.71477905 32.7215271 47.62078857 C33.02212195 50.18900513 33.62214075 51.82143675 35 54 C37.29629994 55.14814997 39.07698086 55.30769809 41.625 55.5625 C42.44226563 55.64628906 43.25953125 55.73007813 44.1015625 55.81640625 C45.04128906 55.90728516 45.04128906 55.90728516 46 56 C43.00314676 60.95132275 39.33646022 65.02340551 35.43359375 69.28515625 C32.21149832 72.87962868 29.18868578 76.61969051 26.15234375 80.37109375 C23.18823137 83.99150687 20.11260732 87.5070741 17 91 C12.71738753 89.42432183 10.3144362 86.16209461 7.5 82.75 C6.43913585 81.48539701 5.37792748 80.22108272 4.31640625 78.95703125 C3.77258301 78.30557129 3.22875977 77.65411133 2.66845703 76.98291016 C1.01475493 75.01753578 -0.66120853 73.07403483 -2.34765625 71.13671875 C-2.88648437 70.51635742 -3.4253125 69.89599609 -3.98046875 69.25683594 C-5.01079831 68.07195694 -6.04324669 66.88891599 -7.078125 65.70800781 C-9.74081621 62.6276753 -12.02831431 59.56496706 -14 56 C-13.22914062 55.90203125 -12.45828125 55.8040625 -11.6640625 55.703125 C-10.66117187 55.55359375 -9.65828125 55.4040625 -8.625 55.25 C-7.62726563 55.11078125 -6.62953125 54.9715625 -5.6015625 54.828125 C-2.91999277 54.27502991 -2.91999277 54.27502991 -1.85733032 52.26348877 C-0.88283735 49.69067191 -0.72279593 47.70453164 -0.68115234 44.95605469 C-0.66128265 43.95531921 -0.64141296 42.95458374 -0.62094116 41.92352295 C-0.60361435 40.31395721 -0.60361435 40.31395721 -0.5859375 38.671875 C-0.56657135 37.56773254 -0.5472052 36.46359009 -0.5272522 35.32598877 C-0.46749108 31.80073767 -0.42108436 28.27545385 -0.375 24.75 C-0.33681708 22.35936079 -0.29776517 19.96873529 -0.2578125 17.578125 C-0.16015744 11.71882149 -0.08055977 5.85966337 0 0 Z " fill="#FE3D3A" transform="translate(88,104)"/>
<path d="M0 0 C10.56 0 21.12 0 32 0 C32.04898438 3.56296875 32.09796875 7.1259375 32.1484375 10.796875 C32.20243842 14.24548565 32.25974948 17.69402649 32.31738281 21.14257812 C32.35567905 23.54031174 32.39053076 25.93810293 32.421875 28.3359375 C32.46751105 31.78145942 32.5255087 35.22658472 32.5859375 38.671875 C32.59748871 39.74491882 32.60903992 40.81796265 32.62094116 41.92352295 C32.64081085 42.92425842 32.66068054 43.9249939 32.68115234 44.95605469 C32.69447601 45.83541687 32.70779968 46.71477905 32.7215271 47.62078857 C33.02212195 50.18900513 33.62214075 51.82143675 35 54 C37.29629994 55.14814997 39.07698086 55.30769809 41.625 55.5625 C42.44226563 55.64628906 43.25953125 55.73007813 44.1015625 55.81640625 C45.04128906 55.90728516 45.04128906 55.90728516 46 56 C43.00314676 60.95132275 39.33646022 65.02340551 35.43359375 69.28515625 C32.21149832 72.87962868 29.18868578 76.61969051 26.15234375 80.37109375 C23.18823137 83.99150687 20.11260732 87.5070741 17 91 C12.71738753 89.42432183 10.3144362 86.16209461 7.5 82.75 C6.43913585 81.48539701 5.37792748 80.22108272 4.31640625 78.95703125 C3.77258301 78.30557129 3.22875977 77.65411133 2.66845703 76.98291016 C1.01475493 75.01753578 -0.66120853 73.07403483 -2.34765625 71.13671875 C-2.88648438 70.51635742 -3.4253125 69.89599609 -3.98046875 69.25683594 C-5.01079831 68.07195694 -6.04324669 66.88891599 -7.078125 65.70800781 C-9.74081621 62.6276753 -12.02831431 59.56496706 -14 56 C-13.22914063 55.90203125 -12.45828125 55.8040625 -11.6640625 55.703125 C-10.66117188 55.55359375 -9.65828125 55.4040625 -8.625 55.25 C-7.62726563 55.11078125 -6.62953125 54.9715625 -5.6015625 54.828125 C-2.91999277 54.27502991 -2.91999277 54.27502991 -1.85733032 52.26348877 C-0.88283735 49.69067191 -0.72279593 47.70453164 -0.68115234 44.95605469 C-0.66128265 43.95531921 -0.64141296 42.95458374 -0.62094116 41.92352295 C-0.60361435 40.31395721 -0.60361435 40.31395721 -0.5859375 38.671875 C-0.56657135 37.56773254 -0.5472052 36.46359009 -0.5272522 35.32598877 C-0.46749108 31.80073767 -0.42108436 28.27545385 -0.375 24.75 C-0.33681708 22.35936079 -0.29776517 19.96873529 -0.2578125 17.578125 C-0.16015744 11.71882149 -0.08055977 5.85966337 0 0 Z " fill="#FE3D3A" transform="translate(240,40)"/>
<path d="M0 0 C2.64 0 5.28 0 8 0 C8.00364563 0.65875122 8.00729126 1.31750244 8.01104736 1.99621582 C8.05297558 8.87511006 8.12239402 15.75334351 8.20751953 22.63183594 C8.23568181 25.19622171 8.25691981 27.76069353 8.27099609 30.32519531 C8.29249026 34.01932677 8.33917745 37.71242887 8.390625 41.40625 C8.39185364 42.5461438 8.39308228 43.6860376 8.39434814 44.86047363 C8.5373958 52.69901785 9.65422825 58.18196225 14.96484375 64.2421875 C20.54852935 68.86393123 24.74517427 70.98769873 32 72 C30.4563893 75.59345931 28.27381666 78.08188204 25.625 80.9375 C22.61050203 84.19900533 19.73973034 87.50340351 17 91 C12.71738753 89.42432183 10.3144362 86.16209461 7.5 82.75 C6.43913585 81.48539701 5.37792748 80.22108272 4.31640625 78.95703125 C3.77258301 78.30557129 3.22875977 77.65411133 2.66845703 76.98291016 C1.01475493 75.01753578 -0.66120853 73.07403483 -2.34765625 71.13671875 C-2.88648438 70.51635742 -3.4253125 69.89599609 -3.98046875 69.25683594 C-5.01079831 68.07195694 -6.04324669 66.88891599 -7.078125 65.70800781 C-9.74081621 62.6276753 -12.02831431 59.56496706 -14 56 C-13.22914063 55.90203125 -12.45828125 55.8040625 -11.6640625 55.703125 C-10.66117187 55.55359375 -9.65828125 55.4040625 -8.625 55.25 C-7.62726563 55.11078125 -6.62953125 54.9715625 -5.6015625 54.828125 C-2.91999277 54.27502991 -2.91999277 54.27502991 -1.85733032 52.26348877 C-0.88283735 49.69067191 -0.72279593 47.70453164 -0.68115234 44.95605469 C-0.66128265 43.95531921 -0.64141296 42.95458374 -0.62094116 41.92352295 C-0.60361435 40.31395721 -0.60361435 40.31395721 -0.5859375 38.671875 C-0.56657135 37.56773254 -0.5472052 36.46359009 -0.5272522 35.32598877 C-0.46749108 31.80073767 -0.42108436 28.27545385 -0.375 24.75 C-0.33681708 22.35936079 -0.29776517 19.96873529 -0.2578125 17.578125 C-0.16179233 11.71887174 -0.07673452 5.85953585 0 0 Z " fill="#D61D1D" transform="translate(392,104)"/>
<path d="M0 0 C2.64 0 5.28 0 8 0 C8.00364563 0.65875122 8.00729126 1.31750244 8.01104736 1.99621582 C8.05297558 8.87511006 8.12239402 15.75334351 8.20751953 22.63183594 C8.23568181 25.19622171 8.25691981 27.76069353 8.27099609 30.32519531 C8.29249026 34.01932677 8.33917745 37.71242887 8.390625 41.40625 C8.39185364 42.5461438 8.39308228 43.6860376 8.39434814 44.86047363 C8.5373958 52.69901785 9.65422825 58.18196225 14.96484375 64.2421875 C20.54852935 68.86393123 24.74517427 70.98769873 32 72 C30.4563893 75.59345931 28.27381666 78.08188204 25.625 80.9375 C22.61050203 84.19900533 19.73973034 87.50340351 17 91 C12.71738753 89.42432183 10.3144362 86.16209461 7.5 82.75 C6.43913585 81.48539701 5.37792748 80.22108272 4.31640625 78.95703125 C3.77258301 78.30557129 3.22875977 77.65411133 2.66845703 76.98291016 C1.01475493 75.01753578 -0.66120853 73.07403483 -2.34765625 71.13671875 C-2.88648437 70.51635742 -3.4253125 69.89599609 -3.98046875 69.25683594 C-5.01079831 68.07195694 -6.04324669 66.88891599 -7.078125 65.70800781 C-9.74081621 62.6276753 -12.02831431 59.56496706 -14 56 C-13.22914062 55.90203125 -12.45828125 55.8040625 -11.6640625 55.703125 C-10.66117187 55.55359375 -9.65828125 55.4040625 -8.625 55.25 C-7.62726563 55.11078125 -6.62953125 54.9715625 -5.6015625 54.828125 C-2.91999277 54.27502991 -2.91999277 54.27502991 -1.85733032 52.26348877 C-0.88283735 49.69067191 -0.72279593 47.70453164 -0.68115234 44.95605469 C-0.66128265 43.95531921 -0.64141296 42.95458374 -0.62094116 41.92352295 C-0.60361435 40.31395721 -0.60361435 40.31395721 -0.5859375 38.671875 C-0.56657135 37.56773254 -0.5472052 36.46359009 -0.5272522 35.32598877 C-0.46749108 31.80073767 -0.42108436 28.27545385 -0.375 24.75 C-0.33681708 22.35936079 -0.29776517 19.96873529 -0.2578125 17.578125 C-0.16179233 11.71887174 -0.07673452 5.85953585 0 0 Z " fill="#D61D1D" transform="translate(88,104)"/>
<path d="M0 0 C2.64 0 5.28 0 8 0 C8.00364563 0.65875122 8.00729126 1.31750244 8.01104736 1.99621582 C8.05297558 8.87511006 8.12239402 15.75334351 8.20751953 22.63183594 C8.23568181 25.19622171 8.25691981 27.76069353 8.27099609 30.32519531 C8.29249026 34.01932677 8.33917745 37.71242887 8.390625 41.40625 C8.39185364 42.5461438 8.39308228 43.6860376 8.39434814 44.86047363 C8.5373958 52.69901785 9.65422825 58.18196225 14.96484375 64.2421875 C20.54852935 68.86393123 24.74517427 70.98769873 32 72 C30.4563893 75.59345931 28.27381666 78.08188204 25.625 80.9375 C22.61050203 84.19900533 19.73973034 87.50340351 17 91 C12.71738753 89.42432183 10.3144362 86.16209461 7.5 82.75 C6.43913585 81.48539701 5.37792748 80.22108272 4.31640625 78.95703125 C3.77258301 78.30557129 3.22875977 77.65411133 2.66845703 76.98291016 C1.01475493 75.01753578 -0.66120853 73.07403483 -2.34765625 71.13671875 C-2.88648438 70.51635742 -3.4253125 69.89599609 -3.98046875 69.25683594 C-5.01079831 68.07195694 -6.04324669 66.88891599 -7.078125 65.70800781 C-9.74081621 62.6276753 -12.02831431 59.56496706 -14 56 C-13.22914063 55.90203125 -12.45828125 55.8040625 -11.6640625 55.703125 C-10.66117188 55.55359375 -9.65828125 55.4040625 -8.625 55.25 C-7.62726563 55.11078125 -6.62953125 54.9715625 -5.6015625 54.828125 C-2.91999277 54.27502991 -2.91999277 54.27502991 -1.85733032 52.26348877 C-0.88283735 49.69067191 -0.72279593 47.70453164 -0.68115234 44.95605469 C-0.66128265 43.95531921 -0.64141296 42.95458374 -0.62094116 41.92352295 C-0.60361435 40.31395721 -0.60361435 40.31395721 -0.5859375 38.671875 C-0.56657135 37.56773254 -0.5472052 36.46359009 -0.5272522 35.32598877 C-0.46749108 31.80073767 -0.42108436 28.27545385 -0.375 24.75 C-0.33681708 22.35936079 -0.29776517 19.96873529 -0.2578125 17.578125 C-0.16179233 11.71887174 -0.07673452 5.85953585 0 0 Z " fill="#D61D1D" transform="translate(240,40)"/>
<path d="M0 0 C4.42995484 3.15019011 8.15392011 6.83024961 9.29296875 12.3125 C9.46646935 17.20356452 8.60883642 20.89870658 5.8125 25 C1.87644039 28.96832239 -1.7491793 31.10891224 -7.375 31.4375 C-12.98971762 31.37338414 -16.34459041 28.92409782 -20.1875 25 C-23.52036219 20.31316254 -24.09177869 15.59648037 -23.1875 10 C-18.21529843 0.23975247 -10.29568976 -3.23002032 0 0 Z " fill="#000300" transform="translate(127.1875,337)"/>
<path d="M0 0 C4.3558171 2.22942897 6.9376595 4.89644465 8.94140625 9.3046875 C9.70784569 14.6065521 9.62095852 18.86717308 7.31640625 23.7421875 C2.83451504 28.57791222 -0.36488976 30.56542661 -6.99609375 30.9296875 C-12.24279381 30.76022886 -15.03741699 29.66883177 -18.75390625 26.0078125 C-22.74742423 20.79471717 -22.8000644 15.69060349 -22.05859375 9.3046875 C-17.76202004 0.21578157 -9.46936543 -3.19838149 0 0 Z " fill="#000100" transform="translate(388.05859375,352.6953125)"/>
<path d="M0 0 C3.875 0.9375 3.875 0.9375 5.8125 2.1875 C7.59092179 5.1166653 8.09687427 7.85256159 7.40942383 11.21411133 C7.13638428 11.9748999 6.86334473 12.73568848 6.58203125 13.51953125 C6.28103516 14.36966797 5.98003906 15.21980469 5.66992188 16.09570312 C5.18362305 17.40958008 5.18362305 17.40958008 4.6875 18.75 C4.38263672 19.61431641 4.07777344 20.47863281 3.76367188 21.36914062 C-1.11865234 34.93115234 -1.11865234 34.93115234 -5.125 38.9375 C-10.04246739 39.50179954 -12.04310765 39.70384041 -16.125 36.8125 C-18.51575301 33.37579255 -18.43124526 32.04074492 -18.125 27.9375 C-17.02730765 23.79145967 -15.45273536 19.82271085 -13.9375 15.8125 C-13.55013672 14.72839844 -13.16277344 13.64429688 -12.76367188 12.52734375 C-12.37373047 11.48449219 -11.98378906 10.44164062 -11.58203125 9.3671875 C-11.0557312 7.94768799 -11.0557312 7.94768799 -10.51879883 6.49951172 C-8.19854761 2.23454127 -5.03916533 -0.85962232 0 0 Z " fill="#000000" transform="translate(321.125,187.0625)"/>
<path d="M0 0 C4.53552245 3.50948804 5.77255751 9.63574159 7.6875 14.8125 C8.10322266 15.89337891 8.51894531 16.97425781 8.94726562 18.08789062 C9.33978516 19.13783203 9.73230469 20.18777344 10.13671875 21.26953125 C10.67365356 22.70196167 10.67365356 22.70196167 11.22143555 24.16333008 C12.07711695 27.28097266 12.2754097 29.78168866 12 33 C10.00028288 35.87459336 8.51060972 37.62907801 5.02734375 38.484375 C2.9375 38.625 2.9375 38.625 -1 38 C-5.43147977 33.78660486 -7.12153301 28.17123215 -9.1875 22.5625 C-9.54263672 21.63373047 -9.89777344 20.70496094 -10.26367188 19.74804688 C-14.760137 7.76031727 -14.760137 7.76031727 -12.8125 3.25 C-8.96654724 -1.52428619 -5.8722669 -1.38799036 0 0 Z " fill="#000000" transform="translate(197,188)"/>
<path d="M0 0 C0.66 -0.0103125 1.32 -0.020625 2 -0.03125 C4.98156897 0.76072926 6.09610121 2.08553675 8 4.5 C8.51757812 7.828125 8.51757812 7.828125 8.53125 11.75 C8.5350769 12.44512695 8.53890381 13.14025391 8.54284668 13.85644531 C8.5455618 15.32228041 8.53822835 16.78816428 8.52148438 18.25390625 C8.50006419 20.49328975 8.52129443 22.72946587 8.546875 24.96875 C8.54423165 26.39584039 8.5391065 27.82292879 8.53125 29.25 C8.52673828 30.54421875 8.52222656 31.8384375 8.51757812 33.171875 C7.92081106 37.00919979 7.05716949 38.19070951 4 40.5 C2 41.03125 2 41.03125 0 41 C-0.99 41.01546875 -0.99 41.01546875 -2 41.03125 C-4.98156897 40.23927074 -6.09610121 38.91446325 -8 36.5 C-8.51757812 33.171875 -8.51757812 33.171875 -8.53125 29.25 C-8.5350769 28.55487305 -8.53890381 27.85974609 -8.54284668 27.14355469 C-8.5455618 25.67771959 -8.53822835 24.21183572 -8.52148438 22.74609375 C-8.50006419 20.50671025 -8.52129443 18.27053413 -8.546875 16.03125 C-8.54423165 14.60415961 -8.5391065 13.17707121 -8.53125 11.75 C-8.52673828 10.45578125 -8.52222656 9.1615625 -8.51757812 7.828125 C-7.7418101 2.83979026 -5.19836111 -0.08122439 0 0 Z " fill="#000000" transform="translate(256,175.5)"/>
</svg>
