<?xml version="1.0" encoding="UTF-8"?>
<svg version="1.1" xmlns="http://www.w3.org/2000/svg" width="512" height="512">
<path d="M0 0 C1.37374955 -0.00373937 2.74749697 -0.00834204 4.12124103 -0.01373065 C7.88654718 -0.02594113 11.65176435 -0.02570248 15.41708577 -0.02334189 C19.48204036 -0.02293322 23.54696662 -0.03397787 27.61190796 -0.04345703 C35.57330622 -0.06005851 43.53467486 -0.06556624 51.49608899 -0.06668179 C57.97082566 -0.06763289 64.44555259 -0.07174633 70.92028618 -0.07808304 C89.2907493 -0.09569499 107.66118906 -0.10492226 126.03166068 -0.10342209 C127.02168126 -0.10334218 128.01170183 -0.10326227 129.03172302 -0.10317993 C130.51857474 -0.10305729 130.51857474 -0.10305729 132.03546386 -0.10293217 C148.08845301 -0.10211982 164.14134821 -0.12124475 180.1943102 -0.14945666 C196.69052712 -0.17821791 213.18669828 -0.1919951 229.6829409 -0.19026911 C238.93893173 -0.18960621 248.19482412 -0.19505423 257.45079231 -0.21662521 C265.33416449 -0.23487994 273.21739365 -0.23914941 281.10077787 -0.22560637 C285.11876474 -0.21909761 289.13647759 -0.21888307 293.15443802 -0.23631287 C296.84171733 -0.25214273 300.52850762 -0.24908031 304.21577572 -0.2317446 C306.16258885 -0.22726591 308.10941775 -0.24225408 310.05617052 -0.25822389 C328.24691197 -0.11727247 341.93553472 6.48154534 354.57249451 19.26742554 C365.91986471 31.65239574 370.04697658 46.89565547 369.97654724 63.40731812 C369.98684212 65.12944771 369.98684212 65.12944771 369.99734497 66.8863678 C370.01550047 70.64502678 370.0117909 74.40326378 370.00608826 78.16195679 C370.01065586 80.79930251 370.01596315 83.43664704 370.02197266 86.07398987 C370.03196372 91.58878543 370.02874311 97.10346344 370.01853943 102.61825562 C370.00707391 108.95425481 370.0211215 115.28982992 370.0479359 121.62577325 C370.07293447 127.7671278 370.07524176 133.90828961 370.06881905 140.04968834 C370.06866665 142.64138176 370.07464303 145.23308365 370.08711052 147.82474709 C370.17822756 169.8707813 368.82840721 188.20025428 352.92405701 204.98226929 C339.56092312 217.96803892 325.07379152 222.74302772 306.6505127 222.65510559 C305.27188368 222.65928653 303.89325812 222.66476819 302.51463884 222.6714254 C298.75446377 222.68579903 294.9945094 222.68166084 291.23432267 222.67425859 C287.16810658 222.6695091 283.10193703 222.6820524 279.03573608 222.692276 C271.08088747 222.70943416 263.12611796 222.71031028 255.17125566 222.7050631 C248.70326791 222.70101485 242.23530346 222.70247272 235.76731682 222.70781136 C234.38429343 222.70893399 234.38429343 222.70893399 232.97333018 222.7100793 C231.10001783 222.71161084 229.22670547 222.71314919 227.35339313 222.71469427 C209.80330315 222.72840834 192.25325781 222.72298915 174.70316886 222.71150906 C158.66201193 222.70157629 142.62097034 222.71452004 126.57983119 222.73844325 C110.09027206 222.7628491 93.60076661 222.77243856 77.11118978 222.76579052 C67.86091757 222.7623018 58.61073406 222.7645075 49.36047554 222.78204155 C41.48665087 222.79678204 33.61297737 222.79737478 25.7391556 222.77997064 C21.72544471 222.77147374 17.71200367 222.76927883 13.69830704 222.78462219 C10.01745071 222.79851853 6.33709416 222.79364351 2.65626638 222.77438296 C0.70817231 222.7688761 -1.23994752 222.78285305 -3.18799251 222.79773706 C-20.30372547 222.65545006 -32.32155771 215.74492248 -44.42750549 204.26742554 C-45.60838008 203.17474625 -46.79076405 202.08369668 -47.97438049 200.99398804 C-54.5780272 194.8985761 -61.05117789 188.70564968 -67.36500549 182.31063843 C-69.9282182 179.72615244 -72.52625579 177.24607486 -75.30250549 174.89242554 C-79.89264335 170.9936892 -84.05343846 166.67213779 -88.28102112 162.38998413 C-91.35501864 159.29028706 -94.44003451 156.30840936 -97.80250549 153.51742554 C-107.60070337 145.12496483 -115.45451727 132.93915176 -116.6486969 119.84140015 C-117.44264925 101.51799336 -114.61344957 87.46636223 -102.30250549 73.32992554 C-98.43001827 69.17202887 -94.31367241 65.31673231 -90.09010315 61.52255249 C-86.3288499 58.13599488 -82.73082441 54.6208467 -79.17750549 51.01742554 C-76.08170164 47.8817932 -72.98403493 44.80004543 -69.61500549 41.95492554 C-65.49043522 38.45293191 -61.73203563 34.60857781 -57.92750549 30.76742554 C-53.48736368 26.28875873 -49.07349607 21.85280846 -44.22828674 17.80648804 C-42.91271637 16.68211769 -41.64477128 15.50134524 -40.40797424 14.29086304 C-28.79671159 3.11894546 -15.57453355 -0.03799314 0 0 Z " fill="#E81D62" transform="translate(136.42750549316406,283.7325744628906)"/>
<path d="M0 0 C1.37532529 -0.00374052 2.75064845 -0.00834364 4.12596828 -0.01373065 C7.89094573 -0.02592656 11.65583411 -0.02570421 15.42082679 -0.02334189 C19.48710799 -0.02293286 23.55336095 -0.03398119 27.61962891 -0.04345703 C35.58122296 -0.06004965 43.54278739 -0.0655658 51.5043973 -0.06668179 C57.97864191 -0.06763315 64.45287677 -0.07174788 70.9271183 -0.07808304 C89.29673893 -0.09569126 107.66633622 -0.10492265 126.03596535 -0.10342209 C127.02568324 -0.10334218 128.01540113 -0.10326227 129.03511047 -0.10317993 C130.02604176 -0.10309817 131.01697305 -0.10301641 132.03793255 -0.10293217 C148.09153367 -0.10211955 164.14504089 -0.12125232 180.19861486 -0.14945666 C196.69598862 -0.17821118 213.19331664 -0.19199552 229.69071609 -0.19026911 C238.94721907 -0.18960606 248.20362363 -0.1950609 257.46010399 -0.21662521 C265.34238259 -0.23487089 273.22451818 -0.23915665 281.1068088 -0.22560637 C285.12467873 -0.21909356 289.14227456 -0.218898 293.1601181 -0.23631287 C296.8460718 -0.25212415 300.53153591 -0.24909891 304.21747825 -0.2317446 C306.16597709 -0.22725829 308.11449161 -0.24226864 310.06293029 -0.25822389 C334.38222567 -0.06937033 348.94578455 14.61691998 364.94160461 30.79476929 C366.99155148 32.81913179 369.06191521 34.71953877 371.25801086 36.57992554 C375.82155181 40.46599237 379.98136942 44.7502993 384.17134094 49.03036499 C387.7790066 52.69154615 391.5183938 56.11566586 395.40596008 59.47689819 C409.71995046 72.04319044 421.68804136 84.72325574 424.44551086 104.26742554 C425.4409913 120.0802494 422.17794027 134.92303798 411.50801086 147.07992554 C409.8395987 148.82751658 408.14913827 150.55414585 406.44551086 152.26742554 C405.23444208 153.50427617 404.02351477 154.74126534 402.81269836 155.97836304 C397.24268801 161.63363578 391.67171831 167.21690066 385.59785461 172.33383179 C381.76669681 175.77561602 378.20194059 179.49260388 374.58027649 183.15219116 C371.02591376 186.72946064 367.40890982 190.12730833 363.54707336 193.37289429 C361.22920469 195.46242274 359.08846602 197.67788343 356.92353821 199.92367554 C346.33102979 210.85467221 333.64087802 221.64886869 317.69785929 222.3962267 C316.18935852 222.39890956 316.18935852 222.39890956 314.650383 222.40164661 C313.48499072 222.40610446 312.31959844 222.4105623 311.11889124 222.41515523 C309.84274627 222.41497087 308.56660131 222.41478651 307.25178528 222.41459656 C305.87905063 222.41789746 304.50631695 222.4216235 303.1335845 222.42573804 C299.36185209 222.43574057 295.59013559 222.43947202 291.8183918 222.44212735 C287.75001985 222.44603562 283.68166044 222.45561363 279.61329651 222.46434021 C269.78801947 222.48409045 259.96274143 222.49416927 250.1374495 222.503068 C245.50781071 222.5074535 240.87817305 222.51281965 236.24853516 222.51805687 C220.85363757 222.53506815 205.45874069 222.54956143 190.06383514 222.55680561 C186.06996662 222.55871543 182.07609811 222.56063577 178.08222961 222.56259155 C176.59328793 222.56331716 176.59328793 222.56331716 175.07426661 222.56405743 C159.00107987 222.57235442 142.92796762 222.59768619 126.8548134 222.63017223 C110.34397965 222.66327014 93.83318373 222.68125686 77.32231665 222.68444985 C68.05570194 222.68661248 58.78919585 222.69532485 49.52261353 222.72091103 C41.62929037 222.74265541 33.73610223 222.75065011 25.84275252 222.74094424 C21.81882219 222.73641027 17.79517023 222.73823276 13.77127838 222.75770569 C10.07966264 222.7754155 6.38852671 222.77427716 2.69690531 222.7588084 C0.74527427 222.75533329 -1.20636228 222.77140011 -3.15792227 222.78841287 C-19.37965552 222.67107129 -33.50572944 216.82987926 -45.26933289 205.68148804 C-57.10603092 193.17707883 -61.85859103 178.90802275 -61.84501648 161.99911499 C-61.8517337 160.78987869 -61.85845093 159.5806424 -61.8653717 158.33476257 C-61.88105238 155.03690833 -61.88772317 151.73920573 -61.88900328 148.44131875 C-61.8904312 146.37409355 -61.89471294 144.30689425 -61.89999771 142.23967552 C-61.91846945 135.00810462 -61.92667224 127.77660714 -61.9250946 120.54501343 C-61.92389515 113.8364507 -61.94496611 107.12821069 -61.97658193 100.41972953 C-62.00286226 94.63425974 -62.01345696 88.84889455 -62.01218379 83.06336564 C-62.01167743 79.6194882 -62.01717675 76.17589769 -62.03853989 72.73208046 C-62.05827675 68.88202269 -62.05233026 65.03278147 -62.04032898 61.18270874 C-62.05156799 60.06382263 -62.06280701 58.94493652 -62.0743866 57.79214478 C-61.95002807 41.98241456 -55.79117529 27.97244053 -44.96855164 16.55258179 C-31.97510042 4.25295564 -17.48584618 -0.04273075 0 0 Z " fill="#8AC249" transform="translate(67.55448913574219,5.732574462890625)"/>
<path d="M0 0 C1.37374955 -0.00373937 2.74749697 -0.00834204 4.12124103 -0.01373065 C7.88654718 -0.02594113 11.65176435 -0.02570248 15.41708577 -0.02334189 C19.48204036 -0.02293322 23.54696662 -0.03397787 27.61190796 -0.04345703 C35.57330622 -0.06005851 43.53467486 -0.06556624 51.49608899 -0.06668179 C57.97082566 -0.06763289 64.44555259 -0.07174633 70.92028618 -0.07808304 C89.2907493 -0.09569499 107.66118906 -0.10492226 126.03166068 -0.10342209 C127.02168126 -0.10334218 128.01170183 -0.10326227 129.03172302 -0.10317993 C130.51857474 -0.10305729 130.51857474 -0.10305729 132.03546386 -0.10293217 C148.08845301 -0.10211982 164.14134821 -0.12124475 180.1943102 -0.14945666 C196.69052712 -0.17821791 213.18669828 -0.1919951 229.6829409 -0.19026911 C238.93893173 -0.18960621 248.19482412 -0.19505423 257.45079231 -0.21662521 C265.33416449 -0.23487994 273.21739365 -0.23914941 281.10077787 -0.22560637 C285.11876474 -0.21909761 289.13647759 -0.21888307 293.15443802 -0.23631287 C296.84171733 -0.25214273 300.52850762 -0.24908031 304.21577572 -0.2317446 C306.16258885 -0.22726591 308.10941775 -0.24225408 310.05617052 -0.25822389 C328.24691197 -0.11727247 341.93553472 6.48154534 354.57249451 19.26742554 C365.91986471 31.65239574 370.04697658 46.89565547 369.97654724 63.40731812 C369.98684212 65.12944771 369.98684212 65.12944771 369.99734497 66.8863678 C370.01550047 70.64502678 370.0117909 74.40326378 370.00608826 78.16195679 C370.01065586 80.79930251 370.01596315 83.43664704 370.02197266 86.07398987 C370.03196372 91.58878543 370.02874311 97.10346344 370.01853943 102.61825562 C370.00707391 108.95425481 370.0211215 115.28982992 370.0479359 121.62577325 C370.07293447 127.7671278 370.07524176 133.90828961 370.06881905 140.04968834 C370.06866665 142.64138176 370.07464303 145.23308365 370.08711052 147.82474709 C370.17822756 169.8707813 368.82840721 188.20025428 352.92405701 204.98226929 C339.56092312 217.96803892 325.07379152 222.74302772 306.6505127 222.65510559 C305.27188368 222.65928653 303.89325812 222.66476819 302.51463884 222.6714254 C298.75446377 222.68579903 294.9945094 222.68166084 291.23432267 222.67425859 C287.16810658 222.6695091 283.10193703 222.6820524 279.03573608 222.692276 C271.08088747 222.70943416 263.12611796 222.71031028 255.17125566 222.7050631 C248.70326791 222.70101485 242.23530346 222.70247272 235.76731682 222.70781136 C234.38429343 222.70893399 234.38429343 222.70893399 232.97333018 222.7100793 C231.10001783 222.71161084 229.22670547 222.71314919 227.35339313 222.71469427 C209.80330315 222.72840834 192.25325781 222.72298915 174.70316886 222.71150906 C158.66201193 222.70157629 142.62097034 222.71452004 126.57983119 222.73844325 C110.09027206 222.7628491 93.60076661 222.77243856 77.11118978 222.76579052 C67.86091757 222.7623018 58.61073406 222.7645075 49.36047554 222.78204155 C41.48665087 222.79678204 33.61297737 222.79737478 25.7391556 222.77997064 C21.72544471 222.77147374 17.71200367 222.76927883 13.69830704 222.78462219 C10.01745071 222.79851853 6.33709416 222.79364351 2.65626638 222.77438296 C0.70817231 222.7688761 -1.23994752 222.78285305 -3.18799251 222.79773706 C-20.30372547 222.65545006 -32.32155771 215.74492248 -44.42750549 204.26742554 C-45.60838008 203.17474625 -46.79076405 202.08369668 -47.97438049 200.99398804 C-54.5780272 194.8985761 -61.05117789 188.70564968 -67.36500549 182.31063843 C-69.9282182 179.72615244 -72.52625579 177.24607486 -75.30250549 174.89242554 C-79.89264335 170.9936892 -84.05343846 166.67213779 -88.28102112 162.38998413 C-91.35501864 159.29028706 -94.44003451 156.30840936 -97.80250549 153.51742554 C-107.60070337 145.12496483 -115.45451727 132.93915176 -116.6486969 119.84140015 C-117.44264925 101.51799336 -114.61344957 87.46636223 -102.30250549 73.32992554 C-98.43001827 69.17202887 -94.31367241 65.31673231 -90.09010315 61.52255249 C-86.3288499 58.13599488 -82.73082441 54.6208467 -79.17750549 51.01742554 C-76.08170164 47.8817932 -72.98403493 44.80004543 -69.61500549 41.95492554 C-65.49043522 38.45293191 -61.73203563 34.60857781 -57.92750549 30.76742554 C-53.48736368 26.28875873 -49.07349607 21.85280846 -44.22828674 17.80648804 C-42.91271637 16.68211769 -41.64477128 15.50134524 -40.40797424 14.29086304 C-28.79671159 3.11894546 -15.57453355 -0.03799314 0 0 Z M-36.29859924 28.06430054 C-38.16459225 29.99534651 -40.06223326 31.72902786 -42.11500549 33.45492554 C-46.09309966 36.85902616 -49.74750139 40.54869983 -53.42750549 44.26742554 C-57.57257677 48.45588367 -61.73666924 52.49413284 -66.24000549 56.29867554 C-70.07619596 59.75124696 -73.65218933 63.47127838 -77.27931213 67.14096069 C-80.38206686 70.26675464 -83.49973879 73.29539679 -86.86500549 76.14242554 C-95.02344908 83.15277259 -102.55284859 92.33543754 -104.42750549 103.26742554 C-105.24014722 117.38471328 -103.02504701 129.11775912 -93.55250549 140.01742554 C-88.3441273 145.54698706 -82.7351349 150.65567363 -77.15016174 155.79867554 C-73.84377244 158.85566958 -70.65425884 162.00106402 -67.49000549 165.20492554 C-64.61307588 168.11560212 -61.73584279 170.93313947 -58.61500549 173.57992554 C-54.67346026 176.93633415 -51.06636886 180.59080669 -47.42750549 184.26742554 C-43.12404294 188.61118693 -38.82550653 192.8865618 -34.13844299 196.82211304 C-32.98891493 197.79317555 -31.86861691 198.79982651 -30.77906799 199.83773804 C-23.24487622 206.87672472 -13.98779979 210.38303556 -3.73890591 210.40164661 C-2.5972807 210.40610446 -1.45565549 210.4105623 -0.27943558 210.41515523 C1.5949501 210.41487869 1.5949501 210.41487869 3.50720215 210.41459656 C4.85177591 210.41789756 6.19634868 210.42162363 7.5409202 210.42573804 C11.23477224 210.43573927 14.92860803 210.4394718 18.62247169 210.44212735 C22.60697929 210.44603597 26.5914741 210.45561392 30.57597351 210.46434021 C40.1980546 210.48408878 49.82013671 210.49416876 59.442233 210.503068 C63.97586759 210.5074535 68.50950102 210.51281963 73.04313469 210.51805687 C88.11806146 210.53506749 103.19298751 210.54956108 118.2679224 210.55680561 C122.17860986 210.55871544 126.08929731 210.56063578 129.99998474 210.56259155 C130.97194054 210.56307529 131.94389634 210.56355903 132.94530534 210.56405743 C148.68614228 210.57235563 164.42690317 210.59768975 180.16770691 210.63017223 C196.3361421 210.66326458 212.50453868 210.68125634 228.67300791 210.68444985 C237.74788437 210.68661292 246.82264994 210.69533187 255.89749336 210.72091103 C263.62688772 210.74264775 271.35614424 210.75065384 279.08556569 210.74094424 C283.0263384 210.73640814 286.96682687 210.73824524 290.90756035 210.75770569 C294.52202628 210.77540009 298.13600195 210.77428953 301.75047355 210.7588084 C303.66307824 210.75532886 305.57568846 210.77141169 307.48822075 210.78841287 C321.35681442 210.68581176 333.6557799 206.06797563 343.82249451 196.51742554 C353.64061585 186.10426653 357.03348281 175.07454767 356.97654724 161.03744507 C356.98341049 159.8443573 356.99027374 158.65126953 356.99734497 157.42202759 C357.01243092 154.17387724 357.01412872 150.92609004 357.00840259 147.67791986 C357.00529424 144.95456593 357.01142147 142.23126297 357.01744133 139.50791633 C357.03144956 133.07663469 357.02995678 126.64548598 357.01853943 120.21420288 C357.00706653 113.60610358 357.02112805 106.99841055 357.0479359 100.39036477 C357.07017601 94.69236515 357.07671155 88.99449229 357.07085949 83.2964524 C357.06750788 79.90409029 357.06978366 76.51198835 357.08711052 73.11966324 C357.10206628 69.33153741 357.09130793 65.54429419 357.07420349 61.75619507 C357.08387146 60.65039093 357.09353943 59.54458679 357.10350037 58.40527344 C356.99818297 47.20895042 353.47407718 38.04831242 346.57249451 29.26742554 C346.04397888 28.58937866 345.51546326 27.91133179 344.97093201 27.21273804 C338.28566369 19.64395408 327.53957037 13.95433252 317.57249451 12.26742554 C315.67603551 12.17797088 313.77687436 12.13839786 311.8783083 12.13599777 C310.73544969 12.13215663 309.59259108 12.12831548 308.4151004 12.12435794 C307.16414571 12.12522442 305.91319102 12.1260909 304.62432861 12.12698364 C303.27832968 12.12439887 301.93233151 12.12138539 300.58633441 12.11798024 C296.88861879 12.10992018 293.19092259 12.10812122 289.49319923 12.10738277 C285.50464157 12.10553049 281.51609396 12.09798226 277.52754211 12.09124756 C268.8063719 12.07767071 260.08520629 12.07164051 251.36402726 12.0672369 C245.91734294 12.06447335 240.4706604 12.06023578 235.02397728 12.05573273 C219.94046674 12.04354084 204.85695763 12.03324141 189.77344227 12.02985764 C188.32561579 12.02952829 188.32561579 12.02952829 186.84854029 12.02919228 C185.88102739 12.02897401 184.91351449 12.02875573 183.91668302 12.02853084 C181.95616901 12.02808737 179.995655 12.02764081 178.03514099 12.02719116 C176.57642036 12.02685902 176.57642036 12.02685902 175.08823063 12.02652016 C159.33312454 12.02257276 143.57806472 12.00512012 127.82297651 11.98183164 C111.64325053 11.95810874 95.46354777 11.94565535 79.28380412 11.94448972 C70.20118896 11.94357348 61.11863408 11.93783403 52.03603554 11.9196701 C44.30147505 11.90425646 36.56699349 11.89915611 28.83242057 11.90740821 C24.88789345 11.91131025 20.9435252 11.91040699 16.99901772 11.89635086 C13.38349168 11.88358516 9.76824347 11.88483264 6.15271767 11.89694157 C4.23466919 11.8998144 2.31661578 11.88798302 0.39860564 11.87551951 C-14.89975343 11.96273643 -25.77599099 17.01098682 -36.29859924 28.06430054 Z " fill="#010000" transform="translate(136.42750549316406,283.7325744628906)"/>
<path d="M0 0 C1.37532529 -0.00374052 2.75064845 -0.00834364 4.12596828 -0.01373065 C7.89094573 -0.02592656 11.65583411 -0.02570421 15.42082679 -0.02334189 C19.48710799 -0.02293286 23.55336095 -0.03398119 27.61962891 -0.04345703 C35.58122296 -0.06004965 43.54278739 -0.0655658 51.5043973 -0.06668179 C57.97864191 -0.06763315 64.45287677 -0.07174788 70.9271183 -0.07808304 C89.29673893 -0.09569126 107.66633622 -0.10492265 126.03596535 -0.10342209 C127.02568324 -0.10334218 128.01540113 -0.10326227 129.03511047 -0.10317993 C130.02604176 -0.10309817 131.01697305 -0.10301641 132.03793255 -0.10293217 C148.09153367 -0.10211955 164.14504089 -0.12125232 180.19861486 -0.14945666 C196.69598862 -0.17821118 213.19331664 -0.19199552 229.69071609 -0.19026911 C238.94721907 -0.18960606 248.20362363 -0.1950609 257.46010399 -0.21662521 C265.34238259 -0.23487089 273.22451818 -0.23915665 281.1068088 -0.22560637 C285.12467873 -0.21909356 289.14227456 -0.218898 293.1601181 -0.23631287 C296.8460718 -0.25212415 300.53153591 -0.24909891 304.21747825 -0.2317446 C306.16597709 -0.22725829 308.11449161 -0.24226864 310.06293029 -0.25822389 C334.38222567 -0.06937033 348.94578455 14.61691998 364.94160461 30.79476929 C366.99155148 32.81913179 369.06191521 34.71953877 371.25801086 36.57992554 C375.82155181 40.46599237 379.98136942 44.7502993 384.17134094 49.03036499 C387.7790066 52.69154615 391.5183938 56.11566586 395.40596008 59.47689819 C409.71995046 72.04319044 421.68804136 84.72325574 424.44551086 104.26742554 C425.4409913 120.0802494 422.17794027 134.92303798 411.50801086 147.07992554 C409.8395987 148.82751658 408.14913827 150.55414585 406.44551086 152.26742554 C405.23444208 153.50427617 404.02351477 154.74126534 402.81269836 155.97836304 C397.24268801 161.63363578 391.67171831 167.21690066 385.59785461 172.33383179 C381.76669681 175.77561602 378.20194059 179.49260388 374.58027649 183.15219116 C371.02591376 186.72946064 367.40890982 190.12730833 363.54707336 193.37289429 C361.22920469 195.46242274 359.08846602 197.67788343 356.92353821 199.92367554 C346.33102979 210.85467221 333.64087802 221.64886869 317.69785929 222.3962267 C316.18935852 222.39890956 316.18935852 222.39890956 314.650383 222.40164661 C313.48499072 222.40610446 312.31959844 222.4105623 311.11889124 222.41515523 C309.84274627 222.41497087 308.56660131 222.41478651 307.25178528 222.41459656 C305.87905063 222.41789746 304.50631695 222.4216235 303.1335845 222.42573804 C299.36185209 222.43574057 295.59013559 222.43947202 291.8183918 222.44212735 C287.75001985 222.44603562 283.68166044 222.45561363 279.61329651 222.46434021 C269.78801947 222.48409045 259.96274143 222.49416927 250.1374495 222.503068 C245.50781071 222.5074535 240.87817305 222.51281965 236.24853516 222.51805687 C220.85363757 222.53506815 205.45874069 222.54956143 190.06383514 222.55680561 C186.06996662 222.55871543 182.07609811 222.56063577 178.08222961 222.56259155 C176.59328793 222.56331716 176.59328793 222.56331716 175.07426661 222.56405743 C159.00107987 222.57235442 142.92796762 222.59768619 126.8548134 222.63017223 C110.34397965 222.66327014 93.83318373 222.68125686 77.32231665 222.68444985 C68.05570194 222.68661248 58.78919585 222.69532485 49.52261353 222.72091103 C41.62929037 222.74265541 33.73610223 222.75065011 25.84275252 222.74094424 C21.81882219 222.73641027 17.79517023 222.73823276 13.77127838 222.75770569 C10.07966264 222.7754155 6.38852671 222.77427716 2.69690531 222.7588084 C0.74527427 222.75533329 -1.20636228 222.77140011 -3.15792227 222.78841287 C-19.37965552 222.67107129 -33.50572944 216.82987926 -45.26933289 205.68148804 C-57.10603092 193.17707883 -61.85859103 178.90802275 -61.84501648 161.99911499 C-61.8517337 160.78987869 -61.85845093 159.5806424 -61.8653717 158.33476257 C-61.88105238 155.03690833 -61.88772317 151.73920573 -61.88900328 148.44131875 C-61.8904312 146.37409355 -61.89471294 144.30689425 -61.89999771 142.23967552 C-61.91846945 135.00810462 -61.92667224 127.77660714 -61.9250946 120.54501343 C-61.92389515 113.8364507 -61.94496611 107.12821069 -61.97658193 100.41972953 C-62.00286226 94.63425974 -62.01345696 88.84889455 -62.01218379 83.06336564 C-62.01167743 79.6194882 -62.01717675 76.17589769 -62.03853989 72.73208046 C-62.05827675 68.88202269 -62.05233026 65.03278147 -62.04032898 61.18270874 C-62.05156799 60.06382263 -62.06280701 58.94493652 -62.0743866 57.79214478 C-61.95002807 41.98241456 -55.79117529 27.97244053 -44.96855164 16.55258179 C-31.97510042 4.25295564 -17.48584618 -0.04273075 0 0 Z M-39.76933289 29.74398804 C-47.3430117 40.44988851 -49.85987815 50.76941734 -49.82914734 63.63363647 C-49.83425827 64.74694336 -49.8393692 65.86025024 -49.84463501 67.0072937 C-49.85848634 70.67218466 -49.85757726 74.33688657 -49.85527039 78.00180054 C-49.85916033 80.56236846 -49.86349562 83.12293574 -49.86825562 85.6835022 C-49.87570869 91.04646157 -49.87557287 96.40935225 -49.87016296 101.77230835 C-49.86413273 107.94348217 -49.8764163 114.11442743 -49.89773303 120.28556228 C-49.91757666 126.25281784 -49.92051032 132.22000359 -49.91699791 138.18729401 C-49.91750912 140.71168809 -49.92270911 143.23608597 -49.93280983 145.7604599 C-49.9452388 149.30169418 -49.93834304 152.84240959 -49.92680359 156.38363647 C-49.93444733 157.41261047 -49.94209106 158.44158447 -49.94996643 159.5017395 C-49.8442482 174.28680903 -45.36025251 187.15606069 -35.13652039 197.93930054 C-23.70225863 208.24916439 -10.88009018 210.72823794 4.05705261 210.65510559 C5.40197064 210.6592869 6.74688513 210.66476876 8.09179318 210.6714254 C11.75882685 210.68579441 15.42563413 210.68166231 19.09267974 210.67425859 C23.05871001 210.66950789 27.02469264 210.68205352 30.9907074 210.692276 C38.74937381 210.70943227 46.50795912 210.71031061 54.26663958 210.7050631 C60.57586605 210.7010142 66.88506864 210.70247349 73.19429398 210.70781136 C74.09381795 210.70855978 74.99334193 210.7093082 75.92012421 210.7100793 C77.74777484 210.71161085 79.57542545 210.7131492 81.40307607 210.71469427 C98.52494681 210.72840786 115.6467718 210.72298967 132.76864149 210.71150906 C148.41466587 210.70157814 164.06057198 210.71451694 179.70657812 210.73844325 C195.79272796 210.76285629 211.87882275 210.77243668 227.96499074 210.76579052 C236.98781787 210.76230317 246.01055408 210.76449834 255.03336716 210.78204155 C262.7142941 210.79679114 270.39506607 210.79736305 278.07599007 210.77997064 C281.99058917 210.77148084 285.90491175 210.7692612 289.81949615 210.78462219 C293.41097181 210.79854018 297.0019359 210.79361621 300.59338249 210.77438296 C302.49103017 210.76888859 304.38870437 210.78283497 306.28630149 210.79773706 C324.83360804 210.64009376 336.08728264 202.85368982 348.63301086 190.20492554 C349.93928561 188.8601504 351.24528124 187.51510406 352.55097961 186.16976929 C355.7268222 182.92514743 359.06073587 179.94337869 362.50141907 176.98446655 C365.6284249 174.22266422 368.53017514 171.24932143 371.44551086 168.26742554 C374.96185109 164.67080357 378.50158611 161.17108894 382.30879211 157.88070679 C386.91246194 153.90062395 391.29072697 149.71713378 395.63301086 145.45492554 C396.41353821 144.71178101 397.19406555 143.96863647 397.99824524 143.20297241 C403.23401053 138.04714247 406.64510386 133.05848567 409.44551086 126.26742554 C409.86961243 125.25937866 410.29371399 124.25133179 410.73066711 123.21273804 C413.17106604 113.15776103 412.7276033 101.14411041 408.09004211 91.86898804 C405.48039959 87.74066994 402.48042639 84.26834805 399.01826477 80.82992554 C397.11620084 78.94026252 395.24104085 77.02518179 393.36347961 75.11117554 C387.19248786 68.85841747 381.02324866 62.70984351 374.36763 56.97128296 C371.25209083 54.20952151 368.35676702 51.24128049 365.44551086 48.26742554 C361.23742915 44.01034142 357.00709026 39.89524827 352.42597961 36.03695679 C350.35290375 34.18468191 348.4210673 32.2217668 346.48750305 30.22543335 C336.34287193 19.78716025 325.92436707 12.38462132 310.89836979 11.76406097 C308.49092781 11.74231796 306.0832274 11.74200516 303.67575073 11.75949097 C302.32584254 11.75487126 300.9759394 11.74851121 299.6260466 11.74058199 C295.94980252 11.7240118 292.2739782 11.73207819 288.59773338 11.74452686 C284.62012563 11.7536261 280.64258702 11.73958356 276.66499329 11.72860718 C268.88571535 11.71086859 261.10659224 11.71464122 253.32730836 11.72625774 C247.00141554 11.73531085 240.67556595 11.73650796 234.3496685 11.73216248 C233.44750465 11.73154954 232.54534081 11.73093661 231.61583866 11.73030511 C229.78279256 11.72902613 227.94974648 11.72772928 226.1167004 11.72641474 C208.94854902 11.71502242 191.78048321 11.72810112 174.61234587 11.74961621 C159.90035996 11.76748292 145.18850034 11.76438398 130.47651672 11.74594116 C113.36912123 11.72450534 96.26180067 11.71612413 79.15439361 11.72839022 C77.32798542 11.72966434 75.50157721 11.73092182 73.67516899 11.73216248 C72.32742657 11.73308813 72.32742657 11.73308813 70.95245703 11.73403248 C64.63904804 11.73747748 58.32568682 11.73167535 52.01228523 11.72224426 C44.31124589 11.71099259 36.6103695 11.71413052 28.90934867 11.73536724 C24.98462221 11.7458357 21.06016682 11.75007198 17.13544273 11.73677063 C13.53474646 11.72475259 9.93456965 11.73156176 6.33391976 11.75268084 C4.43135609 11.7591863 2.52875567 11.74629533 0.62623125 11.73245192 C-15.25520949 11.87556333 -29.46823633 17.34882873 -39.76933289 29.74398804 Z " fill="#000000" transform="translate(67.55448913574219,5.732574462890625)"/>
<path d="M0 0 C9.79897528 4.92435813 14.40739419 15.14700997 19.62109375 24.34765625 C20.60742906 26.07358976 21.59376543 27.79952267 22.58021545 29.52539062 C23.57574035 31.26926028 24.56873029 33.01455027 25.56103516 34.76025391 C27.39041424 37.97447712 29.22836799 41.18358979 31.0703125 44.390625 C32.14989658 46.27204534 33.22933209 48.15355094 34.30859375 50.03515625 C34.80568848 50.90164795 35.3027832 51.76813965 35.81494141 52.66088867 C36.27304199 53.46244385 36.73114258 54.26399902 37.203125 55.08984375 C37.59991455 55.78319824 37.9967041 56.47655273 38.40551758 57.19091797 C41.65476959 63.0580473 42.33525344 67.42009707 41.49609375 74.16015625 C39.40964465 81.23990343 35.91685406 85.28575696 29.6796875 89.1015625 C25.51929265 91.11849811 21.80363425 91.29677509 17.20214844 91.3371582 C15.92692322 91.34999344 14.651698 91.36282867 13.33782959 91.37605286 C11.94787995 91.38422186 10.55792589 91.39166529 9.16796875 91.3984375 C8.11277416 91.40455079 8.11277416 91.40455079 7.03626251 91.41078758 C3.3117757 91.43161447 -0.41267466 91.44592998 -4.13720703 91.45532227 C-7.96815466 91.46637181 -11.79851909 91.50076378 -15.62926102 91.54049397 C-18.5891217 91.56674088 -21.54884515 91.57502125 -24.50881195 91.57860374 C-25.92011193 91.58344995 -27.33140659 91.59500748 -28.74259186 91.61364174 C-37.75620633 91.72525424 -44.50940993 91.55685571 -51.52734375 85.37890625 C-52.19636719 84.528125 -52.19636719 84.528125 -52.87890625 83.66015625 C-53.57113281 82.809375 -53.57113281 82.809375 -54.27734375 81.94140625 C-58.11324947 76.37079157 -58.73138204 70.94335082 -57.94824219 64.21679688 C-56.57152366 57.84455685 -52.50827576 52.24184664 -49.11328125 46.78076172 C-46.72900648 42.89835799 -44.47162999 38.94495847 -42.19799805 34.99707031 C-39.84431372 30.9221102 -37.45605746 26.86801638 -35.06494141 22.81494141 C-33.72392415 20.53433121 -32.3981195 18.24592647 -31.078125 15.953125 C-24.0881969 4.07703357 -14.83345762 -4.9753407 0 0 Z " fill="#679D37" transform="translate(361.50390625,72.83984375)"/>
<path d="M0 0 C1.21523849 -0.01283524 2.43047699 -0.02567047 3.68254089 -0.03889465 C4.99813492 -0.04628159 6.31372894 -0.05366852 7.66918945 -0.0612793 C8.3404719 -0.06535482 9.01175434 -0.06943035 9.70337868 -0.07362938 C13.25928055 -0.09447597 16.81514403 -0.10878146 20.37109375 -0.11816406 C24.02832799 -0.12920148 27.68494926 -0.16357341 31.34196758 -0.20333576 C34.16715048 -0.22959689 36.99218971 -0.23786442 39.8174839 -0.24144554 C41.815967 -0.24863284 43.81435152 -0.27503409 45.81266785 -0.30183411 C54.66336172 -0.28079973 60.43524064 0.51727189 66.9074707 6.98950195 C70.76280557 12.60727562 72.9105834 17.30255206 72.0949707 24.17700195 C69.9769099 32.1234854 65.35736545 39.07313887 61.14575195 46.04418945 C58.81244603 49.92339843 56.5869856 53.85299479 54.38793945 57.80981445 C53.40660938 59.56129592 52.42393578 61.31201671 51.44082642 63.0625 C50.49208929 64.76237162 49.55835249 66.47058779 48.625 68.17895508 C44.22944363 75.97072913 39.50061178 82.5047066 31.0949707 86.17700195 C25.39887718 86.95004322 19.81129708 87.09616013 14.7199707 84.17700195 C6.65916464 77.95968364 2.17557272 68.38828616 -2.7175293 59.67700195 C-3.42615399 58.42422958 -4.13522259 57.1717082 -4.84472656 55.91943359 C-6.23608429 53.4616101 -7.62427346 51.0020434 -9.00952148 48.54077148 C-10.63653564 45.65347098 -12.27162414 42.77108514 -13.9128418 39.8918457 C-14.72299024 38.46620797 -15.53291186 37.04044131 -16.3425293 35.61450195 C-16.7012915 34.98543945 -17.06005371 34.35637695 -17.4296875 33.70825195 C-21.09370884 27.21080672 -21.86915508 21.57781508 -20.9050293 14.17700195 C-18.36814885 8.22542776 -14.56300371 4.19458831 -8.9050293 1.17700195 C-5.70473207 0.11023621 -3.36495517 0.03093997 0 0 Z " fill="#030001" transform="translate(396.905029296875,349.822998046875)"/>
<path d="M0 0 C7.25091974 3.37764362 11.73596801 8.17190791 15.08984375 15.35546875 C17.59464815 22.7800235 16.24830079 30.96719859 12.9609375 37.9375 C12.1978125 39.01 11.4346875 40.0825 10.6484375 41.1875 C8.63323763 43.77236396 8.63323763 43.77236396 9.4609375 46.4375 C11.20090436 49.33744477 13.07114978 52.13329886 14.9609375 54.9375 C17.46273942 62.44290576 16.758124 70.22652155 13.5234375 77.375 C9.4678963 84.64998741 3.6657089 88.21206423 -4.0390625 90.9375 C-7.9679217 91.39282536 -11.8988112 91.35350468 -15.8515625 91.375 C-16.90666016 91.40787109 -17.96175781 91.44074219 -19.04882812 91.47460938 C-26.03536848 91.52249221 -30.65950165 90.51727073 -36.0390625 85.9375 C-40.74978571 80.97884399 -42.27892102 76.49233983 -42.34545898 69.71362305 C-42.36144638 68.47851486 -42.37743378 67.24340668 -42.39390564 65.97087097 C-42.40028356 64.63032446 -42.40567591 63.28977295 -42.41015625 61.94921875 C-42.41913267 60.56305347 -42.42825469 59.17688912 -42.43751526 57.79072571 C-42.45397547 54.88821059 -42.46169976 51.98581039 -42.46459961 49.08325195 C-42.46997689 45.38104371 -42.50764032 41.67992994 -42.55334377 37.9780302 C-42.58322732 35.11507822 -42.5903256 32.25238608 -42.59132576 29.38929176 C-42.59550669 28.02542934 -42.60785494 26.66156461 -42.62884331 25.29785728 C-42.74244466 17.2777535 -42.56897136 11.1012334 -37.0390625 4.9375 C-27.85247684 -3.57689647 -11.62472243 -3.75349508 0 0 Z " fill="#010200" transform="translate(112.0390625,72.0625)"/>
<path d="M0 0 C9.79897528 4.92435813 14.40739419 15.14700997 19.62109375 24.34765625 C20.60742906 26.07358976 21.59376543 27.79952267 22.58021545 29.52539062 C23.57574035 31.26926028 24.56873029 33.01455027 25.56103516 34.76025391 C27.39041424 37.97447712 29.22836799 41.18358979 31.0703125 44.390625 C32.14989658 46.27204534 33.22933209 48.15355094 34.30859375 50.03515625 C34.80568848 50.90164795 35.3027832 51.76813965 35.81494141 52.66088867 C36.27304199 53.46244385 36.73114258 54.26399902 37.203125 55.08984375 C37.59991455 55.78319824 37.9967041 56.47655273 38.40551758 57.19091797 C41.65476959 63.0580473 42.33525344 67.42009707 41.49609375 74.16015625 C39.40964465 81.23990343 35.91685406 85.28575696 29.6796875 89.1015625 C25.51929265 91.11849811 21.80363425 91.29677509 17.20214844 91.3371582 C15.92692322 91.34999344 14.651698 91.36282867 13.33782959 91.37605286 C11.94787995 91.38422186 10.55792589 91.39166529 9.16796875 91.3984375 C8.11277416 91.40455079 8.11277416 91.40455079 7.03626251 91.41078758 C3.3117757 91.43161447 -0.41267466 91.44592998 -4.13720703 91.45532227 C-7.96815466 91.46637181 -11.79851909 91.50076378 -15.62926102 91.54049397 C-18.5891217 91.56674088 -21.54884515 91.57502125 -24.50881195 91.57860374 C-25.92011193 91.58344995 -27.33140659 91.59500748 -28.74259186 91.61364174 C-37.75620633 91.72525424 -44.50940993 91.55685571 -51.52734375 85.37890625 C-52.19636719 84.528125 -52.19636719 84.528125 -52.87890625 83.66015625 C-53.57113281 82.809375 -53.57113281 82.809375 -54.27734375 81.94140625 C-58.11324947 76.37079157 -58.73138204 70.94335082 -57.94824219 64.21679688 C-56.57152366 57.84455685 -52.50827576 52.24184664 -49.11328125 46.78076172 C-46.72900648 42.89835799 -44.47162999 38.94495847 -42.19799805 34.99707031 C-39.84431372 30.9221102 -37.45605746 26.86801638 -35.06494141 22.81494141 C-33.72392415 20.53433121 -32.3981195 18.24592647 -31.078125 15.953125 C-24.0881969 4.07703357 -14.83345762 -4.9753407 0 0 Z M-17.50390625 16.16015625 C-19.99097355 19.95210411 -22.12027754 23.91116383 -24.25390625 27.91015625 C-25.48419719 30.16356902 -26.71597516 32.41617054 -27.94921875 34.66796875 C-28.85075684 36.3236084 -28.85075684 36.3236084 -29.77050781 38.01269531 C-32.1422275 42.31920379 -34.61608091 46.55982983 -37.12890625 50.78515625 C-37.51788086 51.43967773 -37.90685547 52.09419922 -38.30761719 52.76855469 C-38.6740332 53.38504883 -39.04044922 54.00154297 -39.41796875 54.63671875 C-39.93568848 55.51336182 -39.93568848 55.51336182 -40.46386719 56.40771484 C-41.18263507 57.61882185 -41.91045763 58.82458432 -42.64550781 60.02587891 C-45.62692371 65.00328264 -46.23568046 67.48890612 -45.50390625 73.16015625 C-43.71026714 75.97019085 -42.4850969 77.66956093 -39.50390625 79.16015625 C-37.52935167 79.27709836 -35.55087727 79.32989637 -33.57299805 79.35302734 C-31.70547127 79.37712173 -31.70547127 79.37712173 -29.80021667 79.40170288 C-28.43452639 79.41318989 -27.06882847 79.42379851 -25.703125 79.43359375 C-25.01614847 79.43891743 -24.32917194 79.4442411 -23.62137794 79.4497261 C-19.98465719 79.47645131 -16.34797069 79.49582747 -12.71118164 79.51025391 C-9.70305967 79.52359153 -6.69561636 79.55143953 -3.68774414 79.59228516 C-0.05435848 79.6416247 3.57841178 79.66637625 7.21211815 79.67348099 C8.59522404 79.68019017 9.97831637 79.69540404 11.36123085 79.7193718 C13.29957932 79.75104711 15.23839969 79.74805665 17.17700195 79.74365234 C18.8300811 79.75578262 18.8300811 79.75578262 20.51655579 79.76815796 C24.46169337 78.9631169 25.95111088 77.19941614 28.49609375 74.16015625 C30.03002834 71.09228708 30.12014365 68.46619731 29.49609375 65.16015625 C27.79570471 61.3615134 25.62132454 57.88270728 23.43359375 54.34765625 C22.15372339 52.22339354 20.87512436 50.09836446 19.59765625 47.97265625 C18.92766602 46.86664063 18.25767578 45.760625 17.56738281 44.62109375 C15.43593321 41.0806942 13.37721521 37.5009131 11.33203125 33.91015625 C10.9937178 33.31713211 10.65540436 32.72410797 10.30683899 32.1131134 C8.66211746 29.22825863 7.02158337 26.34111808 5.38452148 23.4519043 C4.78841064 22.41074463 4.1922998 21.36958496 3.578125 20.296875 C3.05452393 19.37608154 2.53092285 18.45528809 1.99145508 17.5065918 C0.15479799 14.62461444 -1.26946859 12.57398678 -4.5546875 11.47265625 C-5.30105469 11.36953125 -6.04742187 11.26640625 -6.81640625 11.16015625 C-7.55503906 11.03640625 -8.29367187 10.91265625 -9.0546875 10.78515625 C-12.88602617 11.3717727 -15.05065087 13.32029764 -17.50390625 16.16015625 Z " fill="#020201" transform="translate(361.50390625,72.83984375)"/>
<path d="M0 0 C1.86936218 -0.00006042 1.86936218 -0.00006042 3.77648926 -0.00012207 C7.08270217 0.00660566 10.38771077 0.03659154 13.69366455 0.07556152 C15.7170225 0.09373448 17.7397539 0.09632063 19.76318359 0.09277344 C23.6549046 0.08612011 27.54585638 0.10122521 31.4375 0.125 C33.24547058 0.12530212 33.24547058 0.12530212 35.08996582 0.12561035 C36.77696594 0.14947815 36.77696594 0.14947815 38.49804688 0.17382812 C39.48446167 0.18224731 40.47087646 0.1906665 41.48718262 0.19934082 C44.72490988 0.66683409 46.59084266 1.66840997 49.21875 3.59375 C51.21875 6.59375 51.21875 6.59375 51.04663086 9.89306641 C50.18512453 13.74405813 48.95919297 16.40854797 46.97265625 19.8046875 C46.6457782 20.37087799 46.31890015 20.93706848 45.9821167 21.52041626 C44.92617265 23.34320577 43.85437834 25.15603361 42.78125 26.96875 C42.04820489 28.22345198 41.3160315 29.47866365 40.5847168 30.734375 C39.13706208 33.21662013 37.68315451 35.69503858 36.22460938 38.17089844 C34.49404904 41.12397243 32.79215729 44.0898679 31.109375 47.0703125 C30.25007986 48.57817051 29.39071224 50.08598723 28.53125 51.59375 C28.1587915 52.26196777 27.78633301 52.93018555 27.40258789 53.61865234 C25.17418255 57.46970268 22.94444605 60.13804081 19.21875 62.59375 C15.46307753 63.21969541 13.88772817 63.05157557 10.73120117 60.89135742 C8.11626349 58.50002728 6.69856677 56.43600008 5.01953125 53.33203125 C4.45459961 52.30287598 3.88966797 51.2737207 3.30761719 50.21337891 C2.72141602 49.12202637 2.13521484 48.03067383 1.53125 46.90625 C0.29441584 44.64894608 -0.94387317 42.39243872 -2.18359375 40.13671875 C-2.79058105 39.02731934 -3.39756836 37.91791992 -4.02294922 36.77490234 C-6.45267416 32.37899621 -8.97289622 28.04075539 -11.53125 23.71875 C-11.93690186 23.03079346 -12.34255371 22.34283691 -12.76049805 21.6340332 C-14.37572084 18.90779953 -16.02305617 16.23104075 -17.78125 13.59375 C-18.55400479 6.7493504 -18.55400479 6.7493504 -16.04516602 2.99755859 C-11.75353662 -1.11654525 -5.5487572 -0.0754769 0 0 Z " fill="#C0175A" transform="translate(405.78125,361.40625)"/>
<path d="M0 0 C0.78532608 -0.00570007 1.57065216 -0.01140015 2.379776 -0.01727295 C4.03987281 -0.0267124 5.69998826 -0.03325274 7.36010742 -0.03710938 C9.89730476 -0.04682578 12.43369547 -0.07786244 14.97070312 -0.109375 C16.58463061 -0.11590438 18.19856388 -0.1211551 19.8125 -0.125 C20.94859962 -0.1435202 20.94859962 -0.1435202 22.10765076 -0.16241455 C26.34430686 -0.14452583 28.90778678 0.15984973 31.97265625 3.203125 C31.66015625 6.578125 31.66015625 6.578125 30.97265625 10.203125 C27.32393455 12.63560613 24.59912308 12.48243624 20.3828125 12.4765625 C18.86132075 12.49684975 17.33983642 12.5177005 15.81835938 12.5390625 C13.42417116 12.56167005 11.03027642 12.57813692 8.63598633 12.58398438 C6.32189147 12.59351034 4.00911231 12.62728292 1.6953125 12.6640625 C0.98166031 12.65901703 0.26800812 12.65397156 -0.4672699 12.64877319 C-3.59293751 12.7105821 -5.74960818 13.04072054 -8.46313477 14.62744141 C-10.8618763 18.57729676 -10.70356071 22.41211403 -10.77734375 26.953125 C-10.80699219 27.84128906 -10.83664063 28.72945313 -10.8671875 29.64453125 C-10.93771293 31.83081949 -10.99049012 34.01605268 -11.02734375 36.203125 C-9.86686523 36.18741455 -8.70638672 36.1717041 -7.51074219 36.15551758 C-3.20205638 36.10118576 1.10659918 36.06676309 5.41552734 36.03833008 C7.27983697 36.02325086 9.14411117 36.00278439 11.00830078 35.97680664 C13.68921658 35.94038504 16.36966305 35.9233901 19.05078125 35.91015625 C20.29942963 35.88693047 20.29942963 35.88693047 21.57330322 35.86323547 C27.39725903 35.86154469 27.39725903 35.86154469 30.53027344 37.72143555 C31.00625977 38.21039307 31.48224609 38.69935059 31.97265625 39.203125 C31.66015625 42.578125 31.66015625 42.578125 30.97265625 46.203125 C27.03961153 48.82515481 23.70640556 48.45461027 19.1484375 48.3984375 C18.28703659 48.3956076 17.42563568 48.39277771 16.53813171 48.38986206 C13.78699856 48.37866737 11.036191 48.35356421 8.28515625 48.328125 C6.41992658 48.31809427 4.5546918 48.30896859 2.68945312 48.30078125 C-1.88293795 48.27873038 -6.45508564 48.24420549 -11.02734375 48.203125 C-10.91315708 50.78734959 -10.78642013 53.36992013 -10.65234375 55.953125 C-10.62140625 56.68273437 -10.59046875 57.41234375 -10.55859375 58.1640625 C-10.28901708 63.49223414 -10.28901708 63.49223414 -8.02734375 68.203125 C-5.00304798 69.71527289 -1.854528 69.38044074 1.46484375 69.4140625 C2.98959405 69.44213199 4.5143335 69.47079646 6.0390625 69.5 C8.44416999 69.54125567 10.84907494 69.57814054 13.25439453 69.60449219 C15.57497076 69.63212377 17.89462386 69.6779937 20.21484375 69.7265625 C21.29002762 69.7314418 21.29002762 69.7314418 22.38693237 69.73641968 C26.51748973 69.83795383 28.96634722 70.28594921 31.97265625 73.203125 C31.66015625 76.578125 31.66015625 76.578125 30.97265625 80.203125 C27.26804085 82.6728686 24.37717448 82.52627486 20.0859375 82.5390625 C19.31009811 82.5457193 18.53425873 82.5523761 17.73490906 82.55923462 C16.09160733 82.56935867 14.44826452 82.57405171 12.80493164 82.57373047 C10.31130442 82.5780794 7.81948307 82.61433069 5.32617188 82.65234375 C3.72526643 82.65821716 2.12435262 82.66218304 0.5234375 82.6640625 C-0.21331711 82.67843353 -0.95007172 82.69280457 -1.70915222 82.70761108 C-7.77848649 82.65504486 -12.98337379 80.93743955 -17.55986023 76.82650757 C-23.47822517 70.22085862 -23.34566824 63.12669642 -23.36328125 54.7421875 C-23.36993805 53.63765228 -23.37659485 52.53311707 -23.38345337 51.39511108 C-23.39355756 49.06355448 -23.39827108 46.7319691 -23.39794922 44.40039062 C-23.40232032 40.84716812 -23.43865987 37.29519033 -23.4765625 33.7421875 C-23.48243162 31.47135839 -23.48640038 29.20052341 -23.48828125 26.9296875 C-23.50265228 25.87423737 -23.51702332 24.81878723 -23.53182983 23.73135376 C-23.48621303 16.30985032 -22.41799069 10.6328197 -16.9921875 5.14453125 C-16.32316406 4.68949219 -15.65414062 4.23445313 -14.96484375 3.765625 C-14.29324219 3.29253906 -13.62164062 2.81945312 -12.9296875 2.33203125 C-8.75924241 -0.14283247 -4.69350753 0.02626574 0 0 Z " fill="#020000" transform="translate(194.02734375,352.796875)"/>
<path d="M0 0 C0.8856665 0.00572021 1.77133301 0.01144043 2.68383789 0.01733398 C9.38146791 0.20045063 14.91855861 1.04252005 20.1875 5.5 C23.93874564 9.52422361 25.99792385 13.4146624 26.5 18.9375 C26.1875 22.5 26.1875 22.5 24.5 24.9375 C21.73744945 26.80408821 20.45514255 27.08649994 17.1875 26.5 C14.33567287 24.26936294 13.66017533 22.31650754 13 18.8125 C12.84144531 18.00425781 12.68289062 17.19601562 12.51953125 16.36328125 C12.40996094 15.74839844 12.30039063 15.13351562 12.1875 14.5 C8.2926323 13.25888931 4.36123612 13.24321655 0.3125 13.1875 C-0.38230469 13.15849609 -1.07710937 13.12949219 -1.79296875 13.09960938 C-6.9698124 13.03623935 -9.84386045 14.22920991 -13.8125 17.5 C-15.66976616 21.21453232 -15.39751089 25.45579425 -14.8125 29.5 C-12.62227082 32.32424288 -10.98232793 33.91508603 -7.8125 35.5 C-5.60616494 35.65635445 -3.39713531 35.77563738 -1.1875 35.875 C8.91081461 36.57569938 15.26552206 38.88888709 22.1875 46.5 C26.5667892 52.31854998 27.15137049 58.39779642 26.1875 65.5 C24.35866576 73.00912071 19.60859792 78.3357732 13.1875 82.5 C7.54317218 84.62704965 2.20487495 84.89729454 -3.75 84.9375 C-4.60529297 84.97037109 -5.46058594 85.00324219 -6.34179688 85.03710938 C-12.73869144 85.09078278 -16.8445072 83.53533018 -21.8125 79.5 C-25.88411022 75.2140945 -27.87684951 71.27666604 -28.125 65.375 C-27.8125 61.5 -27.8125 61.5 -26.75 59.4375 C-23.57276699 57.90012919 -21.13861047 58.6533537 -17.8125 59.5 C-15.8125 62.5 -15.8125 62.5 -14.875 66.0625 C-14.13399023 69.74149406 -14.13399023 69.74149406 -10.8125 71.5 C-8.16431132 71.69637604 -5.64518068 71.77877803 -3 71.75 C-1.95102539 71.76160156 -1.95102539 71.76160156 -0.88085938 71.7734375 C3.50393397 71.75703042 7.17273077 71.29720322 11.1875 69.5 C13.79284897 64.407727 13.78780948 59.20139265 12.5625 53.6875 C10.60070778 50.56646693 8.71426511 50.42465071 5.1875 49.5 C2.77412636 49.3364269 0.35593301 49.23556509 -2.0625 49.1875 C-10.69063903 48.6879316 -17.20306035 46.59191232 -23.25 40.25 C-28.12960623 33.81779178 -29.53597633 27.17885853 -28.51953125 19.21484375 C-26.81535823 12.67119597 -22.49991352 7.10665248 -16.8125 3.5 C-11.10328675 0.55755933 -6.38749176 -0.04752867 0 0 Z " fill="#040001" transform="translate(123.8125,352.5)"/>
<path d="M0 0 C3.4375 0.8125 3.4375 0.8125 5.4375 2.8125 C5.68232727 5.39089966 5.68232727 5.39089966 5.67700195 8.69580078 C5.68073318 9.93113556 5.68446442 11.16647034 5.68830872 12.4392395 C5.68600565 13.10172825 5.68370258 13.764217 5.68132973 14.44678116 C5.67573648 16.52444395 5.68489703 18.60154831 5.6985321 20.6791687 C5.73564388 26.58691728 5.7542541 32.4944819 5.74291992 38.40234375 C5.73703732 42.01650584 5.7554873 45.62988933 5.78880882 49.24389267 C5.79672057 50.61605527 5.79554345 51.9883037 5.78478432 53.36044693 C5.724422 61.41124909 5.91192308 67.60885931 11.4375 73.8125 C14.69006382 76.87373654 17.55820329 77.03562353 21.875 77.1875 C26.46740247 77.02722824 29.68758178 76.66958054 33.4375 73.8125 C39.53056432 67.22377168 39.12519449 59.87140389 39.0390625 51.35546875 C39.04457045 49.96160139 39.05270207 48.56774218 39.06332397 47.17390442 C39.08608764 43.52696032 39.082032 39.8806187 39.06951904 36.23364258 C39.05112438 30.37998196 39.06114174 24.52666695 39.09537888 18.67308998 C39.10148125 16.63263486 39.08823419 14.59293191 39.07339478 12.55253601 C39.07887833 10.69964714 39.07887833 10.69964714 39.08447266 8.80932617 C39.08049469 7.72092941 39.07651672 6.63253265 39.07241821 5.51115417 C39.4375 2.8125 39.4375 2.8125 40.73690796 0.92597961 C42.4375 -0.1875 42.4375 -0.1875 46 0 C49.4375 0.8125 49.4375 0.8125 51.4375 2.8125 C51.69819641 5.33947754 51.69819641 5.33947754 51.7121582 8.57226562 C51.72645622 10.38555359 51.72645622 10.38555359 51.74104309 12.23547363 C51.74013168 13.54995483 51.73922028 14.86443604 51.73828125 16.21875 C51.74216985 17.58199189 51.74650486 18.94523256 51.75126648 20.30847168 C51.75874 23.17346101 51.7584321 26.0383272 51.75317383 28.90332031 C51.74741843 32.5502206 51.76420801 36.19660648 51.7875185 39.84342194 C51.80236628 42.66441735 51.80311199 45.48529261 51.80000877 48.30632019 C51.80076348 50.29688764 51.81456931 52.28743659 51.82868958 54.2779541 C51.77262447 65.38582489 50.31139616 74.55226781 42.4375 82.8125 C35.14957602 89.26329758 27.78940746 90.34336512 18.203125 90.18359375 C9.87111071 89.36249276 4.38458074 85.47998026 -0.9921875 79.265625 C-6.55335236 70.57803412 -7.14889256 63.031694 -7.05859375 52.8203125 C-7.05874899 51.38304572 -7.06024211 49.94577854 -7.06300354 48.5085144 C-7.06438006 45.5145998 -7.05194706 42.52116869 -7.02905273 39.52734375 C-7.0005147 35.69046081 -7.0034567 31.85437053 -7.01614285 28.01742744 C-7.02309128 25.05772109 -7.01532304 22.09819837 -7.00288582 19.13851547 C-6.99837398 17.72313007 -6.9980322 16.30772497 -7.00195122 14.8923378 C-7.00485879 12.9205423 -6.98621307 10.94875041 -6.96655273 8.97705078 C-6.96114975 7.85614044 -6.95574677 6.7352301 -6.95018005 5.58035278 C-6.5625 2.8125 -6.5625 2.8125 -5.25990295 0.91549683 C-3.5625 -0.1875 -3.5625 -0.1875 0 0 Z " fill="#010200" transform="translate(160.5625,71.1875)"/>
<path d="M0 0 C5.17069045 5.29813705 8.49859781 11.78594582 12.125 18.1875 C13.35240862 20.35013785 14.58400197 22.51040747 15.8203125 24.66796875 C16.35930176 25.61953857 16.89829102 26.5711084 17.45361328 27.55151367 C18.81423334 29.70586456 20.11338161 31.30841477 22 33 C22.26570801 32.29045166 22.53141602 31.58090332 22.80517578 30.84985352 C24.99746454 25.62088199 28.0216521 20.82770826 30.875 15.9375 C31.50019531 14.84888672 32.12539063 13.76027344 32.76953125 12.63867188 C33.37925781 11.59130859 33.98898437 10.54394531 34.6171875 9.46484375 C35.17003418 8.512146 35.72288086 7.55944824 36.29248047 6.57788086 C38.00083892 3.99873346 39.62159022 1.97888611 42 0 C45.6985004 0.14794002 47.35805573 0.35805573 50 3 C50.55777421 7.89058502 49.44748737 10.67830949 46.96484375 14.8515625 C46.31966797 15.95113281 45.67449219 17.05070312 45.00976562 18.18359375 C44.31936679 19.33094369 43.62861038 20.47807852 42.9375 21.625 C41.95233398 23.29369141 41.95233398 23.29369141 40.94726562 24.99609375 C39.9659668 26.65705078 39.9659668 26.65705078 38.96484375 28.3515625 C38.3102417 29.47272461 37.65563965 30.59388672 36.98120117 31.74902344 C35 35 35 35 32.96606445 37.79003906 C26.44834344 47.17900647 27.11849426 56.50962403 27.3125 67.5 C27.34406793 70.23171011 27.36527719 72.9623151 27.36308289 75.69421387 C27.36321227 77.38160048 27.38328159 79.06913823 27.42610168 80.75598145 C27.43988134 84.40693875 27.34500992 86.53437907 25.13745117 89.51367188 C23 91 23 91 20.4375 91.5 C18 91 18 91 16.34448242 89.47851562 C14.43125117 85.95152749 14.82511218 82.7281096 15.05078125 78.84375 C15.10451562 77.17742307 15.15220329 75.51089273 15.19458008 73.84423828 C15.22788925 72.53522552 15.22788925 72.53522552 15.26187134 71.19976807 C15.64080006 50.99343384 11.7063682 38.21086099 -0.02319336 21.79223633 C-7.67543414 10.98345804 -7.67543414 10.98345804 -8.5625 5.5625 C-8 3 -8 3 -6.8125 1.125 C-4.22278007 -0.48241237 -2.99882835 -0.64260608 0 0 Z " fill="#020301" transform="translate(244,72)"/>
<path d="M0 0 C3.4375 0.8125 3.4375 0.8125 5.4375 2.8125 C5.69578552 5.42454529 5.69578552 5.42454529 5.70874023 8.77514648 C5.71892685 10.02661972 5.72911346 11.27809296 5.73960876 12.56748962 C5.74054976 13.23808851 5.74149075 13.9086874 5.74246025 14.59960747 C5.74611694 16.6968918 5.76282316 18.79370026 5.78321838 20.8908844 C5.83870035 26.85368001 5.86932998 32.8165461 5.89379883 38.77954102 C5.90966505 42.42595759 5.93987412 46.07203688 5.97856331 49.71827888 C5.99022254 51.10851526 5.99614374 52.49881195 5.99624443 53.88909721 C5.99643625 55.83293162 6.01620018 57.77673442 6.03686523 59.72045898 C6.04193588 60.82695297 6.04700653 61.93344696 6.05223083 63.07347107 C6.22486135 65.81026078 6.22486135 65.81026078 7.74441528 67.66920471 C10.61946365 69.61064876 13.89388168 69.23248173 17.24609375 69.21875 C18.00922379 69.22958618 18.77235382 69.24042236 19.55860901 69.25158691 C21.99749226 69.28586212 24.43590752 69.30144272 26.875 69.3125 C30.08248133 69.32707226 33.28891832 69.36076624 36.49609375 69.40625 C37.23161972 69.40322876 37.96714569 69.40020752 38.72496033 69.39709473 C42.90638311 69.45830249 45.40250447 69.83614459 48.4375 72.8125 C48.125 76.1875 48.125 76.1875 47.4375 79.8125 C43.65190394 82.33623071 40.54249148 82.17132265 36.1484375 82.21875 C35.3305777 82.23015015 34.5127179 82.24155029 33.67007446 82.2532959 C31.93684043 82.27218808 30.20353469 82.28526082 28.47021484 82.29296875 C25.84211138 82.31228239 23.21720598 82.37427338 20.58984375 82.4375 C5.45861678 82.63544019 5.45861678 82.63544019 -0.88427734 77.88867188 C-7.25328144 70.00941514 -7.14479974 62.70409349 -7.05859375 52.91796875 C-7.05874894 51.47927274 -7.06024128 50.04057631 -7.06300354 48.60188293 C-7.06438142 45.60199268 -7.05192552 42.60258416 -7.02905273 39.6027832 C-7.00054049 35.75802476 -7.00344789 31.91405787 -7.01614285 28.06923962 C-7.02309224 25.10524216 -7.0153215 22.14142804 -7.00288582 19.17745399 C-6.99837309 17.7592775 -6.99803297 16.34108133 -7.00195122 14.92290306 C-7.00485908 12.94620894 -6.98621203 10.96951842 -6.96655273 8.99291992 C-6.96114975 7.86899338 -6.95574677 6.74506683 -6.95018005 5.58708191 C-6.5625 2.8125 -6.5625 2.8125 -5.25990295 0.914505 C-3.5625 -0.1875 -3.5625 -0.1875 0 0 Z " fill="#010000" transform="translate(326.5625,354.1875)"/>
<path d="M0 0 C3.4375 0.8125 3.4375 0.8125 5.4375 2.8125 C5.69578552 5.42454529 5.69578552 5.42454529 5.70874023 8.77514648 C5.71892685 10.02661972 5.72911346 11.27809296 5.73960876 12.56748962 C5.74054976 13.23808851 5.74149075 13.9086874 5.74246025 14.59960747 C5.74611694 16.6968918 5.76282316 18.79370026 5.78321838 20.8908844 C5.83870035 26.85368001 5.86932998 32.8165461 5.89379883 38.77954102 C5.90966505 42.42595759 5.93987412 46.07203688 5.97856331 49.71827888 C5.99022254 51.10851526 5.99614374 52.49881195 5.99624443 53.88909721 C5.99643625 55.83293162 6.01620018 57.77673442 6.03686523 59.72045898 C6.04193588 60.82695297 6.04700653 61.93344696 6.05223083 63.07347107 C6.22486135 65.81026078 6.22486135 65.81026078 7.74441528 67.66920471 C10.61946365 69.61064876 13.89388168 69.23248173 17.24609375 69.21875 C18.00922379 69.22958618 18.77235382 69.24042236 19.55860901 69.25158691 C21.99749226 69.28586212 24.43590752 69.30144272 26.875 69.3125 C30.08248133 69.32707226 33.28891832 69.36076624 36.49609375 69.40625 C37.23161972 69.40322876 37.96714569 69.40020752 38.72496033 69.39709473 C42.90638311 69.45830249 45.40250447 69.83614459 48.4375 72.8125 C48.125 76.1875 48.125 76.1875 47.4375 79.8125 C43.65190394 82.33623071 40.54249148 82.17132265 36.1484375 82.21875 C35.3305777 82.23015015 34.5127179 82.24155029 33.67007446 82.2532959 C31.93684043 82.27218808 30.20353469 82.28526082 28.47021484 82.29296875 C25.84211138 82.31228239 23.21720598 82.37427338 20.58984375 82.4375 C5.45861678 82.63544019 5.45861678 82.63544019 -0.88427734 77.88867188 C-7.25328144 70.00941514 -7.14479974 62.70409349 -7.05859375 52.91796875 C-7.05874894 51.47927274 -7.06024128 50.04057631 -7.06300354 48.60188293 C-7.06438142 45.60199268 -7.05192552 42.60258416 -7.02905273 39.6027832 C-7.00054049 35.75802476 -7.00344789 31.91405787 -7.01614285 28.06923962 C-7.02309224 25.10524216 -7.0153215 22.14142804 -7.00288582 19.17745399 C-6.99837309 17.7592775 -6.99803297 16.34108133 -7.00195122 14.92290306 C-7.00485908 12.94620894 -6.98621203 10.96951842 -6.96655273 8.99291992 C-6.96114975 7.86899338 -6.95574677 6.74506683 -6.95018005 5.58708191 C-6.5625 2.8125 -6.5625 2.8125 -5.25990295 0.914505 C-3.5625 -0.1875 -3.5625 -0.1875 0 0 Z " fill="#010000" transform="translate(251.5625,354.1875)"/>
<path d="M0 0 C3.85390817 -0.11693501 7.70735512 -0.1874962 11.5625 -0.25 C12.64853516 -0.28351563 13.73457031 -0.31703125 14.85351562 -0.3515625 C21.50740375 -0.43246084 25.61425195 -0.01711702 31 4 C34.19863734 7.61136473 34.52652611 11.05257975 34.34765625 15.71875 C33.74812327 19.65276419 32.4245717 21.80977407 30 25 C24.88013248 28.34006671 20.35469709 28.51830533 14.4375 28.5 C13.60025391 28.52835938 12.76300781 28.55671875 11.90039062 28.5859375 C7.82517446 28.59884396 5.5010549 28.29260076 1.9296875 26.20703125 C-1.01514059 21.31289388 -0.53448427 16.77808851 -0.3125 11.1875 C-0.28994141 10.11306641 -0.26738281 9.03863281 -0.24414062 7.93164062 C-0.18535598 5.2863315 -0.10323957 2.64388587 0 0 Z " fill="#89C149" transform="translate(82,123)"/>
<path d="M0 0 C0.825 -0.01095703 1.65 -0.02191406 2.5 -0.03320312 C8.34141707 0.03633755 11.82635613 1.22269353 16.625 4.5625 C19.82363734 8.17386473 20.15152611 11.61507975 19.97265625 16.28125 C19.37312327 20.21526419 18.0495717 22.37227407 15.625 25.5625 C9.94921371 29.58596035 3.90674014 28.90289332 -2.75 28.75 C-4.42642578 28.72969727 -4.42642578 28.72969727 -6.13671875 28.70898438 C-8.88331211 28.67377164 -11.62890289 28.62452096 -14.375 28.5625 C-14.52060195 24.83374612 -14.60917043 21.10572566 -14.6875 17.375 C-14.72939453 16.31990234 -14.77128906 15.26480469 -14.81445312 14.17773438 C-14.88902964 9.44958303 -14.92091574 6.46684526 -12.44140625 2.359375 C-8.19948702 -0.12633563 -4.83258547 -0.13839448 0 0 Z " fill="#89C149" transform="translate(96.375,82.4375)"/>
</svg>
